G04 #@! TF.GenerationSoftware,KiCad,Pcbnew,10.0.1*
G04 #@! TF.CreationDate,2026-09-26T23:24:24+03:00*
G04 #@! TF.ProjectId,frank_next,6672616e-6b5f-46e6-9578-742e6b696361,1.00*
G04 #@! TF.SameCoordinates,Original*
G04 #@! TF.FileFunction,Copper,L4,Bot*
G04 #@! TF.FilePolarity,Positive*
%FSLAX46Y46*%
G04 Gerber Fmt 4.6, Leading zero omitted, Abs format (unit mm)*
G04 Created by KiCad (PCBNEW 10.0.1) date 2026-09-26 23:24:24*
%MOMM*%
%LPD*%
G01*
G04 APERTURE LIST*
G04 APERTURE END LIST*
G04 #@! TA.AperFunction,Conductor*
G36*
X209475908Y-67804843D02*
G01*
X209488597Y-67808966D01*
X209538096Y-67844928D01*
X209541091Y-67849050D01*
X209560000Y-67907240D01*
X209560000Y-96533282D01*
X209541093Y-96591473D01*
X209491593Y-96627437D01*
X209430407Y-96627437D01*
X209390996Y-96603286D01*
X209320992Y-96533282D01*
X208597636Y-95809926D01*
X208597629Y-95809920D01*
X208597627Y-95809918D01*
X208571763Y-95789074D01*
X208571741Y-95789058D01*
X208527411Y-95760568D01*
X208527404Y-95760565D01*
X208454427Y-95736276D01*
X208384729Y-95731291D01*
X208377341Y-95730939D01*
X208377340Y-95730939D01*
X208299117Y-95749917D01*
X208299114Y-95749918D01*
X208237795Y-95783402D01*
X208237793Y-95783403D01*
X208202370Y-95809920D01*
X205746786Y-98265504D01*
X205692269Y-98293281D01*
X205676782Y-98294500D01*
X205174000Y-98294500D01*
X205144992Y-98297618D01*
X205140935Y-98298055D01*
X205089436Y-98309259D01*
X205089435Y-98309259D01*
X205020659Y-98343686D01*
X205020653Y-98343690D01*
X204967861Y-98389435D01*
X204962379Y-98394419D01*
X204920485Y-98463146D01*
X204900798Y-98530193D01*
X204894500Y-98573995D01*
X204894500Y-99076782D01*
X204875593Y-99134973D01*
X204865504Y-99146785D01*
X204509923Y-99502366D01*
X204489074Y-99528236D01*
X204489058Y-99528258D01*
X204460568Y-99572588D01*
X204460565Y-99572595D01*
X204436276Y-99645571D01*
X204436276Y-99645572D01*
X204431291Y-99715270D01*
X204430939Y-99722658D01*
X204430939Y-99722659D01*
X204449917Y-99800882D01*
X204449918Y-99800885D01*
X204483402Y-99862204D01*
X204483403Y-99862206D01*
X204509920Y-99897629D01*
X204509923Y-99897632D01*
X204509926Y-99897636D01*
X204865505Y-100253215D01*
X204893281Y-100307730D01*
X204894500Y-100323217D01*
X204894500Y-111376782D01*
X204875593Y-111434973D01*
X204865504Y-111446786D01*
X202246786Y-114065504D01*
X202192269Y-114093281D01*
X202176782Y-114094500D01*
X193823218Y-114094500D01*
X193765027Y-114075593D01*
X193753214Y-114065504D01*
X192002976Y-112315266D01*
X190197636Y-110509926D01*
X190197629Y-110509920D01*
X190197627Y-110509918D01*
X190171763Y-110489074D01*
X190171741Y-110489058D01*
X190127411Y-110460568D01*
X190127404Y-110460565D01*
X190054427Y-110436276D01*
X189984729Y-110431291D01*
X189977341Y-110430939D01*
X189977340Y-110430939D01*
X189950000Y-110437572D01*
X189950000Y-108900000D01*
X184100000Y-108900000D01*
X180550000Y-108900000D01*
X180550000Y-112450000D01*
X188176738Y-112450000D01*
X188183402Y-112462204D01*
X188183403Y-112462206D01*
X188209920Y-112497629D01*
X188209923Y-112497632D01*
X188209926Y-112497636D01*
X191765505Y-116053215D01*
X191793281Y-116107730D01*
X191794500Y-116123217D01*
X191794500Y-116626000D01*
X191798054Y-116659055D01*
X191798055Y-116659064D01*
X191809259Y-116710563D01*
X191809259Y-116710564D01*
X191809259Y-116710565D01*
X191809260Y-116710566D01*
X191843687Y-116779342D01*
X191889442Y-116832146D01*
X191894420Y-116837621D01*
X191925078Y-116856309D01*
X191963146Y-116879514D01*
X191963147Y-116879514D01*
X191963150Y-116879516D01*
X192030189Y-116899201D01*
X192052094Y-116902350D01*
X192073996Y-116905500D01*
X192074000Y-116905500D01*
X192576782Y-116905500D01*
X192634973Y-116924407D01*
X192646785Y-116934496D01*
X193002366Y-117290076D01*
X193028236Y-117310925D01*
X193028258Y-117310941D01*
X193072588Y-117339431D01*
X193072591Y-117339432D01*
X193072594Y-117339434D01*
X193145574Y-117363724D01*
X193215266Y-117368708D01*
X193222658Y-117369060D01*
X193222659Y-117369060D01*
X193244657Y-117363723D01*
X193300881Y-117350083D01*
X193362204Y-117316598D01*
X193397636Y-117290074D01*
X193753212Y-116934496D01*
X193807729Y-116906719D01*
X193823216Y-116905500D01*
X202176782Y-116905500D01*
X202234973Y-116924407D01*
X202246785Y-116934496D01*
X202602366Y-117290076D01*
X202628236Y-117310925D01*
X202628258Y-117310941D01*
X202672588Y-117339431D01*
X202672591Y-117339432D01*
X202672594Y-117339434D01*
X202745574Y-117363724D01*
X202815266Y-117368708D01*
X202822658Y-117369060D01*
X202822659Y-117369060D01*
X202844657Y-117363723D01*
X202900881Y-117350083D01*
X202962204Y-117316598D01*
X202997636Y-117290074D01*
X203353212Y-116934496D01*
X203407729Y-116906719D01*
X203423216Y-116905500D01*
X203925995Y-116905500D01*
X203926000Y-116905500D01*
X203959055Y-116901946D01*
X204010566Y-116890740D01*
X204079342Y-116856313D01*
X204132146Y-116810558D01*
X204137621Y-116805580D01*
X204179516Y-116736850D01*
X204199201Y-116669811D01*
X204202700Y-116645471D01*
X204205500Y-116626004D01*
X204205500Y-116123217D01*
X204224407Y-116065026D01*
X204234496Y-116053213D01*
X206853214Y-113434496D01*
X206907731Y-113406719D01*
X206923218Y-113405500D01*
X207425995Y-113405500D01*
X207426000Y-113405500D01*
X207459055Y-113401946D01*
X207510566Y-113390740D01*
X207579342Y-113356313D01*
X207632146Y-113310558D01*
X207637621Y-113305580D01*
X207679516Y-113236850D01*
X207699201Y-113169811D01*
X207702700Y-113145471D01*
X207705500Y-113126004D01*
X207705500Y-112623216D01*
X207724407Y-112565025D01*
X207734497Y-112553212D01*
X207886828Y-112400881D01*
X208090074Y-112197636D01*
X208110933Y-112171753D01*
X208138887Y-112128258D01*
X208139431Y-112127411D01*
X208139431Y-112127410D01*
X208139434Y-112127406D01*
X208163724Y-112054426D01*
X208168708Y-111984734D01*
X208169060Y-111977342D01*
X208150083Y-111899119D01*
X208150082Y-111899117D01*
X208150081Y-111899114D01*
X208116597Y-111837795D01*
X208116596Y-111837793D01*
X208090076Y-111802366D01*
X207734496Y-111446785D01*
X207706719Y-111392269D01*
X207705500Y-111376782D01*
X207705500Y-100323217D01*
X207724407Y-100265026D01*
X207734496Y-100253213D01*
X209390996Y-98596713D01*
X209445513Y-98568936D01*
X209505945Y-98578507D01*
X209549210Y-98621772D01*
X209560000Y-98666717D01*
X209560000Y-121665319D01*
X209555154Y-121695912D01*
X209551032Y-121708598D01*
X209515080Y-121758089D01*
X209510959Y-121761084D01*
X209452771Y-121780000D01*
X110674680Y-121780000D01*
X110644087Y-121775154D01*
X110631401Y-121771032D01*
X110631396Y-121771029D01*
X110631390Y-121771029D01*
X110631388Y-121771028D01*
X110604769Y-121751682D01*
X110581901Y-121735068D01*
X110581894Y-121735058D01*
X110578900Y-121730936D01*
X110560000Y-121672756D01*
X110560000Y-109021505D01*
X149250253Y-109021505D01*
X149250254Y-109021505D01*
X152450252Y-109021505D01*
X152450253Y-109021505D01*
X152450253Y-106871505D01*
X152450252Y-106871505D01*
X149250254Y-106871505D01*
X149250253Y-106871505D01*
X149250253Y-109021505D01*
X110560000Y-109021505D01*
X110560000Y-96035197D01*
X201243822Y-96035197D01*
X201243823Y-96035197D01*
X203393821Y-96035197D01*
X203393822Y-96035197D01*
X203393822Y-92835197D01*
X203393821Y-92835197D01*
X201243823Y-92835197D01*
X201243822Y-92835197D01*
X201243822Y-96035197D01*
X110560000Y-96035197D01*
X110560000Y-69173995D01*
X191594500Y-69173995D01*
X191594500Y-69174000D01*
X191594500Y-71426000D01*
X191598054Y-71459055D01*
X191598055Y-71459064D01*
X191609259Y-71510563D01*
X191609259Y-71510564D01*
X191609259Y-71510565D01*
X191609260Y-71510566D01*
X191643687Y-71579342D01*
X191689442Y-71632146D01*
X191694420Y-71637621D01*
X191725078Y-71656309D01*
X191763146Y-71679514D01*
X191763147Y-71679514D01*
X191763150Y-71679516D01*
X191830189Y-71699201D01*
X191852094Y-71702350D01*
X191873996Y-71705500D01*
X191874000Y-71705500D01*
X197625995Y-71705500D01*
X197626000Y-71705500D01*
X197659055Y-71701946D01*
X197710566Y-71690740D01*
X197779342Y-71656313D01*
X197832146Y-71610558D01*
X197837621Y-71605580D01*
X197879516Y-71536850D01*
X197899201Y-71469811D01*
X197902700Y-71445471D01*
X197905500Y-71426004D01*
X197905500Y-69174004D01*
X197905499Y-69173995D01*
X197901946Y-69140945D01*
X197890740Y-69089434D01*
X197856313Y-69020658D01*
X197810558Y-68967854D01*
X197805580Y-68962379D01*
X197736853Y-68920485D01*
X197736850Y-68920484D01*
X197669811Y-68900799D01*
X197669807Y-68900798D01*
X197669806Y-68900798D01*
X197626004Y-68894500D01*
X197626000Y-68894500D01*
X191874000Y-68894500D01*
X191844992Y-68897618D01*
X191840935Y-68898055D01*
X191789436Y-68909259D01*
X191789435Y-68909259D01*
X191720659Y-68943686D01*
X191720653Y-68943690D01*
X191667861Y-68989435D01*
X191662379Y-68994419D01*
X191620485Y-69063146D01*
X191600798Y-69130193D01*
X191594500Y-69173995D01*
X110560000Y-69173995D01*
X110560000Y-67914680D01*
X110564843Y-67884094D01*
X110568965Y-67871405D01*
X110604923Y-67821906D01*
X110605522Y-67821471D01*
X110609063Y-67818900D01*
X110667243Y-67800000D01*
X209445320Y-67800000D01*
X209475908Y-67804843D01*
G37*
G04 #@! TD.AperFunction*
G04 #@! TA.AperFunction,Conductor*
G36*
X205050000Y-100217800D02*
G01*
X204619881Y-99787681D01*
X204586396Y-99726358D01*
X204591380Y-99656666D01*
X204619881Y-99612319D01*
X205050000Y-99182200D01*
X205050000Y-100217800D01*
G37*
G04 #@! TD.AperFunction*
G04 #@! TA.AperFunction,Conductor*
G36*
X208443334Y-95891380D02*
G01*
X208487681Y-95919881D01*
X210080119Y-97512319D01*
X210113604Y-97573642D01*
X210108620Y-97643334D01*
X210080119Y-97687681D01*
X207550000Y-100217799D01*
X207550000Y-98450000D01*
X205782200Y-98450000D01*
X208312319Y-95919881D01*
X208373642Y-95886396D01*
X208443334Y-95891380D01*
G37*
G04 #@! TD.AperFunction*
G04 #@! TA.AperFunction,Conductor*
G36*
X189909191Y-108918907D02*
G01*
X189945155Y-108968407D01*
X189950000Y-108999000D01*
X189950000Y-110309982D01*
X189931093Y-110368173D01*
X189881593Y-110404137D01*
X189877943Y-110405245D01*
X189876427Y-110405673D01*
X189875155Y-110406033D01*
X189850566Y-110419460D01*
X189813833Y-110439518D01*
X189813829Y-110439521D01*
X189767007Y-110474572D01*
X188174566Y-112067014D01*
X188147004Y-112101215D01*
X188118506Y-112145558D01*
X188113063Y-112154523D01*
X188113060Y-112154529D01*
X188086403Y-112242003D01*
X188081419Y-112311690D01*
X188081163Y-112336835D01*
X188081306Y-112337906D01*
X188081143Y-112338792D01*
X188081091Y-112343916D01*
X188080204Y-112343906D01*
X188070261Y-112398086D01*
X188025953Y-112440281D01*
X187983176Y-112450000D01*
X180649000Y-112450000D01*
X180590809Y-112431093D01*
X180554845Y-112381593D01*
X180550000Y-112351000D01*
X180550000Y-108999000D01*
X180568907Y-108940809D01*
X180618407Y-108904845D01*
X180649000Y-108900000D01*
X189851000Y-108900000D01*
X189909191Y-108918907D01*
G37*
G04 #@! TD.AperFunction*
G04 #@! TA.AperFunction,Conductor*
G36*
X207550000Y-113126000D02*
G01*
X207530315Y-113193039D01*
X207477511Y-113238794D01*
X207426000Y-113250000D01*
X206817800Y-113250000D01*
X207550000Y-112517800D01*
X207550000Y-113126000D01*
G37*
G04 #@! TD.AperFunction*
G04 #@! TA.AperFunction,Conductor*
G36*
X207550000Y-111482200D02*
G01*
X206300000Y-110232200D01*
X205050000Y-111482200D01*
X205050000Y-106550000D01*
X207550000Y-106550000D01*
X207550000Y-111482200D01*
G37*
G04 #@! TD.AperFunction*
G04 #@! TA.AperFunction,Conductor*
G36*
X207550000Y-106550000D02*
G01*
X205050000Y-106550000D01*
X205050000Y-98574000D01*
X205069685Y-98506961D01*
X205122489Y-98461206D01*
X205174000Y-98450000D01*
X205782200Y-98450000D01*
X207550000Y-98450000D01*
X207550000Y-106550000D01*
G37*
G04 #@! TD.AperFunction*
G04 #@! TA.AperFunction,Conductor*
G36*
X197693039Y-69069685D02*
G01*
X197738794Y-69122489D01*
X197750000Y-69174000D01*
X197750000Y-71426000D01*
X197730315Y-71493039D01*
X197677511Y-71538794D01*
X197626000Y-71550000D01*
X191874000Y-71550000D01*
X191806961Y-71530315D01*
X191761206Y-71477511D01*
X191750000Y-71426000D01*
X191750000Y-69174000D01*
X191769685Y-69106961D01*
X191822489Y-69061206D01*
X191874000Y-69050000D01*
X197626000Y-69050000D01*
X197693039Y-69069685D01*
G37*
G04 #@! TD.AperFunction*
G04 #@! TA.AperFunction,Conductor*
G36*
X204050000Y-116017799D02*
G01*
X204050000Y-116626000D01*
X204030315Y-116693039D01*
X203977511Y-116738794D01*
X203926000Y-116750000D01*
X192074000Y-116750000D01*
X192006961Y-116730315D01*
X191961206Y-116677511D01*
X191950000Y-116626000D01*
X191950000Y-116017800D01*
X191950000Y-114250000D01*
X204050000Y-114250000D01*
X204050000Y-116017799D01*
G37*
G04 #@! TD.AperFunction*
G04 #@! TA.AperFunction,Conductor*
G36*
X193287681Y-117180119D02*
G01*
X193226358Y-117213604D01*
X193156666Y-117208620D01*
X193112319Y-117180119D01*
X192682200Y-116750000D01*
X193717799Y-116750000D01*
X193287681Y-117180119D01*
G37*
G04 #@! TD.AperFunction*
G04 #@! TA.AperFunction,Conductor*
G36*
X190043334Y-110591380D02*
G01*
X190087681Y-110619881D01*
X193717800Y-114250000D01*
X191950000Y-114250000D01*
X191950000Y-116017800D01*
X188319881Y-112387681D01*
X188286396Y-112326358D01*
X188291380Y-112256666D01*
X188319881Y-112212319D01*
X189912319Y-110619881D01*
X189973642Y-110586396D01*
X190043334Y-110591380D01*
G37*
G04 #@! TD.AperFunction*
G04 #@! TA.AperFunction,Conductor*
G36*
X202887681Y-117180119D02*
G01*
X202826358Y-117213604D01*
X202756666Y-117208620D01*
X202712319Y-117180119D01*
X202282200Y-116750000D01*
X203317799Y-116750000D01*
X202887681Y-117180119D01*
G37*
G04 #@! TD.AperFunction*
G04 #@! TA.AperFunction,Conductor*
G36*
X207550000Y-111482200D02*
G01*
X207980119Y-111912319D01*
X208013604Y-111973642D01*
X208008620Y-112043334D01*
X207980119Y-112087681D01*
X207550000Y-112517799D01*
X207550000Y-112517800D01*
X206817800Y-113250000D01*
X206817799Y-113250000D01*
X204050000Y-116017799D01*
X204050000Y-114250000D01*
X202282200Y-114250000D01*
X206300000Y-110232200D01*
X207550000Y-111482200D01*
G37*
G04 #@! TD.AperFunction*
M02*
