G04 #@! TF.GenerationSoftware,KiCad,Pcbnew,10.0.1*
G04 #@! TF.CreationDate,2026-09-26T23:24:23+03:00*
G04 #@! TF.ProjectId,frank_next,6672616e-6b5f-46e6-9578-742e6b696361,1.00*
G04 #@! TF.SameCoordinates,Original*
G04 #@! TF.FileFunction,Copper,L3,Inr*
G04 #@! TF.FilePolarity,Positive*
%FSLAX46Y46*%
G04 Gerber Fmt 4.6, Leading zero omitted, Abs format (unit mm)*
G04 Created by KiCad (PCBNEW 10.0.1) date 2026-09-26 23:24:23*
%MOMM*%
%LPD*%
G01*
G04 APERTURE LIST*
G04 APERTURE END LIST*
G04 #@! TA.AperFunction,Conductor*
G36*
X207800000Y-106800000D02*
G01*
X204800000Y-106800000D01*
X204800000Y-100321300D01*
X206300000Y-101821300D01*
X207800000Y-100321300D01*
X207800000Y-106800000D01*
G37*
G04 #@! TD.AperFunction*
G04 #@! TA.AperFunction,Conductor*
G36*
X204800000Y-99078700D02*
G01*
X204800000Y-98324000D01*
X204819685Y-98256961D01*
X204872489Y-98211206D01*
X204924000Y-98200000D01*
X205678700Y-98200000D01*
X204800000Y-99078700D01*
G37*
G04 #@! TD.AperFunction*
G04 #@! TA.AperFunction,Conductor*
G36*
X170299999Y-88399999D02*
G01*
X170299999Y-88400000D01*
X170462318Y-88562319D01*
X170495803Y-88623642D01*
X170490819Y-88693334D01*
X170462318Y-88737681D01*
X165937681Y-93262319D01*
X165876358Y-93295804D01*
X165806666Y-93290820D01*
X165762319Y-93262319D01*
X164271981Y-91771981D01*
X164238496Y-91710658D01*
X164243480Y-91640966D01*
X164271981Y-91596619D01*
X167829100Y-88039500D01*
X168884300Y-86984300D01*
X170299999Y-88399999D01*
G37*
G04 #@! TD.AperFunction*
G04 #@! TA.AperFunction,Conductor*
G36*
X170329100Y-82841200D02*
G01*
X170407119Y-82919219D01*
X170440604Y-82980542D01*
X170435620Y-83050234D01*
X170407119Y-83094581D01*
X170329100Y-83172599D01*
X170329100Y-83172600D01*
X169080600Y-84421100D01*
X167752581Y-83093081D01*
X167719096Y-83031758D01*
X167724080Y-82962066D01*
X167752581Y-82917719D01*
X169079100Y-81591200D01*
X170329100Y-82841200D01*
G37*
G04 #@! TD.AperFunction*
G04 #@! TA.AperFunction,Conductor*
G36*
X195783234Y-69014980D02*
G01*
X195827581Y-69043481D01*
X199661200Y-72877100D01*
X198300000Y-74238300D01*
X194378700Y-70317000D01*
X195652219Y-69043481D01*
X195713542Y-69009996D01*
X195783234Y-69014980D01*
G37*
G04 #@! TD.AperFunction*
G04 #@! TA.AperFunction,Conductor*
G36*
X126117800Y-116182200D02*
G01*
X124867800Y-117432200D01*
X124867799Y-117432200D01*
X124437681Y-117862318D01*
X124376358Y-117895803D01*
X124306666Y-117890819D01*
X124262319Y-117862318D01*
X115799207Y-109399206D01*
X115799205Y-109399205D01*
X117696070Y-109400879D01*
X117697517Y-107761917D01*
X126117800Y-116182200D01*
G37*
G04 #@! TD.AperFunction*
G04 #@! TA.AperFunction,Conductor*
G36*
X209021300Y-83000000D02*
G01*
X206900000Y-83000000D01*
X206900000Y-85121300D01*
X196266381Y-74487681D01*
X196232896Y-74426358D01*
X196237880Y-74356666D01*
X196266381Y-74312319D01*
X197320200Y-73258500D01*
X198300000Y-74238300D01*
X199279800Y-73258500D01*
X209021300Y-83000000D01*
G37*
G04 #@! TD.AperFunction*
G04 #@! TA.AperFunction,Conductor*
G36*
X210433619Y-84412319D02*
G01*
X210467104Y-84473642D01*
X210462120Y-84543334D01*
X210433619Y-84587681D01*
X209900000Y-85121299D01*
X209900000Y-83878700D01*
X210433619Y-84412319D01*
G37*
G04 #@! TD.AperFunction*
G04 #@! TA.AperFunction,Conductor*
G36*
X209843039Y-83019685D02*
G01*
X209888794Y-83072489D01*
X209900000Y-83124000D01*
X209900000Y-98221299D01*
X209900000Y-98976000D01*
X209880315Y-99043039D01*
X209827511Y-99088794D01*
X209776000Y-99100000D01*
X206900000Y-99100000D01*
X206900000Y-83000000D01*
X209021300Y-83000000D01*
X209776000Y-83000000D01*
X209843039Y-83019685D01*
G37*
G04 #@! TD.AperFunction*
G04 #@! TA.AperFunction,Conductor*
G36*
X195543039Y-117019685D02*
G01*
X195588794Y-117072489D01*
X195600000Y-117124000D01*
X195600000Y-119876000D01*
X195580315Y-119943039D01*
X195527511Y-119988794D01*
X195476000Y-120000000D01*
X191195900Y-120000000D01*
X191128861Y-119980315D01*
X191083106Y-119927511D01*
X191071900Y-119876000D01*
X191071900Y-117722500D01*
X192424725Y-119075325D01*
X193803525Y-117696425D01*
X193107100Y-117000000D01*
X195476000Y-117000000D01*
X195543039Y-117019685D01*
G37*
G04 #@! TD.AperFunction*
G04 #@! TA.AperFunction,Conductor*
G36*
X145082200Y-115850000D02*
G01*
X144474000Y-115850000D01*
X144406961Y-115830315D01*
X144361206Y-115777511D01*
X144350000Y-115726000D01*
X144350000Y-115117800D01*
X145082200Y-115850000D01*
G37*
G04 #@! TD.AperFunction*
G04 #@! TA.AperFunction,Conductor*
G36*
X146850000Y-114082200D02*
G01*
X145600000Y-112832200D01*
X144350000Y-114082200D01*
X144350000Y-110117800D01*
X145600000Y-111367800D01*
X146850000Y-110117800D01*
X146850000Y-114082200D01*
G37*
G04 #@! TD.AperFunction*
G04 #@! TA.AperFunction,Conductor*
G36*
X146793039Y-108369685D02*
G01*
X146838794Y-108422489D01*
X146850000Y-108474000D01*
X146850000Y-109082200D01*
X146117800Y-108350000D01*
X146726000Y-108350000D01*
X146793039Y-108369685D01*
G37*
G04 #@! TD.AperFunction*
G04 #@! TA.AperFunction,Conductor*
G36*
X162366181Y-72534919D02*
G01*
X162304858Y-72568404D01*
X162235166Y-72563420D01*
X162190819Y-72534919D01*
X162167300Y-72511400D01*
X162389699Y-72511400D01*
X162366181Y-72534919D01*
G37*
G04 #@! TD.AperFunction*
G04 #@! TA.AperFunction,Conductor*
G36*
X164943333Y-67337879D02*
G01*
X164987680Y-67366380D01*
X166173518Y-68552218D01*
X166207003Y-68613541D01*
X166202019Y-68683233D01*
X166173518Y-68727580D01*
X165926099Y-68974999D01*
X165926100Y-68975000D01*
X163400000Y-68975000D01*
X163400000Y-70011400D01*
X162167300Y-70011400D01*
X164812322Y-67366377D01*
X164873641Y-67332895D01*
X164943333Y-67337879D01*
G37*
G04 #@! TD.AperFunction*
G04 #@! TA.AperFunction,Conductor*
G36*
X193803525Y-117696425D02*
G01*
X192424725Y-119075325D01*
X186109000Y-112759600D01*
X187487900Y-111380800D01*
X193803525Y-117696425D01*
G37*
G04 #@! TD.AperFunction*
G04 #@! TA.AperFunction,Conductor*
G36*
X178433181Y-117088119D02*
G01*
X178371858Y-117121604D01*
X178302166Y-117116620D01*
X178257819Y-117088119D01*
X177724200Y-116554500D01*
X178966799Y-116554500D01*
X178433181Y-117088119D01*
G37*
G04 #@! TD.AperFunction*
G04 #@! TA.AperFunction,Conductor*
G36*
X179845500Y-115675799D02*
G01*
X179845500Y-115300000D01*
X180221299Y-115300000D01*
X179845500Y-115675799D01*
G37*
G04 #@! TD.AperFunction*
G04 #@! TA.AperFunction,Conductor*
G36*
X178100000Y-113554500D02*
G01*
X177724200Y-113554500D01*
X178100000Y-113178700D01*
X178100000Y-113554500D01*
G37*
G04 #@! TD.AperFunction*
G04 #@! TA.AperFunction,Conductor*
G36*
X179643334Y-111737880D02*
G01*
X179687681Y-111766381D01*
X180221300Y-112300000D01*
X178978700Y-112300000D01*
X179512319Y-111766381D01*
X179573642Y-111732896D01*
X179643334Y-111737880D01*
G37*
G04 #@! TD.AperFunction*
G04 #@! TA.AperFunction,Conductor*
G36*
X171459439Y-114681285D02*
G01*
X171505194Y-114734089D01*
X171516400Y-114785600D01*
X171516400Y-116430508D01*
X171519954Y-116463555D01*
X171531160Y-116515066D01*
X171565586Y-116583842D01*
X171611336Y-116636639D01*
X171616322Y-116642123D01*
X171685045Y-116684013D01*
X171685050Y-116684016D01*
X171752089Y-116703701D01*
X171795900Y-116710000D01*
X172847200Y-116710000D01*
X172914239Y-116729685D01*
X172959994Y-116782489D01*
X172971200Y-116834000D01*
X172971200Y-119067770D01*
X172971199Y-119067776D01*
X172971200Y-119067779D01*
X172966175Y-119102714D01*
X172961770Y-119117712D01*
X172924027Y-119176455D01*
X172923992Y-119176485D01*
X172923991Y-119176487D01*
X172923989Y-119176487D01*
X172922658Y-119177642D01*
X172867797Y-119205118D01*
X172860239Y-119206763D01*
X172833868Y-119209600D01*
X170113030Y-119209600D01*
X170113025Y-119209599D01*
X170113023Y-119209600D01*
X170078089Y-119204575D01*
X170063090Y-119200170D01*
X170004344Y-119162427D01*
X170004315Y-119162393D01*
X170004314Y-119162393D01*
X170004313Y-119162391D01*
X170003157Y-119161058D01*
X169975677Y-119106183D01*
X169974032Y-119098621D01*
X169971200Y-119072268D01*
X169971200Y-114785600D01*
X169990885Y-114718561D01*
X170043689Y-114672806D01*
X170095200Y-114661600D01*
X171392400Y-114661600D01*
X171459439Y-114681285D01*
G37*
G04 #@! TD.AperFunction*
G04 #@! TA.AperFunction,Conductor*
G36*
X177675467Y-116729685D02*
G01*
X177696109Y-116746319D01*
X178147854Y-117198065D01*
X178147869Y-117198078D01*
X178173743Y-117218931D01*
X178173744Y-117218932D01*
X178218092Y-117247433D01*
X178218094Y-117247434D01*
X178266194Y-117263443D01*
X178314717Y-117293417D01*
X179050000Y-118028700D01*
X178678700Y-118400000D01*
X179049999Y-118771299D01*
X177938741Y-119882558D01*
X177400287Y-120421012D01*
X177372032Y-120442163D01*
X177358311Y-120449655D01*
X177290051Y-120464507D01*
X177288245Y-120464378D01*
X177230044Y-120445010D01*
X177223529Y-120440823D01*
X177202893Y-120424193D01*
X174078988Y-117300288D01*
X174057836Y-117272032D01*
X174050344Y-117258311D01*
X174035492Y-117190051D01*
X174035621Y-117188242D01*
X174054987Y-117130047D01*
X174059180Y-117123523D01*
X174075801Y-117102898D01*
X174432381Y-116746319D01*
X174493704Y-116712834D01*
X174520062Y-116710000D01*
X177608428Y-116710000D01*
X177675467Y-116729685D01*
G37*
G04 #@! TD.AperFunction*
G04 #@! TA.AperFunction,Conductor*
G36*
X165215400Y-71167800D02*
G01*
X166249721Y-72202121D01*
X166283206Y-72263444D01*
X166278222Y-72333136D01*
X166249724Y-72377480D01*
X164869481Y-73757813D01*
X164808159Y-73791300D01*
X164738467Y-73786318D01*
X164694116Y-73757816D01*
X163447700Y-72511400D01*
X164270200Y-72511400D01*
X164270200Y-70900000D01*
X164947600Y-70900000D01*
X165215400Y-71167800D01*
G37*
G04 #@! TD.AperFunction*
G04 #@! TA.AperFunction,Conductor*
G36*
X191129606Y-109891423D02*
G01*
X191144604Y-109895827D01*
X191159594Y-109905457D01*
X191176675Y-109910467D01*
X191203355Y-109933572D01*
X191204542Y-109934941D01*
X191232018Y-109989802D01*
X191233663Y-109997360D01*
X191236500Y-110023731D01*
X191236500Y-111415200D01*
X189986500Y-110165200D01*
X188736500Y-111415258D01*
X188736500Y-110028229D01*
X188741523Y-109993293D01*
X188745927Y-109978295D01*
X188783672Y-109919544D01*
X188783700Y-109919519D01*
X188783699Y-109919519D01*
X188785041Y-109918356D01*
X188839920Y-109890877D01*
X188847479Y-109889233D01*
X188873832Y-109886400D01*
X191094670Y-109886400D01*
X191129606Y-109891423D01*
G37*
G04 #@! TD.AperFunction*
G04 #@! TA.AperFunction,Conductor*
G36*
X181992477Y-115475185D02*
G01*
X182013119Y-115491819D01*
X183821011Y-117299711D01*
X183842163Y-117327967D01*
X183849655Y-117341688D01*
X183853444Y-117359105D01*
X183861986Y-117374744D01*
X183864507Y-117409948D01*
X183864378Y-117411754D01*
X183845010Y-117469957D01*
X183840829Y-117476463D01*
X183824193Y-117497106D01*
X180900288Y-120421011D01*
X180872032Y-120442163D01*
X180858311Y-120449655D01*
X180840893Y-120453444D01*
X180825255Y-120461986D01*
X180790051Y-120464507D01*
X180788245Y-120464378D01*
X180730044Y-120445010D01*
X180723529Y-120440823D01*
X180702893Y-120424193D01*
X178766380Y-118487680D01*
X178732895Y-118426357D01*
X178737879Y-118356665D01*
X178766376Y-118312323D01*
X181042248Y-116036450D01*
X181093699Y-116007557D01*
X181093296Y-116006515D01*
X181100551Y-116003709D01*
X181100698Y-116003627D01*
X181100881Y-116003583D01*
X181162204Y-115970098D01*
X181197636Y-115943574D01*
X181649390Y-115491817D01*
X181710712Y-115458334D01*
X181737070Y-115455500D01*
X181925438Y-115455500D01*
X181992477Y-115475185D01*
G37*
G04 #@! TD.AperFunction*
G04 #@! TA.AperFunction,Conductor*
G36*
X191483000Y-71817000D02*
G01*
X192900000Y-71817000D01*
X192900000Y-72521299D01*
X192900000Y-73276000D01*
X192880315Y-73343039D01*
X192827511Y-73388794D01*
X192776000Y-73400000D01*
X177500000Y-73400000D01*
X177500000Y-70400000D01*
X191483000Y-70400000D01*
X191483000Y-71817000D01*
G37*
G04 #@! TD.AperFunction*
G04 #@! TA.AperFunction,Conductor*
G36*
X141230119Y-79262319D02*
G01*
X141263604Y-79323642D01*
X141258620Y-79393334D01*
X141230119Y-79437681D01*
X140800000Y-79867799D01*
X140800000Y-79867800D01*
X139550000Y-81117800D01*
X135082200Y-76650000D01*
X136850000Y-76650000D01*
X136850000Y-74882200D01*
X141230119Y-79262319D01*
G37*
G04 #@! TD.AperFunction*
G04 #@! TA.AperFunction,Conductor*
G36*
X140800000Y-104582200D02*
G01*
X139550000Y-103332200D01*
X138300000Y-104582200D01*
X138300000Y-104417800D01*
X140800000Y-101917800D01*
X140800000Y-104582200D01*
G37*
G04 #@! TD.AperFunction*
G04 #@! TA.AperFunction,Conductor*
G36*
X140800000Y-100882200D02*
G01*
X139550000Y-99632200D01*
X138300000Y-100882200D01*
X138300000Y-79867800D01*
X139550000Y-81117800D01*
X140800000Y-79867800D01*
X140800000Y-100882200D01*
G37*
G04 #@! TD.AperFunction*
G04 #@! TA.AperFunction,Conductor*
G36*
X144517800Y-108300000D02*
G01*
X143525000Y-109292800D01*
X142837681Y-109980118D01*
X142776358Y-110013603D01*
X142706666Y-110008619D01*
X142662319Y-109980118D01*
X137906200Y-105223999D01*
X137906199Y-105223999D01*
X137900000Y-105217800D01*
X137900000Y-104982200D01*
X139550000Y-103332200D01*
X144517800Y-108300000D01*
G37*
G04 #@! TD.AperFunction*
G04 #@! TA.AperFunction,Conductor*
G36*
X129890000Y-70450000D02*
G01*
X131100000Y-70450000D01*
X131100000Y-72476000D01*
X131080315Y-72543039D01*
X131027511Y-72588794D01*
X130976000Y-72600000D01*
X125324000Y-72600000D01*
X125256961Y-72580315D01*
X125211206Y-72527511D01*
X125200000Y-72476000D01*
X125200000Y-70074000D01*
X125219685Y-70006961D01*
X125272489Y-69961206D01*
X125324000Y-69950000D01*
X129890000Y-69950000D01*
X129890000Y-70450000D01*
G37*
G04 #@! TD.AperFunction*
G04 #@! TA.AperFunction,Conductor*
G36*
X138493039Y-67969685D02*
G01*
X138538794Y-68022489D01*
X138550000Y-68074000D01*
X138550000Y-70450000D01*
X129890000Y-70450000D01*
X129890000Y-68074000D01*
X129909685Y-68006961D01*
X129962489Y-67961206D01*
X130014000Y-67950000D01*
X138426000Y-67950000D01*
X138493039Y-67969685D01*
G37*
G04 #@! TD.AperFunction*
G04 #@! TA.AperFunction,Conductor*
G36*
X136737681Y-105980119D02*
G01*
X136676358Y-106013604D01*
X136606666Y-106008620D01*
X136562319Y-105980119D01*
X136132200Y-105550000D01*
X137167799Y-105550000D01*
X136737681Y-105980119D01*
G37*
G04 #@! TD.AperFunction*
G04 #@! TA.AperFunction,Conductor*
G36*
X140800000Y-100882200D02*
G01*
X141230119Y-101312319D01*
X141263604Y-101373642D01*
X141258620Y-101443334D01*
X141230119Y-101487681D01*
X140800000Y-101917799D01*
X140800000Y-101917800D01*
X138300000Y-104417800D01*
X138299999Y-104417799D01*
X137900000Y-104817799D01*
X137900000Y-103050000D01*
X136132200Y-103050000D01*
X139550000Y-99632200D01*
X140800000Y-100882200D01*
G37*
G04 #@! TD.AperFunction*
G04 #@! TA.AperFunction,Conductor*
G36*
X137900000Y-105217800D02*
G01*
X137900000Y-105426000D01*
X137880315Y-105493039D01*
X137827511Y-105538794D01*
X137776000Y-105550000D01*
X127074000Y-105550000D01*
X127006961Y-105530315D01*
X126961206Y-105477511D01*
X126950000Y-105426000D01*
X126950000Y-104950000D01*
X128500000Y-104950000D01*
X128500000Y-103050000D01*
X137900000Y-103050000D01*
X137900000Y-105217800D01*
G37*
G04 #@! TD.AperFunction*
G04 #@! TA.AperFunction,Conductor*
G36*
X128443039Y-102469685D02*
G01*
X128488794Y-102522489D01*
X128500000Y-102574000D01*
X128500000Y-104950000D01*
X117700000Y-104950000D01*
X117697516Y-107761915D01*
X117697517Y-107761917D01*
X117696070Y-109400879D01*
X115799205Y-109399205D01*
X115424241Y-109398874D01*
X115357219Y-109379130D01*
X115311511Y-109326286D01*
X115300351Y-109274895D01*
X115300146Y-108063121D01*
X115299628Y-105001751D01*
X115300000Y-105000486D01*
X115300000Y-102574000D01*
X115319685Y-102506961D01*
X115372489Y-102461206D01*
X115424000Y-102450000D01*
X128376000Y-102450000D01*
X128443039Y-102469685D01*
G37*
G04 #@! TD.AperFunction*
G04 #@! TA.AperFunction,Conductor*
G36*
X144900281Y-72942619D02*
G01*
X144838958Y-72976104D01*
X144769266Y-72971120D01*
X144724919Y-72942619D01*
X144294900Y-72512600D01*
X145330299Y-72512600D01*
X144900281Y-72942619D01*
G37*
G04 #@! TD.AperFunction*
G04 #@! TA.AperFunction,Conductor*
G36*
X143562600Y-71780300D02*
G01*
X142232300Y-70450000D01*
X143562600Y-70450000D01*
X143562600Y-71780300D01*
G37*
G04 #@! TD.AperFunction*
G04 #@! TA.AperFunction,Conductor*
G36*
X144163700Y-70012600D02*
G01*
X144000100Y-70012600D01*
X144000100Y-69849000D01*
X144163700Y-70012600D01*
G37*
G04 #@! TD.AperFunction*
G04 #@! TA.AperFunction,Conductor*
G36*
X142210034Y-68074780D02*
G01*
X142254381Y-68103281D01*
X142926100Y-68775000D01*
X141407300Y-68775000D01*
X142079019Y-68103281D01*
X142140342Y-68069796D01*
X142210034Y-68074780D01*
G37*
G04 #@! TD.AperFunction*
G04 #@! TA.AperFunction,Conductor*
G36*
X154493039Y-116269685D02*
G01*
X154538794Y-116322489D01*
X154550000Y-116374000D01*
X154550000Y-118750000D01*
X147374000Y-118750000D01*
X147306961Y-118730315D01*
X147261206Y-118677511D01*
X147250000Y-118626000D01*
X147250000Y-118017800D01*
X147250000Y-116250000D01*
X153817783Y-116250000D01*
X153817784Y-116250000D01*
X154426000Y-116250000D01*
X154493039Y-116269685D01*
G37*
G04 #@! TD.AperFunction*
G04 #@! TA.AperFunction,Conductor*
G36*
X158443332Y-67791381D02*
G01*
X158487680Y-67819883D01*
X160679135Y-70011400D01*
X161929100Y-71261400D01*
X160744700Y-72445800D01*
X159048948Y-70750000D01*
X159650000Y-70750000D01*
X159650000Y-69075000D01*
X157373996Y-69075000D01*
X157303276Y-69004278D01*
X157269794Y-68942958D01*
X157274779Y-68873267D01*
X157303277Y-68828922D01*
X158312319Y-67819880D01*
X158373640Y-67786397D01*
X158443332Y-67791381D01*
G37*
G04 #@! TD.AperFunction*
G04 #@! TA.AperFunction,Conductor*
G36*
X169080600Y-84421100D02*
G01*
X170329100Y-83172600D01*
X170329100Y-88400000D01*
X170300000Y-88400000D01*
X168884300Y-86984300D01*
X167829100Y-88039500D01*
X167829100Y-83169600D01*
X169080600Y-84421100D01*
G37*
G04 #@! TD.AperFunction*
G04 #@! TA.AperFunction,Conductor*
G36*
X170329100Y-82841200D02*
G01*
X169079100Y-81591200D01*
X167829100Y-82841200D01*
X167829100Y-77694900D01*
X167848785Y-77627861D01*
X167901589Y-77582106D01*
X167953100Y-77570900D01*
X168561300Y-77570900D01*
X170329100Y-77570900D01*
X170329100Y-82841200D01*
G37*
G04 #@! TD.AperFunction*
G04 #@! TA.AperFunction,Conductor*
G36*
X170723956Y-112647821D02*
G01*
X170738099Y-112652528D01*
X170750052Y-112652528D01*
X170782151Y-112667186D01*
X170788671Y-112671376D01*
X170809306Y-112688006D01*
X171528935Y-113407635D01*
X171562420Y-113468958D01*
X171557436Y-113538650D01*
X171547138Y-113559850D01*
X171542385Y-113567648D01*
X171542383Y-113567651D01*
X171522699Y-113634687D01*
X171522697Y-113634697D01*
X171516400Y-113678496D01*
X171516400Y-114661600D01*
X169971200Y-114661600D01*
X169971200Y-116092500D01*
X168678581Y-114799881D01*
X168645096Y-114738558D01*
X168650080Y-114668866D01*
X168678581Y-114624519D01*
X169624604Y-113678496D01*
X170611914Y-112691185D01*
X170640164Y-112670037D01*
X170653888Y-112662543D01*
X170670081Y-112659020D01*
X170680182Y-112652529D01*
X170699918Y-112652528D01*
X170722146Y-112647692D01*
X170723956Y-112647821D01*
G37*
G04 #@! TD.AperFunction*
G04 #@! TA.AperFunction,Conductor*
G36*
X188443039Y-110819685D02*
G01*
X188488794Y-110872489D01*
X188500000Y-110924000D01*
X188500000Y-112392900D01*
X187487900Y-111380800D01*
X186118601Y-112750000D01*
X184171300Y-112750000D01*
X184621300Y-112300000D01*
X183121300Y-110800000D01*
X188376000Y-110800000D01*
X188443039Y-110819685D01*
G37*
G04 #@! TD.AperFunction*
G04 #@! TA.AperFunction,Conductor*
G36*
X181700000Y-110978700D02*
G01*
X181700000Y-110924000D01*
X181719685Y-110856961D01*
X181772489Y-110811206D01*
X181824000Y-110800000D01*
X181878700Y-110800000D01*
X181700000Y-110978700D01*
G37*
G04 #@! TD.AperFunction*
G04 #@! TA.AperFunction,Conductor*
G36*
X207800000Y-111378700D02*
G01*
X208333619Y-111912319D01*
X208367104Y-111973642D01*
X208362120Y-112043334D01*
X208333619Y-112087681D01*
X207800000Y-112621299D01*
X207800000Y-112621300D01*
X206921300Y-113500000D01*
X206921299Y-113500000D01*
X204300000Y-116121299D01*
X204300000Y-116121300D01*
X203421300Y-117000000D01*
X203421299Y-117000000D01*
X202887681Y-117533619D01*
X202826358Y-117567104D01*
X202756666Y-117562120D01*
X202712319Y-117533619D01*
X202178700Y-117000000D01*
X200678700Y-115500000D01*
X206300000Y-109878700D01*
X207800000Y-111378700D01*
G37*
G04 #@! TD.AperFunction*
G04 #@! TA.AperFunction,Conductor*
G36*
X167829100Y-79338700D02*
G01*
X167398981Y-78908581D01*
X167365496Y-78847258D01*
X167370480Y-78777566D01*
X167398981Y-78733219D01*
X167829100Y-78303100D01*
X167829100Y-79338700D01*
G37*
G04 #@! TD.AperFunction*
G04 #@! TA.AperFunction,Conductor*
G36*
X170329100Y-79338699D02*
G01*
X170329100Y-77570900D01*
X168561300Y-77570900D01*
X172732200Y-73400000D01*
X174500000Y-73400000D01*
X176267799Y-73400000D01*
X170329100Y-79338699D01*
G37*
G04 #@! TD.AperFunction*
G04 #@! TA.AperFunction,Conductor*
G36*
X176043334Y-70191380D02*
G01*
X176087681Y-70219881D01*
X176267800Y-70400000D01*
X175732200Y-70400000D01*
X175912319Y-70219881D01*
X175973642Y-70186396D01*
X176043334Y-70191380D01*
G37*
G04 #@! TD.AperFunction*
G04 #@! TA.AperFunction,Conductor*
G36*
X182543334Y-110237880D02*
G01*
X182587681Y-110266381D01*
X184621300Y-112300000D01*
X184171300Y-112750000D01*
X184171299Y-112750000D01*
X182500000Y-114421299D01*
X182500000Y-114421300D01*
X181621300Y-115300000D01*
X181621299Y-115300000D01*
X181087681Y-115833619D01*
X181026358Y-115867104D01*
X180956666Y-115862120D01*
X180912319Y-115833619D01*
X180378700Y-115300000D01*
X178878700Y-113800000D01*
X182412319Y-110266381D01*
X182473642Y-110232896D01*
X182543334Y-110237880D01*
G37*
G04 #@! TD.AperFunction*
G04 #@! TA.AperFunction,Conductor*
G36*
X153900776Y-119868500D02*
G01*
X153792500Y-119868500D01*
X153725461Y-119848815D01*
X153679706Y-119796011D01*
X153668500Y-119744500D01*
X153668500Y-119636231D01*
X153900776Y-119868500D01*
G37*
G04 #@! TD.AperFunction*
G04 #@! TA.AperFunction,Conductor*
G36*
X155866200Y-119744500D02*
G01*
X155846515Y-119811539D01*
X155793711Y-119857294D01*
X155742200Y-119868500D01*
X155436200Y-119868500D01*
X155866200Y-119438500D01*
X155866200Y-119744500D01*
G37*
G04 #@! TD.AperFunction*
G04 #@! TA.AperFunction,Conductor*
G36*
X155809239Y-117888185D02*
G01*
X155854994Y-117940989D01*
X155866200Y-117992500D01*
X155866200Y-118298481D01*
X155436232Y-117868500D01*
X155436233Y-117868500D01*
X155742200Y-117868500D01*
X155809239Y-117888185D01*
G37*
G04 #@! TD.AperFunction*
G04 #@! TA.AperFunction,Conductor*
G36*
X148587681Y-119180119D02*
G01*
X148526358Y-119213604D01*
X148456666Y-119208620D01*
X148412319Y-119180119D01*
X147982200Y-118750000D01*
X149017799Y-118750000D01*
X148587681Y-119180119D01*
G37*
G04 #@! TD.AperFunction*
G04 #@! TA.AperFunction,Conductor*
G36*
X149017800Y-116250000D02*
G01*
X147250000Y-116250000D01*
X147250000Y-118017800D01*
X143919881Y-114687681D01*
X143886396Y-114626358D01*
X143891380Y-114556666D01*
X143919881Y-114512319D01*
X145600000Y-112832200D01*
X149017800Y-116250000D01*
G37*
G04 #@! TD.AperFunction*
G04 #@! TA.AperFunction,Conductor*
G36*
X150308122Y-95001247D02*
G01*
X153307928Y-95035874D01*
X153338459Y-95041071D01*
X153351095Y-95045338D01*
X153373144Y-95061749D01*
X153400175Y-95081868D01*
X153400177Y-95081871D01*
X153403216Y-95086157D01*
X153421457Y-95143460D01*
X153420655Y-97098572D01*
X153420656Y-97098573D01*
X153420657Y-97098573D01*
X153420657Y-97098574D01*
X156785365Y-97099952D01*
X156815945Y-97104808D01*
X156828634Y-97108937D01*
X156878115Y-97144914D01*
X156881113Y-97149045D01*
X156900000Y-97207206D01*
X156900000Y-99900000D01*
X157699999Y-99900000D01*
X157700000Y-99900000D01*
X157700000Y-98714680D01*
X157704843Y-98684094D01*
X157708965Y-98671405D01*
X157744923Y-98621906D01*
X157745522Y-98621471D01*
X157749063Y-98618900D01*
X157807243Y-98600000D01*
X159085320Y-98600000D01*
X159115908Y-98604843D01*
X159128597Y-98608966D01*
X159178096Y-98644928D01*
X159181091Y-98649050D01*
X159200000Y-98707240D01*
X159200000Y-100785319D01*
X159195154Y-100815912D01*
X159191032Y-100828598D01*
X159155080Y-100878089D01*
X159150959Y-100881084D01*
X159092771Y-100900000D01*
X151200000Y-100900000D01*
X151200000Y-103800000D01*
X151200000Y-106000000D01*
X152285320Y-106000000D01*
X152315908Y-106004843D01*
X152328595Y-106008966D01*
X152378095Y-106044927D01*
X152378096Y-106044928D01*
X152381091Y-106049050D01*
X152400000Y-106107240D01*
X152400000Y-106756824D01*
X152395154Y-106787417D01*
X152391032Y-106800103D01*
X152355080Y-106849594D01*
X152350959Y-106852589D01*
X152292771Y-106871505D01*
X150014680Y-106871505D01*
X149984087Y-106866659D01*
X149971401Y-106862537D01*
X149921901Y-106826573D01*
X149921894Y-106826563D01*
X149918900Y-106822441D01*
X149900000Y-106764261D01*
X149900000Y-101600001D01*
X149900000Y-101600000D01*
X149899999Y-101600000D01*
X146514680Y-101600000D01*
X146484087Y-101595154D01*
X146471401Y-101591032D01*
X146421901Y-101555068D01*
X146421894Y-101555058D01*
X146418900Y-101550936D01*
X146400000Y-101492756D01*
X146400000Y-98914680D01*
X146404843Y-98884094D01*
X146408966Y-98871403D01*
X146408969Y-98871399D01*
X146408969Y-98871394D01*
X146408972Y-98871386D01*
X146426720Y-98846965D01*
X146444923Y-98821906D01*
X146445522Y-98821471D01*
X146449063Y-98818900D01*
X146507243Y-98800000D01*
X150199999Y-98800000D01*
X150200000Y-98800000D01*
X150200000Y-95115828D01*
X150204843Y-95085242D01*
X150205939Y-95081868D01*
X150208965Y-95072553D01*
X150244923Y-95023054D01*
X150248924Y-95020147D01*
X150307115Y-95001241D01*
X150308122Y-95001247D01*
G37*
G04 #@! TD.AperFunction*
G04 #@! TA.AperFunction,Conductor*
G36*
X143943139Y-68794685D02*
G01*
X143988894Y-68847489D01*
X144000100Y-68899000D01*
X144000100Y-70450000D01*
X138550000Y-70450000D01*
X138550000Y-68775000D01*
X142926100Y-68775000D01*
X143876100Y-68775000D01*
X143943139Y-68794685D01*
G37*
G04 #@! TD.AperFunction*
G04 #@! TA.AperFunction,Conductor*
G36*
X191487681Y-73933619D02*
G01*
X191426358Y-73967104D01*
X191356666Y-73962120D01*
X191312319Y-73933619D01*
X190778700Y-73400000D01*
X192021299Y-73400000D01*
X191487681Y-73933619D01*
G37*
G04 #@! TD.AperFunction*
G04 #@! TA.AperFunction,Conductor*
G36*
X192900000Y-72521299D02*
G01*
X192900000Y-71817000D01*
X193604299Y-71817000D01*
X192900000Y-72521299D01*
G37*
G04 #@! TD.AperFunction*
G04 #@! TA.AperFunction,Conductor*
G36*
X193786434Y-69014980D02*
G01*
X193830781Y-69043481D01*
X194504300Y-69717000D01*
X192981900Y-69717000D01*
X193655419Y-69043481D01*
X193716742Y-69009996D01*
X193786434Y-69014980D01*
G37*
G04 #@! TD.AperFunction*
G04 #@! TA.AperFunction,Conductor*
G36*
X159650000Y-70750000D02*
G01*
X148450000Y-70750000D01*
X148450000Y-69075000D01*
X159650000Y-69075000D01*
X159650000Y-70750000D01*
G37*
G04 #@! TD.AperFunction*
G04 #@! TA.AperFunction,Conductor*
G36*
X178100000Y-115300000D02*
G01*
X179845500Y-115300000D01*
X179845500Y-115675799D01*
X179845500Y-116430500D01*
X179825815Y-116497539D01*
X179773011Y-116543294D01*
X179721500Y-116554500D01*
X171795900Y-116554500D01*
X171728861Y-116534815D01*
X171683106Y-116482011D01*
X171671900Y-116430500D01*
X171671900Y-113678500D01*
X171691585Y-113611461D01*
X171744389Y-113565706D01*
X171795900Y-113554500D01*
X177724200Y-113554500D01*
X178100000Y-113554500D01*
X178100000Y-115300000D01*
G37*
G04 #@! TD.AperFunction*
G04 #@! TA.AperFunction,Conductor*
G36*
X136850000Y-76650000D02*
G01*
X134474000Y-76650000D01*
X134406961Y-76630315D01*
X134361206Y-76577511D01*
X134350000Y-76526000D01*
X134350000Y-70450000D01*
X136850000Y-70450000D01*
X136850000Y-76650000D01*
G37*
G04 #@! TD.AperFunction*
G04 #@! TA.AperFunction,Conductor*
G36*
X197678700Y-75900000D02*
G01*
X196924000Y-75900000D01*
X196856961Y-75880315D01*
X196811206Y-75827511D01*
X196800000Y-75776000D01*
X196800000Y-75021300D01*
X197678700Y-75900000D01*
G37*
G04 #@! TD.AperFunction*
G04 #@! TA.AperFunction,Conductor*
G36*
X197320200Y-73258500D02*
G01*
X196800000Y-73778700D01*
X196800000Y-72738300D01*
X197320200Y-73258500D01*
G37*
G04 #@! TD.AperFunction*
G04 #@! TA.AperFunction,Conductor*
G36*
X199743039Y-70636685D02*
G01*
X199788794Y-70689489D01*
X199800000Y-70741000D01*
X199800000Y-73778700D01*
X199279800Y-73258500D01*
X199661200Y-72877100D01*
X198000000Y-71215900D01*
X198000000Y-70617000D01*
X199676000Y-70617000D01*
X199743039Y-70636685D01*
G37*
G04 #@! TD.AperFunction*
G04 #@! TA.AperFunction,Conductor*
G36*
X156202084Y-118634377D02*
G01*
X156348521Y-118780819D01*
X156382005Y-118842143D01*
X156377019Y-118911835D01*
X156348519Y-118956180D01*
X155866200Y-119438499D01*
X155866200Y-119438500D01*
X155436200Y-119868500D01*
X155436199Y-119868500D01*
X154756180Y-120548519D01*
X154694857Y-120582004D01*
X154625165Y-120577020D01*
X154580819Y-120548521D01*
X153900776Y-119868500D01*
X153668500Y-119636231D01*
X152782240Y-118750000D01*
X154550000Y-118750000D01*
X154550000Y-116982240D01*
X156202084Y-118634377D01*
G37*
G04 #@! TD.AperFunction*
G04 #@! TA.AperFunction,Conductor*
G36*
X153343331Y-115791381D02*
G01*
X153387678Y-115819881D01*
X153817783Y-116250000D01*
X152782199Y-116250000D01*
X153212319Y-115819880D01*
X153273640Y-115786397D01*
X153343331Y-115791381D01*
G37*
G04 #@! TD.AperFunction*
G04 #@! TA.AperFunction,Conductor*
G36*
X183300000Y-118758170D02*
G01*
X183294975Y-118793114D01*
X183290570Y-118808112D01*
X183280939Y-118823101D01*
X183275932Y-118840175D01*
X183252827Y-118866855D01*
X183251458Y-118868042D01*
X183196597Y-118895518D01*
X183189039Y-118897163D01*
X183162668Y-118900000D01*
X182421300Y-118900000D01*
X183300000Y-118021300D01*
X183300000Y-118758170D01*
G37*
G04 #@! TD.AperFunction*
G04 #@! TA.AperFunction,Conductor*
G36*
X180505203Y-115646859D02*
G01*
X180511681Y-115652891D01*
X180802354Y-115943565D01*
X180802369Y-115943578D01*
X180828243Y-115964431D01*
X180828244Y-115964432D01*
X180872592Y-115992933D01*
X180872594Y-115992934D01*
X180945574Y-116017224D01*
X181015266Y-116022208D01*
X181022658Y-116022560D01*
X181066864Y-116011835D01*
X180300000Y-116778700D01*
X180300000Y-115740572D01*
X180319685Y-115673533D01*
X180372489Y-115627778D01*
X180441647Y-115617834D01*
X180505203Y-115646859D01*
G37*
G04 #@! TD.AperFunction*
G04 #@! TA.AperFunction,Conductor*
G36*
X183193106Y-114299023D02*
G01*
X183208104Y-114303427D01*
X183223094Y-114313057D01*
X183240175Y-114318067D01*
X183266855Y-114341172D01*
X183268042Y-114342541D01*
X183295518Y-114397402D01*
X183297163Y-114404960D01*
X183300000Y-114431331D01*
X183300000Y-116778700D01*
X181976800Y-115455500D01*
X182375991Y-115455500D01*
X182376000Y-115455500D01*
X182409055Y-115451946D01*
X182460566Y-115440740D01*
X182529342Y-115406313D01*
X182582146Y-115360558D01*
X182587621Y-115355580D01*
X182629516Y-115286850D01*
X182649201Y-115219811D01*
X182655500Y-115176000D01*
X182655500Y-114537071D01*
X182675185Y-114470032D01*
X182691819Y-114449390D01*
X182810890Y-114330319D01*
X182872213Y-114296834D01*
X182898571Y-114294000D01*
X183158170Y-114294000D01*
X183193106Y-114299023D01*
G37*
G04 #@! TD.AperFunction*
G04 #@! TA.AperFunction,Conductor*
G36*
X207800000Y-113376000D02*
G01*
X207780315Y-113443039D01*
X207727511Y-113488794D01*
X207676000Y-113500000D01*
X206921300Y-113500000D01*
X207800000Y-112621300D01*
X207800000Y-113376000D01*
G37*
G04 #@! TD.AperFunction*
G04 #@! TA.AperFunction,Conductor*
G36*
X207800000Y-111378700D02*
G01*
X206300000Y-109878700D01*
X204800000Y-111378700D01*
X204800000Y-106800000D01*
X207800000Y-106800000D01*
X207800000Y-111378700D01*
G37*
G04 #@! TD.AperFunction*
G04 #@! TA.AperFunction,Conductor*
G36*
X144343334Y-106591380D02*
G01*
X144387681Y-106619881D01*
X146850000Y-109082200D01*
X147280119Y-109512319D01*
X147313604Y-109573642D01*
X147308620Y-109643334D01*
X147280119Y-109687681D01*
X146850000Y-110117799D01*
X146850000Y-110117800D01*
X145600000Y-111367800D01*
X143525000Y-109292800D01*
X144517800Y-108300000D01*
X143525000Y-107307200D01*
X144212319Y-106619881D01*
X144273642Y-106586396D01*
X144343334Y-106591380D01*
G37*
G04 #@! TD.AperFunction*
G04 #@! TA.AperFunction,Conductor*
G36*
X192415908Y-86329843D02*
G01*
X192428597Y-86333966D01*
X192478096Y-86369928D01*
X192481091Y-86374050D01*
X192500000Y-86432240D01*
X192500000Y-87735319D01*
X192495154Y-87765912D01*
X192491032Y-87778598D01*
X192455080Y-87828089D01*
X192450959Y-87831084D01*
X192392771Y-87850000D01*
X190600000Y-87850000D01*
X189750000Y-87850000D01*
X189750000Y-92550000D01*
X201035320Y-92550000D01*
X201065908Y-92554843D01*
X201078595Y-92558966D01*
X201128095Y-92594927D01*
X201128096Y-92594928D01*
X201131091Y-92599050D01*
X201150000Y-92657240D01*
X201150000Y-93835319D01*
X201145154Y-93865912D01*
X201141032Y-93878598D01*
X201105080Y-93928089D01*
X201100959Y-93931084D01*
X201042771Y-93950000D01*
X188464680Y-93950000D01*
X188434087Y-93945154D01*
X188421401Y-93941032D01*
X188371901Y-93905068D01*
X188371894Y-93905058D01*
X188368900Y-93900936D01*
X188350000Y-93842756D01*
X188350000Y-86439680D01*
X188354843Y-86409094D01*
X188358965Y-86396405D01*
X188394923Y-86346906D01*
X188395522Y-86346471D01*
X188399063Y-86343900D01*
X188457243Y-86325000D01*
X192385320Y-86325000D01*
X192415908Y-86329843D01*
G37*
G04 #@! TD.AperFunction*
G04 #@! TA.AperFunction,Conductor*
G36*
X190029833Y-110224381D02*
G01*
X190074183Y-110252883D01*
X193821300Y-114000000D01*
X191700000Y-114000000D01*
X191700000Y-115372990D01*
X188691819Y-112364809D01*
X188658334Y-112303486D01*
X188655500Y-112277128D01*
X188655500Y-111547622D01*
X188675185Y-111480583D01*
X188691817Y-111459943D01*
X189898819Y-110252885D01*
X189960141Y-110219398D01*
X190029833Y-110224381D01*
G37*
G04 #@! TD.AperFunction*
G04 #@! TA.AperFunction,Conductor*
G36*
X206900000Y-99100000D02*
G01*
X209021299Y-99100000D01*
X207800000Y-100321299D01*
X207800000Y-100321300D01*
X206300000Y-101821300D01*
X204266381Y-99787681D01*
X204232896Y-99726358D01*
X204237880Y-99656666D01*
X204266381Y-99612319D01*
X206900000Y-96978700D01*
X206900000Y-99100000D01*
G37*
G04 #@! TD.AperFunction*
G04 #@! TA.AperFunction,Conductor*
G36*
X210433619Y-97512319D02*
G01*
X210467104Y-97573642D01*
X210462120Y-97643334D01*
X210433619Y-97687681D01*
X209900000Y-98221299D01*
X209900000Y-96978700D01*
X210433619Y-97512319D01*
G37*
G04 #@! TD.AperFunction*
G04 #@! TA.AperFunction,Conductor*
G36*
X129709784Y-67819685D02*
G01*
X129755539Y-67872489D01*
X129765483Y-67941647D01*
X129761722Y-67958937D01*
X129760485Y-67963147D01*
X129760484Y-67963150D01*
X129748136Y-68005203D01*
X129740798Y-68030192D01*
X129740797Y-68030197D01*
X129734500Y-68073996D01*
X129734500Y-69670500D01*
X129714815Y-69737539D01*
X129662011Y-69783294D01*
X129610500Y-69794500D01*
X125323991Y-69794500D01*
X125290944Y-69798054D01*
X125239433Y-69809260D01*
X125170657Y-69843686D01*
X125117860Y-69889436D01*
X125112376Y-69894422D01*
X125070486Y-69963145D01*
X125070483Y-69963151D01*
X125050799Y-70030187D01*
X125050797Y-70030197D01*
X125044500Y-70073996D01*
X125044500Y-72476008D01*
X125048054Y-72509055D01*
X125059260Y-72560566D01*
X125093686Y-72629342D01*
X125139436Y-72682139D01*
X125144422Y-72687623D01*
X125203871Y-72723860D01*
X125213150Y-72729516D01*
X125280189Y-72749201D01*
X125324000Y-72755500D01*
X130975991Y-72755500D01*
X130976000Y-72755500D01*
X131009055Y-72751946D01*
X131060566Y-72740740D01*
X131129342Y-72706313D01*
X131182146Y-72660558D01*
X131187621Y-72655580D01*
X131188987Y-72653340D01*
X131203615Y-72629342D01*
X131229516Y-72586850D01*
X131249201Y-72519811D01*
X131255500Y-72476000D01*
X131255500Y-70729500D01*
X131275185Y-70662461D01*
X131327989Y-70616706D01*
X131379500Y-70605500D01*
X134070500Y-70605500D01*
X134137539Y-70625185D01*
X134183294Y-70677989D01*
X134194500Y-70729500D01*
X134194500Y-76526008D01*
X134198054Y-76559055D01*
X134209260Y-76610566D01*
X134243686Y-76679342D01*
X134289436Y-76732139D01*
X134294422Y-76737623D01*
X134363145Y-76779513D01*
X134363150Y-76779516D01*
X134430189Y-76799201D01*
X134474000Y-76805500D01*
X134966428Y-76805500D01*
X135033467Y-76825185D01*
X135054109Y-76841819D01*
X138108181Y-79895891D01*
X138141666Y-79957214D01*
X138144500Y-79983572D01*
X138144500Y-100766428D01*
X138124815Y-100833467D01*
X138108181Y-100854109D01*
X136104109Y-102858181D01*
X136042786Y-102891666D01*
X136016428Y-102894500D01*
X128779500Y-102894500D01*
X128712461Y-102874815D01*
X128666706Y-102822011D01*
X128655500Y-102770500D01*
X128655500Y-102574008D01*
X128655499Y-102573996D01*
X128651946Y-102540945D01*
X128640740Y-102489434D01*
X128623545Y-102455084D01*
X128606313Y-102420657D01*
X128560563Y-102367860D01*
X128555577Y-102362376D01*
X128486854Y-102320486D01*
X128486848Y-102320483D01*
X128419812Y-102300799D01*
X128419802Y-102300797D01*
X128376003Y-102294500D01*
X128376000Y-102294500D01*
X115424000Y-102294500D01*
X115423991Y-102294500D01*
X115390944Y-102298054D01*
X115339433Y-102309260D01*
X115270657Y-102343686D01*
X115217860Y-102389436D01*
X115212376Y-102394422D01*
X115170486Y-102463145D01*
X115170483Y-102463151D01*
X115150799Y-102530187D01*
X115150797Y-102530197D01*
X115144500Y-102573996D01*
X115144500Y-104992143D01*
X115144184Y-105000986D01*
X115144127Y-105001772D01*
X115144851Y-109274925D01*
X115148393Y-109307894D01*
X115159554Y-109359288D01*
X115193900Y-109428010D01*
X115193904Y-109428016D01*
X115239607Y-109480854D01*
X115244582Y-109486337D01*
X115265506Y-109499116D01*
X115313277Y-109528292D01*
X115360554Y-109542219D01*
X115380298Y-109548036D01*
X115385835Y-109548836D01*
X115424104Y-109554374D01*
X115683442Y-109554602D01*
X115750462Y-109574346D01*
X115771012Y-109590921D01*
X124152354Y-117972264D01*
X124152369Y-117972277D01*
X124178243Y-117993130D01*
X124178244Y-117993131D01*
X124222592Y-118021632D01*
X124222594Y-118021633D01*
X124295574Y-118045923D01*
X124365266Y-118050907D01*
X124372658Y-118051259D01*
X124450881Y-118032282D01*
X124512204Y-117998797D01*
X124547636Y-117972273D01*
X124707995Y-117811914D01*
X124895891Y-117624019D01*
X124957214Y-117590534D01*
X124983572Y-117587700D01*
X126975991Y-117587700D01*
X126976000Y-117587700D01*
X127009055Y-117584146D01*
X127060566Y-117572940D01*
X127129342Y-117538513D01*
X127182146Y-117492758D01*
X127187621Y-117487780D01*
X127229516Y-117419050D01*
X127249201Y-117352011D01*
X127255500Y-117308200D01*
X127255500Y-115056200D01*
X127251946Y-115023145D01*
X127240740Y-114971634D01*
X127223545Y-114937284D01*
X127206313Y-114902857D01*
X127160563Y-114850060D01*
X127155577Y-114844576D01*
X127086854Y-114802686D01*
X127086848Y-114802683D01*
X127019812Y-114782999D01*
X127019802Y-114782997D01*
X126976003Y-114776700D01*
X126976000Y-114776700D01*
X124983572Y-114776700D01*
X124916533Y-114757015D01*
X124895891Y-114740381D01*
X117889436Y-107733926D01*
X117855951Y-107672603D01*
X117853117Y-107646135D01*
X117853659Y-107033093D01*
X117855253Y-105229388D01*
X117874997Y-105162368D01*
X117927841Y-105116660D01*
X117979253Y-105105500D01*
X126670500Y-105105500D01*
X126737539Y-105125185D01*
X126783294Y-105177989D01*
X126794500Y-105229500D01*
X126794500Y-105426008D01*
X126798054Y-105459055D01*
X126809260Y-105510566D01*
X126843686Y-105579342D01*
X126889436Y-105632139D01*
X126894422Y-105637623D01*
X126963145Y-105679513D01*
X126963150Y-105679516D01*
X127030189Y-105699201D01*
X127074000Y-105705500D01*
X136016428Y-105705500D01*
X136083467Y-105725185D01*
X136104109Y-105741819D01*
X136452354Y-106090065D01*
X136452369Y-106090078D01*
X136478243Y-106110931D01*
X136478244Y-106110932D01*
X136522592Y-106139433D01*
X136522594Y-106139434D01*
X136595574Y-106163724D01*
X136665266Y-106168708D01*
X136672658Y-106169060D01*
X136750881Y-106150083D01*
X136812204Y-106116598D01*
X136847636Y-106090074D01*
X137195890Y-105741818D01*
X137257213Y-105708334D01*
X137283571Y-105705500D01*
X137775991Y-105705500D01*
X137776000Y-105705500D01*
X137809055Y-105701946D01*
X137860566Y-105690740D01*
X137929342Y-105656313D01*
X137943488Y-105644054D01*
X138007042Y-105615028D01*
X138076201Y-105624969D01*
X138112375Y-105650084D01*
X142552354Y-110090064D01*
X142552369Y-110090077D01*
X142578243Y-110110930D01*
X142578244Y-110110931D01*
X142616580Y-110135568D01*
X142622594Y-110139433D01*
X142695574Y-110163723D01*
X142765266Y-110168707D01*
X142772658Y-110169059D01*
X142850881Y-110150082D01*
X142912204Y-110116597D01*
X142947636Y-110090073D01*
X143437318Y-109600389D01*
X143498641Y-109566905D01*
X143568332Y-109571889D01*
X143612680Y-109600390D01*
X144158181Y-110145891D01*
X144191666Y-110207214D01*
X144194500Y-110233572D01*
X144194500Y-113966427D01*
X144174815Y-114033466D01*
X144158181Y-114054108D01*
X143809934Y-114402354D01*
X143809921Y-114402369D01*
X143789068Y-114428243D01*
X143789067Y-114428244D01*
X143760566Y-114472592D01*
X143736275Y-114545575D01*
X143736275Y-114545577D01*
X143731293Y-114615241D01*
X143731292Y-114615266D01*
X143730940Y-114622658D01*
X143749917Y-114700881D01*
X143749917Y-114700882D01*
X143749918Y-114700883D01*
X143783398Y-114762199D01*
X143783403Y-114762206D01*
X143809919Y-114797628D01*
X143809935Y-114797646D01*
X144158181Y-115145891D01*
X144191666Y-115207214D01*
X144194500Y-115233572D01*
X144194500Y-115726008D01*
X144198054Y-115759055D01*
X144209260Y-115810566D01*
X144243686Y-115879342D01*
X144289436Y-115932139D01*
X144294422Y-115937623D01*
X144363145Y-115979513D01*
X144363150Y-115979516D01*
X144430189Y-115999201D01*
X144474000Y-116005500D01*
X144966428Y-116005500D01*
X145033467Y-116025185D01*
X145054109Y-116041819D01*
X147058181Y-118045891D01*
X147091666Y-118107214D01*
X147094500Y-118133572D01*
X147094500Y-118626008D01*
X147098054Y-118659055D01*
X147109260Y-118710566D01*
X147143686Y-118779342D01*
X147174799Y-118815247D01*
X147189442Y-118832146D01*
X147193811Y-118836951D01*
X147194422Y-118837623D01*
X147263145Y-118879513D01*
X147263150Y-118879516D01*
X147330189Y-118899201D01*
X147374000Y-118905500D01*
X147866428Y-118905500D01*
X147933467Y-118925185D01*
X147954109Y-118941819D01*
X148302354Y-119290065D01*
X148302369Y-119290078D01*
X148328243Y-119310931D01*
X148328244Y-119310932D01*
X148372592Y-119339433D01*
X148372594Y-119339434D01*
X148445574Y-119363724D01*
X148515266Y-119368708D01*
X148522658Y-119369060D01*
X148600881Y-119350083D01*
X148662204Y-119316598D01*
X148697636Y-119290074D01*
X149045890Y-118941818D01*
X149107213Y-118908334D01*
X149133571Y-118905500D01*
X152666469Y-118905500D01*
X152733508Y-118925185D01*
X152754149Y-118941817D01*
X152884595Y-119072258D01*
X153173718Y-119361372D01*
X153476917Y-119664560D01*
X153510403Y-119725883D01*
X153512469Y-119741216D01*
X153512645Y-119741198D01*
X153516554Y-119777555D01*
X153527760Y-119829066D01*
X153562186Y-119897842D01*
X153589240Y-119929063D01*
X153607942Y-119950646D01*
X153610354Y-119953299D01*
X153612922Y-119956123D01*
X153681368Y-119997844D01*
X153681650Y-119998016D01*
X153748689Y-120017701D01*
X153792500Y-120024000D01*
X153792520Y-120024000D01*
X153793600Y-120024078D01*
X153793949Y-120024208D01*
X153796882Y-120024630D01*
X153796790Y-120025267D01*
X153859067Y-120048486D01*
X153872443Y-120060074D01*
X154470866Y-120658478D01*
X154496750Y-120679337D01*
X154496752Y-120679338D01*
X154496753Y-120679339D01*
X154541090Y-120707833D01*
X154541091Y-120707834D01*
X154541094Y-120707835D01*
X154541096Y-120707836D01*
X154614073Y-120732124D01*
X154683765Y-120737108D01*
X154691157Y-120737460D01*
X154769380Y-120718483D01*
X154830703Y-120684998D01*
X154866135Y-120658474D01*
X155464291Y-120060319D01*
X155525614Y-120026834D01*
X155551972Y-120024000D01*
X155742191Y-120024000D01*
X155742200Y-120024000D01*
X155775255Y-120020446D01*
X155826766Y-120009240D01*
X155895542Y-119974813D01*
X155948346Y-119929058D01*
X155953821Y-119924080D01*
X155995716Y-119855350D01*
X156015401Y-119788311D01*
X156021700Y-119744500D01*
X156021700Y-119554271D01*
X156041385Y-119487232D01*
X156058019Y-119466590D01*
X156257585Y-119267024D01*
X156458474Y-119066135D01*
X156458481Y-119066126D01*
X156458485Y-119066122D01*
X156479327Y-119040258D01*
X156479332Y-119040252D01*
X156507832Y-118995907D01*
X156532123Y-118922932D01*
X156537109Y-118853240D01*
X156537461Y-118845846D01*
X156518485Y-118767622D01*
X156518485Y-118767621D01*
X156485005Y-118706305D01*
X156485003Y-118706302D01*
X156485001Y-118706298D01*
X156458478Y-118670866D01*
X156413614Y-118626000D01*
X156312041Y-118524423D01*
X156312041Y-118524424D01*
X156058017Y-118270391D01*
X156024533Y-118209067D01*
X156021700Y-118182711D01*
X156021700Y-117992508D01*
X156021699Y-117992491D01*
X156018146Y-117959445D01*
X156006940Y-117907934D01*
X155989745Y-117873584D01*
X155972513Y-117839157D01*
X155926763Y-117786360D01*
X155921777Y-117780876D01*
X155853054Y-117738986D01*
X155853048Y-117738983D01*
X155786012Y-117719299D01*
X155786002Y-117719297D01*
X155742203Y-117713000D01*
X155742200Y-117713000D01*
X155552007Y-117713000D01*
X155484968Y-117693315D01*
X155464324Y-117676680D01*
X155452077Y-117664433D01*
X154977399Y-117189739D01*
X154741817Y-116954149D01*
X154708333Y-116892825D01*
X154705500Y-116866469D01*
X154705500Y-116374008D01*
X154705499Y-116373991D01*
X154701946Y-116340945D01*
X154690740Y-116289434D01*
X154662634Y-116233286D01*
X154656313Y-116220657D01*
X154610563Y-116167860D01*
X154605577Y-116162376D01*
X154536854Y-116120486D01*
X154536848Y-116120483D01*
X154469812Y-116100799D01*
X154469802Y-116100797D01*
X154426003Y-116094500D01*
X154426000Y-116094500D01*
X153933558Y-116094500D01*
X153866519Y-116074815D01*
X153845875Y-116058180D01*
X153786897Y-115999200D01*
X153497635Y-115709928D01*
X153471747Y-115689066D01*
X153471745Y-115689065D01*
X153471743Y-115689063D01*
X153427403Y-115660567D01*
X153427400Y-115660566D01*
X153354423Y-115636277D01*
X153354421Y-115636276D01*
X153354419Y-115636276D01*
X153284727Y-115631292D01*
X153277344Y-115630940D01*
X153277339Y-115630941D01*
X153199119Y-115649916D01*
X153137792Y-115683402D01*
X153102371Y-115709918D01*
X153102353Y-115709934D01*
X152754108Y-116058181D01*
X152692785Y-116091666D01*
X152666427Y-116094500D01*
X149133572Y-116094500D01*
X149066533Y-116074815D01*
X149045891Y-116058181D01*
X147041819Y-114054109D01*
X147008334Y-113992786D01*
X147005500Y-113966428D01*
X147005500Y-110233571D01*
X147025185Y-110166532D01*
X147041819Y-110145890D01*
X147206972Y-109980738D01*
X147390074Y-109797636D01*
X147404842Y-109779311D01*
X147410931Y-109771756D01*
X147410932Y-109771755D01*
X147432943Y-109737506D01*
X147439434Y-109727406D01*
X147463724Y-109654426D01*
X147468708Y-109584734D01*
X147469060Y-109577342D01*
X147450083Y-109499119D01*
X147439793Y-109480275D01*
X147416601Y-109437800D01*
X147416596Y-109437793D01*
X147390080Y-109402371D01*
X147390064Y-109402353D01*
X147041819Y-109054108D01*
X147008334Y-108992785D01*
X147005500Y-108966427D01*
X147005500Y-108474008D01*
X147005499Y-108473991D01*
X147001946Y-108440945D01*
X146990740Y-108389434D01*
X146973545Y-108355084D01*
X146956313Y-108320657D01*
X146910563Y-108267860D01*
X146905577Y-108262376D01*
X146836854Y-108220486D01*
X146836848Y-108220483D01*
X146769812Y-108200799D01*
X146769802Y-108200797D01*
X146726003Y-108194500D01*
X146726000Y-108194500D01*
X146233572Y-108194500D01*
X146166533Y-108174815D01*
X146145891Y-108158181D01*
X144497645Y-106509934D01*
X144497630Y-106509921D01*
X144471756Y-106489068D01*
X144471755Y-106489067D01*
X144427407Y-106460566D01*
X144354423Y-106436275D01*
X144284758Y-106431293D01*
X144279195Y-106431028D01*
X144277342Y-106430940D01*
X144277341Y-106430940D01*
X144255351Y-106436275D01*
X144199119Y-106449917D01*
X144199118Y-106449917D01*
X144199116Y-106449918D01*
X144137800Y-106483398D01*
X144137793Y-106483403D01*
X144102371Y-106509919D01*
X144102353Y-106509935D01*
X143612680Y-106999608D01*
X143551357Y-107033093D01*
X143481665Y-107028109D01*
X143437318Y-106999608D01*
X140991819Y-104554109D01*
X140958334Y-104492786D01*
X140955500Y-104466428D01*
X140955500Y-102033571D01*
X140975185Y-101966532D01*
X140991819Y-101945890D01*
X141162525Y-101775185D01*
X141340074Y-101597636D01*
X141360931Y-101571756D01*
X141360932Y-101571755D01*
X141373587Y-101552063D01*
X141389434Y-101527406D01*
X141413724Y-101454426D01*
X141418708Y-101384734D01*
X141419060Y-101377342D01*
X141400083Y-101299119D01*
X141389793Y-101280275D01*
X141366601Y-101237800D01*
X141366596Y-101237793D01*
X141340080Y-101202371D01*
X141340064Y-101202353D01*
X140991819Y-100854108D01*
X140958334Y-100792785D01*
X140955500Y-100766427D01*
X140955500Y-98914680D01*
X146244500Y-98914680D01*
X146244500Y-98923607D01*
X146244500Y-101492756D01*
X146252107Y-101540795D01*
X146271007Y-101598978D01*
X146271008Y-101598979D01*
X146293082Y-101642315D01*
X146296083Y-101646447D01*
X146330500Y-101680870D01*
X146374342Y-101712723D01*
X146380004Y-101716837D01*
X146423339Y-101738917D01*
X146423337Y-101738917D01*
X146423345Y-101738919D01*
X146423348Y-101738921D01*
X146436034Y-101743043D01*
X146459759Y-101748739D01*
X146490352Y-101753585D01*
X146514680Y-101755500D01*
X149620500Y-101755500D01*
X149687539Y-101775185D01*
X149733294Y-101827989D01*
X149744500Y-101879500D01*
X149744500Y-106747505D01*
X149724815Y-106814544D01*
X149672011Y-106860299D01*
X149620500Y-106871505D01*
X149250253Y-106871505D01*
X149250253Y-109021505D01*
X152450253Y-109021505D01*
X152450253Y-107022602D01*
X152469938Y-106955563D01*
X152479953Y-106942082D01*
X152480884Y-106940991D01*
X152480883Y-106940991D01*
X152480889Y-106940986D01*
X152516841Y-106891495D01*
X152538921Y-106848156D01*
X152543043Y-106835470D01*
X152548739Y-106811745D01*
X152553585Y-106781152D01*
X152555500Y-106756824D01*
X152555500Y-106107240D01*
X152547888Y-106059183D01*
X152528979Y-106000993D01*
X152506890Y-105957646D01*
X152503895Y-105953524D01*
X152469492Y-105919123D01*
X152419991Y-105883161D01*
X152419987Y-105883158D01*
X152376655Y-105861078D01*
X152363974Y-105856958D01*
X152363968Y-105856956D01*
X152348139Y-105853156D01*
X152340222Y-105851255D01*
X152309641Y-105846413D01*
X152285331Y-105844500D01*
X152285320Y-105844500D01*
X151479500Y-105844500D01*
X151412461Y-105824815D01*
X151366706Y-105772011D01*
X151355500Y-105720500D01*
X151355500Y-101179500D01*
X151375185Y-101112461D01*
X151427989Y-101066706D01*
X151479500Y-101055500D01*
X159092768Y-101055500D01*
X159092771Y-101055500D01*
X159140845Y-101047882D01*
X159199033Y-101028966D01*
X159242378Y-101006873D01*
X159246499Y-101003878D01*
X159280889Y-100969481D01*
X159316841Y-100919990D01*
X159338921Y-100876651D01*
X159343043Y-100863965D01*
X159348739Y-100840240D01*
X159353585Y-100809647D01*
X159355500Y-100785319D01*
X159355500Y-98707240D01*
X159347888Y-98659183D01*
X159328979Y-98600993D01*
X159306890Y-98557646D01*
X159303895Y-98553524D01*
X159303894Y-98553523D01*
X159303892Y-98553520D01*
X159269497Y-98519125D01*
X159219997Y-98483162D01*
X159176653Y-98461078D01*
X159176647Y-98461076D01*
X159175794Y-98460799D01*
X159163961Y-98456954D01*
X159163957Y-98456953D01*
X159163954Y-98456952D01*
X159154470Y-98454675D01*
X159140225Y-98451256D01*
X159124931Y-98448834D01*
X159109639Y-98446413D01*
X159085331Y-98444500D01*
X159085320Y-98444500D01*
X157807243Y-98444500D01*
X157807242Y-98444500D01*
X157759201Y-98452107D01*
X157759198Y-98452108D01*
X157701026Y-98471005D01*
X157701024Y-98471006D01*
X157657698Y-98493072D01*
X157653557Y-98496079D01*
X157619114Y-98530514D01*
X157583155Y-98580014D01*
X157561075Y-98623355D01*
X157556949Y-98636056D01*
X157551257Y-98659770D01*
X157546414Y-98690350D01*
X157546412Y-98690369D01*
X157544500Y-98714666D01*
X157544500Y-99620500D01*
X157541949Y-99629185D01*
X157543238Y-99638147D01*
X157532259Y-99662187D01*
X157524815Y-99687539D01*
X157517974Y-99693466D01*
X157514213Y-99701703D01*
X157491978Y-99715992D01*
X157472011Y-99733294D01*
X157461496Y-99735581D01*
X157455435Y-99739477D01*
X157420500Y-99744500D01*
X157179500Y-99744500D01*
X157112461Y-99724815D01*
X157066706Y-99672011D01*
X157055500Y-99620500D01*
X157055500Y-97207208D01*
X157055500Y-97207206D01*
X157051372Y-97181133D01*
X157047899Y-97159187D01*
X157047897Y-97159182D01*
X157047897Y-97159178D01*
X157029010Y-97101017D01*
X157006964Y-97057711D01*
X157003966Y-97053580D01*
X156969560Y-97019144D01*
X156969559Y-97019143D01*
X156969553Y-97019138D01*
X156920079Y-96983167D01*
X156876758Y-96961073D01*
X156876756Y-96961072D01*
X156876750Y-96961069D01*
X156871209Y-96959266D01*
X156864050Y-96956936D01*
X156840354Y-96951236D01*
X156840342Y-96951234D01*
X156840337Y-96951233D01*
X156840332Y-96951232D01*
X156809752Y-96946376D01*
X156809751Y-96946375D01*
X156809739Y-96946374D01*
X156785438Y-96944452D01*
X156785420Y-96944451D01*
X153700217Y-96943187D01*
X153633186Y-96923475D01*
X153587453Y-96870652D01*
X153576268Y-96819140D01*
X153576957Y-95143524D01*
X153569631Y-95096293D01*
X153569629Y-95096288D01*
X153569629Y-95096285D01*
X153551391Y-95038993D01*
X153551386Y-95038982D01*
X153530069Y-94996220D01*
X153530067Y-94996217D01*
X153527028Y-94991931D01*
X153527022Y-94991923D01*
X153493020Y-94957127D01*
X153493018Y-94957125D01*
X153443943Y-94920600D01*
X153443936Y-94920595D01*
X153425506Y-94910936D01*
X153400845Y-94898011D01*
X153388209Y-94893744D01*
X153388208Y-94893743D01*
X153388203Y-94893742D01*
X153364557Y-94887777D01*
X153364556Y-94887776D01*
X153364553Y-94887776D01*
X153334022Y-94882579D01*
X153334019Y-94882578D01*
X153334015Y-94882578D01*
X153309714Y-94880383D01*
X153309726Y-94880383D01*
X151023941Y-94853999D01*
X150309917Y-94845757D01*
X150309048Y-94845750D01*
X150308078Y-94845744D01*
X150308042Y-94845744D01*
X150308037Y-94845744D01*
X150268861Y-94851829D01*
X150259066Y-94853351D01*
X150259063Y-94853351D01*
X150200869Y-94872259D01*
X150157525Y-94894343D01*
X150157520Y-94894346D01*
X150153523Y-94897250D01*
X150153518Y-94897254D01*
X150119112Y-94931665D01*
X150083155Y-94981162D01*
X150061075Y-95024503D01*
X150056949Y-95037204D01*
X150051257Y-95060918D01*
X150046414Y-95091498D01*
X150046412Y-95091517D01*
X150044500Y-95115814D01*
X150044500Y-98520500D01*
X150024815Y-98587539D01*
X149972011Y-98633294D01*
X149920500Y-98644500D01*
X146507242Y-98644500D01*
X146459201Y-98652107D01*
X146459198Y-98652108D01*
X146401026Y-98671005D01*
X146401024Y-98671006D01*
X146401020Y-98671007D01*
X146401020Y-98671008D01*
X146357700Y-98693071D01*
X146357697Y-98693072D01*
X146357693Y-98693075D01*
X146353565Y-98696072D01*
X146353560Y-98696076D01*
X146319115Y-98730515D01*
X146319110Y-98730520D01*
X146300945Y-98755527D01*
X146300929Y-98755548D01*
X146283184Y-98779964D01*
X146283183Y-98779965D01*
X146264701Y-98814317D01*
X146263373Y-98816786D01*
X146263370Y-98816794D01*
X146262773Y-98820085D01*
X146261075Y-98823357D01*
X146256952Y-98836048D01*
X146251256Y-98859775D01*
X146246413Y-98890361D01*
X146244500Y-98914680D01*
X140955500Y-98914680D01*
X140955500Y-79983571D01*
X140975185Y-79916532D01*
X140991819Y-79895890D01*
X141340065Y-79547645D01*
X141340065Y-79547644D01*
X141340074Y-79547636D01*
X141360931Y-79521756D01*
X141360932Y-79521755D01*
X141389433Y-79477407D01*
X141389434Y-79477406D01*
X141413724Y-79404426D01*
X141418708Y-79334734D01*
X141419060Y-79327342D01*
X141400083Y-79249119D01*
X141389793Y-79230275D01*
X141366601Y-79187800D01*
X141366596Y-79187793D01*
X141340080Y-79152371D01*
X141340064Y-79152353D01*
X137041819Y-74854108D01*
X137008334Y-74792785D01*
X137005500Y-74766427D01*
X137005500Y-71533571D01*
X137025185Y-71466532D01*
X137041819Y-71445890D01*
X137845890Y-70641819D01*
X137907213Y-70608334D01*
X137933571Y-70605500D01*
X142116528Y-70605500D01*
X142183567Y-70625185D01*
X142204209Y-70641819D01*
X143370781Y-71808391D01*
X143404266Y-71869714D01*
X143407100Y-71896072D01*
X143407100Y-72388608D01*
X143410654Y-72421655D01*
X143421860Y-72473166D01*
X143456286Y-72541942D01*
X143502036Y-72594739D01*
X143507022Y-72600223D01*
X143573776Y-72640913D01*
X143575750Y-72642116D01*
X143642789Y-72661801D01*
X143686600Y-72668100D01*
X144179128Y-72668100D01*
X144246167Y-72687785D01*
X144266809Y-72704419D01*
X144614954Y-73052565D01*
X144614969Y-73052578D01*
X144640843Y-73073431D01*
X144640844Y-73073432D01*
X144685192Y-73101933D01*
X144685194Y-73101934D01*
X144758174Y-73126224D01*
X144827866Y-73131208D01*
X144835258Y-73131560D01*
X144913481Y-73112583D01*
X144974804Y-73079098D01*
X145010236Y-73052574D01*
X145358390Y-72704418D01*
X145419713Y-72670934D01*
X145446071Y-72668100D01*
X149063391Y-72668100D01*
X149063400Y-72668100D01*
X149096455Y-72664546D01*
X149147966Y-72653340D01*
X149216742Y-72618913D01*
X149269546Y-72573158D01*
X149275021Y-72568180D01*
X149316916Y-72499450D01*
X149336601Y-72432411D01*
X149342900Y-72388600D01*
X149342900Y-71029500D01*
X149362585Y-70962461D01*
X149415389Y-70916706D01*
X149466900Y-70905500D01*
X158631900Y-70905500D01*
X158698939Y-70925185D01*
X158744694Y-70977989D01*
X158755900Y-71029500D01*
X158755900Y-72387408D01*
X158759454Y-72420455D01*
X158770660Y-72471966D01*
X158805086Y-72540742D01*
X158850836Y-72593539D01*
X158855822Y-72599023D01*
X158918242Y-72637071D01*
X158924550Y-72640916D01*
X158991589Y-72660601D01*
X159035400Y-72666900D01*
X162072153Y-72666900D01*
X162139192Y-72686585D01*
X162151094Y-72694234D01*
X162224074Y-72718524D01*
X162293766Y-72723508D01*
X162301158Y-72723860D01*
X162379381Y-72704883D01*
X162421164Y-72682067D01*
X162480590Y-72666900D01*
X163331928Y-72666900D01*
X163398967Y-72686585D01*
X163419609Y-72703219D01*
X164584158Y-73867768D01*
X164584173Y-73867782D01*
X164610038Y-73888625D01*
X164610044Y-73888629D01*
X164610048Y-73888632D01*
X164654399Y-73917134D01*
X164654402Y-73917135D01*
X164654404Y-73917136D01*
X164726348Y-73941079D01*
X164727379Y-73941422D01*
X164773744Y-73944736D01*
X164797055Y-73946403D01*
X164797061Y-73946403D01*
X164797071Y-73946404D01*
X164804464Y-73946756D01*
X164882687Y-73927777D01*
X164944009Y-73894290D01*
X164979440Y-73867765D01*
X166359683Y-72487432D01*
X166380539Y-72461549D01*
X166409037Y-72417205D01*
X166433326Y-72344228D01*
X166438310Y-72274536D01*
X166438662Y-72267144D01*
X166419685Y-72188921D01*
X166409395Y-72170077D01*
X166386203Y-72127602D01*
X166386198Y-72127595D01*
X166359682Y-72092173D01*
X166359666Y-72092155D01*
X165534691Y-71267181D01*
X165501206Y-71205858D01*
X165506190Y-71136167D01*
X165548062Y-71080233D01*
X165613526Y-71055816D01*
X165622372Y-71055500D01*
X172020500Y-71055500D01*
X172087539Y-71075185D01*
X172133294Y-71127989D01*
X172144500Y-71179500D01*
X172144500Y-73276008D01*
X172148054Y-73309055D01*
X172159260Y-73360566D01*
X172193686Y-73429342D01*
X172239436Y-73482139D01*
X172250384Y-73494180D01*
X172247658Y-73496657D01*
X172277073Y-73539981D01*
X172278837Y-73609829D01*
X172246697Y-73665591D01*
X168533209Y-77379081D01*
X168471886Y-77412566D01*
X168445528Y-77415400D01*
X167953091Y-77415400D01*
X167920044Y-77418954D01*
X167868533Y-77430160D01*
X167799757Y-77464586D01*
X167746960Y-77510336D01*
X167741476Y-77515322D01*
X167699586Y-77584045D01*
X167699583Y-77584051D01*
X167679899Y-77651087D01*
X167679897Y-77651097D01*
X167673600Y-77694896D01*
X167673600Y-78187327D01*
X167653915Y-78254366D01*
X167637281Y-78275008D01*
X167289034Y-78623254D01*
X167289021Y-78623269D01*
X167268168Y-78649143D01*
X167268167Y-78649144D01*
X167239666Y-78693492D01*
X167215375Y-78766475D01*
X167215375Y-78766477D01*
X167210393Y-78836141D01*
X167210392Y-78836166D01*
X167210040Y-78843558D01*
X167229017Y-78921781D01*
X167229017Y-78921782D01*
X167229018Y-78921783D01*
X167262498Y-78983099D01*
X167262503Y-78983106D01*
X167289019Y-79018528D01*
X167289035Y-79018546D01*
X167637281Y-79366791D01*
X167670766Y-79428114D01*
X167673600Y-79454472D01*
X167673600Y-82725766D01*
X167653915Y-82792805D01*
X167644567Y-82805066D01*
X167644708Y-82805180D01*
X167621768Y-82833643D01*
X167621767Y-82833644D01*
X167593266Y-82877992D01*
X167568975Y-82950975D01*
X167568975Y-82950977D01*
X167563993Y-83020641D01*
X167563992Y-83020666D01*
X167563640Y-83028058D01*
X167582617Y-83106281D01*
X167582617Y-83106282D01*
X167582618Y-83106283D01*
X167616098Y-83167599D01*
X167616103Y-83167606D01*
X167642618Y-83203026D01*
X167642621Y-83203030D01*
X167642626Y-83203036D01*
X167642631Y-83203041D01*
X167643307Y-83203821D01*
X167643453Y-83204142D01*
X167645280Y-83206582D01*
X167644749Y-83206979D01*
X167672337Y-83267375D01*
X167673600Y-83285031D01*
X167673600Y-87923727D01*
X167653915Y-87990766D01*
X167637281Y-88011408D01*
X164162034Y-91486654D01*
X164162021Y-91486669D01*
X164141168Y-91512543D01*
X164141167Y-91512544D01*
X164112666Y-91556892D01*
X164088375Y-91629875D01*
X164088375Y-91629877D01*
X164083393Y-91699541D01*
X164083392Y-91699566D01*
X164083040Y-91706958D01*
X164102017Y-91785181D01*
X164102017Y-91785182D01*
X164102018Y-91785183D01*
X164135498Y-91846499D01*
X164135503Y-91846506D01*
X164162019Y-91881928D01*
X164162035Y-91881946D01*
X165652354Y-93372265D01*
X165652369Y-93372278D01*
X165678243Y-93393131D01*
X165678244Y-93393132D01*
X165722592Y-93421633D01*
X165722594Y-93421634D01*
X165795574Y-93445924D01*
X165865266Y-93450908D01*
X165872658Y-93451260D01*
X165950881Y-93432283D01*
X166012204Y-93398798D01*
X166047636Y-93372274D01*
X170572273Y-88847636D01*
X170593130Y-88821756D01*
X170593131Y-88821755D01*
X170621632Y-88777407D01*
X170621633Y-88777406D01*
X170645923Y-88704426D01*
X170650907Y-88634734D01*
X170651259Y-88627342D01*
X170632282Y-88549119D01*
X170621992Y-88530275D01*
X170598800Y-88487800D01*
X170598795Y-88487793D01*
X170572282Y-88452375D01*
X170572272Y-88452363D01*
X170520917Y-88401007D01*
X170487433Y-88339683D01*
X170484600Y-88313327D01*
X170484600Y-86439666D01*
X188194500Y-86439666D01*
X188194500Y-93842756D01*
X188202107Y-93890795D01*
X188221007Y-93948978D01*
X188221008Y-93948979D01*
X188243082Y-93992315D01*
X188246083Y-93996447D01*
X188280500Y-94030870D01*
X188312168Y-94053878D01*
X188330004Y-94066837D01*
X188373339Y-94088917D01*
X188373337Y-94088917D01*
X188373345Y-94088919D01*
X188373348Y-94088921D01*
X188386034Y-94093043D01*
X188409759Y-94098739D01*
X188440352Y-94103585D01*
X188464680Y-94105500D01*
X201042768Y-94105500D01*
X201042771Y-94105500D01*
X201090845Y-94097882D01*
X201090848Y-94097881D01*
X201095658Y-94097119D01*
X201095817Y-94098128D01*
X201160630Y-94101355D01*
X201217457Y-94142005D01*
X201243286Y-94206926D01*
X201243822Y-94218448D01*
X201243822Y-96035197D01*
X203393822Y-96035197D01*
X203393822Y-92835197D01*
X201429500Y-92835197D01*
X201362461Y-92815512D01*
X201316706Y-92762708D01*
X201305500Y-92711197D01*
X201305500Y-92657239D01*
X201297888Y-92609186D01*
X201297888Y-92609183D01*
X201278979Y-92550993D01*
X201256890Y-92507646D01*
X201253895Y-92503524D01*
X201219492Y-92469123D01*
X201169991Y-92433161D01*
X201169987Y-92433158D01*
X201126655Y-92411078D01*
X201113974Y-92406958D01*
X201113968Y-92406956D01*
X201098139Y-92403156D01*
X201090222Y-92401255D01*
X201059641Y-92396413D01*
X201035331Y-92394500D01*
X201035320Y-92394500D01*
X190029500Y-92394500D01*
X189962461Y-92374815D01*
X189916706Y-92322011D01*
X189905500Y-92270500D01*
X189905500Y-88129500D01*
X189925185Y-88062461D01*
X189977989Y-88016706D01*
X190029500Y-88005500D01*
X192392768Y-88005500D01*
X192392771Y-88005500D01*
X192440845Y-87997882D01*
X192499033Y-87978966D01*
X192542378Y-87956873D01*
X192546499Y-87953878D01*
X192580889Y-87919481D01*
X192616841Y-87869990D01*
X192638921Y-87826651D01*
X192643043Y-87813965D01*
X192648739Y-87790240D01*
X192653585Y-87759647D01*
X192655500Y-87735319D01*
X192655500Y-86432240D01*
X192647888Y-86384183D01*
X192628979Y-86325993D01*
X192606890Y-86282646D01*
X192603895Y-86278524D01*
X192603894Y-86278523D01*
X192603892Y-86278520D01*
X192569497Y-86244125D01*
X192519997Y-86208162D01*
X192476653Y-86186078D01*
X192476647Y-86186076D01*
X192475794Y-86185799D01*
X192463961Y-86181954D01*
X192463957Y-86181953D01*
X192463954Y-86181952D01*
X192454470Y-86179675D01*
X192440225Y-86176256D01*
X192424931Y-86173834D01*
X192409639Y-86171413D01*
X192385331Y-86169500D01*
X192385320Y-86169500D01*
X188457243Y-86169500D01*
X188457242Y-86169500D01*
X188409201Y-86177107D01*
X188409198Y-86177108D01*
X188351026Y-86196005D01*
X188351024Y-86196006D01*
X188307698Y-86218072D01*
X188303557Y-86221079D01*
X188269114Y-86255514D01*
X188233155Y-86305014D01*
X188211075Y-86348355D01*
X188206949Y-86361056D01*
X188201257Y-86384770D01*
X188196414Y-86415350D01*
X188196412Y-86415369D01*
X188194500Y-86439666D01*
X170484600Y-86439666D01*
X170484600Y-83288203D01*
X170504285Y-83221164D01*
X170514990Y-83207127D01*
X170514988Y-83207125D01*
X170515070Y-83207022D01*
X170516363Y-83205328D01*
X170517072Y-83204538D01*
X170517650Y-83203821D01*
X170537933Y-83178653D01*
X170566434Y-83134306D01*
X170590724Y-83061326D01*
X170595708Y-82991634D01*
X170596060Y-82984242D01*
X170577083Y-82906019D01*
X170561779Y-82877992D01*
X170543601Y-82844700D01*
X170543596Y-82844693D01*
X170517076Y-82809267D01*
X170517074Y-82809264D01*
X170517069Y-82809259D01*
X170514878Y-82806729D01*
X170485860Y-82743170D01*
X170484600Y-82725536D01*
X170484600Y-79454471D01*
X170504285Y-79387432D01*
X170520919Y-79366790D01*
X176295890Y-73591819D01*
X176357213Y-73558334D01*
X176383571Y-73555500D01*
X190662928Y-73555500D01*
X190729967Y-73575185D01*
X190750609Y-73591819D01*
X191202354Y-74043565D01*
X191202369Y-74043578D01*
X191228243Y-74064431D01*
X191228244Y-74064432D01*
X191272592Y-74092933D01*
X191272594Y-74092934D01*
X191345574Y-74117224D01*
X191415266Y-74122208D01*
X191422658Y-74122560D01*
X191500881Y-74103583D01*
X191562204Y-74070098D01*
X191597636Y-74043574D01*
X192049390Y-73591818D01*
X192110713Y-73558334D01*
X192137071Y-73555500D01*
X192775991Y-73555500D01*
X192776000Y-73555500D01*
X192809055Y-73551946D01*
X192860566Y-73540740D01*
X192929342Y-73506313D01*
X192982146Y-73460558D01*
X192987621Y-73455580D01*
X193029516Y-73386850D01*
X193049201Y-73319811D01*
X193055500Y-73276000D01*
X193055500Y-72637071D01*
X193075185Y-72570032D01*
X193091819Y-72549390D01*
X193632390Y-72008819D01*
X193693713Y-71975334D01*
X193720071Y-71972500D01*
X195762928Y-71972500D01*
X195829967Y-71992185D01*
X195850609Y-72008819D01*
X196608181Y-72766391D01*
X196641666Y-72827714D01*
X196644500Y-72854072D01*
X196644500Y-73662927D01*
X196624815Y-73729966D01*
X196608181Y-73750608D01*
X196156434Y-74202354D01*
X196156421Y-74202369D01*
X196135568Y-74228243D01*
X196135567Y-74228244D01*
X196107066Y-74272592D01*
X196082775Y-74345575D01*
X196082775Y-74345577D01*
X196077793Y-74415241D01*
X196077792Y-74415266D01*
X196077440Y-74422658D01*
X196096417Y-74500881D01*
X196096417Y-74500882D01*
X196096418Y-74500883D01*
X196129898Y-74562199D01*
X196129903Y-74562206D01*
X196156419Y-74597628D01*
X196156435Y-74597646D01*
X196608181Y-75049391D01*
X196641666Y-75110714D01*
X196644500Y-75137072D01*
X196644500Y-75776008D01*
X196648054Y-75809055D01*
X196659260Y-75860566D01*
X196693686Y-75929342D01*
X196739436Y-75982139D01*
X196744422Y-75987623D01*
X196813145Y-76029513D01*
X196813150Y-76029516D01*
X196880189Y-76049201D01*
X196924000Y-76055500D01*
X197562928Y-76055500D01*
X197629967Y-76075185D01*
X197650609Y-76091819D01*
X206708181Y-85149391D01*
X206741666Y-85210714D01*
X206744500Y-85237072D01*
X206744500Y-96862928D01*
X206724815Y-96929967D01*
X206708181Y-96950609D01*
X205650609Y-98008181D01*
X205589286Y-98041666D01*
X205562928Y-98044500D01*
X204923991Y-98044500D01*
X204890944Y-98048054D01*
X204839433Y-98059260D01*
X204770657Y-98093686D01*
X204717860Y-98139436D01*
X204712376Y-98144422D01*
X204670486Y-98213145D01*
X204670483Y-98213151D01*
X204650799Y-98280187D01*
X204650797Y-98280197D01*
X204644500Y-98323996D01*
X204644500Y-98962927D01*
X204624815Y-99029966D01*
X204608181Y-99050608D01*
X204156434Y-99502354D01*
X204156421Y-99502369D01*
X204135568Y-99528243D01*
X204135567Y-99528244D01*
X204107066Y-99572592D01*
X204082775Y-99645575D01*
X204082775Y-99645577D01*
X204077793Y-99715241D01*
X204077792Y-99715266D01*
X204077440Y-99722658D01*
X204096417Y-99800881D01*
X204096417Y-99800882D01*
X204096418Y-99800883D01*
X204129898Y-99862199D01*
X204129903Y-99862206D01*
X204156419Y-99897628D01*
X204156435Y-99897646D01*
X204608181Y-100349391D01*
X204641666Y-100410714D01*
X204644500Y-100437072D01*
X204644500Y-111262928D01*
X204624815Y-111329967D01*
X204608181Y-111350609D01*
X202150609Y-113808181D01*
X202089286Y-113841666D01*
X202062928Y-113844500D01*
X193937072Y-113844500D01*
X193870033Y-113824815D01*
X193849391Y-113808181D01*
X191428319Y-111387109D01*
X191394834Y-111325786D01*
X191392000Y-111299428D01*
X191392000Y-110023730D01*
X191391108Y-110007105D01*
X191391108Y-110007098D01*
X191388271Y-109980727D01*
X191385606Y-109964290D01*
X191383961Y-109956732D01*
X191371055Y-109920168D01*
X191343579Y-109865307D01*
X191343576Y-109865302D01*
X191343575Y-109865299D01*
X191322037Y-109833085D01*
X191322030Y-109833075D01*
X191322029Y-109833073D01*
X191320842Y-109831704D01*
X191305152Y-109816024D01*
X191305143Y-109816016D01*
X191305130Y-109816004D01*
X191278472Y-109792919D01*
X191240141Y-109772002D01*
X191232523Y-109767484D01*
X191228655Y-109764999D01*
X191188416Y-109746626D01*
X191173418Y-109742222D01*
X191151734Y-109737505D01*
X191116801Y-109732483D01*
X191094670Y-109730900D01*
X188873832Y-109730900D01*
X188857198Y-109731791D01*
X188857195Y-109731792D01*
X188830856Y-109734624D01*
X188830849Y-109734624D01*
X188814449Y-109737281D01*
X188810920Y-109738048D01*
X188806873Y-109738929D01*
X188806870Y-109738929D01*
X188806870Y-109738930D01*
X188806863Y-109738932D01*
X188770297Y-109751834D01*
X188770296Y-109751834D01*
X188715421Y-109779311D01*
X188715411Y-109779317D01*
X188715096Y-109779527D01*
X188715046Y-109779561D01*
X188683203Y-109800843D01*
X188681861Y-109802006D01*
X188680379Y-109803800D01*
X188680135Y-109803526D01*
X188680107Y-109803551D01*
X188678650Y-109805257D01*
X188678647Y-109805260D01*
X188652845Y-109835492D01*
X188615102Y-109894238D01*
X188596725Y-109934486D01*
X188592322Y-109949478D01*
X188592322Y-109949482D01*
X188587605Y-109971164D01*
X188582583Y-110006097D01*
X188581000Y-110028229D01*
X188581000Y-110532483D01*
X188561315Y-110599522D01*
X188508511Y-110645277D01*
X188439353Y-110655221D01*
X188422073Y-110651462D01*
X188419825Y-110650802D01*
X188419802Y-110650797D01*
X188376003Y-110644500D01*
X188376000Y-110644500D01*
X183237072Y-110644500D01*
X183170033Y-110624815D01*
X183149391Y-110608181D01*
X182697645Y-110156434D01*
X182697630Y-110156421D01*
X182671756Y-110135568D01*
X182671755Y-110135567D01*
X182627407Y-110107066D01*
X182554423Y-110082775D01*
X182484758Y-110077793D01*
X182479195Y-110077528D01*
X182477342Y-110077440D01*
X182477341Y-110077440D01*
X182455351Y-110082775D01*
X182399119Y-110096417D01*
X182399118Y-110096417D01*
X182399116Y-110096418D01*
X182337800Y-110129898D01*
X182337793Y-110129903D01*
X182302371Y-110156419D01*
X182302353Y-110156435D01*
X181841982Y-110616806D01*
X181780661Y-110650291D01*
X181739433Y-110659260D01*
X181670657Y-110693686D01*
X181617860Y-110739436D01*
X181612376Y-110744422D01*
X181570486Y-110813145D01*
X181570484Y-110813149D01*
X181549551Y-110884439D01*
X181548615Y-110884164D01*
X181517323Y-110941465D01*
X180387681Y-112071108D01*
X180326358Y-112104593D01*
X180256666Y-112099609D01*
X180212319Y-112071108D01*
X179797645Y-111656434D01*
X179797630Y-111656421D01*
X179771756Y-111635568D01*
X179771755Y-111635567D01*
X179727407Y-111607066D01*
X179654423Y-111582775D01*
X179584758Y-111577793D01*
X179579195Y-111577528D01*
X179577342Y-111577440D01*
X179577341Y-111577440D01*
X179555351Y-111582775D01*
X179499119Y-111596417D01*
X179499118Y-111596417D01*
X179499116Y-111596418D01*
X179437800Y-111629898D01*
X179437793Y-111629903D01*
X179402371Y-111656419D01*
X179402353Y-111656435D01*
X178950609Y-112108181D01*
X178889286Y-112141666D01*
X178862928Y-112144500D01*
X178223991Y-112144500D01*
X178190944Y-112148054D01*
X178139433Y-112159260D01*
X178070657Y-112193686D01*
X178017860Y-112239436D01*
X178012376Y-112244422D01*
X177970486Y-112313145D01*
X177970483Y-112313151D01*
X177950799Y-112380187D01*
X177950797Y-112380197D01*
X177944500Y-112423996D01*
X177944500Y-113062928D01*
X177924815Y-113129967D01*
X177908181Y-113150609D01*
X177696109Y-113362681D01*
X177634786Y-113396166D01*
X177608428Y-113399000D01*
X171983032Y-113399000D01*
X171915993Y-113379315D01*
X171870238Y-113326511D01*
X171860294Y-113292647D01*
X171857797Y-113275282D01*
X171855968Y-113262558D01*
X171854741Y-113255260D01*
X171854739Y-113255257D01*
X171854739Y-113255254D01*
X171819571Y-113182860D01*
X171819570Y-113182858D01*
X171773817Y-113130056D01*
X171768834Y-113124576D01*
X171700111Y-113082686D01*
X171700105Y-113082683D01*
X171633069Y-113062999D01*
X171633059Y-113062997D01*
X171589260Y-113056700D01*
X171589257Y-113056700D01*
X171449272Y-113056700D01*
X171382233Y-113037015D01*
X171361591Y-113020381D01*
X170919268Y-112578057D01*
X170919263Y-112578052D01*
X170906894Y-112566941D01*
X170906889Y-112566937D01*
X170906607Y-112566710D01*
X170900691Y-112561942D01*
X170886253Y-112550305D01*
X170879656Y-112545548D01*
X170872739Y-112540560D01*
X170869782Y-112538660D01*
X170866215Y-112536367D01*
X170846753Y-112525740D01*
X170841353Y-112523274D01*
X170814645Y-112511078D01*
X170787165Y-112505100D01*
X170787204Y-112504985D01*
X170773061Y-112500278D01*
X170735011Y-112492714D01*
X170733201Y-112492585D01*
X170689088Y-112495747D01*
X170683196Y-112497028D01*
X170680174Y-112497029D01*
X170672789Y-112497205D01*
X170671076Y-112497752D01*
X170671073Y-112497752D01*
X170657941Y-112501949D01*
X170646558Y-112504999D01*
X170620826Y-112510597D01*
X170579370Y-112526061D01*
X170579360Y-112526065D01*
X170565642Y-112533556D01*
X170565618Y-112533570D01*
X170546982Y-112545548D01*
X170530121Y-112558170D01*
X170518725Y-112566702D01*
X170518720Y-112566705D01*
X170518715Y-112566710D01*
X170501982Y-112581208D01*
X170501944Y-112581244D01*
X170062808Y-113020381D01*
X170001485Y-113053866D01*
X169975127Y-113056700D01*
X162037332Y-113056700D01*
X162020698Y-113057591D01*
X162020695Y-113057592D01*
X161994356Y-113060424D01*
X161994349Y-113060424D01*
X161977949Y-113063081D01*
X161974420Y-113063848D01*
X161970373Y-113064729D01*
X161970370Y-113064729D01*
X161970370Y-113064730D01*
X161970363Y-113064732D01*
X161933797Y-113077634D01*
X161933796Y-113077634D01*
X161878921Y-113105111D01*
X161878911Y-113105117D01*
X161878596Y-113105327D01*
X161878546Y-113105361D01*
X161846703Y-113126643D01*
X161845361Y-113127806D01*
X161843879Y-113129600D01*
X161843635Y-113129326D01*
X161843607Y-113129351D01*
X161842150Y-113131057D01*
X161842147Y-113131060D01*
X161816345Y-113161292D01*
X161778602Y-113220038D01*
X161760225Y-113260286D01*
X161755822Y-113275278D01*
X161755822Y-113275282D01*
X161751105Y-113296964D01*
X161746109Y-113331716D01*
X161746083Y-113331899D01*
X161744500Y-113354029D01*
X161744500Y-116074868D01*
X161745390Y-116091483D01*
X161746391Y-116100797D01*
X161748220Y-116117825D01*
X161750887Y-116134285D01*
X161750888Y-116134287D01*
X161752530Y-116141834D01*
X161765438Y-116178414D01*
X161792917Y-116233286D01*
X161792920Y-116233291D01*
X161814445Y-116265498D01*
X161814446Y-116265499D01*
X161814447Y-116265500D01*
X161815604Y-116266835D01*
X161819000Y-116269638D01*
X161821600Y-116271846D01*
X161849091Y-116295853D01*
X161907837Y-116333596D01*
X161948072Y-116351969D01*
X161963071Y-116356374D01*
X161984749Y-116361091D01*
X161984753Y-116361091D01*
X161984755Y-116361092D01*
X161996020Y-116362712D01*
X162019683Y-116366116D01*
X162032506Y-116367421D01*
X162032506Y-116367420D01*
X162034640Y-116367638D01*
X162040546Y-116367636D01*
X162041824Y-116367699D01*
X162041830Y-116367700D01*
X169691700Y-116367700D01*
X169758739Y-116387385D01*
X169804494Y-116440189D01*
X169815700Y-116491700D01*
X169815700Y-119072268D01*
X169816590Y-119088883D01*
X169816702Y-119089921D01*
X169819420Y-119115225D01*
X169822087Y-119131685D01*
X169822088Y-119131687D01*
X169823730Y-119139234D01*
X169836638Y-119175814D01*
X169864117Y-119230686D01*
X169864120Y-119230691D01*
X169885645Y-119262898D01*
X169885646Y-119262899D01*
X169885647Y-119262900D01*
X169886804Y-119264235D01*
X169890200Y-119267038D01*
X169892800Y-119269246D01*
X169920291Y-119293253D01*
X169979037Y-119330996D01*
X170019272Y-119349369D01*
X170034271Y-119353774D01*
X170055949Y-119358491D01*
X170055953Y-119358491D01*
X170055955Y-119358492D01*
X170067220Y-119360112D01*
X170090883Y-119363516D01*
X170103706Y-119364821D01*
X170103706Y-119364820D01*
X170105840Y-119365038D01*
X170111746Y-119365036D01*
X170113024Y-119365099D01*
X170113030Y-119365100D01*
X172833868Y-119365100D01*
X172850501Y-119364208D01*
X172876872Y-119361371D01*
X172887830Y-119359594D01*
X172893304Y-119358707D01*
X172893309Y-119358706D01*
X172900867Y-119357061D01*
X172937431Y-119344155D01*
X172992292Y-119316679D01*
X173006099Y-119307444D01*
X173009670Y-119306254D01*
X173012280Y-119303310D01*
X173024574Y-119295088D01*
X173025905Y-119293933D01*
X173025904Y-119293932D01*
X173044236Y-119278025D01*
X173047359Y-119269637D01*
X173053185Y-119262423D01*
X173054851Y-119260511D01*
X173092594Y-119201768D01*
X173110968Y-119161532D01*
X173115373Y-119146534D01*
X173120091Y-119124853D01*
X173125116Y-119089918D01*
X173125115Y-119089910D01*
X173125141Y-119088956D01*
X173125516Y-119082059D01*
X173126700Y-119067770D01*
X173126700Y-116834000D01*
X173146385Y-116766961D01*
X173199189Y-116721206D01*
X173250700Y-116710000D01*
X173949427Y-116710000D01*
X174016466Y-116729685D01*
X174062221Y-116782489D01*
X174072165Y-116851647D01*
X174043140Y-116915203D01*
X174037108Y-116921681D01*
X173965863Y-116992925D01*
X173965818Y-116992972D01*
X173954731Y-117005315D01*
X173954726Y-117005320D01*
X173938099Y-117025953D01*
X173938098Y-117025954D01*
X173928373Y-117039440D01*
X173924176Y-117045970D01*
X173907443Y-117080943D01*
X173888076Y-117139141D01*
X173880515Y-117177177D01*
X173880386Y-117178991D01*
X173883546Y-117223110D01*
X173898396Y-117291361D01*
X173898397Y-117291366D01*
X173898399Y-117291371D01*
X173904838Y-117308633D01*
X173913865Y-117332835D01*
X173921353Y-117346548D01*
X173921358Y-117346558D01*
X173933339Y-117365202D01*
X173933347Y-117365214D01*
X173954509Y-117393483D01*
X173969017Y-117410225D01*
X173969033Y-117410243D01*
X173969049Y-117410259D01*
X175608181Y-119049391D01*
X175641666Y-119110714D01*
X175644500Y-119137072D01*
X175644500Y-119762668D01*
X175645390Y-119779283D01*
X175645502Y-119780321D01*
X175648220Y-119805625D01*
X175650887Y-119822085D01*
X175650888Y-119822087D01*
X175652530Y-119829634D01*
X175665438Y-119866214D01*
X175692917Y-119921086D01*
X175692920Y-119921091D01*
X175714445Y-119953298D01*
X175714446Y-119953299D01*
X175714447Y-119953300D01*
X175715604Y-119954635D01*
X175719000Y-119957438D01*
X175721600Y-119959646D01*
X175749091Y-119983653D01*
X175807837Y-120021396D01*
X175848072Y-120039769D01*
X175863071Y-120044174D01*
X175884749Y-120048891D01*
X175884753Y-120048891D01*
X175884755Y-120048892D01*
X175896020Y-120050512D01*
X175919683Y-120053916D01*
X175932506Y-120055221D01*
X175932506Y-120055220D01*
X175934640Y-120055438D01*
X175940546Y-120055436D01*
X175941824Y-120055499D01*
X175941830Y-120055500D01*
X176562928Y-120055500D01*
X176629967Y-120075185D01*
X176650609Y-120091819D01*
X177092924Y-120534134D01*
X177092953Y-120534162D01*
X177105323Y-120545273D01*
X177105324Y-120545273D01*
X177125956Y-120561900D01*
X177125966Y-120561907D01*
X177125965Y-120561907D01*
X177139431Y-120571618D01*
X177139448Y-120571630D01*
X177139458Y-120571637D01*
X177145973Y-120575824D01*
X177180944Y-120592555D01*
X177239145Y-120611923D01*
X177277166Y-120619483D01*
X177277940Y-120619538D01*
X177278968Y-120619612D01*
X177278972Y-120619612D01*
X177278981Y-120619612D01*
X177323098Y-120616453D01*
X177323098Y-120616452D01*
X177323111Y-120616452D01*
X177391371Y-120601600D01*
X177432832Y-120586135D01*
X177446553Y-120578643D01*
X177465218Y-120566648D01*
X177493473Y-120545497D01*
X177493488Y-120545483D01*
X177493496Y-120545478D01*
X177510222Y-120530984D01*
X177510242Y-120530967D01*
X177949390Y-120091819D01*
X178010713Y-120058334D01*
X178037071Y-120055500D01*
X180062928Y-120055500D01*
X180129967Y-120075185D01*
X180150609Y-120091819D01*
X180592924Y-120534134D01*
X180592953Y-120534162D01*
X180605323Y-120545273D01*
X180605324Y-120545273D01*
X180625956Y-120561900D01*
X180625966Y-120561907D01*
X180625965Y-120561907D01*
X180639431Y-120571618D01*
X180639448Y-120571630D01*
X180639458Y-120571637D01*
X180645973Y-120575824D01*
X180680944Y-120592555D01*
X180739145Y-120611923D01*
X180777166Y-120619483D01*
X180778972Y-120619612D01*
X180801158Y-120619610D01*
X180836362Y-120617089D01*
X180878339Y-120604757D01*
X180886914Y-120602568D01*
X180891364Y-120601601D01*
X180932832Y-120586135D01*
X180946553Y-120578643D01*
X180965219Y-120566648D01*
X180993475Y-120545496D01*
X181010243Y-120530966D01*
X181449390Y-120091819D01*
X181510713Y-120058334D01*
X181537071Y-120055500D01*
X182162668Y-120055500D01*
X182179301Y-120054608D01*
X182205672Y-120051771D01*
X182216630Y-120049994D01*
X182222104Y-120049107D01*
X182222109Y-120049106D01*
X182229667Y-120047461D01*
X182266231Y-120034555D01*
X182321092Y-120007079D01*
X182334899Y-119997844D01*
X182338470Y-119996654D01*
X182341080Y-119993710D01*
X182353374Y-119985488D01*
X182354705Y-119984333D01*
X182354704Y-119984332D01*
X182373036Y-119968425D01*
X182376159Y-119960037D01*
X182381985Y-119952823D01*
X182383651Y-119950911D01*
X182421394Y-119892168D01*
X182439768Y-119851932D01*
X182444173Y-119836934D01*
X182448891Y-119815253D01*
X182453916Y-119780318D01*
X182453915Y-119780310D01*
X182453941Y-119779356D01*
X182454316Y-119772459D01*
X182455500Y-119758170D01*
X182455500Y-119179500D01*
X182475185Y-119112461D01*
X182527989Y-119066706D01*
X182579500Y-119055500D01*
X183162668Y-119055500D01*
X183179301Y-119054608D01*
X183205672Y-119051771D01*
X183216630Y-119049994D01*
X183222104Y-119049107D01*
X183222109Y-119049106D01*
X183229667Y-119047461D01*
X183266231Y-119034555D01*
X183321092Y-119007079D01*
X183321096Y-119007075D01*
X183321099Y-119007075D01*
X183337803Y-118995907D01*
X183353326Y-118985529D01*
X183354695Y-118984342D01*
X183370375Y-118968652D01*
X183393480Y-118941972D01*
X183414369Y-118903686D01*
X183418904Y-118896041D01*
X183421392Y-118892170D01*
X183439768Y-118851932D01*
X183444173Y-118836934D01*
X183448892Y-118815247D01*
X183453917Y-118780303D01*
X183455500Y-118758170D01*
X183455500Y-118137071D01*
X183475185Y-118070032D01*
X183491819Y-118049390D01*
X183702937Y-117838272D01*
X183934148Y-117607061D01*
X183945269Y-117594680D01*
X183961905Y-117574037D01*
X183971645Y-117560530D01*
X183975826Y-117554024D01*
X183992555Y-117519055D01*
X184011923Y-117460852D01*
X184019483Y-117422833D01*
X184019612Y-117421027D01*
X184019610Y-117398841D01*
X184017089Y-117363637D01*
X184004754Y-117321644D01*
X184002570Y-117313088D01*
X184001601Y-117308633D01*
X183986135Y-117267167D01*
X183986131Y-117267160D01*
X183986129Y-117267155D01*
X183978645Y-117253450D01*
X183978640Y-117253440D01*
X183966659Y-117234796D01*
X183966651Y-117234784D01*
X183945489Y-117206515D01*
X183930981Y-117189773D01*
X183930977Y-117189769D01*
X183930966Y-117189756D01*
X183491819Y-116750609D01*
X183477115Y-116723681D01*
X183460523Y-116697863D01*
X183459631Y-116691662D01*
X183458334Y-116689286D01*
X183455500Y-116662928D01*
X183455500Y-116531071D01*
X183475185Y-116464032D01*
X183491819Y-116443390D01*
X183701923Y-116233286D01*
X183934148Y-116001061D01*
X183945269Y-115988680D01*
X183961905Y-115968037D01*
X183971645Y-115954530D01*
X183975826Y-115948024D01*
X183992555Y-115913055D01*
X184011923Y-115854852D01*
X184019483Y-115816833D01*
X184019612Y-115815027D01*
X184019610Y-115792841D01*
X184017089Y-115757637D01*
X184004754Y-115715644D01*
X184002570Y-115707088D01*
X184001601Y-115702633D01*
X183986135Y-115661167D01*
X183986131Y-115661160D01*
X183986129Y-115661155D01*
X183978645Y-115647450D01*
X183978640Y-115647440D01*
X183966659Y-115628796D01*
X183966651Y-115628784D01*
X183945489Y-115600515D01*
X183930981Y-115583773D01*
X183930977Y-115583769D01*
X183930966Y-115583756D01*
X183491819Y-115144609D01*
X183458334Y-115083286D01*
X183455500Y-115056928D01*
X183455500Y-114431330D01*
X183454608Y-114414705D01*
X183454608Y-114414698D01*
X183451771Y-114388327D01*
X183449106Y-114371890D01*
X183447461Y-114364332D01*
X183434555Y-114327768D01*
X183407079Y-114272907D01*
X183407076Y-114272902D01*
X183407075Y-114272899D01*
X183385537Y-114240685D01*
X183385530Y-114240675D01*
X183385529Y-114240673D01*
X183384342Y-114239304D01*
X183368652Y-114223624D01*
X183368643Y-114223616D01*
X183368630Y-114223604D01*
X183341972Y-114200519D01*
X183307501Y-114181708D01*
X183307495Y-114181705D01*
X183299754Y-114177481D01*
X183292152Y-114172598D01*
X183251915Y-114154226D01*
X183239132Y-114150472D01*
X183231048Y-114146779D01*
X183211084Y-114129475D01*
X183188855Y-114115186D01*
X183185093Y-114106946D01*
X183178251Y-114101016D01*
X183170811Y-114075664D01*
X183159837Y-114051627D01*
X183161126Y-114042662D01*
X183158577Y-114033974D01*
X183166024Y-114008624D01*
X183169788Y-113982469D01*
X183176584Y-113972682D01*
X183178272Y-113966937D01*
X183184048Y-113961933D01*
X183194893Y-113946315D01*
X184199391Y-112941819D01*
X184260714Y-112908334D01*
X184287072Y-112905500D01*
X185983628Y-112905500D01*
X186050667Y-112925185D01*
X186071309Y-112941819D01*
X190880081Y-117750591D01*
X190913566Y-117811914D01*
X190916400Y-117838272D01*
X190916400Y-119876008D01*
X190919954Y-119909055D01*
X190931160Y-119960566D01*
X190965586Y-120029342D01*
X191011336Y-120082139D01*
X191016322Y-120087623D01*
X191085045Y-120129513D01*
X191085050Y-120129516D01*
X191152089Y-120149201D01*
X191195900Y-120155500D01*
X195475991Y-120155500D01*
X195476000Y-120155500D01*
X195509055Y-120151946D01*
X195560566Y-120140740D01*
X195629342Y-120106313D01*
X195682146Y-120060558D01*
X195687621Y-120055580D01*
X195688214Y-120054608D01*
X195697412Y-120039516D01*
X195729516Y-119986850D01*
X195749201Y-119919811D01*
X195755500Y-119876000D01*
X195755500Y-117279500D01*
X195775185Y-117212461D01*
X195827989Y-117166706D01*
X195879500Y-117155500D01*
X202062928Y-117155500D01*
X202129967Y-117175185D01*
X202150609Y-117191819D01*
X202602354Y-117643565D01*
X202602369Y-117643578D01*
X202628243Y-117664431D01*
X202628244Y-117664432D01*
X202672592Y-117692933D01*
X202672594Y-117692934D01*
X202745574Y-117717224D01*
X202815266Y-117722208D01*
X202822658Y-117722560D01*
X202900881Y-117703583D01*
X202962204Y-117670098D01*
X202997636Y-117643574D01*
X203449390Y-117191817D01*
X203510712Y-117158334D01*
X203537070Y-117155500D01*
X204162668Y-117155500D01*
X204179301Y-117154608D01*
X204205672Y-117151771D01*
X204216630Y-117149994D01*
X204222104Y-117149107D01*
X204222109Y-117149106D01*
X204229667Y-117147461D01*
X204266231Y-117134555D01*
X204321092Y-117107079D01*
X204321096Y-117107075D01*
X204321099Y-117107075D01*
X204337073Y-117096394D01*
X204353326Y-117085529D01*
X204354695Y-117084342D01*
X204370375Y-117068652D01*
X204393480Y-117041972D01*
X204414369Y-117003686D01*
X204418904Y-116996041D01*
X204421392Y-116992170D01*
X204439768Y-116951932D01*
X204444173Y-116936934D01*
X204448892Y-116915247D01*
X204453917Y-116880303D01*
X204455500Y-116858170D01*
X204455500Y-116237071D01*
X204475185Y-116170032D01*
X204491819Y-116149390D01*
X206949391Y-113691819D01*
X207010714Y-113658334D01*
X207037072Y-113655500D01*
X207675991Y-113655500D01*
X207676000Y-113655500D01*
X207709055Y-113651946D01*
X207760566Y-113640740D01*
X207829342Y-113606313D01*
X207882146Y-113560558D01*
X207887621Y-113555580D01*
X207929516Y-113486850D01*
X207949201Y-113419811D01*
X207955500Y-113376000D01*
X207955500Y-112737071D01*
X207975185Y-112670032D01*
X207991819Y-112649390D01*
X208217210Y-112424000D01*
X208443574Y-112197636D01*
X208464431Y-112171756D01*
X208464432Y-112171755D01*
X208492933Y-112127407D01*
X208492934Y-112127406D01*
X208517224Y-112054426D01*
X208522208Y-111984734D01*
X208522560Y-111977342D01*
X208503583Y-111899119D01*
X208493293Y-111880275D01*
X208470101Y-111837800D01*
X208470096Y-111837793D01*
X208443580Y-111802371D01*
X208443564Y-111802353D01*
X207991819Y-111350608D01*
X207958334Y-111289285D01*
X207955500Y-111262927D01*
X207955500Y-100437071D01*
X207975185Y-100370032D01*
X207991819Y-100349390D01*
X209049390Y-99291819D01*
X209110713Y-99258334D01*
X209137071Y-99255500D01*
X209436000Y-99255500D01*
X209503039Y-99275185D01*
X209548794Y-99327989D01*
X209560000Y-99379500D01*
X209560000Y-121638170D01*
X209559999Y-121638176D01*
X209560000Y-121638179D01*
X209554975Y-121673114D01*
X209550570Y-121688112D01*
X209512827Y-121746855D01*
X209512792Y-121746885D01*
X209512791Y-121746887D01*
X209512789Y-121746887D01*
X209511458Y-121748042D01*
X209456597Y-121775518D01*
X209449039Y-121777163D01*
X209422668Y-121780000D01*
X110701830Y-121780000D01*
X110701825Y-121779999D01*
X110701823Y-121780000D01*
X110666889Y-121774975D01*
X110651890Y-121770570D01*
X110593144Y-121732827D01*
X110593115Y-121732793D01*
X110593114Y-121732793D01*
X110593113Y-121732791D01*
X110591957Y-121731458D01*
X110564477Y-121676583D01*
X110562832Y-121669021D01*
X110560000Y-121642668D01*
X110560000Y-67941829D01*
X110565023Y-67906893D01*
X110569427Y-67891895D01*
X110607172Y-67833144D01*
X110607200Y-67833119D01*
X110607199Y-67833119D01*
X110608541Y-67831956D01*
X110663420Y-67804477D01*
X110670979Y-67802833D01*
X110697332Y-67800000D01*
X129642745Y-67800000D01*
X129709784Y-67819685D01*
G37*
G04 #@! TD.AperFunction*
G04 #@! TA.AperFunction,Conductor*
G36*
X209453106Y-67805023D02*
G01*
X209468104Y-67809427D01*
X209483094Y-67819057D01*
X209500175Y-67824067D01*
X209526855Y-67847172D01*
X209528042Y-67848541D01*
X209555518Y-67903402D01*
X209557163Y-67910960D01*
X209560000Y-67937331D01*
X209560000Y-82720500D01*
X209540315Y-82787539D01*
X209487511Y-82833294D01*
X209436000Y-82844500D01*
X209137072Y-82844500D01*
X209070033Y-82824815D01*
X209049391Y-82808181D01*
X199991819Y-73750609D01*
X199958334Y-73689286D01*
X199955500Y-73662928D01*
X199955500Y-70741008D01*
X199955499Y-70740991D01*
X199951946Y-70707945D01*
X199940740Y-70656434D01*
X199923545Y-70622084D01*
X199906313Y-70587657D01*
X199860563Y-70534860D01*
X199855577Y-70529376D01*
X199786854Y-70487486D01*
X199786848Y-70487483D01*
X199719812Y-70467799D01*
X199719802Y-70467797D01*
X199676003Y-70461500D01*
X199676000Y-70461500D01*
X198279500Y-70461500D01*
X198212461Y-70441815D01*
X198166706Y-70389011D01*
X198155500Y-70337500D01*
X198155500Y-69841008D01*
X198155499Y-69840996D01*
X198151946Y-69807945D01*
X198140740Y-69756434D01*
X198123545Y-69722084D01*
X198106313Y-69687657D01*
X198060563Y-69634860D01*
X198055577Y-69629376D01*
X197986854Y-69587486D01*
X197986848Y-69587483D01*
X197919812Y-69567799D01*
X197919802Y-69567797D01*
X197876003Y-69561500D01*
X197876000Y-69561500D01*
X196616872Y-69561500D01*
X196549833Y-69541815D01*
X196529191Y-69525181D01*
X195937545Y-68933534D01*
X195937530Y-68933521D01*
X195911656Y-68912668D01*
X195911655Y-68912667D01*
X195867307Y-68884166D01*
X195794323Y-68859875D01*
X195724658Y-68854893D01*
X195719095Y-68854628D01*
X195717242Y-68854540D01*
X195717241Y-68854540D01*
X195695251Y-68859875D01*
X195639019Y-68873517D01*
X195639018Y-68873517D01*
X195639016Y-68873518D01*
X195577700Y-68906998D01*
X195577693Y-68907003D01*
X195542271Y-68933519D01*
X195542253Y-68933535D01*
X194950609Y-69525181D01*
X194923681Y-69539884D01*
X194897863Y-69556477D01*
X194891662Y-69557368D01*
X194889286Y-69558666D01*
X194862928Y-69561500D01*
X194620072Y-69561500D01*
X194553033Y-69541815D01*
X194532391Y-69525181D01*
X193940745Y-68933534D01*
X193940730Y-68933521D01*
X193914856Y-68912668D01*
X193914855Y-68912667D01*
X193870507Y-68884166D01*
X193797523Y-68859875D01*
X193727858Y-68854893D01*
X193722295Y-68854628D01*
X193720442Y-68854540D01*
X193720441Y-68854540D01*
X193698451Y-68859875D01*
X193642219Y-68873517D01*
X193642218Y-68873517D01*
X193642216Y-68873518D01*
X193580900Y-68906998D01*
X193580893Y-68907003D01*
X193545471Y-68933519D01*
X193545453Y-68933535D01*
X192953809Y-69525181D01*
X192892486Y-69558666D01*
X192866128Y-69561500D01*
X191606991Y-69561500D01*
X191573944Y-69565054D01*
X191522433Y-69576260D01*
X191453657Y-69610686D01*
X191400860Y-69656436D01*
X191395376Y-69661422D01*
X191353486Y-69730145D01*
X191353483Y-69730151D01*
X191333799Y-69797187D01*
X191333797Y-69797197D01*
X191327500Y-69840996D01*
X191327500Y-70120500D01*
X191307815Y-70187539D01*
X191255011Y-70233294D01*
X191203500Y-70244500D01*
X177500000Y-70244500D01*
X176383572Y-70244500D01*
X176316533Y-70224815D01*
X176295895Y-70208185D01*
X176197636Y-70109926D01*
X176197630Y-70109921D01*
X176171756Y-70089068D01*
X176171755Y-70089067D01*
X176127407Y-70060566D01*
X176054423Y-70036275D01*
X175984758Y-70031293D01*
X175979195Y-70031028D01*
X175977342Y-70030940D01*
X175977341Y-70030940D01*
X175955351Y-70036275D01*
X175899119Y-70049917D01*
X175899118Y-70049917D01*
X175899116Y-70049918D01*
X175837800Y-70083398D01*
X175837793Y-70083403D01*
X175802371Y-70109919D01*
X175802361Y-70109928D01*
X175753235Y-70159054D01*
X175704107Y-70208182D01*
X175642787Y-70241666D01*
X175616428Y-70244500D01*
X174537072Y-70244500D01*
X174470033Y-70224815D01*
X174449391Y-70208181D01*
X172252891Y-68011681D01*
X172219406Y-67950358D01*
X172224390Y-67880666D01*
X172266262Y-67824733D01*
X172331726Y-67800316D01*
X172340572Y-67800000D01*
X209418170Y-67800000D01*
X209453106Y-67805023D01*
G37*
G04 #@! TD.AperFunction*
G04 #@! TA.AperFunction,Conductor*
G36*
X149179977Y-67819685D02*
G01*
X149225732Y-67872489D01*
X149235676Y-67941647D01*
X149206651Y-68005203D01*
X149200620Y-68011679D01*
X147541847Y-69670500D01*
X147391571Y-69820780D01*
X147330249Y-69854266D01*
X147303889Y-69857100D01*
X144279600Y-69857100D01*
X144212561Y-69837415D01*
X144166806Y-69784611D01*
X144155600Y-69733100D01*
X144155600Y-68899008D01*
X144155599Y-68898991D01*
X144152860Y-68873518D01*
X144152046Y-68865945D01*
X144140840Y-68814434D01*
X144117249Y-68767305D01*
X144106413Y-68745657D01*
X144069208Y-68702722D01*
X144060658Y-68692854D01*
X144055680Y-68687379D01*
X144055679Y-68687378D01*
X144055677Y-68687376D01*
X143986954Y-68645486D01*
X143986948Y-68645483D01*
X143919912Y-68625799D01*
X143919902Y-68625797D01*
X143876103Y-68619500D01*
X143876100Y-68619500D01*
X143041872Y-68619500D01*
X142974833Y-68599815D01*
X142954191Y-68583181D01*
X142382692Y-68011681D01*
X142349207Y-67950358D01*
X142354191Y-67880666D01*
X142396063Y-67824733D01*
X142461527Y-67800316D01*
X142470373Y-67800000D01*
X149112938Y-67800000D01*
X149179977Y-67819685D01*
G37*
G04 #@! TD.AperFunction*
G04 #@! TA.AperFunction,Conductor*
G36*
X163926466Y-67819685D02*
G01*
X163972221Y-67872489D01*
X163982165Y-67941647D01*
X163953140Y-68005203D01*
X163947108Y-68011681D01*
X162139209Y-69819581D01*
X162077886Y-69853066D01*
X162051528Y-69855900D01*
X160794911Y-69855900D01*
X160727872Y-69836215D01*
X160707229Y-69819580D01*
X159789009Y-68901335D01*
X158899378Y-68011679D01*
X158865894Y-67950356D01*
X158870880Y-67880665D01*
X158912752Y-67824732D01*
X158978217Y-67800316D01*
X158987061Y-67800000D01*
X163859427Y-67800000D01*
X163926466Y-67819685D01*
G37*
G04 #@! TD.AperFunction*
G04 #@! TA.AperFunction,Conductor*
G36*
X157879966Y-67819685D02*
G01*
X157925721Y-67872489D01*
X157935665Y-67941647D01*
X157906640Y-68005203D01*
X157900608Y-68011681D01*
X157193324Y-68718964D01*
X157193310Y-68718979D01*
X157172463Y-68744849D01*
X157172461Y-68744852D01*
X157143965Y-68789194D01*
X157143964Y-68789196D01*
X157143963Y-68789198D01*
X157143963Y-68789199D01*
X157128831Y-68834660D01*
X157088984Y-68892051D01*
X157024433Y-68918789D01*
X157011178Y-68919500D01*
X151089375Y-68919500D01*
X151022336Y-68899815D01*
X150976581Y-68847011D01*
X150968872Y-68824741D01*
X150966684Y-68815720D01*
X150956394Y-68796876D01*
X150933202Y-68754401D01*
X150933197Y-68754394D01*
X150906681Y-68718972D01*
X150906665Y-68718954D01*
X150199391Y-68011681D01*
X150165906Y-67950358D01*
X150170890Y-67880667D01*
X150212761Y-67824733D01*
X150278226Y-67800316D01*
X150287072Y-67800000D01*
X157812927Y-67800000D01*
X157879966Y-67819685D01*
G37*
G04 #@! TD.AperFunction*
G04 #@! TA.AperFunction,Conductor*
G36*
X170326467Y-67819685D02*
G01*
X170372222Y-67872489D01*
X170382166Y-67941647D01*
X170353141Y-68005203D01*
X170347109Y-68011681D01*
X169916527Y-68442261D01*
X169916520Y-68442269D01*
X169895662Y-68468151D01*
X169867164Y-68512495D01*
X169842875Y-68585474D01*
X169842875Y-68585477D01*
X169837893Y-68655140D01*
X169837892Y-68655165D01*
X169837540Y-68662557D01*
X169838439Y-68666265D01*
X169838258Y-68670079D01*
X169838383Y-68671386D01*
X169838195Y-68671403D01*
X169835118Y-68736052D01*
X169794591Y-68792968D01*
X169729728Y-68818938D01*
X169717936Y-68819500D01*
X166481356Y-68819500D01*
X166414317Y-68799815D01*
X166368562Y-68747011D01*
X166357672Y-68686656D01*
X166360616Y-68645483D01*
X166362107Y-68624633D01*
X166362459Y-68617241D01*
X166343482Y-68539018D01*
X166328999Y-68512495D01*
X166310000Y-68477699D01*
X166309995Y-68477692D01*
X166283479Y-68442270D01*
X166283463Y-68442252D01*
X165852891Y-68011681D01*
X165819406Y-67950358D01*
X165824390Y-67880667D01*
X165866261Y-67824733D01*
X165931726Y-67800316D01*
X165940572Y-67800000D01*
X170259428Y-67800000D01*
X170326467Y-67819685D01*
G37*
G04 #@! TD.AperFunction*
G04 #@! TA.AperFunction,Conductor*
G36*
X141930066Y-67819685D02*
G01*
X141975821Y-67872489D01*
X141985765Y-67941647D01*
X141956740Y-68005203D01*
X141950708Y-68011681D01*
X141379209Y-68583181D01*
X141317886Y-68616666D01*
X141291528Y-68619500D01*
X138829500Y-68619500D01*
X138762461Y-68599815D01*
X138716706Y-68547011D01*
X138705500Y-68495500D01*
X138705500Y-68074008D01*
X138705499Y-68073996D01*
X138701946Y-68040945D01*
X138690740Y-67989434D01*
X138690739Y-67989432D01*
X138685769Y-67979502D01*
X138673365Y-67910742D01*
X138700104Y-67846191D01*
X138757498Y-67806345D01*
X138796654Y-67800000D01*
X141863027Y-67800000D01*
X141930066Y-67819685D01*
G37*
G04 #@! TD.AperFunction*
G04 #@! TA.AperFunction,Conductor*
G36*
X194378700Y-70317000D02*
G01*
X195878700Y-71817000D01*
X191483000Y-71817000D01*
X191483000Y-69841000D01*
X191502685Y-69773961D01*
X191555489Y-69728206D01*
X191607000Y-69717000D01*
X192981900Y-69717000D01*
X194978700Y-69717000D01*
X194378700Y-70317000D01*
G37*
G04 #@! TD.AperFunction*
G04 #@! TA.AperFunction,Conductor*
G36*
X197943039Y-69736685D02*
G01*
X197988794Y-69789489D01*
X198000000Y-69841000D01*
X198000000Y-71215900D01*
X196501100Y-69717000D01*
X197876000Y-69717000D01*
X197943039Y-69736685D01*
G37*
G04 #@! TD.AperFunction*
G04 #@! TA.AperFunction,Conductor*
G36*
X172800000Y-70900000D02*
G01*
X163400000Y-70900000D01*
X163400000Y-68975000D01*
X172800000Y-68975000D01*
X172800000Y-70900000D01*
G37*
G04 #@! TD.AperFunction*
G04 #@! TA.AperFunction,Conductor*
G36*
X127043039Y-114951885D02*
G01*
X127088794Y-115004689D01*
X127100000Y-115056200D01*
X127100000Y-117308200D01*
X127080315Y-117375239D01*
X127027511Y-117420994D01*
X126976000Y-117432200D01*
X124867800Y-117432200D01*
X126117800Y-116182200D01*
X124867800Y-114932200D01*
X126976000Y-114932200D01*
X127043039Y-114951885D01*
G37*
G04 #@! TD.AperFunction*
G04 #@! TA.AperFunction,Conductor*
G36*
X177500000Y-73400000D02*
G01*
X172424000Y-73400000D01*
X172356961Y-73380315D01*
X172311206Y-73327511D01*
X172300000Y-73276000D01*
X172300000Y-71001100D01*
X172300000Y-70900000D01*
X172800000Y-70900000D01*
X172800000Y-70400000D01*
X176267800Y-70400000D01*
X177500000Y-70400000D01*
X177500000Y-73400000D01*
G37*
G04 #@! TD.AperFunction*
G04 #@! TA.AperFunction,Conductor*
G36*
X172300000Y-71001100D02*
G01*
X172198900Y-70900000D01*
X172300000Y-70900000D01*
X172300000Y-71001100D01*
G37*
G04 #@! TD.AperFunction*
G04 #@! TA.AperFunction,Conductor*
G36*
X171343334Y-67337880D02*
G01*
X171387681Y-67366381D01*
X174421300Y-70400000D01*
X172800000Y-70400000D01*
X172800000Y-68975000D01*
X170273900Y-68975000D01*
X170273900Y-68974999D01*
X170026481Y-68727580D01*
X169992996Y-68666257D01*
X169997980Y-68596565D01*
X170026479Y-68552220D01*
X171212319Y-67366381D01*
X171273642Y-67332896D01*
X171343334Y-67337880D01*
G37*
G04 #@! TD.AperFunction*
G04 #@! TA.AperFunction,Conductor*
G36*
X163400000Y-70900000D02*
G01*
X164270200Y-70900000D01*
X164270200Y-72511400D01*
X159035400Y-72511400D01*
X158968361Y-72491715D01*
X158922606Y-72438911D01*
X158911400Y-72387400D01*
X158911400Y-70750000D01*
X159048948Y-70750000D01*
X160744700Y-72445800D01*
X161929100Y-71261400D01*
X160679135Y-70011400D01*
X163400000Y-70011400D01*
X163400000Y-70900000D01*
G37*
G04 #@! TD.AperFunction*
G04 #@! TA.AperFunction,Conductor*
G36*
X176678700Y-119900000D02*
G01*
X175941830Y-119900000D01*
X175941825Y-119899999D01*
X175941823Y-119900000D01*
X175906889Y-119894975D01*
X175891890Y-119890570D01*
X175833144Y-119852827D01*
X175833115Y-119852793D01*
X175833114Y-119852793D01*
X175833113Y-119852791D01*
X175831957Y-119851458D01*
X175804477Y-119796583D01*
X175802832Y-119789021D01*
X175800000Y-119762668D01*
X175800000Y-119021300D01*
X176678700Y-119900000D01*
G37*
G04 #@! TD.AperFunction*
G04 #@! TA.AperFunction,Conductor*
G36*
X180178700Y-119900000D02*
G01*
X177921300Y-119900000D01*
X179050000Y-118771300D01*
X180178700Y-119900000D01*
G37*
G04 #@! TD.AperFunction*
G04 #@! TA.AperFunction,Conductor*
G36*
X182300000Y-119758170D02*
G01*
X182299999Y-119758176D01*
X182300000Y-119758179D01*
X182294975Y-119793114D01*
X182290570Y-119808112D01*
X182252827Y-119866855D01*
X182252792Y-119866885D01*
X182252791Y-119866887D01*
X182252789Y-119866887D01*
X182251458Y-119868042D01*
X182196597Y-119895518D01*
X182189039Y-119897163D01*
X182162668Y-119900000D01*
X181421300Y-119900000D01*
X182300000Y-119021300D01*
X182300000Y-119758170D01*
G37*
G04 #@! TD.AperFunction*
G04 #@! TA.AperFunction,Conductor*
G36*
X179050000Y-118028700D02*
G01*
X178293174Y-117271874D01*
X178360766Y-117276708D01*
X178368158Y-117277060D01*
X178446381Y-117258083D01*
X178507704Y-117224598D01*
X178543136Y-117198074D01*
X178804891Y-116936317D01*
X178866212Y-116902834D01*
X178892571Y-116900000D01*
X180178700Y-116900000D01*
X179050000Y-118028700D01*
G37*
G04 #@! TD.AperFunction*
G04 #@! TA.AperFunction,Conductor*
G36*
X165215400Y-71167800D02*
G01*
X164947600Y-70900000D01*
X165215400Y-70900000D01*
X165215400Y-71167800D01*
G37*
G04 #@! TD.AperFunction*
G04 #@! TA.AperFunction,Conductor*
G36*
X146169700Y-71262600D02*
G01*
X147354100Y-72447000D01*
X149051052Y-70750000D01*
X149187400Y-70750000D01*
X149187400Y-72388600D01*
X149167715Y-72455639D01*
X149114911Y-72501394D01*
X149063400Y-72512600D01*
X143686600Y-72512600D01*
X143619561Y-72492915D01*
X143573806Y-72440111D01*
X143562600Y-72388600D01*
X143562600Y-71780300D01*
X143562600Y-70450000D01*
X144000100Y-70450000D01*
X144000100Y-70012600D01*
X147419665Y-70012600D01*
X146169700Y-71262600D01*
G37*
G04 #@! TD.AperFunction*
G04 #@! TA.AperFunction,Conductor*
G36*
X149743333Y-67791381D02*
G01*
X149787682Y-67819882D01*
X150796720Y-68828920D01*
X150830205Y-68890243D01*
X150825221Y-68959935D01*
X150796721Y-69004281D01*
X150726003Y-69074999D01*
X150726004Y-69075000D01*
X148450000Y-69075000D01*
X148450000Y-70750000D01*
X149051052Y-70750000D01*
X147354100Y-72447000D01*
X146169700Y-71262600D01*
X149612321Y-67819881D01*
X149673641Y-67786397D01*
X149743333Y-67791381D01*
G37*
G04 #@! TD.AperFunction*
G04 #@! TA.AperFunction,Conductor*
G36*
X178878700Y-113800000D02*
G01*
X180378700Y-115300000D01*
X178100000Y-115300000D01*
X178100000Y-112424000D01*
X178119685Y-112356961D01*
X178172489Y-112311206D01*
X178224000Y-112300000D01*
X178978700Y-112300000D01*
X180378700Y-112300000D01*
X178878700Y-113800000D01*
G37*
G04 #@! TD.AperFunction*
G04 #@! TA.AperFunction,Conductor*
G36*
X182500000Y-115176000D02*
G01*
X182480315Y-115243039D01*
X182427511Y-115288794D01*
X182376000Y-115300000D01*
X181621300Y-115300000D01*
X182500000Y-114421300D01*
X182500000Y-115176000D01*
G37*
G04 #@! TD.AperFunction*
G04 #@! TA.AperFunction,Conductor*
G36*
X168590900Y-114712200D02*
G01*
X169971200Y-116092500D01*
X169971200Y-116212200D01*
X162041830Y-116212200D01*
X162041825Y-116212199D01*
X162041823Y-116212200D01*
X162006889Y-116207175D01*
X161991890Y-116202770D01*
X161933144Y-116165027D01*
X161933115Y-116164993D01*
X161933114Y-116164993D01*
X161933113Y-116164991D01*
X161931957Y-116163658D01*
X161904477Y-116108783D01*
X161902832Y-116101221D01*
X161900000Y-116074868D01*
X161900000Y-113354029D01*
X161905023Y-113319093D01*
X161909427Y-113304095D01*
X161947172Y-113245344D01*
X161947200Y-113245319D01*
X161947199Y-113245319D01*
X161948541Y-113244156D01*
X162003420Y-113216677D01*
X162010979Y-113215033D01*
X162037332Y-113212200D01*
X170090900Y-113212200D01*
X168590900Y-114712200D01*
G37*
G04 #@! TD.AperFunction*
G04 #@! TA.AperFunction,Conductor*
G36*
X171656296Y-113231885D02*
G01*
X171702051Y-113284689D01*
X171711995Y-113353847D01*
X171682970Y-113417403D01*
X171648964Y-113443818D01*
X171649005Y-113443879D01*
X171648162Y-113444441D01*
X171644760Y-113447085D01*
X171642555Y-113448188D01*
X171603408Y-113482108D01*
X171333500Y-113212200D01*
X171589257Y-113212200D01*
X171656296Y-113231885D01*
G37*
G04 #@! TD.AperFunction*
G04 #@! TA.AperFunction,Conductor*
G36*
X180300000Y-115497290D02*
G01*
X180300000Y-116415300D01*
X180037319Y-116152619D01*
X180003834Y-116091296D01*
X180001000Y-116064938D01*
X180001000Y-115791571D01*
X180009644Y-115762130D01*
X180016168Y-115732144D01*
X180019922Y-115727128D01*
X180020685Y-115724532D01*
X180037319Y-115703890D01*
X180047498Y-115693711D01*
X180212320Y-115528888D01*
X180273641Y-115495405D01*
X180300000Y-115497290D01*
G37*
G04 #@! TD.AperFunction*
G04 #@! TA.AperFunction,Conductor*
G36*
X183821011Y-115693711D02*
G01*
X183842163Y-115721967D01*
X183849655Y-115735688D01*
X183853444Y-115753105D01*
X183861986Y-115768744D01*
X183864507Y-115803948D01*
X183864378Y-115805754D01*
X183845010Y-115863957D01*
X183840829Y-115870463D01*
X183824193Y-115891106D01*
X183300000Y-116415299D01*
X183300000Y-115172700D01*
X183821011Y-115693711D01*
G37*
G04 #@! TD.AperFunction*
G04 #@! TA.AperFunction,Conductor*
G36*
X136850000Y-71417799D02*
G01*
X136850000Y-70450000D01*
X137817799Y-70450000D01*
X136850000Y-71417799D01*
G37*
G04 #@! TD.AperFunction*
G04 #@! TA.AperFunction,Conductor*
G36*
X138642800Y-68775000D02*
G01*
X138550000Y-68775000D01*
X138550000Y-68682200D01*
X138642800Y-68775000D01*
G37*
G04 #@! TD.AperFunction*
G04 #@! TA.AperFunction,Conductor*
G36*
X200678700Y-115500000D02*
G01*
X202178700Y-117000000D01*
X195788367Y-117000000D01*
X195721328Y-116980315D01*
X195694654Y-116957203D01*
X195660560Y-116917856D01*
X195655577Y-116912376D01*
X195586854Y-116870486D01*
X195586848Y-116870483D01*
X195519812Y-116850799D01*
X195519802Y-116850797D01*
X195476003Y-116844500D01*
X195476000Y-116844500D01*
X193222872Y-116844500D01*
X193155833Y-116824815D01*
X193135191Y-116808181D01*
X191736319Y-115409309D01*
X191702834Y-115347986D01*
X191700000Y-115321628D01*
X191700000Y-114124000D01*
X191719685Y-114056961D01*
X191772489Y-114011206D01*
X191824000Y-114000000D01*
X202178700Y-114000000D01*
X200678700Y-115500000D01*
G37*
G04 #@! TD.AperFunction*
G04 #@! TA.AperFunction,Conductor*
G36*
X204300000Y-116858170D02*
G01*
X204294975Y-116893114D01*
X204290570Y-116908112D01*
X204280939Y-116923101D01*
X204275932Y-116940175D01*
X204252827Y-116966855D01*
X204251458Y-116968042D01*
X204196597Y-116995518D01*
X204189039Y-116997163D01*
X204162668Y-117000000D01*
X203421300Y-117000000D01*
X204300000Y-116121300D01*
X204300000Y-116858170D01*
G37*
G04 #@! TD.AperFunction*
M02*
