G04 #@! TF.GenerationSoftware,KiCad,Pcbnew,10.0.1*
G04 #@! TF.CreationDate,2026-04-20T18:22:24+03:00*
G04 #@! TF.ProjectId,frank_m2,6672616e-6b5f-46d3-922e-6b696361645f,2.07*
G04 #@! TF.SameCoordinates,Original*
G04 #@! TF.FileFunction,Soldermask,Top*
G04 #@! TF.FilePolarity,Negative*
%FSLAX46Y46*%
G04 Gerber Fmt 4.6, Leading zero omitted, Abs format (unit mm)*
G04 Created by KiCad (PCBNEW 10.0.1) date 2026-04-20 18:22:24*
%MOMM*%
%LPD*%
G01*
G04 APERTURE LIST*
G04 Aperture macros list*
%AMRoundRect*
0 Rectangle with rounded corners*
0 $1 Rounding radius*
0 $2 $3 $4 $5 $6 $7 $8 $9 X,Y pos of 4 corners*
0 Add a 4 corners polygon primitive as box body*
4,1,4,$2,$3,$4,$5,$6,$7,$8,$9,$2,$3,0*
0 Add four circle primitives for the rounded corners*
1,1,$1+$1,$2,$3*
1,1,$1+$1,$4,$5*
1,1,$1+$1,$6,$7*
1,1,$1+$1,$8,$9*
0 Add four rect primitives between the rounded corners*
20,1,$1+$1,$2,$3,$4,$5,0*
20,1,$1+$1,$4,$5,$6,$7,0*
20,1,$1+$1,$6,$7,$8,$9,0*
20,1,$1+$1,$8,$9,$2,$3,0*%
%AMFreePoly0*
4,1,25,1.935306,0.780194,1.989950,0.741421,2.341421,0.389950,2.388777,0.314585,2.400000,0.248529,2.400000,-0.248529,2.380194,-0.335306,2.341421,-0.389950,1.989950,-0.741421,1.914585,-0.788777,1.848529,-0.800000,-0.248529,-0.800000,-0.335306,-0.780194,-0.389950,-0.741421,-0.741421,-0.389950,-0.788777,-0.314585,-0.800000,-0.248529,-0.800000,0.248529,-0.780194,0.335306,-0.741421,0.389950,
-0.389950,0.741421,-0.314585,0.788777,-0.248529,0.800000,1.848529,0.800000,1.935306,0.780194,1.935306,0.780194,$1*%
%AMFreePoly1*
4,1,25,0.335306,0.780194,0.389950,0.741421,0.741421,0.389950,0.788777,0.314585,0.800000,0.248529,0.800000,-0.248529,0.780194,-0.335306,0.741421,-0.389950,0.389950,-0.741421,0.314585,-0.788777,0.248529,-0.800000,-0.248529,-0.800000,-0.335306,-0.780194,-0.389950,-0.741421,-0.741421,-0.389950,-0.788777,-0.314585,-0.800000,-0.248529,-0.800000,0.248529,-0.780194,0.335306,-0.741421,0.389950,
-0.389950,0.741421,-0.314585,0.788777,-0.248529,0.800000,0.248529,0.800000,0.335306,0.780194,0.335306,0.780194,$1*%
G04 Aperture macros list end*
%ADD10R,1.300000X1.300000*%
%ADD11C,1.300000*%
%ADD12C,1.875000*%
%ADD13R,0.300000X2.600000*%
%ADD14RoundRect,0.350000X0.350000X1.300000X-0.350000X1.300000X-0.350000X-1.300000X0.350000X-1.300000X0*%
%ADD15RoundRect,0.350000X0.350000X0.700000X-0.350000X0.700000X-0.350000X-0.700000X0.350000X-0.700000X0*%
%ADD16C,2.700000*%
%ADD17RoundRect,0.250001X0.499999X0.924999X-0.499999X0.924999X-0.499999X-0.924999X0.499999X-0.924999X0*%
%ADD18C,0.900000*%
%ADD19R,1.211102X0.846933*%
%ADD20R,1.210160X0.850626*%
%ADD21R,1.803508X0.599996*%
%ADD22R,0.600000X1.252114*%
%ADD23R,3.050000X2.200000*%
%ADD24RoundRect,0.250000X0.766001X0.135067X-0.135067X0.766001X-0.766001X-0.135067X0.135067X-0.766001X0*%
%ADD25C,1.600000*%
%ADD26R,3.200000X2.250000*%
%ADD27C,1.700000*%
%ADD28O,1.700000X1.700000*%
%ADD29R,1.650000X0.650000*%
%ADD30RoundRect,0.225000X0.225000X0.475000X-0.225000X0.475000X-0.225000X-0.475000X0.225000X-0.475000X0*%
%ADD31O,0.900000X1.400000*%
%ADD32RoundRect,0.250001X0.924999X-0.499999X0.924999X0.499999X-0.924999X0.499999X-0.924999X-0.499999X0*%
%ADD33R,1.600000X1.600000*%
%ADD34O,3.500000X2.000000*%
%ADD35O,2.000000X4.000000*%
%ADD36C,4.000000*%
%ADD37RoundRect,0.250000X0.325000X0.450000X-0.325000X0.450000X-0.325000X-0.450000X0.325000X-0.450000X0*%
%ADD38O,4.604000X2.404000*%
%ADD39O,4.204000X2.204000*%
%ADD40O,2.204000X4.204000*%
%ADD41R,1.200000X2.500000*%
%ADD42R,0.846933X1.211102*%
%ADD43R,0.850626X1.210160*%
%ADD44R,0.599996X1.803508*%
%ADD45R,1.252114X0.600000*%
%ADD46FreePoly0,270.000000*%
%ADD47FreePoly1,270.000000*%
%ADD48O,1.600000X3.200000*%
%ADD49RoundRect,0.200000X-0.600000X1.400000X-0.600000X-1.400000X0.600000X-1.400000X0.600000X1.400000X0*%
%ADD50RoundRect,0.200000X-0.600000X0.600000X-0.600000X-0.600000X0.600000X-0.600000X0.600000X0.600000X0*%
%ADD51RoundRect,0.250000X-0.550000X0.550000X-0.550000X-0.550000X0.550000X-0.550000X0.550000X0.550000X0*%
%ADD52O,2.500000X1.500000*%
%ADD53O,1.500000X2.500000*%
%ADD54C,2.500000*%
%ADD55C,3.750000*%
%ADD56R,1.500000X1.500000*%
%ADD57C,1.500000*%
%ADD58C,3.500000*%
%ADD59C,1.000000*%
%ADD60R,0.700000X1.600000*%
%ADD61R,1.200000X2.200000*%
%ADD62R,1.600000X1.400000*%
%ADD63R,1.200000X1.400000*%
%ADD64R,1.727200X1.727200*%
%ADD65O,1.727200X1.727200*%
%ADD66RoundRect,0.225000X-0.475000X0.225000X-0.475000X-0.225000X0.475000X-0.225000X0.475000X0.225000X0*%
%ADD67O,1.400000X0.900000*%
G04 APERTURE END LIST*
D10*
X140087000Y-105900000D03*
D11*
X142087000Y-105900000D03*
X144087000Y-105900000D03*
D12*
X137987000Y-105900000D03*
X146187000Y-105900000D03*
D13*
X210400000Y-33360000D03*
X210900000Y-33360000D03*
X211400000Y-33360000D03*
X211900000Y-33360000D03*
X212400000Y-33360000D03*
X212900000Y-33360000D03*
X213400000Y-33360000D03*
X213900000Y-33360000D03*
X214400000Y-33360000D03*
X214900000Y-33360000D03*
X215400000Y-33360000D03*
X215900000Y-33360000D03*
X216400000Y-33360000D03*
X216900000Y-33360000D03*
X217400000Y-33360000D03*
X217900000Y-33360000D03*
X218400000Y-33360000D03*
X218900000Y-33360000D03*
X219400000Y-33360000D03*
D14*
X222150000Y-32600000D03*
D15*
X222150000Y-26640000D03*
X207650000Y-26640000D03*
D14*
X207650000Y-32600000D03*
D16*
X132800000Y-105100000D03*
D17*
X197900000Y-38200000D03*
X194650000Y-38200000D03*
D18*
X131535000Y-32550000D03*
X131535000Y-36800000D03*
D19*
X132730551Y-33498467D03*
D20*
X132730080Y-35850313D03*
D21*
X132435000Y-34675017D03*
D22*
X130425000Y-32800280D03*
X130425000Y-36550839D03*
D23*
X152700000Y-83500000D03*
X152700000Y-74200000D03*
D24*
X144700000Y-96300000D03*
D25*
X141832968Y-94292482D03*
D26*
X162900000Y-84275000D03*
X162900000Y-77375000D03*
D27*
X168600000Y-81875000D03*
D28*
X168600000Y-84415000D03*
X168600000Y-86955000D03*
D29*
X177000000Y-77400000D03*
X177000000Y-78670000D03*
X177000000Y-79940000D03*
X177000000Y-81210000D03*
X177000000Y-82480000D03*
X177000000Y-83750000D03*
X184700000Y-83750000D03*
X184700000Y-82480000D03*
X184700000Y-81210000D03*
X184700000Y-79940000D03*
X184700000Y-78670000D03*
X184700000Y-77400000D03*
D30*
X172525000Y-57200000D03*
D31*
X171275000Y-57200000D03*
D32*
X159200000Y-50650000D03*
X159200000Y-47400000D03*
D33*
X220800000Y-73900000D03*
D25*
X220800000Y-76500000D03*
D34*
X223650000Y-82050000D03*
D35*
X224450000Y-75200000D03*
D25*
X220800000Y-71800000D03*
D34*
X223650000Y-68350000D03*
D25*
X220800000Y-78600000D03*
X218000000Y-71800000D03*
X218000000Y-78600000D03*
D16*
X226400000Y-28000000D03*
X132900000Y-28000000D03*
D30*
X187800000Y-36600000D03*
D31*
X186550000Y-36600000D03*
X185300000Y-36600000D03*
X184050000Y-36600000D03*
X182800000Y-36600000D03*
X181550000Y-36600000D03*
X180300000Y-36600000D03*
X179050000Y-36600000D03*
D36*
X182755000Y-30050000D03*
X157755000Y-30050000D03*
D33*
X165940000Y-32100000D03*
D25*
X168230000Y-32100000D03*
X170520000Y-32100000D03*
X172810000Y-32100000D03*
X175100000Y-32100000D03*
X164795000Y-30120000D03*
X167085000Y-30120000D03*
X169375000Y-30120000D03*
X171665000Y-30120000D03*
X173955000Y-30120000D03*
X165940000Y-28140000D03*
X168230000Y-28140000D03*
X170520000Y-28140000D03*
X172810000Y-28140000D03*
X175100000Y-28140000D03*
D37*
X179218800Y-87811900D03*
X177168800Y-87811900D03*
D38*
X153200000Y-94400000D03*
D39*
X153200000Y-100400000D03*
D40*
X157900000Y-97400000D03*
D25*
X131600000Y-75400000D03*
X138600000Y-75400000D03*
D41*
X136200000Y-72150000D03*
X133200000Y-72150000D03*
X141300000Y-78650000D03*
X140200000Y-72150000D03*
D18*
X215780511Y-106437001D03*
X220030511Y-106437001D03*
D42*
X216728978Y-105241450D03*
D43*
X219080824Y-105241921D03*
D44*
X217905528Y-105537001D03*
D45*
X216030791Y-107547001D03*
X219781350Y-107547001D03*
D25*
X131500000Y-85400000D03*
X138500000Y-85400000D03*
D41*
X136100000Y-82150000D03*
X133100000Y-82150000D03*
X141200000Y-88650000D03*
X140100000Y-82150000D03*
D46*
X227960000Y-43500000D03*
D47*
X227960000Y-45100000D03*
D48*
X225420000Y-44300000D03*
D25*
X225420000Y-45100000D03*
D49*
X222880000Y-44300000D03*
D50*
X222880000Y-45100000D03*
D48*
X220340000Y-44300000D03*
D25*
X220340000Y-45100000D03*
D48*
X217800000Y-44300000D03*
D25*
X217800000Y-45100000D03*
D48*
X215260000Y-44300000D03*
D25*
X215260000Y-45100000D03*
D48*
X212720000Y-44300000D03*
D25*
X212720000Y-45100000D03*
D49*
X210180000Y-44300000D03*
D50*
X210180000Y-45100000D03*
D48*
X207640000Y-44300000D03*
D25*
X207640000Y-45100000D03*
D48*
X205100000Y-44300000D03*
D25*
X205100000Y-45100000D03*
D48*
X202560000Y-44300000D03*
D25*
X202560000Y-45100000D03*
D48*
X200020000Y-44300000D03*
D25*
X200020000Y-45100000D03*
D49*
X197480000Y-44300000D03*
D50*
X197480000Y-45100000D03*
D48*
X194940000Y-44300000D03*
D25*
X194940000Y-45100000D03*
D48*
X192400000Y-44300000D03*
D25*
X192400000Y-45100000D03*
D48*
X189860000Y-44300000D03*
D25*
X189860000Y-45100000D03*
D48*
X187320000Y-44300000D03*
D25*
X187320000Y-45100000D03*
D49*
X184780000Y-44300000D03*
D50*
X184780000Y-45100000D03*
D48*
X182240000Y-44300000D03*
D25*
X182240000Y-45100000D03*
D48*
X179700000Y-44300000D03*
D25*
X179700000Y-45100000D03*
X179700000Y-62880000D03*
D48*
X179700000Y-63680000D03*
D25*
X182240000Y-62880000D03*
D48*
X182240000Y-63680000D03*
D50*
X184780000Y-62880000D03*
D49*
X184780000Y-63680000D03*
D25*
X187320000Y-62880000D03*
D48*
X187320000Y-63680000D03*
D25*
X189860000Y-62880000D03*
D48*
X189860000Y-63680000D03*
D25*
X192400000Y-62880000D03*
D48*
X192400000Y-63680000D03*
D25*
X194940000Y-62880000D03*
D48*
X194940000Y-63680000D03*
D50*
X197480000Y-62880000D03*
D49*
X197480000Y-63680000D03*
D25*
X200020000Y-62880000D03*
D48*
X200020000Y-63680000D03*
D25*
X202560000Y-62880000D03*
D48*
X202560000Y-63680000D03*
D25*
X205100000Y-62880000D03*
D48*
X205100000Y-63680000D03*
D25*
X207640000Y-62880000D03*
D48*
X207640000Y-63680000D03*
D50*
X210180000Y-62880000D03*
D49*
X210180000Y-63680000D03*
D25*
X212720000Y-62880000D03*
D48*
X212720000Y-63680000D03*
D25*
X215260000Y-62880000D03*
D48*
X215260000Y-63680000D03*
D25*
X217800000Y-62880000D03*
D48*
X217800000Y-63680000D03*
D25*
X220340000Y-62880000D03*
D48*
X220340000Y-63680000D03*
D50*
X222880000Y-62880000D03*
D49*
X222880000Y-63680000D03*
D25*
X225420000Y-62880000D03*
D48*
X225420000Y-63680000D03*
D25*
X227960000Y-62880000D03*
D48*
X227960000Y-63680000D03*
D51*
X167300000Y-91617600D03*
D25*
X167300000Y-94117600D03*
D33*
X170015000Y-100360000D03*
D25*
X172785000Y-100360000D03*
X175555000Y-100360000D03*
X178325000Y-100360000D03*
X181095000Y-100360000D03*
X171400000Y-103200000D03*
X174170000Y-103200000D03*
D36*
X163055000Y-100660000D03*
D25*
X176940000Y-103200000D03*
D36*
X188055000Y-100660000D03*
D25*
X179710000Y-103200000D03*
D52*
X194800000Y-106520000D03*
X194800000Y-103980000D03*
X194800000Y-101440000D03*
X194800000Y-98900000D03*
X194800000Y-96360000D03*
X194800000Y-93820000D03*
X194800000Y-91280000D03*
X194800000Y-88740000D03*
X194800000Y-86200000D03*
D53*
X197340000Y-86200000D03*
X199880000Y-86200000D03*
X202420000Y-86200000D03*
X204960000Y-86200000D03*
X207500000Y-86200000D03*
D52*
X210040000Y-86200000D03*
X210040000Y-88740000D03*
X210040000Y-91280000D03*
X210040000Y-93820000D03*
X210040000Y-96360000D03*
X210040000Y-98900000D03*
X210040000Y-101440000D03*
X210040000Y-103980000D03*
X210040000Y-106520000D03*
D54*
X196700000Y-32900000D03*
D55*
X191700000Y-32900000D03*
X196700000Y-28400000D03*
X201700000Y-32900000D03*
D33*
X137700000Y-48890000D03*
D25*
X137700000Y-51660000D03*
X137700000Y-54430000D03*
X137700000Y-57200000D03*
X137700000Y-59970000D03*
X134860000Y-50275000D03*
X134860000Y-53045000D03*
D36*
X137400000Y-41930000D03*
D25*
X134860000Y-55815000D03*
D36*
X137400000Y-66930000D03*
D25*
X134860000Y-58585000D03*
D27*
X226800000Y-34200000D03*
D28*
X226800000Y-36740000D03*
X226800000Y-39280000D03*
D56*
X219657700Y-96500000D03*
D57*
X219657700Y-94000000D03*
X219657700Y-92000000D03*
X219657700Y-89500000D03*
X217037700Y-96500000D03*
X217037700Y-94000000D03*
X217037700Y-92000000D03*
X217037700Y-89500000D03*
D58*
X222367700Y-99570000D03*
X222367700Y-86430000D03*
X216687700Y-99570000D03*
X216687700Y-86430000D03*
D16*
X226400000Y-105100000D03*
D59*
X141800000Y-26200000D03*
X149800000Y-26200000D03*
D60*
X142600000Y-36700000D03*
X143700000Y-36700000D03*
X144800000Y-36700000D03*
X145900000Y-36700000D03*
X147000000Y-36700000D03*
X148100000Y-36700000D03*
X149200000Y-36700000D03*
X150300000Y-36700000D03*
X151400000Y-36700000D03*
D61*
X137100000Y-26500000D03*
D62*
X138000000Y-36100000D03*
D61*
X152600000Y-26600000D03*
D63*
X152600000Y-36100000D03*
D64*
X146527000Y-67397000D03*
D65*
X146527000Y-64857000D03*
X149067000Y-67397000D03*
X149067000Y-64857000D03*
X151607000Y-67397000D03*
X151607000Y-64857000D03*
X154147000Y-67397000D03*
X154147000Y-64857000D03*
D66*
X176300000Y-69175000D03*
D67*
X176300000Y-70425000D03*
M02*
