G04 #@! TF.GenerationSoftware,KiCad,Pcbnew,10.0.1*
G04 #@! TF.CreationDate,2026-04-23T16:51:34+03:00*
G04 #@! TF.ProjectId,frank_m2,6672616e-6b5f-46d3-922e-6b696361645f,2.07*
G04 #@! TF.SameCoordinates,Original*
G04 #@! TF.FileFunction,Paste,Top*
G04 #@! TF.FilePolarity,Positive*
%FSLAX46Y46*%
G04 Gerber Fmt 4.6, Leading zero omitted, Abs format (unit mm)*
G04 Created by KiCad (PCBNEW 10.0.1) date 2026-04-23 16:51:34*
%MOMM*%
%LPD*%
G01*
G04 APERTURE LIST*
G04 Aperture macros list*
%AMRoundRect*
0 Rectangle with rounded corners*
0 $1 Rounding radius*
0 $2 $3 $4 $5 $6 $7 $8 $9 X,Y pos of 4 corners*
0 Add a 4 corners polygon primitive as box body*
4,1,4,$2,$3,$4,$5,$6,$7,$8,$9,$2,$3,0*
0 Add four circle primitives for the rounded corners*
1,1,$1+$1,$2,$3*
1,1,$1+$1,$4,$5*
1,1,$1+$1,$6,$7*
1,1,$1+$1,$8,$9*
0 Add four rect primitives between the rounded corners*
20,1,$1+$1,$2,$3,$4,$5,0*
20,1,$1+$1,$4,$5,$6,$7,0*
20,1,$1+$1,$6,$7,$8,$9,0*
20,1,$1+$1,$8,$9,$2,$3,0*%
G04 Aperture macros list end*
%ADD10RoundRect,0.150000X0.625000X-0.150000X0.625000X0.150000X-0.625000X0.150000X-0.625000X-0.150000X0*%
%ADD11RoundRect,0.250000X0.650000X-0.350000X0.650000X0.350000X-0.650000X0.350000X-0.650000X-0.350000X0*%
%ADD12R,0.300000X2.600000*%
%ADD13R,1.211102X0.846933*%
%ADD14R,1.210160X0.850626*%
%ADD15R,1.803508X0.599996*%
%ADD16R,0.600000X1.252114*%
%ADD17R,2.200000X3.050000*%
%ADD18R,0.700000X1.525000*%
%ADD19R,3.450000X2.560000*%
%ADD20R,3.200000X2.250000*%
%ADD21RoundRect,0.308836X-0.541164X0.494138X-0.541164X-0.494138X0.541164X-0.494138X0.541164X0.494138X0*%
%ADD22RoundRect,0.304790X-0.549451X0.487663X-0.549451X-0.487663X0.549451X-0.487663X0.549451X0.487663X0*%
%ADD23R,1.650000X0.650000*%
%ADD24RoundRect,0.250000X0.325000X0.450000X-0.325000X0.450000X-0.325000X-0.450000X0.325000X-0.450000X0*%
%ADD25R,1.200000X2.500000*%
%ADD26R,0.846933X1.211102*%
%ADD27R,0.850626X1.210160*%
%ADD28R,0.599996X1.803508*%
%ADD29R,1.252114X0.600000*%
%ADD30RoundRect,0.308836X0.494138X0.541164X-0.494138X0.541164X-0.494138X-0.541164X0.494138X-0.541164X0*%
%ADD31RoundRect,0.304790X0.487663X0.549451X-0.487663X0.549451X-0.487663X-0.549451X0.487663X-0.549451X0*%
%ADD32R,1.450000X0.600000*%
%ADD33R,1.450000X0.300000*%
%ADD34RoundRect,0.150000X0.150000X0.625000X-0.150000X0.625000X-0.150000X-0.625000X0.150000X-0.625000X0*%
%ADD35RoundRect,0.250000X0.350000X0.650000X-0.350000X0.650000X-0.350000X-0.650000X0.350000X-0.650000X0*%
%ADD36R,0.700000X1.600000*%
%ADD37R,1.200000X2.200000*%
%ADD38R,1.600000X1.400000*%
%ADD39R,1.200000X1.400000*%
G04 APERTURE END LIST*
D10*
X227950000Y-38875000D03*
X227950000Y-37875000D03*
X227950000Y-36875000D03*
X227950000Y-35875000D03*
D11*
X225425000Y-40175000D03*
X225425000Y-34575000D03*
D12*
X210400000Y-33360000D03*
X210900000Y-33360000D03*
X211400000Y-33360000D03*
X211900000Y-33360000D03*
X212400000Y-33360000D03*
X212900000Y-33360000D03*
X213400000Y-33360000D03*
X213900000Y-33360000D03*
X214400000Y-33360000D03*
X214900000Y-33360000D03*
X215400000Y-33360000D03*
X215900000Y-33360000D03*
X216400000Y-33360000D03*
X216900000Y-33360000D03*
X217400000Y-33360000D03*
X217900000Y-33360000D03*
X218400000Y-33360000D03*
X218900000Y-33360000D03*
X219400000Y-33360000D03*
D13*
X132830551Y-33498467D03*
D14*
X132830080Y-35850313D03*
D15*
X132535000Y-34675017D03*
D16*
X130525000Y-32800280D03*
X130525000Y-36550839D03*
D17*
X153900000Y-76375000D03*
X163200000Y-76375000D03*
D18*
X150700000Y-73425000D03*
X149430000Y-73425000D03*
X148160000Y-73425000D03*
X146890000Y-73425000D03*
X146890000Y-78849000D03*
X148160000Y-78849000D03*
X149430000Y-78849000D03*
X150700000Y-78849000D03*
D19*
X148795000Y-76137000D03*
D20*
X155550000Y-83975000D03*
X155550000Y-90875000D03*
D21*
X145333808Y-51426341D03*
D22*
X145338050Y-54630913D03*
D23*
X177000000Y-77400000D03*
X177000000Y-78670000D03*
X177000000Y-79940000D03*
X177000000Y-81210000D03*
X177000000Y-82480000D03*
X177000000Y-83750000D03*
X184700000Y-83750000D03*
X184700000Y-82480000D03*
X184700000Y-81210000D03*
X184700000Y-79940000D03*
X184700000Y-78670000D03*
X184700000Y-77400000D03*
D24*
X179218800Y-87811900D03*
X177168800Y-87811900D03*
D25*
X136200000Y-72150000D03*
X133200000Y-72150000D03*
X141300000Y-78650000D03*
X140200000Y-72150000D03*
D26*
X216728978Y-105241450D03*
D27*
X219080824Y-105241921D03*
D28*
X217905528Y-105537001D03*
D29*
X216030791Y-107547001D03*
X219781350Y-107547001D03*
D25*
X136100000Y-82150000D03*
X133100000Y-82150000D03*
X141200000Y-88650000D03*
X140100000Y-82150000D03*
D30*
X186302974Y-93288980D03*
D31*
X183098402Y-93293222D03*
D32*
X223040000Y-58625000D03*
X223040000Y-57850000D03*
D33*
X223040000Y-57150000D03*
X223040000Y-56650000D03*
X223040000Y-56150000D03*
X223040000Y-55650000D03*
X223040000Y-55150000D03*
X223040000Y-54650000D03*
X223040000Y-54150000D03*
X223040000Y-53650000D03*
D32*
X223040000Y-52950000D03*
X223040000Y-52175000D03*
D34*
X207750000Y-57225000D03*
D35*
X209050000Y-59750000D03*
D34*
X206750000Y-57225000D03*
D35*
X204450000Y-59750000D03*
D34*
X205750000Y-57225000D03*
D36*
X142600000Y-36700000D03*
X143700000Y-36700000D03*
X144800000Y-36700000D03*
X145900000Y-36700000D03*
X147000000Y-36700000D03*
X148100000Y-36700000D03*
X149200000Y-36700000D03*
X150300000Y-36700000D03*
X151400000Y-36700000D03*
D37*
X137100000Y-26500000D03*
D38*
X138000000Y-36100000D03*
D37*
X152600000Y-26600000D03*
D39*
X152600000Y-36100000D03*
M02*
