M48
; DRILL file KiCad 10.0.1 date 2026-04-23T16:51:36
; FORMAT={-:-/ absolute / metric / decimal}
; #@! TF.CreationDate,2026-04-23T16:51:36+03:00
; #@! TF.GenerationSoftware,Kicad,Pcbnew,10.0.1
; #@! TF.FileFunction,Plated,1,2,PTH
FMAT,2
METRIC
; #@! TA.AperFunction,Plated,PTH,ViaDrill
T1C0.300
; #@! TA.AperFunction,Plated,PTH,ComponentDrill
T2C0.600
; #@! TA.AperFunction,Plated,PTH,ComponentDrill
T3C0.800
; #@! TA.AperFunction,Plated,PTH,ComponentDrill
T4C0.900
; #@! TA.AperFunction,Plated,PTH,ComponentDrill
T5C0.920
; #@! TA.AperFunction,Plated,PTH,ComponentDrill
T6C1.000
; #@! TA.AperFunction,Plated,PTH,ComponentDrill
T7C1.016
; #@! TA.AperFunction,Plated,PTH,ComponentDrill
T8C1.250
; #@! TA.AperFunction,Plated,PTH,ComponentDrill
T9C1.700
; #@! TA.AperFunction,Plated,PTH,ComponentDrill
T10C2.300
; #@! TA.AperFunction,Plated,PTH,ComponentDrill
T11C2.600
; #@! TA.AperFunction,Plated,PTH,ComponentDrill
T12C3.200
%
G90
G05
T1
X131.5Y-34.7
X133.3Y-68.05
X134.6Y-60.7
X135.9Y-98.9
X136.5Y-30.6
X137.649Y-82.862
X140.3Y-54.1
X140.5Y-29.8
X141.05Y-55.3
X141.9Y-61.8
X142.05Y-41.7
X144.3Y-51.85
X145.418Y-73.217
X145.9Y-34.8
X146.119Y-38.519
X147.795Y-59.661
X147.799Y-71.971
X148.025Y-80.068
X148.653Y-82.628
X148.653Y-83.429
X148.89Y-34.51
X149.1Y-61.8
X149.407Y-79.897
X149.437Y-74.31
X149.6Y-105.9
X149.66Y-34.97
X150.278Y-71.369
X150.9Y-34.5
X151.7Y-71.5
X151.988Y-77.697
X152.098Y-74.492
X153.2Y-59.8
X155.0Y-51.65
X155.28Y-55.7
X156.0Y-49.6
X156.0Y-65.0
X156.3Y-69.4
X156.61Y-50.76
X156.86Y-46.26
X157.25Y-37.72
X157.6Y-56.0
X158.7Y-59.7
X158.8Y-62.8
X159.886Y-67.414
X161.5Y-80.9
X162.022Y-38.184
X162.236Y-45.532
X162.59Y-55.08
X162.811Y-66.289
X163.201Y-78.056
X164.2Y-35.0
X164.215Y-38.216
X164.55Y-51.55
X165.4Y-74.4
X165.43Y-73.36
X166.4Y-35.0
X166.439Y-38.195
X166.6Y-57.8
X166.908Y-60.345
X168.452Y-94.695
X168.569Y-74.565
X168.632Y-38.216
X169.347Y-94.672
X169.396Y-95.857
X170.102Y-70.099
X170.55Y-50.817
X170.8Y-35.0
X171.285Y-38.655
X171.35Y-47.4
X172.541Y-58.636
X172.758Y-79.511
X173.05Y-45.85
X173.3Y-75.7
X173.45Y-82.65
X173.593Y-38.152
X173.7Y-78.9
X174.083Y-70.004
X174.74Y-73.899
X175.0Y-62.8
X175.26Y-64.466
X175.356Y-92.813
X175.4Y-57.7
X176.449Y-87.814
X176.948Y-64.661
X177.2Y-39.78
X177.38Y-74.265
X177.4Y-56.7
X177.6Y-71.1
X177.759Y-76.275
X177.9Y-75.2
X178.139Y-88.9
X178.244Y-68.219
X179.786Y-40.986
X180.8Y-86.7
X180.85Y-39.3
X180.877Y-41.036
X181.0Y-61.6
X181.015Y-42.546
X181.1Y-56.5
X181.4Y-50.757
X181.6Y-40.385
X181.6Y-82.2
X181.736Y-74.036
X182.0Y-41.686
X182.0Y-79.7
X182.02Y-70.05
X182.6Y-71.9
X182.8Y-66.1
X183.0Y-72.9
X183.19Y-76.18
X183.28Y-51.22
X184.258Y-50.186
X184.55Y-33.17
X184.6Y-26.0
X185.3Y-56.137
X185.674Y-84.756
X185.675Y-79.954
X186.0Y-28.2
X186.313Y-94.296
X186.498Y-59.694
X186.52Y-74.79
X186.9Y-79.8
X187.2Y-82.0
X187.49Y-84.8
X187.98Y-38.54
X188.13Y-48.63
X188.222Y-69.751
X188.52Y-77.01
X189.0Y-37.3
X189.2Y-70.4
X189.495Y-87.09
X189.5Y-80.7
X189.8Y-69.7
X190.3Y-82.8
X190.8Y-80.2
X191.19Y-52.9
X191.4Y-58.1
X192.131Y-82.609
X192.2Y-79.69
X192.3Y-67.2
X192.4Y-71.9
X192.419Y-73.924
X193.1Y-80.5
X193.185Y-82.785
X193.53Y-61.49
X193.667Y-46.302
X194.197Y-66.944
X195.27Y-76.233
X195.299Y-59.223
X195.6Y-72.1
X195.71Y-84.85
X195.802Y-80.623
X196.119Y-45.831
X197.0Y-49.2
X197.4Y-71.9
X197.52Y-76.901
X197.735Y-68.885
X198.18Y-51.455
X198.34Y-47.96
X198.34Y-49.359
X198.55Y-75.96
X198.705Y-68.095
X199.51Y-73.92
X199.927Y-70.416
X200.28Y-66.25
X200.435Y-36.908
X201.0Y-80.5
X201.148Y-69.0
X201.15Y-75.3
X201.2Y-71.7
X201.373Y-45.977
X201.5Y-83.6
X201.9Y-67.3
X202.454Y-46.492
X202.6Y-38.9
X202.6Y-76.66
X203.0Y-54.5
X203.46Y-83.77
X203.614Y-36.897
X203.74Y-81.5
X204.077Y-46.295
X204.301Y-66.623
X204.4Y-72.3
X204.494Y-53.241
X204.514Y-54.386
X204.6Y-88.3
X204.7Y-79.7
X204.8Y-38.7
X205.2Y-74.37
X205.5Y-67.2
X205.5Y-89.1
X205.5Y-97.4
X205.55Y-99.95
X205.8Y-36.2
X206.141Y-70.725
X206.2Y-66.0
X206.26Y-76.09
X207.25Y-88.15
X207.51Y-94.237
X207.559Y-81.508
X207.653Y-65.351
X207.7Y-36.3
X208.753Y-70.262
X208.793Y-76.09
X208.9Y-67.4
X209.55Y-79.35
X210.314Y-36.342
X210.5Y-72.8
X210.65Y-79.9
X210.793Y-37.969
X211.9Y-36.3
X212.508Y-93.25
X212.81Y-78.58
X212.84Y-87.7
X213.373Y-51.307
X213.4Y-55.15
X213.6Y-36.3
X213.7Y-52.8
X214.3Y-67.43
X214.72Y-55.675
X214.9Y-57.0
X215.263Y-27.41
X215.66Y-37.65
X215.806Y-78.303
X217.8Y-53.8
X217.8Y-60.55
X217.907Y-106.594
X218.214Y-37.636
X218.455Y-30.469
X218.7Y-47.9
X218.853Y-81.436
X219.0Y-50.304
X219.3Y-49.312
X219.45Y-51.76
X220.065Y-61.142
X220.23Y-67.49
X220.295Y-66.073
X220.88Y-50.24
X221.139Y-36.638
X222.161Y-57.849
X222.168Y-52.97
X222.397Y-72.562
X222.4Y-36.3
X222.56Y-77.61
X222.7Y-66.0
X223.523Y-47.549
X225.2Y-93.19
X225.465Y-57.649
X225.6Y-84.95
X225.635Y-95.939
X225.65Y-91.05
X226.2Y-59.35
X226.25Y-77.4
X226.802Y-55.495
X227.013Y-36.92
X227.037Y-35.918
X227.939Y-52.397
X227.962Y-54.1
X227.984Y-95.767
X228.11Y-82.927
T2
X171.275Y-57.2
X172.525Y-57.2
X176.3Y-69.175
X176.3Y-70.425
X179.05Y-36.6
X180.3Y-36.6
X181.55Y-36.6
X182.8Y-36.6
X184.05Y-36.6
X185.3Y-36.6
X186.55Y-36.6
X187.8Y-36.6
T3
X131.635Y-32.55
X131.635Y-36.8
X140.087Y-105.9
X142.087Y-105.9
X144.087Y-105.9
X146.066Y-83.781
X148.934Y-85.789
X165.25Y-46.282
X165.25Y-48.782
X171.826Y-90.51
X171.826Y-93.01
X195.2Y-38.5
X197.7Y-38.5
X215.781Y-106.437
X218.0Y-71.8
X218.0Y-78.6
X220.031Y-106.437
X220.8Y-71.8
X220.8Y-73.9
X220.8Y-76.5
X220.8Y-78.6
T5
X217.038Y-89.5
X217.038Y-92.0
X217.038Y-94.0
X217.038Y-96.5
X219.658Y-89.5
X219.658Y-92.0
X219.658Y-94.0
X219.658Y-96.5
T6
X134.86Y-50.275
X134.86Y-53.045
X134.86Y-55.815
X134.86Y-58.585
X137.7Y-48.89
X137.7Y-51.66
X137.7Y-54.43
X137.7Y-57.2
X137.7Y-59.97
X164.795Y-30.12
X165.94Y-28.14
X165.94Y-32.1
X167.085Y-30.12
X168.23Y-28.14
X168.23Y-32.1
X168.6Y-81.3
X168.6Y-83.84
X168.6Y-86.38
X169.375Y-30.12
X170.015Y-100.36
X170.52Y-28.14
X170.52Y-32.1
X171.4Y-103.2
X171.665Y-30.12
X172.785Y-100.36
X172.81Y-28.14
X172.81Y-32.1
X173.955Y-30.12
X174.17Y-103.2
X175.1Y-28.14
X175.1Y-32.1
X175.555Y-100.36
X176.94Y-103.2
X178.325Y-100.36
X179.7Y-45.1
X179.7Y-62.88
X179.71Y-103.2
X181.095Y-100.36
X182.24Y-45.1
X182.24Y-62.88
X184.78Y-45.1
X184.78Y-62.88
X187.32Y-45.1
X187.32Y-62.88
X189.86Y-45.1
X189.86Y-62.88
X192.4Y-45.1
X192.4Y-62.88
X194.8Y-86.2
X194.8Y-88.74
X194.8Y-91.28
X194.8Y-93.82
X194.8Y-96.36
X194.8Y-98.9
X194.8Y-101.44
X194.8Y-103.98
X194.8Y-106.52
X194.94Y-45.1
X194.94Y-62.88
X197.34Y-86.2
X197.48Y-45.1
X197.48Y-62.88
X199.88Y-86.2
X200.02Y-45.1
X200.02Y-62.88
X202.42Y-86.2
X202.56Y-45.1
X202.56Y-62.88
X202.75Y-57.55
X204.96Y-86.2
X205.1Y-45.1
X205.1Y-62.88
X207.5Y-86.2
X207.64Y-45.1
X207.64Y-62.88
X210.04Y-86.2
X210.04Y-88.74
X210.04Y-91.28
X210.04Y-93.82
X210.04Y-96.36
X210.04Y-98.9
X210.04Y-101.44
X210.04Y-103.98
X210.04Y-106.52
X210.18Y-45.1
X210.18Y-62.88
X210.75Y-57.55
X212.72Y-45.1
X212.72Y-62.88
X215.26Y-45.1
X215.26Y-62.88
X217.8Y-45.1
X217.8Y-62.88
X220.34Y-45.1
X220.34Y-62.88
X222.88Y-45.1
X222.88Y-62.88
X225.42Y-45.1
X225.42Y-62.88
X227.96Y-45.1
X227.96Y-62.88
T7
X146.527Y-64.857
X146.527Y-67.397
X149.067Y-64.857
X149.067Y-67.397
X151.607Y-64.857
X151.607Y-67.397
X154.147Y-64.857
X154.147Y-67.397
T8
X137.987Y-105.9
X146.187Y-105.9
T9
X196.7Y-32.9
T10
X216.688Y-86.43
X216.688Y-99.57
X222.368Y-86.43
X222.368Y-99.57
T11
X191.7Y-32.9
X196.7Y-28.4
X201.7Y-32.9
T12
X136.2Y-41.93
X136.2Y-66.93
X157.755Y-30.05
X163.055Y-101.86
X182.755Y-30.05
X188.055Y-101.86
T2
G00X223.405Y-51.08
M15
G01X224.505Y-51.08
M16
G05
G00X223.405Y-59.72
M15
G01X224.505Y-59.72
M16
G05
G00X227.835Y-51.08
M15
G01X228.435Y-51.08
M16
G05
G00X227.835Y-59.72
M15
G01X228.435Y-59.72
M16
G05
T4
G00X207.65Y-27.04
M15
G01X207.65Y-26.24
M16
G05
G00X207.65Y-33.5
M15
G01X207.65Y-31.7
M16
G05
G00X222.15Y-27.04
M15
G01X222.15Y-26.24
M16
G05
G00X222.15Y-33.5
M15
G01X222.15Y-31.7
M16
G05
T6
G00X151.95Y-94.4
M15
G01X154.45Y-94.4
M16
G05
G00X152.2Y-100.4
M15
G01X154.2Y-100.4
M16
G05
G00X157.9Y-98.4
M15
G01X157.9Y-96.4
M16
G05
G00X222.9Y-68.35
M15
G01X224.4Y-68.35
M16
G05
G00X222.9Y-82.05
M15
G01X224.4Y-82.05
M16
G05
G00X224.45Y-76.2
M15
G01X224.45Y-74.2
M16
G05
M30
