G04 #@! TF.GenerationSoftware,KiCad,Pcbnew,10.0.1*
G04 #@! TF.CreationDate,2026-04-23T16:51:34+03:00*
G04 #@! TF.ProjectId,frank_m2,6672616e-6b5f-46d3-922e-6b696361645f,2.07*
G04 #@! TF.SameCoordinates,Original*
G04 #@! TF.FileFunction,Soldermask,Top*
G04 #@! TF.FilePolarity,Negative*
%FSLAX46Y46*%
G04 Gerber Fmt 4.6, Leading zero omitted, Abs format (unit mm)*
G04 Created by KiCad (PCBNEW 10.0.1) date 2026-04-23 16:51:34*
%MOMM*%
%LPD*%
G01*
G04 APERTURE LIST*
G04 Aperture macros list*
%AMRoundRect*
0 Rectangle with rounded corners*
0 $1 Rounding radius*
0 $2 $3 $4 $5 $6 $7 $8 $9 X,Y pos of 4 corners*
0 Add a 4 corners polygon primitive as box body*
4,1,4,$2,$3,$4,$5,$6,$7,$8,$9,$2,$3,0*
0 Add four circle primitives for the rounded corners*
1,1,$1+$1,$2,$3*
1,1,$1+$1,$4,$5*
1,1,$1+$1,$6,$7*
1,1,$1+$1,$8,$9*
0 Add four rect primitives between the rounded corners*
20,1,$1+$1,$2,$3,$4,$5,0*
20,1,$1+$1,$4,$5,$6,$7,0*
20,1,$1+$1,$6,$7,$8,$9,0*
20,1,$1+$1,$8,$9,$2,$3,0*%
%AMFreePoly0*
4,1,25,1.935306,0.780194,1.989950,0.741421,2.341421,0.389950,2.388777,0.314585,2.400000,0.248529,2.400000,-0.248529,2.380194,-0.335306,2.341421,-0.389950,1.989950,-0.741421,1.914585,-0.788777,1.848529,-0.800000,-0.248529,-0.800000,-0.335306,-0.780194,-0.389950,-0.741421,-0.741421,-0.389950,-0.788777,-0.314585,-0.800000,-0.248529,-0.800000,0.248529,-0.780194,0.335306,-0.741421,0.389950,
-0.389950,0.741421,-0.314585,0.788777,-0.248529,0.800000,1.848529,0.800000,1.935306,0.780194,1.935306,0.780194,$1*%
%AMFreePoly1*
4,1,25,0.335306,0.780194,0.389950,0.741421,0.741421,0.389950,0.788777,0.314585,0.800000,0.248529,0.800000,-0.248529,0.780194,-0.335306,0.741421,-0.389950,0.389950,-0.741421,0.314585,-0.788777,0.248529,-0.800000,-0.248529,-0.800000,-0.335306,-0.780194,-0.389950,-0.741421,-0.741421,-0.389950,-0.788777,-0.314585,-0.800000,-0.248529,-0.800000,0.248529,-0.780194,0.335306,-0.741421,0.389950,
-0.389950,0.741421,-0.314585,0.788777,-0.248529,0.800000,0.248529,0.800000,0.335306,0.780194,0.335306,0.780194,$1*%
G04 Aperture macros list end*
%ADD10RoundRect,0.150000X0.625000X-0.150000X0.625000X0.150000X-0.625000X0.150000X-0.625000X-0.150000X0*%
%ADD11RoundRect,0.250000X0.650000X-0.350000X0.650000X0.350000X-0.650000X0.350000X-0.650000X-0.350000X0*%
%ADD12R,1.300000X1.300000*%
%ADD13C,1.300000*%
%ADD14C,1.875000*%
%ADD15R,0.300000X2.600000*%
%ADD16RoundRect,0.350000X0.350000X1.300000X-0.350000X1.300000X-0.350000X-1.300000X0.350000X-1.300000X0*%
%ADD17RoundRect,0.350000X0.350000X0.700000X-0.350000X0.700000X-0.350000X-0.700000X0.350000X-0.700000X0*%
%ADD18C,2.700000*%
%ADD19RoundRect,0.250000X0.550000X0.550000X-0.550000X0.550000X-0.550000X-0.550000X0.550000X-0.550000X0*%
%ADD20C,1.600000*%
%ADD21C,0.900000*%
%ADD22R,1.211102X0.846933*%
%ADD23R,1.210160X0.850626*%
%ADD24R,1.803508X0.599996*%
%ADD25R,0.600000X1.252114*%
%ADD26R,2.200000X3.050000*%
%ADD27R,0.700000X1.525000*%
%ADD28R,3.450000X2.560000*%
%ADD29RoundRect,0.250000X-0.766001X-0.135067X0.135067X-0.766001X0.766001X0.135067X-0.135067X0.766001X0*%
%ADD30R,3.200000X2.250000*%
%ADD31C,1.700000*%
%ADD32O,1.700000X1.700000*%
%ADD33RoundRect,0.308836X-0.541164X0.494138X-0.541164X-0.494138X0.541164X-0.494138X0.541164X0.494138X0*%
%ADD34RoundRect,0.304790X-0.549451X0.487663X-0.549451X-0.487663X0.549451X-0.487663X0.549451X0.487663X0*%
%ADD35R,1.650000X0.650000*%
%ADD36RoundRect,0.225000X0.225000X0.475000X-0.225000X0.475000X-0.225000X-0.475000X0.225000X-0.475000X0*%
%ADD37O,0.900000X1.400000*%
%ADD38RoundRect,0.250000X0.550000X-0.550000X0.550000X0.550000X-0.550000X0.550000X-0.550000X-0.550000X0*%
%ADD39R,1.600000X1.600000*%
%ADD40O,3.500000X2.000000*%
%ADD41O,2.000000X4.000000*%
%ADD42C,4.000000*%
%ADD43RoundRect,0.250000X0.325000X0.450000X-0.325000X0.450000X-0.325000X-0.450000X0.325000X-0.450000X0*%
%ADD44O,4.604000X2.404000*%
%ADD45O,4.204000X2.204000*%
%ADD46O,2.204000X4.204000*%
%ADD47R,1.200000X2.500000*%
%ADD48R,0.846933X1.211102*%
%ADD49R,0.850626X1.210160*%
%ADD50R,0.599996X1.803508*%
%ADD51R,1.252114X0.600000*%
%ADD52FreePoly0,270.000000*%
%ADD53FreePoly1,270.000000*%
%ADD54O,1.600000X3.200000*%
%ADD55RoundRect,0.200000X-0.600000X1.400000X-0.600000X-1.400000X0.600000X-1.400000X0.600000X1.400000X0*%
%ADD56RoundRect,0.200000X-0.600000X0.600000X-0.600000X-0.600000X0.600000X-0.600000X0.600000X0.600000X0*%
%ADD57RoundRect,0.308836X0.494138X0.541164X-0.494138X0.541164X-0.494138X-0.541164X0.494138X-0.541164X0*%
%ADD58RoundRect,0.304790X0.487663X0.549451X-0.487663X0.549451X-0.487663X-0.549451X0.487663X-0.549451X0*%
%ADD59RoundRect,0.250000X-0.550000X0.550000X-0.550000X-0.550000X0.550000X-0.550000X0.550000X0.550000X0*%
%ADD60O,2.500000X1.500000*%
%ADD61O,1.500000X2.500000*%
%ADD62C,2.500000*%
%ADD63C,3.750000*%
%ADD64R,1.500000X1.500000*%
%ADD65C,1.500000*%
%ADD66C,3.500000*%
%ADD67C,0.650000*%
%ADD68R,1.450000X0.600000*%
%ADD69R,1.450000X0.300000*%
%ADD70O,2.100000X1.000000*%
%ADD71O,1.600000X1.000000*%
%ADD72RoundRect,0.150000X0.150000X0.625000X-0.150000X0.625000X-0.150000X-0.625000X0.150000X-0.625000X0*%
%ADD73RoundRect,0.250000X0.350000X0.650000X-0.350000X0.650000X-0.350000X-0.650000X0.350000X-0.650000X0*%
%ADD74C,1.000000*%
%ADD75R,0.700000X1.600000*%
%ADD76R,1.200000X2.200000*%
%ADD77R,1.600000X1.400000*%
%ADD78R,1.200000X1.400000*%
%ADD79R,1.727200X1.727200*%
%ADD80O,1.727200X1.727200*%
%ADD81RoundRect,0.225000X-0.475000X0.225000X-0.475000X-0.225000X0.475000X-0.225000X0.475000X0.225000X0*%
%ADD82O,1.400000X0.900000*%
G04 APERTURE END LIST*
D10*
X227950000Y-38875000D03*
X227950000Y-37875000D03*
X227950000Y-36875000D03*
X227950000Y-35875000D03*
D11*
X225425000Y-40175000D03*
X225425000Y-34575000D03*
D12*
X140087000Y-105900000D03*
D13*
X142087000Y-105900000D03*
X144087000Y-105900000D03*
D14*
X137987000Y-105900000D03*
X146187000Y-105900000D03*
D15*
X210400000Y-33360000D03*
X210900000Y-33360000D03*
X211400000Y-33360000D03*
X211900000Y-33360000D03*
X212400000Y-33360000D03*
X212900000Y-33360000D03*
X213400000Y-33360000D03*
X213900000Y-33360000D03*
X214400000Y-33360000D03*
X214900000Y-33360000D03*
X215400000Y-33360000D03*
X215900000Y-33360000D03*
X216400000Y-33360000D03*
X216900000Y-33360000D03*
X217400000Y-33360000D03*
X217900000Y-33360000D03*
X218400000Y-33360000D03*
X218900000Y-33360000D03*
X219400000Y-33360000D03*
D16*
X222150000Y-32600000D03*
D17*
X222150000Y-26640000D03*
X207650000Y-26640000D03*
D16*
X207650000Y-32600000D03*
D18*
X132800000Y-105100000D03*
D19*
X197700000Y-38500000D03*
D20*
X195200000Y-38500000D03*
D21*
X131635000Y-32550000D03*
X131635000Y-36800000D03*
D22*
X132830551Y-33498467D03*
D23*
X132830080Y-35850313D03*
D24*
X132535000Y-34675017D03*
D25*
X130525000Y-32800280D03*
X130525000Y-36550839D03*
D26*
X153900000Y-76375000D03*
X163200000Y-76375000D03*
D27*
X150700000Y-73425000D03*
X149430000Y-73425000D03*
X148160000Y-73425000D03*
X146890000Y-73425000D03*
X146890000Y-78849000D03*
X148160000Y-78849000D03*
X149430000Y-78849000D03*
X150700000Y-78849000D03*
D28*
X148795000Y-76137000D03*
D29*
X146066484Y-83781234D03*
D20*
X148933516Y-85788752D03*
D30*
X155550000Y-83975000D03*
X155550000Y-90875000D03*
D31*
X168600000Y-81300000D03*
D32*
X168600000Y-83840000D03*
X168600000Y-86380000D03*
D33*
X145333808Y-51426341D03*
D34*
X145338050Y-54630913D03*
D35*
X177000000Y-77400000D03*
X177000000Y-78670000D03*
X177000000Y-79940000D03*
X177000000Y-81210000D03*
X177000000Y-82480000D03*
X177000000Y-83750000D03*
X184700000Y-83750000D03*
X184700000Y-82480000D03*
X184700000Y-81210000D03*
X184700000Y-79940000D03*
X184700000Y-78670000D03*
X184700000Y-77400000D03*
D36*
X172525000Y-57200000D03*
D37*
X171275000Y-57200000D03*
D38*
X165250000Y-48782380D03*
D20*
X165250000Y-46282380D03*
D39*
X220800000Y-73900000D03*
D20*
X220800000Y-76500000D03*
D40*
X223650000Y-82050000D03*
D41*
X224450000Y-75200000D03*
D20*
X220800000Y-71800000D03*
D40*
X223650000Y-68350000D03*
D20*
X220800000Y-78600000D03*
X218000000Y-71800000D03*
X218000000Y-78600000D03*
D18*
X226400000Y-28000000D03*
X132900000Y-28000000D03*
D36*
X187800000Y-36600000D03*
D37*
X186550000Y-36600000D03*
X185300000Y-36600000D03*
X184050000Y-36600000D03*
X182800000Y-36600000D03*
X181550000Y-36600000D03*
X180300000Y-36600000D03*
X179050000Y-36600000D03*
D42*
X182755000Y-30050000D03*
X157755000Y-30050000D03*
D39*
X165940000Y-32100000D03*
D20*
X168230000Y-32100000D03*
X170520000Y-32100000D03*
X172810000Y-32100000D03*
X175100000Y-32100000D03*
X164795000Y-30120000D03*
X167085000Y-30120000D03*
X169375000Y-30120000D03*
X171665000Y-30120000D03*
X173955000Y-30120000D03*
X165940000Y-28140000D03*
X168230000Y-28140000D03*
X170520000Y-28140000D03*
X172810000Y-28140000D03*
X175100000Y-28140000D03*
D43*
X179218800Y-87811900D03*
X177168800Y-87811900D03*
D44*
X153200000Y-94400000D03*
D45*
X153200000Y-100400000D03*
D46*
X157900000Y-97400000D03*
D20*
X131600000Y-75400000D03*
X138600000Y-75400000D03*
D47*
X136200000Y-72150000D03*
X133200000Y-72150000D03*
X141300000Y-78650000D03*
X140200000Y-72150000D03*
D21*
X215780511Y-106437001D03*
X220030511Y-106437001D03*
D48*
X216728978Y-105241450D03*
D49*
X219080824Y-105241921D03*
D50*
X217905528Y-105537001D03*
D51*
X216030791Y-107547001D03*
X219781350Y-107547001D03*
D20*
X131500000Y-85400000D03*
X138500000Y-85400000D03*
D47*
X136100000Y-82150000D03*
X133100000Y-82150000D03*
X141200000Y-88650000D03*
X140100000Y-82150000D03*
D52*
X227960000Y-43500000D03*
D53*
X227960000Y-45100000D03*
D54*
X225420000Y-44300000D03*
D20*
X225420000Y-45100000D03*
D55*
X222880000Y-44300000D03*
D56*
X222880000Y-45100000D03*
D54*
X220340000Y-44300000D03*
D20*
X220340000Y-45100000D03*
D54*
X217800000Y-44300000D03*
D20*
X217800000Y-45100000D03*
D54*
X215260000Y-44300000D03*
D20*
X215260000Y-45100000D03*
D54*
X212720000Y-44300000D03*
D20*
X212720000Y-45100000D03*
D55*
X210180000Y-44300000D03*
D56*
X210180000Y-45100000D03*
D54*
X207640000Y-44300000D03*
D20*
X207640000Y-45100000D03*
D54*
X205100000Y-44300000D03*
D20*
X205100000Y-45100000D03*
D54*
X202560000Y-44300000D03*
D20*
X202560000Y-45100000D03*
D54*
X200020000Y-44300000D03*
D20*
X200020000Y-45100000D03*
D55*
X197480000Y-44300000D03*
D56*
X197480000Y-45100000D03*
D54*
X194940000Y-44300000D03*
D20*
X194940000Y-45100000D03*
D54*
X192400000Y-44300000D03*
D20*
X192400000Y-45100000D03*
D54*
X189860000Y-44300000D03*
D20*
X189860000Y-45100000D03*
D54*
X187320000Y-44300000D03*
D20*
X187320000Y-45100000D03*
D55*
X184780000Y-44300000D03*
D56*
X184780000Y-45100000D03*
D54*
X182240000Y-44300000D03*
D20*
X182240000Y-45100000D03*
D54*
X179700000Y-44300000D03*
D20*
X179700000Y-45100000D03*
X179700000Y-62880000D03*
D54*
X179700000Y-63680000D03*
D20*
X182240000Y-62880000D03*
D54*
X182240000Y-63680000D03*
D56*
X184780000Y-62880000D03*
D55*
X184780000Y-63680000D03*
D20*
X187320000Y-62880000D03*
D54*
X187320000Y-63680000D03*
D20*
X189860000Y-62880000D03*
D54*
X189860000Y-63680000D03*
D20*
X192400000Y-62880000D03*
D54*
X192400000Y-63680000D03*
D20*
X194940000Y-62880000D03*
D54*
X194940000Y-63680000D03*
D56*
X197480000Y-62880000D03*
D55*
X197480000Y-63680000D03*
D20*
X200020000Y-62880000D03*
D54*
X200020000Y-63680000D03*
D20*
X202560000Y-62880000D03*
D54*
X202560000Y-63680000D03*
D20*
X205100000Y-62880000D03*
D54*
X205100000Y-63680000D03*
D20*
X207640000Y-62880000D03*
D54*
X207640000Y-63680000D03*
D56*
X210180000Y-62880000D03*
D55*
X210180000Y-63680000D03*
D20*
X212720000Y-62880000D03*
D54*
X212720000Y-63680000D03*
D20*
X215260000Y-62880000D03*
D54*
X215260000Y-63680000D03*
D20*
X217800000Y-62880000D03*
D54*
X217800000Y-63680000D03*
D20*
X220340000Y-62880000D03*
D54*
X220340000Y-63680000D03*
D56*
X222880000Y-62880000D03*
D55*
X222880000Y-63680000D03*
D20*
X225420000Y-62880000D03*
D54*
X225420000Y-63680000D03*
D20*
X227960000Y-62880000D03*
D54*
X227960000Y-63680000D03*
D57*
X186302974Y-93288980D03*
D58*
X183098402Y-93293222D03*
D59*
X171826000Y-90510000D03*
D20*
X171826000Y-93010000D03*
D39*
X170015000Y-100360000D03*
D20*
X172785000Y-100360000D03*
X175555000Y-100360000D03*
X178325000Y-100360000D03*
X181095000Y-100360000D03*
X171400000Y-103200000D03*
X174170000Y-103200000D03*
D42*
X163055000Y-101860000D03*
D20*
X176940000Y-103200000D03*
D42*
X188055000Y-101860000D03*
D20*
X179710000Y-103200000D03*
D60*
X194800000Y-106520000D03*
X194800000Y-103980000D03*
X194800000Y-101440000D03*
X194800000Y-98900000D03*
X194800000Y-96360000D03*
X194800000Y-93820000D03*
X194800000Y-91280000D03*
X194800000Y-88740000D03*
X194800000Y-86200000D03*
D61*
X197340000Y-86200000D03*
X199880000Y-86200000D03*
X202420000Y-86200000D03*
X204960000Y-86200000D03*
X207500000Y-86200000D03*
D60*
X210040000Y-86200000D03*
X210040000Y-88740000D03*
X210040000Y-91280000D03*
X210040000Y-93820000D03*
X210040000Y-96360000D03*
X210040000Y-98900000D03*
X210040000Y-101440000D03*
X210040000Y-103980000D03*
X210040000Y-106520000D03*
D62*
X196700000Y-32900000D03*
D63*
X191700000Y-32900000D03*
X196700000Y-28400000D03*
X201700000Y-32900000D03*
D39*
X137700000Y-48890000D03*
D20*
X137700000Y-51660000D03*
X137700000Y-54430000D03*
X137700000Y-57200000D03*
X137700000Y-59970000D03*
X134860000Y-50275000D03*
X134860000Y-53045000D03*
D42*
X136200000Y-41930000D03*
D20*
X134860000Y-55815000D03*
D42*
X136200000Y-66930000D03*
D20*
X134860000Y-58585000D03*
D64*
X219657700Y-96500000D03*
D65*
X219657700Y-94000000D03*
X219657700Y-92000000D03*
X219657700Y-89500000D03*
X217037700Y-96500000D03*
X217037700Y-94000000D03*
X217037700Y-92000000D03*
X217037700Y-89500000D03*
D66*
X222367700Y-99570000D03*
X222367700Y-86430000D03*
X216687700Y-99570000D03*
X216687700Y-86430000D03*
D67*
X224485000Y-58290000D03*
X224485000Y-52510000D03*
D68*
X223040000Y-58625000D03*
X223040000Y-57850000D03*
D69*
X223040000Y-57150000D03*
X223040000Y-56650000D03*
X223040000Y-56150000D03*
X223040000Y-55650000D03*
X223040000Y-55150000D03*
X223040000Y-54650000D03*
X223040000Y-54150000D03*
X223040000Y-53650000D03*
D68*
X223040000Y-52950000D03*
X223040000Y-52175000D03*
D70*
X223955000Y-59720000D03*
D71*
X228135000Y-59720000D03*
D70*
X223955000Y-51080000D03*
D71*
X228135000Y-51080000D03*
D18*
X226400000Y-105100000D03*
D20*
X210750000Y-57550000D03*
D72*
X207750000Y-57225000D03*
D73*
X209050000Y-59750000D03*
D72*
X206750000Y-57225000D03*
D73*
X204450000Y-59750000D03*
D72*
X205750000Y-57225000D03*
D20*
X202750000Y-57550000D03*
D74*
X141800000Y-26200000D03*
X149800000Y-26200000D03*
D75*
X142600000Y-36700000D03*
X143700000Y-36700000D03*
X144800000Y-36700000D03*
X145900000Y-36700000D03*
X147000000Y-36700000D03*
X148100000Y-36700000D03*
X149200000Y-36700000D03*
X150300000Y-36700000D03*
X151400000Y-36700000D03*
D76*
X137100000Y-26500000D03*
D77*
X138000000Y-36100000D03*
D76*
X152600000Y-26600000D03*
D78*
X152600000Y-36100000D03*
D79*
X146527000Y-67397000D03*
D80*
X146527000Y-64857000D03*
X149067000Y-67397000D03*
X149067000Y-64857000D03*
X151607000Y-67397000D03*
X151607000Y-64857000D03*
X154147000Y-67397000D03*
X154147000Y-64857000D03*
D81*
X176300000Y-69175000D03*
D82*
X176300000Y-70425000D03*
M02*
