G04 #@! TF.GenerationSoftware,KiCad,Pcbnew,10.0.1*
G04 #@! TF.CreationDate,2026-04-23T16:51:34+03:00*
G04 #@! TF.ProjectId,frank_m2,6672616e-6b5f-46d3-922e-6b696361645f,2.07*
G04 #@! TF.SameCoordinates,Original*
G04 #@! TF.FileFunction,Paste,Bot*
G04 #@! TF.FilePolarity,Positive*
%FSLAX46Y46*%
G04 Gerber Fmt 4.6, Leading zero omitted, Abs format (unit mm)*
G04 Created by KiCad (PCBNEW 10.0.1) date 2026-04-23 16:51:34*
%MOMM*%
%LPD*%
G01*
G04 APERTURE LIST*
G04 Aperture macros list*
%AMRoundRect*
0 Rectangle with rounded corners*
0 $1 Rounding radius*
0 $2 $3 $4 $5 $6 $7 $8 $9 X,Y pos of 4 corners*
0 Add a 4 corners polygon primitive as box body*
4,1,4,$2,$3,$4,$5,$6,$7,$8,$9,$2,$3,0*
0 Add four circle primitives for the rounded corners*
1,1,$1+$1,$2,$3*
1,1,$1+$1,$4,$5*
1,1,$1+$1,$6,$7*
1,1,$1+$1,$8,$9*
0 Add four rect primitives between the rounded corners*
20,1,$1+$1,$2,$3,$4,$5,0*
20,1,$1+$1,$4,$5,$6,$7,0*
20,1,$1+$1,$6,$7,$8,$9,0*
20,1,$1+$1,$8,$9,$2,$3,0*%
G04 Aperture macros list end*
%ADD10RoundRect,0.250000X0.262500X0.450000X-0.262500X0.450000X-0.262500X-0.450000X0.262500X-0.450000X0*%
%ADD11RoundRect,0.250000X-0.475000X0.250000X-0.475000X-0.250000X0.475000X-0.250000X0.475000X0.250000X0*%
%ADD12RoundRect,0.250000X-0.450000X0.262500X-0.450000X-0.262500X0.450000X-0.262500X0.450000X0.262500X0*%
%ADD13RoundRect,0.250000X-0.250000X-0.475000X0.250000X-0.475000X0.250000X0.475000X-0.250000X0.475000X0*%
%ADD14RoundRect,0.250000X0.475000X-0.250000X0.475000X0.250000X-0.475000X0.250000X-0.475000X-0.250000X0*%
%ADD15RoundRect,0.250000X0.450000X-0.262500X0.450000X0.262500X-0.450000X0.262500X-0.450000X-0.262500X0*%
%ADD16R,0.650000X1.525000*%
%ADD17RoundRect,0.250000X-0.262500X-0.450000X0.262500X-0.450000X0.262500X0.450000X-0.262500X0.450000X0*%
%ADD18RoundRect,0.150000X0.150000X-0.725000X0.150000X0.725000X-0.150000X0.725000X-0.150000X-0.725000X0*%
%ADD19RoundRect,0.250000X0.250000X0.475000X-0.250000X0.475000X-0.250000X-0.475000X0.250000X-0.475000X0*%
%ADD20RoundRect,0.250000X0.250000X0.250000X-0.250000X0.250000X-0.250000X-0.250000X0.250000X-0.250000X0*%
%ADD21R,1.525000X0.650000*%
%ADD22RoundRect,0.150000X-0.850000X-0.150000X0.850000X-0.150000X0.850000X0.150000X-0.850000X0.150000X0*%
%ADD23RoundRect,0.375000X-0.625000X-0.375000X0.625000X-0.375000X0.625000X0.375000X-0.625000X0.375000X0*%
%ADD24RoundRect,0.500000X-0.500000X-1.400000X0.500000X-1.400000X0.500000X1.400000X-0.500000X1.400000X0*%
%ADD25RoundRect,0.150000X0.850000X0.150000X-0.850000X0.150000X-0.850000X-0.150000X0.850000X-0.150000X0*%
%ADD26RoundRect,0.150000X0.725000X0.150000X-0.725000X0.150000X-0.725000X-0.150000X0.725000X-0.150000X0*%
%ADD27RoundRect,0.150000X0.150000X-0.850000X0.150000X0.850000X-0.150000X0.850000X-0.150000X-0.850000X0*%
G04 APERTURE END LIST*
D10*
X165600000Y-60400000D03*
X163775000Y-60400000D03*
D11*
X161500000Y-69900000D03*
X161500000Y-71800000D03*
D10*
X227962500Y-55500000D03*
X226137500Y-55500000D03*
D12*
X207700000Y-37000000D03*
X207700000Y-38825000D03*
D11*
X207000000Y-98850000D03*
X207000000Y-100750000D03*
D10*
X160625000Y-56400000D03*
X158800000Y-56400000D03*
D11*
X145900000Y-32200000D03*
X145900000Y-34100000D03*
D13*
X149300000Y-80900000D03*
X151200000Y-80900000D03*
D14*
X213200000Y-98100000D03*
X213200000Y-96200000D03*
D15*
X144550000Y-75012500D03*
X144550000Y-73187500D03*
D10*
X186832500Y-87700000D03*
X185007500Y-87700000D03*
D16*
X211340000Y-82424000D03*
X210070000Y-82424000D03*
X208800000Y-82424000D03*
X207530000Y-82424000D03*
X206260000Y-82424000D03*
X204990000Y-82424000D03*
X203720000Y-82424000D03*
X203720000Y-77000000D03*
X204990000Y-77000000D03*
X206260000Y-77000000D03*
X207530000Y-77000000D03*
X208800000Y-77000000D03*
X210070000Y-77000000D03*
X211340000Y-77000000D03*
D13*
X222700000Y-95400000D03*
X224600000Y-95400000D03*
D10*
X160525000Y-53900000D03*
X158700000Y-53900000D03*
D17*
X165900000Y-50900000D03*
X167725000Y-50900000D03*
D15*
X207600000Y-68300000D03*
X207600000Y-66475000D03*
D10*
X196000000Y-67800000D03*
X194175000Y-67800000D03*
X227950000Y-57700000D03*
X226125000Y-57700000D03*
D18*
X197810000Y-79050000D03*
X196540000Y-79050000D03*
X195270000Y-79050000D03*
X194000000Y-79050000D03*
X194000000Y-73900000D03*
X195270000Y-73900000D03*
X196540000Y-73900000D03*
X197810000Y-73900000D03*
D17*
X173875000Y-72600000D03*
X175700000Y-72600000D03*
D15*
X139100000Y-95600000D03*
X139100000Y-93775000D03*
D17*
X150682730Y-60149592D03*
X152507730Y-60149592D03*
D19*
X218400000Y-29600000D03*
X216500000Y-29600000D03*
D10*
X203325000Y-74000000D03*
X201500000Y-74000000D03*
D12*
X190100000Y-47675000D03*
X190100000Y-49500000D03*
X205000000Y-47575000D03*
X205000000Y-49400000D03*
D10*
X207425000Y-52000000D03*
X205600000Y-52000000D03*
D19*
X171900000Y-74600000D03*
X170000000Y-74600000D03*
D15*
X173000000Y-37500000D03*
X173000000Y-35675000D03*
D11*
X221000000Y-53100000D03*
X221000000Y-55000000D03*
D19*
X163750000Y-85700000D03*
X161850000Y-85700000D03*
D15*
X149400000Y-71362500D03*
X149400000Y-69537500D03*
D10*
X202925000Y-36900000D03*
X201100000Y-36900000D03*
D12*
X173000000Y-53375000D03*
X173000000Y-55200000D03*
D10*
X174700000Y-77200000D03*
X172875000Y-77200000D03*
D13*
X131000000Y-90000000D03*
X132900000Y-90000000D03*
D12*
X200000000Y-47575000D03*
X200000000Y-49400000D03*
D19*
X168000000Y-71400000D03*
X166100000Y-71400000D03*
D14*
X190740000Y-75600000D03*
X190740000Y-73700000D03*
D15*
X175200000Y-55125000D03*
X175200000Y-53300000D03*
D10*
X143662500Y-71150000D03*
X141837500Y-71150000D03*
D13*
X170000000Y-71400000D03*
X171900000Y-71400000D03*
D19*
X219200000Y-82300000D03*
X217300000Y-82300000D03*
D20*
X218400000Y-27400000D03*
X215900000Y-27400000D03*
D10*
X210600000Y-71100000D03*
X208775000Y-71100000D03*
D15*
X162000000Y-37525000D03*
X162000000Y-35700000D03*
X175200000Y-37500000D03*
X175200000Y-35675000D03*
D12*
X218200000Y-36975000D03*
X218200000Y-38800000D03*
D13*
X161850000Y-87850000D03*
X163750000Y-87850000D03*
D10*
X169900000Y-60200000D03*
X168075000Y-60200000D03*
D17*
X195975000Y-54300000D03*
X197800000Y-54300000D03*
D12*
X214000000Y-37000000D03*
X214000000Y-38825000D03*
D17*
X145975000Y-60500000D03*
X147800000Y-60500000D03*
D12*
X159200000Y-46700000D03*
X159200000Y-48525000D03*
D14*
X135300000Y-84800000D03*
X135300000Y-82900000D03*
D12*
X213700000Y-89875000D03*
X213700000Y-91700000D03*
D10*
X142600000Y-51700000D03*
X140775000Y-51700000D03*
D21*
X136824000Y-92530000D03*
X136824000Y-93800000D03*
X136824000Y-95070000D03*
X136824000Y-96340000D03*
X136824000Y-97610000D03*
X136824000Y-98880000D03*
X136824000Y-100150000D03*
X131400000Y-100150000D03*
X131400000Y-98880000D03*
X131400000Y-97610000D03*
X131400000Y-96340000D03*
X131400000Y-95070000D03*
X131400000Y-93800000D03*
X131400000Y-92530000D03*
D19*
X191300000Y-84220000D03*
X189400000Y-84220000D03*
D12*
X209800000Y-37000000D03*
X209800000Y-38825000D03*
D10*
X208500000Y-73600000D03*
X206675000Y-73600000D03*
D13*
X196100000Y-70500000D03*
X198000000Y-70500000D03*
D10*
X201625000Y-55600000D03*
X199800000Y-55600000D03*
D15*
X163800000Y-72800000D03*
X163800000Y-70975000D03*
D22*
X199350000Y-102460000D03*
X199350000Y-101190000D03*
X199350000Y-99920000D03*
X199350000Y-98650000D03*
X199350000Y-97380000D03*
X199350000Y-96110000D03*
X199350000Y-94840000D03*
X199350000Y-93570000D03*
X204350000Y-93570000D03*
X204350000Y-94840000D03*
X204350000Y-96110000D03*
X204350000Y-97380000D03*
X204350000Y-98650000D03*
X204350000Y-99920000D03*
X204350000Y-101190000D03*
X204350000Y-102460000D03*
D12*
X149400000Y-75200000D03*
X149400000Y-77025000D03*
X195000000Y-47675000D03*
X195000000Y-49500000D03*
D13*
X212700000Y-71100000D03*
X214600000Y-71100000D03*
D10*
X189200000Y-66600000D03*
X187375000Y-66600000D03*
D14*
X151650000Y-77050000D03*
X151650000Y-75150000D03*
D15*
X164200000Y-37550000D03*
X164200000Y-35725000D03*
D12*
X222400000Y-37000000D03*
X222400000Y-38825000D03*
D10*
X211225000Y-52000000D03*
X209400000Y-52000000D03*
D23*
X162350000Y-94950000D03*
X162350000Y-92650000D03*
D24*
X168650000Y-92650000D03*
D23*
X162350000Y-90350000D03*
D12*
X220300000Y-36975000D03*
X220300000Y-38800000D03*
D10*
X137425000Y-90000000D03*
X135600000Y-90000000D03*
D12*
X187800000Y-26575000D03*
X187800000Y-28400000D03*
D10*
X147625000Y-80900000D03*
X145800000Y-80900000D03*
D25*
X184800000Y-69720000D03*
X184800000Y-70990000D03*
X184800000Y-72260000D03*
X184800000Y-73530000D03*
X184800000Y-74800000D03*
X184800000Y-76070000D03*
X184800000Y-77340000D03*
X184800000Y-78610000D03*
X179800000Y-78610000D03*
X179800000Y-77340000D03*
X179800000Y-76070000D03*
X179800000Y-74800000D03*
X179800000Y-73530000D03*
X179800000Y-72260000D03*
X179800000Y-70990000D03*
X179800000Y-69720000D03*
D12*
X225400000Y-47487500D03*
X225400000Y-49312500D03*
D11*
X213700000Y-76700000D03*
X213700000Y-78600000D03*
D12*
X182300000Y-47500000D03*
X182300000Y-49325000D03*
D15*
X168600000Y-37550000D03*
X168600000Y-35725000D03*
D10*
X202025000Y-52100000D03*
X200200000Y-52100000D03*
D19*
X194300000Y-70500000D03*
X192400000Y-70500000D03*
D10*
X186832500Y-84750000D03*
X185007500Y-84750000D03*
D26*
X169200000Y-53430000D03*
X169200000Y-54700000D03*
X169200000Y-55970000D03*
X169200000Y-57240000D03*
X164050000Y-57240000D03*
X164050000Y-55970000D03*
X164050000Y-54700000D03*
X164050000Y-53430000D03*
D13*
X149300000Y-82950000D03*
X151200000Y-82950000D03*
D15*
X166400000Y-37525000D03*
X166400000Y-35700000D03*
D14*
X163100000Y-47400000D03*
X163100000Y-45500000D03*
D10*
X136525000Y-87600000D03*
X134700000Y-87600000D03*
D15*
X188540000Y-75525000D03*
X188540000Y-73700000D03*
D10*
X227962500Y-53250000D03*
X226137500Y-53250000D03*
D11*
X163100000Y-49100000D03*
X163100000Y-51000000D03*
D10*
X204925000Y-68400000D03*
X203100000Y-68400000D03*
D12*
X192400000Y-47675000D03*
X192400000Y-49500000D03*
D17*
X212500000Y-94100000D03*
X214325000Y-94100000D03*
D19*
X173100000Y-50900000D03*
X171200000Y-50900000D03*
D12*
X216100000Y-36975000D03*
X216100000Y-38800000D03*
X202500000Y-47600000D03*
X202500000Y-49425000D03*
X171900000Y-79500000D03*
X171900000Y-81325000D03*
X179700000Y-47500000D03*
X179700000Y-49325000D03*
D14*
X157300000Y-60500000D03*
X157300000Y-58600000D03*
D10*
X224525000Y-93200000D03*
X222700000Y-93200000D03*
D12*
X228000000Y-47500000D03*
X228000000Y-49325000D03*
D14*
X161700000Y-65100000D03*
X161700000Y-63200000D03*
D10*
X154712500Y-72850000D03*
X152887500Y-72850000D03*
D12*
X170800000Y-35700000D03*
X170800000Y-37525000D03*
D13*
X170050000Y-95700000D03*
X171950000Y-95700000D03*
D10*
X194625000Y-52114500D03*
X192800000Y-52114500D03*
D11*
X201300000Y-76700000D03*
X201300000Y-78600000D03*
D19*
X170800000Y-77200000D03*
X168900000Y-77200000D03*
D14*
X213700000Y-82500000D03*
X213700000Y-80600000D03*
D27*
X173500000Y-68400000D03*
X172230000Y-68400000D03*
X170960000Y-68400000D03*
X169690000Y-68400000D03*
X168420000Y-68400000D03*
X167150000Y-68400000D03*
X165880000Y-68400000D03*
X164610000Y-68400000D03*
X164610000Y-63400000D03*
X165880000Y-63400000D03*
X167150000Y-63400000D03*
X168420000Y-63400000D03*
X169690000Y-63400000D03*
X170960000Y-63400000D03*
X172230000Y-63400000D03*
X173500000Y-63400000D03*
D10*
X181100000Y-97100000D03*
X179275000Y-97100000D03*
D12*
X211900000Y-37000000D03*
X211900000Y-38825000D03*
D19*
X205000000Y-70700000D03*
X203100000Y-70700000D03*
D12*
X212700000Y-66700000D03*
X212700000Y-68525000D03*
X210400000Y-66700000D03*
X210400000Y-68525000D03*
D15*
X160100000Y-60400000D03*
X160100000Y-58575000D03*
D10*
X224525000Y-91100000D03*
X222700000Y-91100000D03*
D13*
X177700000Y-67500000D03*
X179600000Y-67500000D03*
D12*
X207800000Y-47575000D03*
X207800000Y-49400000D03*
D10*
X174900000Y-87800000D03*
X173075000Y-87800000D03*
D17*
X203100000Y-66000000D03*
X204925000Y-66000000D03*
D10*
X147412500Y-71150000D03*
X145587500Y-71150000D03*
M02*
