G04 #@! TF.GenerationSoftware,KiCad,Pcbnew,10.0.1*
G04 #@! TF.CreationDate,2026-04-20T18:22:24+03:00*
G04 #@! TF.ProjectId,frank_m2,6672616e-6b5f-46d3-922e-6b696361645f,2.07*
G04 #@! TF.SameCoordinates,Original*
G04 #@! TF.FileFunction,Paste,Top*
G04 #@! TF.FilePolarity,Positive*
%FSLAX46Y46*%
G04 Gerber Fmt 4.6, Leading zero omitted, Abs format (unit mm)*
G04 Created by KiCad (PCBNEW 10.0.1) date 2026-04-20 18:22:24*
%MOMM*%
%LPD*%
G01*
G04 APERTURE LIST*
G04 Aperture macros list*
%AMRoundRect*
0 Rectangle with rounded corners*
0 $1 Rounding radius*
0 $2 $3 $4 $5 $6 $7 $8 $9 X,Y pos of 4 corners*
0 Add a 4 corners polygon primitive as box body*
4,1,4,$2,$3,$4,$5,$6,$7,$8,$9,$2,$3,0*
0 Add four circle primitives for the rounded corners*
1,1,$1+$1,$2,$3*
1,1,$1+$1,$4,$5*
1,1,$1+$1,$6,$7*
1,1,$1+$1,$8,$9*
0 Add four rect primitives between the rounded corners*
20,1,$1+$1,$2,$3,$4,$5,0*
20,1,$1+$1,$4,$5,$6,$7,0*
20,1,$1+$1,$6,$7,$8,$9,0*
20,1,$1+$1,$8,$9,$2,$3,0*%
G04 Aperture macros list end*
%ADD10R,0.300000X2.600000*%
%ADD11RoundRect,0.250001X0.499999X0.924999X-0.499999X0.924999X-0.499999X-0.924999X0.499999X-0.924999X0*%
%ADD12R,1.211102X0.846933*%
%ADD13R,1.210160X0.850626*%
%ADD14R,1.803508X0.599996*%
%ADD15R,0.600000X1.252114*%
%ADD16R,3.050000X2.200000*%
%ADD17R,3.200000X2.250000*%
%ADD18R,1.650000X0.650000*%
%ADD19RoundRect,0.250001X0.924999X-0.499999X0.924999X0.499999X-0.924999X0.499999X-0.924999X-0.499999X0*%
%ADD20RoundRect,0.250000X0.325000X0.450000X-0.325000X0.450000X-0.325000X-0.450000X0.325000X-0.450000X0*%
%ADD21R,1.200000X2.500000*%
%ADD22R,0.846933X1.211102*%
%ADD23R,0.850626X1.210160*%
%ADD24R,0.599996X1.803508*%
%ADD25R,1.252114X0.600000*%
%ADD26R,0.700000X1.600000*%
%ADD27R,1.200000X2.200000*%
%ADD28R,1.600000X1.400000*%
%ADD29R,1.200000X1.400000*%
G04 APERTURE END LIST*
D10*
X210400000Y-33360000D03*
X210900000Y-33360000D03*
X211400000Y-33360000D03*
X211900000Y-33360000D03*
X212400000Y-33360000D03*
X212900000Y-33360000D03*
X213400000Y-33360000D03*
X213900000Y-33360000D03*
X214400000Y-33360000D03*
X214900000Y-33360000D03*
X215400000Y-33360000D03*
X215900000Y-33360000D03*
X216400000Y-33360000D03*
X216900000Y-33360000D03*
X217400000Y-33360000D03*
X217900000Y-33360000D03*
X218400000Y-33360000D03*
X218900000Y-33360000D03*
X219400000Y-33360000D03*
D11*
X197900000Y-38200000D03*
X194650000Y-38200000D03*
D12*
X132730551Y-33498467D03*
D13*
X132730080Y-35850313D03*
D14*
X132435000Y-34675017D03*
D15*
X130425000Y-32800280D03*
X130425000Y-36550839D03*
D16*
X152700000Y-83500000D03*
X152700000Y-74200000D03*
D17*
X162900000Y-84275000D03*
X162900000Y-77375000D03*
D18*
X177000000Y-77400000D03*
X177000000Y-78670000D03*
X177000000Y-79940000D03*
X177000000Y-81210000D03*
X177000000Y-82480000D03*
X177000000Y-83750000D03*
X184700000Y-83750000D03*
X184700000Y-82480000D03*
X184700000Y-81210000D03*
X184700000Y-79940000D03*
X184700000Y-78670000D03*
X184700000Y-77400000D03*
D19*
X159200000Y-50650000D03*
X159200000Y-47400000D03*
D20*
X179218800Y-87811900D03*
X177168800Y-87811900D03*
D21*
X136200000Y-72150000D03*
X133200000Y-72150000D03*
X141300000Y-78650000D03*
X140200000Y-72150000D03*
D22*
X216728978Y-105241450D03*
D23*
X219080824Y-105241921D03*
D24*
X217905528Y-105537001D03*
D25*
X216030791Y-107547001D03*
X219781350Y-107547001D03*
D21*
X136100000Y-82150000D03*
X133100000Y-82150000D03*
X141200000Y-88650000D03*
X140100000Y-82150000D03*
D26*
X142600000Y-36700000D03*
X143700000Y-36700000D03*
X144800000Y-36700000D03*
X145900000Y-36700000D03*
X147000000Y-36700000D03*
X148100000Y-36700000D03*
X149200000Y-36700000D03*
X150300000Y-36700000D03*
X151400000Y-36700000D03*
D27*
X137100000Y-26500000D03*
D28*
X138000000Y-36100000D03*
D27*
X152600000Y-26600000D03*
D29*
X152600000Y-36100000D03*
M02*
