G04 #@! TF.GenerationSoftware,KiCad,Pcbnew,10.0.1*
G04 #@! TF.CreationDate,2026-06-05T15:47:18+03:00*
G04 #@! TF.ProjectId,frank_zero,6672616e-6b5f-47a6-9572-6f2e6b696361,1.00*
G04 #@! TF.SameCoordinates,Original*
G04 #@! TF.FileFunction,Legend,Bot*
G04 #@! TF.FilePolarity,Positive*
%FSLAX46Y46*%
G04 Gerber Fmt 4.6, Leading zero omitted, Abs format (unit mm)*
G04 Created by KiCad (PCBNEW 10.0.1) date 2026-06-05 15:47:18*
%MOMM*%
%LPD*%
G01*
G04 APERTURE LIST*
%ADD10C,0.125000*%
%ADD11C,0.120000*%
%ADD12C,0.140000*%
%ADD13C,0.100000*%
%ADD14C,0.191421*%
G04 APERTURE END LIST*
D10*
G36*
X156227937Y-145830000D02*
G01*
X156227937Y-144794410D01*
X156116074Y-144794410D01*
X156116074Y-145224827D01*
X156110456Y-145224827D01*
X156089895Y-145185857D01*
X156065001Y-145153446D01*
X156035657Y-145126824D01*
X156001642Y-145107370D01*
X155959207Y-145094930D01*
X155906208Y-145090432D01*
X155851239Y-145095300D01*
X155804370Y-145109151D01*
X155764070Y-145131476D01*
X155729254Y-145162606D01*
X155702021Y-145200194D01*
X155681757Y-145245573D01*
X155668804Y-145300307D01*
X155664164Y-145366366D01*
X155664164Y-145830000D01*
X155776088Y-145830000D01*
X155776088Y-145385905D01*
X155781409Y-145322638D01*
X155795691Y-145275300D01*
X155817365Y-145240214D01*
X155848068Y-145213730D01*
X155887919Y-145197176D01*
X155939792Y-145191182D01*
X155983695Y-145194893D01*
X156025155Y-145205898D01*
X156062191Y-145224868D01*
X156090917Y-145251449D01*
X156109540Y-145285346D01*
X156116074Y-145328447D01*
X156116074Y-145830000D01*
X156227937Y-145830000D01*
G37*
G36*
X155134279Y-145830000D02*
G01*
X155274230Y-145830000D01*
X155311005Y-145825904D01*
X155339755Y-145814541D01*
X155362341Y-145796355D01*
X155379207Y-145772348D01*
X155389508Y-145744233D01*
X155393115Y-145710870D01*
X155393115Y-145204982D01*
X155512061Y-145204982D01*
X155512061Y-145107041D01*
X155444895Y-145107041D01*
X155412255Y-145102757D01*
X155395252Y-145092447D01*
X155385835Y-145074433D01*
X155381941Y-145041523D01*
X155381941Y-144907739D01*
X155281191Y-144907739D01*
X155281191Y-145107041D01*
X155123105Y-145107041D01*
X155123105Y-145204982D01*
X155281191Y-145204982D01*
X155281191Y-145732058D01*
X155134279Y-145732058D01*
X155134279Y-145830000D01*
G37*
G36*
X154655563Y-145830000D02*
G01*
X154795514Y-145830000D01*
X154832289Y-145825904D01*
X154861039Y-145814541D01*
X154883625Y-145796355D01*
X154900491Y-145772348D01*
X154910792Y-145744233D01*
X154914399Y-145710870D01*
X154914399Y-145204982D01*
X155033345Y-145204982D01*
X155033345Y-145107041D01*
X154966179Y-145107041D01*
X154933539Y-145102757D01*
X154916536Y-145092447D01*
X154907119Y-145074433D01*
X154903225Y-145041523D01*
X154903225Y-144907739D01*
X154802475Y-144907739D01*
X154802475Y-145107041D01*
X154644389Y-145107041D01*
X154644389Y-145204982D01*
X154802475Y-145204982D01*
X154802475Y-145732058D01*
X154655563Y-145732058D01*
X154655563Y-145830000D01*
G37*
G36*
X154183279Y-145094296D02*
G01*
X154225842Y-145105390D01*
X154263492Y-145123344D01*
X154296268Y-145148573D01*
X154323725Y-145181921D01*
X154346046Y-145224766D01*
X154351664Y-145224766D01*
X154351664Y-145107041D01*
X154463527Y-145107041D01*
X154463527Y-146111367D01*
X154351664Y-146111367D01*
X154351664Y-145712274D01*
X154346046Y-145712274D01*
X154321485Y-145754543D01*
X154293303Y-145787711D01*
X154261416Y-145813025D01*
X154225042Y-145831291D01*
X154183222Y-145842633D01*
X154134776Y-145846608D01*
X154075635Y-145841222D01*
X154023884Y-145825711D01*
X153978094Y-145800385D01*
X153938361Y-145766030D01*
X153904596Y-145722627D01*
X153876672Y-145668799D01*
X153857420Y-145610795D01*
X153845282Y-145544476D01*
X153841013Y-145468520D01*
X153844457Y-145406910D01*
X153961303Y-145406910D01*
X153961303Y-145530130D01*
X153967813Y-145592462D01*
X153986190Y-145643736D01*
X154015891Y-145686324D01*
X154055755Y-145718811D01*
X154104737Y-145738771D01*
X154165551Y-145745858D01*
X154214505Y-145741397D01*
X154258607Y-145728394D01*
X154297372Y-145706688D01*
X154326507Y-145677958D01*
X154345201Y-145642215D01*
X154351664Y-145598763D01*
X154351664Y-145329851D01*
X154345342Y-145291597D01*
X154326507Y-145258410D01*
X154297567Y-145231202D01*
X154258607Y-145209378D01*
X154214470Y-145195823D01*
X154165551Y-145191182D01*
X154104737Y-145198270D01*
X154055755Y-145218229D01*
X154015891Y-145250717D01*
X153986190Y-145293305D01*
X153967813Y-145344578D01*
X153961303Y-145406910D01*
X153844457Y-145406910D01*
X153845310Y-145391641D01*
X153857475Y-145325165D01*
X153876672Y-145267630D01*
X153904563Y-145214200D01*
X153938323Y-145170985D01*
X153978094Y-145136655D01*
X154023884Y-145111330D01*
X154075635Y-145095818D01*
X154134776Y-145090432D01*
X154183279Y-145094296D01*
G37*
G36*
X153434837Y-145846608D02*
G01*
X153500143Y-145841966D01*
X153555565Y-145828871D01*
X153602754Y-145808140D01*
X153646125Y-145779717D01*
X153685189Y-145745571D01*
X153720235Y-145705314D01*
X153640490Y-145640956D01*
X153595432Y-145687695D01*
X153546761Y-145722105D01*
X153511180Y-145738148D01*
X153471367Y-145748042D01*
X153426472Y-145751475D01*
X153379773Y-145747591D01*
X153343423Y-145736989D01*
X153315219Y-145720640D01*
X153293260Y-145697564D01*
X153280017Y-145669164D01*
X153275347Y-145633750D01*
X153282205Y-145594442D01*
X153302641Y-145560905D01*
X153323123Y-145544213D01*
X153354698Y-145530352D01*
X153401254Y-145520300D01*
X153458651Y-145511873D01*
X153522235Y-145498448D01*
X153577536Y-145478961D01*
X153625489Y-145450553D01*
X153660823Y-145413199D01*
X153676981Y-145383318D01*
X153687208Y-145347157D01*
X153690865Y-145303229D01*
X153685803Y-145250456D01*
X153671615Y-145207369D01*
X153648972Y-145171968D01*
X153617409Y-145142944D01*
X153566067Y-145114491D01*
X153505466Y-145096717D01*
X153433433Y-145090432D01*
X153376607Y-145094120D01*
X153329263Y-145104415D01*
X153285732Y-145121528D01*
X153247381Y-145144288D01*
X153212926Y-145172630D01*
X153181618Y-145206570D01*
X153255746Y-145273736D01*
X153283965Y-145242760D01*
X153325722Y-145212859D01*
X153357610Y-145198218D01*
X153395870Y-145188896D01*
X153441859Y-145185565D01*
X153486628Y-145189399D01*
X153520809Y-145199790D01*
X153546761Y-145215729D01*
X153566833Y-145237989D01*
X153578916Y-145264825D01*
X153583154Y-145297672D01*
X153578856Y-145330375D01*
X153566934Y-145355183D01*
X153547494Y-145374059D01*
X153506977Y-145394151D01*
X153444668Y-145409780D01*
X153388675Y-145418206D01*
X153309998Y-145435931D01*
X153255023Y-145459522D01*
X153218011Y-145487510D01*
X153190439Y-145524320D01*
X153173571Y-145568201D01*
X153167635Y-145621172D01*
X153171424Y-145666926D01*
X153182273Y-145706729D01*
X153199814Y-145741645D01*
X153224000Y-145772278D01*
X153254485Y-145798095D01*
X153292138Y-145819314D01*
X153333107Y-145834037D01*
X153380319Y-145843331D01*
X153434837Y-145846608D01*
G37*
G36*
X152883764Y-145846608D02*
G01*
X152922928Y-145840322D01*
X152948122Y-145823527D01*
X152963721Y-145797895D01*
X152969127Y-145765458D01*
X152969127Y-145747262D01*
X152963641Y-145713733D01*
X152948122Y-145688522D01*
X152922994Y-145672240D01*
X152883764Y-145666113D01*
X152843433Y-145672320D01*
X152818735Y-145688522D01*
X152803732Y-145713678D01*
X152798401Y-145747262D01*
X152798401Y-145765458D01*
X152803654Y-145797947D01*
X152818735Y-145823527D01*
X152843502Y-145840241D01*
X152883764Y-145846608D01*
G37*
G36*
X152883764Y-145272149D02*
G01*
X152922928Y-145265863D01*
X152948122Y-145249068D01*
X152963721Y-145223435D01*
X152969127Y-145190999D01*
X152969127Y-145172803D01*
X152963641Y-145139274D01*
X152948122Y-145114063D01*
X152922994Y-145097781D01*
X152883764Y-145091653D01*
X152843433Y-145097861D01*
X152818735Y-145114063D01*
X152803732Y-145139218D01*
X152798401Y-145172803D01*
X152798401Y-145190999D01*
X152803654Y-145223488D01*
X152818735Y-145249068D01*
X152843502Y-145265781D01*
X152883764Y-145272149D01*
G37*
G36*
X152567958Y-146041025D02*
G01*
X152668708Y-146041025D01*
X152303565Y-144794410D01*
X152202815Y-144794410D01*
X152567958Y-146041025D01*
G37*
G36*
X152200617Y-146041025D02*
G01*
X152301367Y-146041025D01*
X151936224Y-144794410D01*
X151835474Y-144794410D01*
X152200617Y-146041025D01*
G37*
G36*
X151620479Y-145830000D02*
G01*
X151620479Y-145204982D01*
X151738021Y-145204982D01*
X151738021Y-145107041D01*
X151620479Y-145107041D01*
X151620479Y-144961899D01*
X151615796Y-144913966D01*
X151602583Y-144874295D01*
X151581339Y-144841182D01*
X151552099Y-144816038D01*
X151513454Y-144800191D01*
X151462393Y-144794410D01*
X151353277Y-144794410D01*
X151353277Y-144892351D01*
X151508555Y-144892351D01*
X151508555Y-145107041D01*
X151353277Y-145107041D01*
X151353277Y-145204982D01*
X151508555Y-145204982D01*
X151508555Y-145830000D01*
X151620479Y-145830000D01*
G37*
G36*
X151094441Y-145830000D02*
G01*
X151206304Y-145830000D01*
X151206304Y-145107041D01*
X151094441Y-145107041D01*
X151094441Y-145239970D01*
X151087419Y-145239970D01*
X151071525Y-145206518D01*
X151048279Y-145174940D01*
X151018398Y-145148056D01*
X150979708Y-145125969D01*
X150935073Y-145112071D01*
X150878958Y-145107041D01*
X150835605Y-145107041D01*
X150835605Y-145218965D01*
X150901367Y-145218965D01*
X150959065Y-145223273D01*
X151004865Y-145235085D01*
X151044314Y-145254576D01*
X151071360Y-145277827D01*
X151088679Y-145306577D01*
X151094441Y-145339499D01*
X151094441Y-145830000D01*
G37*
G36*
X150534406Y-145095517D02*
G01*
X150587855Y-145109793D01*
X150632578Y-145132381D01*
X150672718Y-145163022D01*
X150703574Y-145196009D01*
X150726306Y-145231543D01*
X150659139Y-145294375D01*
X150625632Y-145250121D01*
X150585012Y-145216278D01*
X150553911Y-145200360D01*
X150517880Y-145190451D01*
X150475835Y-145186969D01*
X150419401Y-145192176D01*
X150377700Y-145206138D01*
X150347180Y-145227452D01*
X150324633Y-145256976D01*
X150310359Y-145295164D01*
X150305170Y-145344628D01*
X150305170Y-145415764D01*
X150447869Y-145415764D01*
X150517853Y-145418870D01*
X150574767Y-145427391D01*
X150620671Y-145440310D01*
X150663631Y-145460054D01*
X150696920Y-145483930D01*
X150722093Y-145511873D01*
X150740361Y-145544704D01*
X150751694Y-145582896D01*
X150755676Y-145627705D01*
X150751372Y-145677398D01*
X150739132Y-145719782D01*
X150719437Y-145756218D01*
X150692051Y-145787684D01*
X150658747Y-145812452D01*
X150618844Y-145830782D01*
X150571029Y-145842443D01*
X150513632Y-145846608D01*
X150464253Y-145842587D01*
X150421017Y-145831044D01*
X150382840Y-145812353D01*
X150349849Y-145786183D01*
X150324104Y-145753190D01*
X150305170Y-145712274D01*
X150297192Y-145712274D01*
X150296317Y-145723392D01*
X150287035Y-145758558D01*
X150270410Y-145788677D01*
X150246430Y-145811071D01*
X150215572Y-145824916D01*
X150173646Y-145830000D01*
X150110692Y-145830000D01*
X150110692Y-145732058D01*
X150193246Y-145732058D01*
X150193246Y-145619279D01*
X150305170Y-145619279D01*
X150311197Y-145654006D01*
X150329656Y-145686079D01*
X150357972Y-145712630D01*
X150396822Y-145733890D01*
X150441626Y-145746864D01*
X150495435Y-145751475D01*
X150537426Y-145747859D01*
X150571412Y-145737803D01*
X150598994Y-145721983D01*
X150620613Y-145699802D01*
X150633579Y-145672652D01*
X150638134Y-145638941D01*
X150638134Y-145609448D01*
X150633040Y-145576249D01*
X150618395Y-145549606D01*
X150593377Y-145527871D01*
X150562039Y-145513532D01*
X150516866Y-145503559D01*
X150453487Y-145499722D01*
X150305170Y-145499722D01*
X150305170Y-145619279D01*
X150193246Y-145619279D01*
X150193246Y-145334187D01*
X150198243Y-145277707D01*
X150212400Y-145230038D01*
X150235121Y-145189501D01*
X150266702Y-145154912D01*
X150304911Y-145127853D01*
X150350547Y-145107777D01*
X150405063Y-145094995D01*
X150470278Y-145090432D01*
X150534406Y-145095517D01*
G37*
G36*
X149839033Y-145830000D02*
G01*
X149950896Y-145830000D01*
X149950896Y-145107041D01*
X149839033Y-145107041D01*
X149839033Y-145224827D01*
X149833415Y-145224827D01*
X149812854Y-145185857D01*
X149787960Y-145153446D01*
X149758616Y-145126824D01*
X149724601Y-145107370D01*
X149682165Y-145094930D01*
X149629167Y-145090432D01*
X149574198Y-145095300D01*
X149527329Y-145109151D01*
X149487028Y-145131476D01*
X149452213Y-145162606D01*
X149424980Y-145200194D01*
X149404716Y-145245573D01*
X149391763Y-145300307D01*
X149387123Y-145366366D01*
X149387123Y-145830000D01*
X149499047Y-145830000D01*
X149499047Y-145385905D01*
X149504367Y-145322638D01*
X149518650Y-145275300D01*
X149540324Y-145240214D01*
X149571027Y-145213730D01*
X149610878Y-145197176D01*
X149662751Y-145191182D01*
X149706654Y-145194893D01*
X149748113Y-145205898D01*
X149785150Y-145224868D01*
X149813876Y-145251449D01*
X149832499Y-145285346D01*
X149839033Y-145328447D01*
X149839033Y-145830000D01*
G37*
G36*
X149156618Y-145830000D02*
G01*
X149156618Y-144794410D01*
X149044755Y-144794410D01*
X149044755Y-145321669D01*
X149044755Y-145450324D01*
X149039138Y-145450324D01*
X148928618Y-145327042D01*
X148724370Y-145107041D01*
X148588632Y-145107041D01*
X148855833Y-145392866D01*
X148562070Y-145830000D01*
X148697747Y-145830000D01*
X148936983Y-145461498D01*
X149044755Y-145572018D01*
X149044755Y-145830000D01*
X149156618Y-145830000D01*
G37*
G36*
X148347686Y-145846608D02*
G01*
X148386849Y-145840322D01*
X148412044Y-145823527D01*
X148427643Y-145797895D01*
X148433049Y-145765458D01*
X148433049Y-145747262D01*
X148427563Y-145713733D01*
X148412044Y-145688522D01*
X148386916Y-145672240D01*
X148347686Y-145666113D01*
X148307355Y-145672320D01*
X148282656Y-145688522D01*
X148267654Y-145713678D01*
X148262323Y-145747262D01*
X148262323Y-145765458D01*
X148267575Y-145797947D01*
X148282656Y-145823527D01*
X148307424Y-145840241D01*
X148347686Y-145846608D01*
G37*
G36*
X147927100Y-145830000D02*
G01*
X148038963Y-145830000D01*
X148038963Y-145107041D01*
X147927100Y-145107041D01*
X147927100Y-145239970D01*
X147920078Y-145239970D01*
X147904184Y-145206518D01*
X147880938Y-145174940D01*
X147851056Y-145148056D01*
X147812367Y-145125969D01*
X147767732Y-145112071D01*
X147711617Y-145107041D01*
X147668263Y-145107041D01*
X147668263Y-145218965D01*
X147734026Y-145218965D01*
X147791724Y-145223273D01*
X147837524Y-145235085D01*
X147876973Y-145254576D01*
X147904019Y-145277827D01*
X147921337Y-145306577D01*
X147927100Y-145339499D01*
X147927100Y-145830000D01*
G37*
G36*
X147526053Y-145830000D02*
G01*
X147526053Y-144794410D01*
X147414190Y-144794410D01*
X147414190Y-145224827D01*
X147408572Y-145224827D01*
X147388011Y-145185857D01*
X147363117Y-145153446D01*
X147333773Y-145126824D01*
X147299758Y-145107370D01*
X147257323Y-145094930D01*
X147204324Y-145090432D01*
X147149355Y-145095300D01*
X147102486Y-145109151D01*
X147062185Y-145131476D01*
X147027370Y-145162606D01*
X147000137Y-145200194D01*
X146979873Y-145245573D01*
X146966920Y-145300307D01*
X146962280Y-145366366D01*
X146962280Y-145830000D01*
X147074204Y-145830000D01*
X147074204Y-145385905D01*
X147079524Y-145322638D01*
X147093807Y-145275300D01*
X147115481Y-145240214D01*
X147146184Y-145213730D01*
X147186035Y-145197176D01*
X147237908Y-145191182D01*
X147281811Y-145194893D01*
X147323270Y-145205898D01*
X147360307Y-145224868D01*
X147389033Y-145251449D01*
X147407656Y-145285346D01*
X147414190Y-145328447D01*
X147414190Y-145830000D01*
X147526053Y-145830000D01*
G37*
G36*
X146085448Y-145830000D02*
G01*
X146727623Y-145830000D01*
X146727623Y-145726502D01*
X146454804Y-145726502D01*
X146454804Y-144939795D01*
X146464574Y-144939795D01*
X146710832Y-145169506D01*
X146779342Y-145095317D01*
X146520566Y-144853028D01*
X146337262Y-144853028D01*
X146337262Y-145726502D01*
X146085448Y-145726502D01*
X146085448Y-145830000D01*
G37*
G36*
X145821238Y-145846608D02*
G01*
X145860401Y-145840322D01*
X145885596Y-145823527D01*
X145901195Y-145797895D01*
X145906601Y-145765458D01*
X145906601Y-145747262D01*
X145901115Y-145713733D01*
X145885596Y-145688522D01*
X145860468Y-145672240D01*
X145821238Y-145666113D01*
X145780907Y-145672320D01*
X145756208Y-145688522D01*
X145741206Y-145713678D01*
X145735875Y-145747262D01*
X145735875Y-145765458D01*
X145741127Y-145797947D01*
X145756208Y-145823527D01*
X145780976Y-145840241D01*
X145821238Y-145846608D01*
G37*
G36*
X145233651Y-145830000D02*
G01*
X145373602Y-145830000D01*
X145410377Y-145825904D01*
X145439127Y-145814541D01*
X145461713Y-145796355D01*
X145478579Y-145772348D01*
X145488880Y-145744233D01*
X145492487Y-145710870D01*
X145492487Y-145204982D01*
X145611433Y-145204982D01*
X145611433Y-145107041D01*
X145544267Y-145107041D01*
X145511626Y-145102757D01*
X145494624Y-145092447D01*
X145485207Y-145074433D01*
X145481313Y-145041523D01*
X145481313Y-144907739D01*
X145380563Y-144907739D01*
X145380563Y-145107041D01*
X145222477Y-145107041D01*
X145222477Y-145204982D01*
X145380563Y-145204982D01*
X145380563Y-145732058D01*
X145233651Y-145732058D01*
X145233651Y-145830000D01*
G37*
G36*
X144839982Y-145095896D02*
G01*
X144896413Y-145111665D01*
X144946788Y-145137388D01*
X144991255Y-145172424D01*
X145028918Y-145215930D01*
X145060116Y-145268974D01*
X145082061Y-145326772D01*
X145095828Y-145392808D01*
X145100661Y-145468520D01*
X145095828Y-145544232D01*
X145082061Y-145610268D01*
X145060116Y-145668066D01*
X145028921Y-145721114D01*
X144991257Y-145764642D01*
X144946788Y-145799713D01*
X144896417Y-145825402D01*
X144839985Y-145841150D01*
X144776123Y-145846608D01*
X144709329Y-145841189D01*
X144651069Y-145825663D01*
X144599841Y-145800568D01*
X144554081Y-145766292D01*
X144518038Y-145726878D01*
X144490725Y-145681866D01*
X144570409Y-145624652D01*
X144592090Y-145662111D01*
X144618368Y-145692486D01*
X144649483Y-145716610D01*
X144684758Y-145734153D01*
X144724317Y-145744929D01*
X144769101Y-145748667D01*
X144818805Y-145744424D01*
X144860705Y-145732423D01*
X144896257Y-145713232D01*
X144926515Y-145686690D01*
X144957670Y-145642473D01*
X144976590Y-145591325D01*
X144983180Y-145531290D01*
X144983180Y-145497829D01*
X144464103Y-145497829D01*
X144464103Y-145444462D01*
X144467121Y-145398361D01*
X144584453Y-145398361D01*
X144584453Y-145413871D01*
X144983180Y-145413871D01*
X144983180Y-145403979D01*
X144976353Y-145343151D01*
X144956618Y-145290589D01*
X144924779Y-145245871D01*
X144883162Y-145212431D01*
X144833582Y-145191440D01*
X144776123Y-145184221D01*
X144721491Y-145191123D01*
X144675373Y-145211027D01*
X144637123Y-145242842D01*
X144608267Y-145285704D01*
X144590698Y-145336446D01*
X144584453Y-145398361D01*
X144467121Y-145398361D01*
X144468525Y-145376918D01*
X144481283Y-145316382D01*
X144501899Y-145261830D01*
X144531040Y-145211688D01*
X144566813Y-145170086D01*
X144609610Y-145136106D01*
X144658108Y-145111161D01*
X144713127Y-145095787D01*
X144776123Y-145090432D01*
X144839982Y-145095896D01*
G37*
G36*
X144010971Y-145846608D02*
G01*
X144085679Y-145839702D01*
X144148704Y-145820104D01*
X144202334Y-145788535D01*
X144248131Y-145744392D01*
X144283741Y-145691469D01*
X144310103Y-145629103D01*
X144326821Y-145555519D01*
X144332761Y-145468520D01*
X144326821Y-145381522D01*
X144310103Y-145307937D01*
X144283741Y-145245571D01*
X144248131Y-145192648D01*
X144202334Y-145148505D01*
X144148704Y-145116936D01*
X144085679Y-145097339D01*
X144010971Y-145090432D01*
X143940564Y-145096286D01*
X143883626Y-145112531D01*
X143837498Y-145137998D01*
X143797383Y-145172836D01*
X143765394Y-145213208D01*
X143740961Y-145259754D01*
X143834689Y-145307320D01*
X143850947Y-145272266D01*
X143872554Y-145243632D01*
X143899780Y-145220553D01*
X143931418Y-145203825D01*
X143968102Y-145193430D01*
X144010971Y-145189778D01*
X144060073Y-145194027D01*
X144100469Y-145205926D01*
X144133852Y-145224783D01*
X144161425Y-145250717D01*
X144189184Y-145293890D01*
X144206391Y-145345246D01*
X144212471Y-145406910D01*
X144212471Y-145530130D01*
X144206437Y-145590863D01*
X144189270Y-145642049D01*
X144161425Y-145685652D01*
X144133808Y-145711905D01*
X144100406Y-145730963D01*
X144060025Y-145742975D01*
X144010971Y-145747262D01*
X143966259Y-145743474D01*
X143927457Y-145732629D01*
X143893490Y-145715083D01*
X143863660Y-145690997D01*
X143837581Y-145660090D01*
X143815149Y-145621355D01*
X143734000Y-145675943D01*
X143761269Y-145724095D01*
X143795837Y-145765136D01*
X143838230Y-145799774D01*
X143886437Y-145825104D01*
X143943359Y-145840985D01*
X144010971Y-145846608D01*
G37*
G36*
X143576158Y-145830000D02*
G01*
X143576158Y-144794410D01*
X143464295Y-144794410D01*
X143464295Y-145224827D01*
X143458677Y-145224827D01*
X143438116Y-145185857D01*
X143413222Y-145153446D01*
X143383878Y-145126824D01*
X143349863Y-145107370D01*
X143307427Y-145094930D01*
X143254429Y-145090432D01*
X143199459Y-145095300D01*
X143152591Y-145109151D01*
X143112290Y-145131476D01*
X143077475Y-145162606D01*
X143050242Y-145200194D01*
X143029977Y-145245573D01*
X143017025Y-145300307D01*
X143012384Y-145366366D01*
X143012384Y-145830000D01*
X143124308Y-145830000D01*
X143124308Y-145385905D01*
X143129629Y-145322638D01*
X143143912Y-145275300D01*
X143165586Y-145240214D01*
X143196289Y-145213730D01*
X143236140Y-145197176D01*
X143288012Y-145191182D01*
X143331916Y-145194893D01*
X143373375Y-145205898D01*
X143410411Y-145224868D01*
X143439138Y-145251449D01*
X143457761Y-145285346D01*
X143464295Y-145328447D01*
X143464295Y-145830000D01*
X143576158Y-145830000D01*
G37*
G36*
X160880834Y-137950000D02*
G01*
X160553488Y-137950000D01*
X160473805Y-137943685D01*
X160403709Y-137925536D01*
X160341546Y-137896144D01*
X160286851Y-137854971D01*
X160240573Y-137801470D01*
X160202327Y-137733784D01*
X160176300Y-137659811D01*
X160159437Y-137570060D01*
X160153357Y-137461514D01*
X160157824Y-137381769D01*
X160279264Y-137381769D01*
X160279264Y-137541320D01*
X160283484Y-137604958D01*
X160295404Y-137659299D01*
X160314252Y-137705818D01*
X160340931Y-137748110D01*
X160372990Y-137782599D01*
X160410789Y-137810109D01*
X160453166Y-137830029D01*
X160500392Y-137842265D01*
X160553488Y-137846502D01*
X160763353Y-137846502D01*
X160763353Y-137076587D01*
X160553488Y-137076587D01*
X160500356Y-137080752D01*
X160453127Y-137092770D01*
X160410789Y-137112308D01*
X160373066Y-137139427D01*
X160341003Y-137173886D01*
X160314252Y-137216599D01*
X160295383Y-137263550D01*
X160283473Y-137318133D01*
X160279264Y-137381769D01*
X160157824Y-137381769D01*
X160159438Y-137352967D01*
X160176302Y-137263238D01*
X160202327Y-137189305D01*
X160240579Y-137121583D01*
X160286857Y-137068085D01*
X160341546Y-137026945D01*
X160403712Y-136997518D01*
X160473808Y-136979350D01*
X160553488Y-136973028D01*
X160880834Y-136973028D01*
X160880834Y-137950000D01*
G37*
G36*
X159745644Y-137215896D02*
G01*
X159802075Y-137231665D01*
X159852450Y-137257388D01*
X159896917Y-137292424D01*
X159934580Y-137335930D01*
X159965778Y-137388974D01*
X159987723Y-137446772D01*
X160001490Y-137512808D01*
X160006323Y-137588520D01*
X160001490Y-137664232D01*
X159987723Y-137730268D01*
X159965778Y-137788066D01*
X159934583Y-137841114D01*
X159896920Y-137884642D01*
X159852450Y-137919713D01*
X159802079Y-137945402D01*
X159745647Y-137961150D01*
X159681785Y-137966608D01*
X159614992Y-137961189D01*
X159556731Y-137945663D01*
X159505503Y-137920568D01*
X159459743Y-137886292D01*
X159423700Y-137846878D01*
X159396387Y-137801866D01*
X159476071Y-137744652D01*
X159497752Y-137782111D01*
X159524030Y-137812486D01*
X159555145Y-137836610D01*
X159590420Y-137854153D01*
X159629979Y-137864929D01*
X159674763Y-137868667D01*
X159724467Y-137864424D01*
X159766367Y-137852423D01*
X159801919Y-137833232D01*
X159832177Y-137806690D01*
X159863332Y-137762473D01*
X159882252Y-137711325D01*
X159888842Y-137651290D01*
X159888842Y-137617829D01*
X159369765Y-137617829D01*
X159369765Y-137564462D01*
X159372783Y-137518361D01*
X159490115Y-137518361D01*
X159490115Y-137533871D01*
X159888842Y-137533871D01*
X159888842Y-137523979D01*
X159882015Y-137463151D01*
X159862280Y-137410589D01*
X159830441Y-137365871D01*
X159788824Y-137332431D01*
X159739244Y-137311440D01*
X159681785Y-137304221D01*
X159627153Y-137311123D01*
X159581035Y-137331027D01*
X159542786Y-137362842D01*
X159513929Y-137405704D01*
X159496360Y-137456446D01*
X159490115Y-137518361D01*
X159372783Y-137518361D01*
X159374187Y-137496918D01*
X159386945Y-137436382D01*
X159407561Y-137381830D01*
X159436702Y-137331688D01*
X159472475Y-137290086D01*
X159515272Y-137256106D01*
X159563770Y-137231161D01*
X159618789Y-137215787D01*
X159681785Y-137210432D01*
X159745644Y-137215896D01*
G37*
G36*
X158968413Y-137966608D02*
G01*
X159033719Y-137961966D01*
X159089141Y-137948871D01*
X159136330Y-137928140D01*
X159179701Y-137899717D01*
X159218764Y-137865571D01*
X159253810Y-137825314D01*
X159174065Y-137760956D01*
X159129008Y-137807695D01*
X159080337Y-137842105D01*
X159044756Y-137858148D01*
X159004943Y-137868042D01*
X158960047Y-137871475D01*
X158913349Y-137867591D01*
X158876998Y-137856989D01*
X158848795Y-137840640D01*
X158826836Y-137817564D01*
X158813592Y-137789164D01*
X158808922Y-137753750D01*
X158815780Y-137714442D01*
X158836216Y-137680905D01*
X158856698Y-137664213D01*
X158888274Y-137650352D01*
X158934829Y-137640300D01*
X158992226Y-137631873D01*
X159055811Y-137618448D01*
X159111112Y-137598961D01*
X159159065Y-137570553D01*
X159194398Y-137533199D01*
X159210556Y-137503318D01*
X159220784Y-137467157D01*
X159224440Y-137423229D01*
X159219379Y-137370456D01*
X159205190Y-137327369D01*
X159182548Y-137291968D01*
X159150984Y-137262944D01*
X159099643Y-137234491D01*
X159039042Y-137216717D01*
X158967008Y-137210432D01*
X158910183Y-137214120D01*
X158862839Y-137224415D01*
X158819308Y-137241528D01*
X158780956Y-137264288D01*
X158746502Y-137292630D01*
X158715194Y-137326570D01*
X158789322Y-137393736D01*
X158817541Y-137362760D01*
X158859297Y-137332859D01*
X158891185Y-137318218D01*
X158929445Y-137308896D01*
X158975435Y-137305565D01*
X159020204Y-137309399D01*
X159054385Y-137319790D01*
X159080337Y-137335729D01*
X159100409Y-137357989D01*
X159112492Y-137384825D01*
X159116729Y-137417672D01*
X159112432Y-137450375D01*
X159100509Y-137475183D01*
X159081070Y-137494059D01*
X159040553Y-137514151D01*
X158978243Y-137529780D01*
X158922251Y-137538206D01*
X158843573Y-137555931D01*
X158788599Y-137579522D01*
X158751586Y-137607510D01*
X158724014Y-137644320D01*
X158707147Y-137688201D01*
X158701211Y-137741172D01*
X158704999Y-137786926D01*
X158715849Y-137826729D01*
X158733390Y-137861645D01*
X158757576Y-137892278D01*
X158788061Y-137918095D01*
X158825714Y-137939314D01*
X158866683Y-137954037D01*
X158913894Y-137963331D01*
X158968413Y-137966608D01*
G37*
G36*
X158448359Y-137058513D02*
G01*
X158480053Y-137053710D01*
X158500138Y-137041050D01*
X158512577Y-137021330D01*
X158516930Y-136995560D01*
X158516930Y-136977363D01*
X158512575Y-136951603D01*
X158500138Y-136931934D01*
X158480047Y-136919228D01*
X158448359Y-136914410D01*
X158415566Y-136919307D01*
X158395907Y-136931934D01*
X158383988Y-136951548D01*
X158379787Y-136977363D01*
X158379787Y-136995560D01*
X158383986Y-137021385D01*
X158395907Y-137041050D01*
X158415559Y-137053631D01*
X158448359Y-137058513D01*
G37*
G36*
X158504290Y-137950000D02*
G01*
X158504290Y-137227041D01*
X158392427Y-137227041D01*
X158392427Y-137950000D01*
X158504290Y-137950000D01*
G37*
G36*
X157710170Y-137132576D02*
G01*
X157730965Y-137141841D01*
X157746038Y-137156516D01*
X157760455Y-137186503D01*
X157765639Y-137225819D01*
X157765639Y-137238459D01*
X157795959Y-137226311D01*
X157829325Y-137217454D01*
X157902720Y-137210432D01*
X157956071Y-137214130D01*
X158003324Y-137224754D01*
X158045419Y-137241878D01*
X158083777Y-137265850D01*
X158115249Y-137294823D01*
X158140551Y-137329134D01*
X158158931Y-137367639D01*
X158170223Y-137410633D01*
X158174135Y-137459071D01*
X158170002Y-137508314D01*
X158158038Y-137552217D01*
X158138475Y-137591756D01*
X158111701Y-137626788D01*
X158078616Y-137655998D01*
X158038458Y-137679745D01*
X158038458Y-137685362D01*
X158089326Y-137703692D01*
X158127973Y-137728227D01*
X158147006Y-137749640D01*
X158158750Y-137776860D01*
X158162961Y-137811697D01*
X158158543Y-137846023D01*
X158146169Y-137872819D01*
X158126315Y-137894724D01*
X158098603Y-137912814D01*
X158098603Y-137928323D01*
X158147166Y-137947861D01*
X158182561Y-137976133D01*
X158199114Y-138000395D01*
X158209568Y-138030823D01*
X158213336Y-138069129D01*
X158209619Y-138105563D01*
X158198873Y-138137396D01*
X158181157Y-138165605D01*
X158157186Y-138188902D01*
X158123689Y-138209433D01*
X158078331Y-138226849D01*
X158002382Y-138242094D01*
X157895759Y-138247976D01*
X157784653Y-138241608D01*
X157702013Y-138224773D01*
X157652438Y-138205463D01*
X157614153Y-138181463D01*
X157585204Y-138153026D01*
X157563883Y-138118800D01*
X157550667Y-138078317D01*
X157546804Y-138038293D01*
X157650906Y-138038293D01*
X157656774Y-138074925D01*
X157673653Y-138103987D01*
X157702685Y-138127381D01*
X157738529Y-138142836D01*
X157786029Y-138153195D01*
X157848193Y-138157056D01*
X157951691Y-138157056D01*
X158007800Y-138152456D01*
X158046601Y-138140535D01*
X158072713Y-138123107D01*
X158092685Y-138098678D01*
X158104394Y-138071687D01*
X158108373Y-138041163D01*
X158104214Y-138009000D01*
X158092314Y-137982484D01*
X158072333Y-137960715D01*
X158041267Y-137942184D01*
X157800627Y-137942184D01*
X157744690Y-137945882D01*
X157707497Y-137955231D01*
X157683817Y-137968318D01*
X157665524Y-137987748D01*
X157654671Y-138010689D01*
X157650906Y-138038293D01*
X157546804Y-138038293D01*
X157546003Y-138029989D01*
X157553160Y-137972815D01*
X157573447Y-137926554D01*
X157606881Y-137888633D01*
X157638119Y-137868048D01*
X157679331Y-137851981D01*
X157732984Y-137841255D01*
X157802031Y-137837281D01*
X157955904Y-137837281D01*
X158002435Y-137834166D01*
X158035649Y-137826046D01*
X158052980Y-137815958D01*
X158062915Y-137801813D01*
X158066424Y-137782327D01*
X158063082Y-137761447D01*
X158053325Y-137744177D01*
X158036382Y-137729570D01*
X158005134Y-137712873D01*
X157971291Y-137700750D01*
X157937708Y-137705635D01*
X157901316Y-137707711D01*
X157847057Y-137703992D01*
X157799382Y-137693348D01*
X157757273Y-137676264D01*
X157718927Y-137652211D01*
X157687452Y-137623004D01*
X157662141Y-137588276D01*
X157643689Y-137549323D01*
X157632432Y-137506518D01*
X157628557Y-137459010D01*
X157630498Y-137439593D01*
X157746038Y-137439593D01*
X157746038Y-137478611D01*
X157751245Y-137524155D01*
X157765482Y-137558357D01*
X157788048Y-137584002D01*
X157817797Y-137602336D01*
X157854906Y-137613990D01*
X157901316Y-137618196D01*
X157947767Y-137613990D01*
X157984918Y-137602336D01*
X158014705Y-137584002D01*
X158037236Y-137558362D01*
X158051454Y-137524160D01*
X158056654Y-137478611D01*
X158056654Y-137439593D01*
X158051454Y-137394044D01*
X158037236Y-137359841D01*
X158014705Y-137334202D01*
X157984918Y-137315868D01*
X157947767Y-137304213D01*
X157901316Y-137300008D01*
X157854906Y-137304213D01*
X157817797Y-137315868D01*
X157788048Y-137334202D01*
X157765482Y-137359846D01*
X157751245Y-137394049D01*
X157746038Y-137439593D01*
X157630498Y-137439593D01*
X157634102Y-137403531D01*
X157650234Y-137354169D01*
X157676325Y-137310095D01*
X157711050Y-137273142D01*
X157711050Y-137227041D01*
X157573969Y-137227041D01*
X157573969Y-137129160D01*
X157681680Y-137129160D01*
X157710170Y-137132576D01*
G37*
G36*
X157304081Y-137950000D02*
G01*
X157415944Y-137950000D01*
X157415944Y-137227041D01*
X157304081Y-137227041D01*
X157304081Y-137344827D01*
X157298463Y-137344827D01*
X157277902Y-137305857D01*
X157253008Y-137273446D01*
X157223664Y-137246824D01*
X157189649Y-137227370D01*
X157147213Y-137214930D01*
X157094215Y-137210432D01*
X157039246Y-137215300D01*
X156992377Y-137229151D01*
X156952076Y-137251476D01*
X156917261Y-137282606D01*
X156890028Y-137320194D01*
X156869764Y-137365573D01*
X156856811Y-137420307D01*
X156852170Y-137486366D01*
X156852170Y-137950000D01*
X156964095Y-137950000D01*
X156964095Y-137505905D01*
X156969415Y-137442638D01*
X156983698Y-137395300D01*
X157005372Y-137360214D01*
X157036075Y-137333730D01*
X157075926Y-137317176D01*
X157127799Y-137311182D01*
X157171702Y-137314893D01*
X157213161Y-137325898D01*
X157250198Y-137344868D01*
X157278924Y-137371449D01*
X157297547Y-137405346D01*
X157304081Y-137448447D01*
X157304081Y-137950000D01*
G37*
G36*
X156414171Y-137215896D02*
G01*
X156470603Y-137231665D01*
X156520977Y-137257388D01*
X156565445Y-137292424D01*
X156603108Y-137335930D01*
X156634306Y-137388974D01*
X156656250Y-137446772D01*
X156670017Y-137512808D01*
X156674850Y-137588520D01*
X156670017Y-137664232D01*
X156656250Y-137730268D01*
X156634306Y-137788066D01*
X156603110Y-137841114D01*
X156565447Y-137884642D01*
X156520977Y-137919713D01*
X156470607Y-137945402D01*
X156414175Y-137961150D01*
X156350312Y-137966608D01*
X156283519Y-137961189D01*
X156225259Y-137945663D01*
X156174030Y-137920568D01*
X156128270Y-137886292D01*
X156092227Y-137846878D01*
X156064915Y-137801866D01*
X156144599Y-137744652D01*
X156166280Y-137782111D01*
X156192558Y-137812486D01*
X156223673Y-137836610D01*
X156258948Y-137854153D01*
X156298506Y-137864929D01*
X156343291Y-137868667D01*
X156392994Y-137864424D01*
X156434894Y-137852423D01*
X156470447Y-137833232D01*
X156500705Y-137806690D01*
X156531860Y-137762473D01*
X156550779Y-137711325D01*
X156557369Y-137651290D01*
X156557369Y-137617829D01*
X156038292Y-137617829D01*
X156038292Y-137564462D01*
X156041311Y-137518361D01*
X156158643Y-137518361D01*
X156158643Y-137533871D01*
X156557369Y-137533871D01*
X156557369Y-137523979D01*
X156550542Y-137463151D01*
X156530808Y-137410589D01*
X156498969Y-137365871D01*
X156457352Y-137332431D01*
X156407772Y-137311440D01*
X156350312Y-137304221D01*
X156295681Y-137311123D01*
X156249562Y-137331027D01*
X156211313Y-137362842D01*
X156182457Y-137405704D01*
X156164887Y-137456446D01*
X156158643Y-137518361D01*
X156041311Y-137518361D01*
X156042715Y-137496918D01*
X156055472Y-137436382D01*
X156076089Y-137381830D01*
X156105230Y-137331688D01*
X156141003Y-137290086D01*
X156183800Y-137256106D01*
X156232298Y-137231161D01*
X156287317Y-137215787D01*
X156350312Y-137210432D01*
X156414171Y-137215896D01*
G37*
G36*
X155392148Y-137344766D02*
G01*
X155397704Y-137344766D01*
X155420026Y-137301921D01*
X155447482Y-137268573D01*
X155480258Y-137243344D01*
X155517909Y-137225390D01*
X155560471Y-137214296D01*
X155608974Y-137210432D01*
X155667189Y-137215777D01*
X155718755Y-137231250D01*
X155764985Y-137256655D01*
X155805168Y-137291032D01*
X155839143Y-137334253D01*
X155867078Y-137387630D01*
X155886276Y-137445165D01*
X155898440Y-137511641D01*
X155902737Y-137588520D01*
X155898469Y-137664476D01*
X155886330Y-137730795D01*
X155867078Y-137788799D01*
X155839110Y-137842574D01*
X155805130Y-137885983D01*
X155764985Y-137920385D01*
X155718755Y-137945790D01*
X155667189Y-137961264D01*
X155608974Y-137966608D01*
X155560529Y-137962632D01*
X155518731Y-137951289D01*
X155482396Y-137933025D01*
X155450471Y-137907707D01*
X155422269Y-137874538D01*
X155397704Y-137832274D01*
X155392148Y-137832274D01*
X155392148Y-137950000D01*
X155280224Y-137950000D01*
X155280224Y-137449851D01*
X155392148Y-137449851D01*
X155392148Y-137718763D01*
X155398610Y-137762215D01*
X155417305Y-137797958D01*
X155446284Y-137826728D01*
X155484472Y-137848394D01*
X155528122Y-137861350D01*
X155578200Y-137865858D01*
X155638092Y-137858823D01*
X155686910Y-137838907D01*
X155727188Y-137806324D01*
X155757280Y-137763686D01*
X155775869Y-137712414D01*
X155782448Y-137650130D01*
X155782448Y-137526910D01*
X155775869Y-137464626D01*
X155757280Y-137413354D01*
X155727188Y-137370717D01*
X155686910Y-137338133D01*
X155638092Y-137318217D01*
X155578200Y-137311182D01*
X155528159Y-137315872D01*
X155484472Y-137329378D01*
X155446091Y-137351162D01*
X155417305Y-137378410D01*
X155398469Y-137411597D01*
X155392148Y-137449851D01*
X155280224Y-137449851D01*
X155280224Y-136914410D01*
X155392148Y-136914410D01*
X155392148Y-137344766D01*
G37*
G36*
X154711687Y-137950000D02*
G01*
X154599824Y-137950000D01*
X154599824Y-137832274D01*
X154594206Y-137832274D01*
X154569646Y-137874543D01*
X154541463Y-137907711D01*
X154509576Y-137933025D01*
X154473202Y-137951291D01*
X154431383Y-137962633D01*
X154382936Y-137966608D01*
X154323795Y-137961222D01*
X154272044Y-137945711D01*
X154226255Y-137920385D01*
X154186521Y-137886030D01*
X154152756Y-137842627D01*
X154124833Y-137788799D01*
X154105581Y-137730795D01*
X154093442Y-137664476D01*
X154089173Y-137588520D01*
X154092617Y-137526910D01*
X154209463Y-137526910D01*
X154209463Y-137650130D01*
X154215973Y-137712462D01*
X154234350Y-137763736D01*
X154264051Y-137806324D01*
X154303915Y-137838811D01*
X154352897Y-137858771D01*
X154413711Y-137865858D01*
X154462665Y-137861397D01*
X154506767Y-137848394D01*
X154545533Y-137826688D01*
X154574667Y-137797958D01*
X154593361Y-137762215D01*
X154599824Y-137718763D01*
X154599824Y-137449851D01*
X154593503Y-137411597D01*
X154574667Y-137378410D01*
X154545727Y-137351202D01*
X154506767Y-137329378D01*
X154462630Y-137315823D01*
X154413711Y-137311182D01*
X154352897Y-137318270D01*
X154303915Y-137338229D01*
X154264051Y-137370717D01*
X154234350Y-137413305D01*
X154215973Y-137464578D01*
X154209463Y-137526910D01*
X154092617Y-137526910D01*
X154093471Y-137511641D01*
X154105635Y-137445165D01*
X154124833Y-137387630D01*
X154152723Y-137334200D01*
X154186484Y-137290985D01*
X154226255Y-137256655D01*
X154272044Y-137231330D01*
X154323795Y-137215818D01*
X154382936Y-137210432D01*
X154431440Y-137214296D01*
X154474002Y-137225390D01*
X154511652Y-137243344D01*
X154544429Y-137268573D01*
X154571885Y-137301921D01*
X154594206Y-137344766D01*
X154599824Y-137344766D01*
X154599824Y-136914410D01*
X154711687Y-136914410D01*
X154711687Y-137950000D01*
G37*
G36*
X153637629Y-137719862D02*
G01*
X153462751Y-137227041D01*
X153352232Y-137227041D01*
X153675426Y-138119138D01*
X153692605Y-138159659D01*
X153709742Y-138187159D01*
X153731455Y-138207935D01*
X153759384Y-138221536D01*
X153793019Y-138228575D01*
X153843343Y-138231367D01*
X153900679Y-138231367D01*
X153900679Y-138133487D01*
X153787350Y-138133487D01*
X153732762Y-137979125D01*
X154002772Y-137227041D01*
X153890909Y-137227041D01*
X153717375Y-137719862D01*
X153683852Y-137837831D01*
X153676830Y-137837831D01*
X153637629Y-137719862D01*
G37*
G36*
X152867715Y-137950000D02*
G01*
X152867715Y-136973028D01*
X152711033Y-136973028D01*
X152526385Y-137318876D01*
X152431253Y-137499494D01*
X152424231Y-137499494D01*
X152327694Y-137318876D01*
X152143046Y-136973028D01*
X151991921Y-136973028D01*
X151991921Y-137950000D01*
X152106654Y-137950000D01*
X152106654Y-137290727D01*
X152106654Y-137126962D01*
X152113676Y-137126962D01*
X152196169Y-137290788D01*
X152429848Y-137716381D01*
X152663467Y-137290788D01*
X152746021Y-137126962D01*
X152752982Y-137126962D01*
X152752982Y-137290727D01*
X152752982Y-137950000D01*
X152867715Y-137950000D01*
G37*
G36*
X151686740Y-137058513D02*
G01*
X151718434Y-137053710D01*
X151738519Y-137041050D01*
X151750958Y-137021330D01*
X151755311Y-136995560D01*
X151755311Y-136977363D01*
X151750956Y-136951603D01*
X151738519Y-136931934D01*
X151718428Y-136919228D01*
X151686740Y-136914410D01*
X151653947Y-136919307D01*
X151634288Y-136931934D01*
X151622369Y-136951548D01*
X151618168Y-136977363D01*
X151618168Y-136995560D01*
X151622367Y-137021385D01*
X151634288Y-137041050D01*
X151653940Y-137053631D01*
X151686740Y-137058513D01*
G37*
G36*
X151742671Y-137950000D02*
G01*
X151742671Y-137227041D01*
X151630808Y-137227041D01*
X151630808Y-137950000D01*
X151742671Y-137950000D01*
G37*
G36*
X151392915Y-137950000D02*
G01*
X151392915Y-136914410D01*
X151281052Y-136914410D01*
X151281052Y-137441669D01*
X151281052Y-137570324D01*
X151275435Y-137570324D01*
X151164915Y-137447042D01*
X150960667Y-137227041D01*
X150824929Y-137227041D01*
X151092130Y-137512866D01*
X150798367Y-137950000D01*
X150934044Y-137950000D01*
X151173280Y-137581498D01*
X151281052Y-137692018D01*
X151281052Y-137950000D01*
X151392915Y-137950000D01*
G37*
G36*
X150655302Y-137950000D02*
G01*
X150655302Y-136914410D01*
X150543439Y-136914410D01*
X150543439Y-137344827D01*
X150537821Y-137344827D01*
X150517260Y-137305857D01*
X150492366Y-137273446D01*
X150463022Y-137246824D01*
X150429007Y-137227370D01*
X150386571Y-137214930D01*
X150333573Y-137210432D01*
X150278604Y-137215300D01*
X150231735Y-137229151D01*
X150191434Y-137251476D01*
X150156619Y-137282606D01*
X150129386Y-137320194D01*
X150109122Y-137365573D01*
X150096169Y-137420307D01*
X150091528Y-137486366D01*
X150091528Y-137950000D01*
X150203453Y-137950000D01*
X150203453Y-137505905D01*
X150208773Y-137442638D01*
X150223056Y-137395300D01*
X150244730Y-137360214D01*
X150275433Y-137333730D01*
X150315284Y-137317176D01*
X150367157Y-137311182D01*
X150411060Y-137314893D01*
X150452519Y-137325898D01*
X150489556Y-137344868D01*
X150518282Y-137371449D01*
X150536905Y-137405346D01*
X150543439Y-137448447D01*
X150543439Y-137950000D01*
X150655302Y-137950000D01*
G37*
G36*
X149697151Y-137215517D02*
G01*
X149750600Y-137229793D01*
X149795323Y-137252381D01*
X149835463Y-137283022D01*
X149866319Y-137316009D01*
X149889051Y-137351543D01*
X149821884Y-137414375D01*
X149788377Y-137370121D01*
X149747757Y-137336278D01*
X149716656Y-137320360D01*
X149680626Y-137310451D01*
X149638580Y-137306969D01*
X149582146Y-137312176D01*
X149540445Y-137326138D01*
X149509925Y-137347452D01*
X149487378Y-137376976D01*
X149473105Y-137415164D01*
X149467915Y-137464628D01*
X149467915Y-137535764D01*
X149610614Y-137535764D01*
X149680598Y-137538870D01*
X149737512Y-137547391D01*
X149783416Y-137560310D01*
X149826376Y-137580054D01*
X149859665Y-137603930D01*
X149884838Y-137631873D01*
X149903106Y-137664704D01*
X149914439Y-137702896D01*
X149918421Y-137747705D01*
X149914117Y-137797398D01*
X149901877Y-137839782D01*
X149882182Y-137876218D01*
X149854796Y-137907684D01*
X149821492Y-137932452D01*
X149781589Y-137950782D01*
X149733774Y-137962443D01*
X149676377Y-137966608D01*
X149626998Y-137962587D01*
X149583762Y-137951044D01*
X149545585Y-137932353D01*
X149512594Y-137906183D01*
X149486849Y-137873190D01*
X149467915Y-137832274D01*
X149459937Y-137832274D01*
X149459062Y-137843392D01*
X149449780Y-137878558D01*
X149433155Y-137908677D01*
X149409175Y-137931071D01*
X149378318Y-137944916D01*
X149336391Y-137950000D01*
X149273437Y-137950000D01*
X149273437Y-137852058D01*
X149355991Y-137852058D01*
X149355991Y-137739279D01*
X149467915Y-137739279D01*
X149473942Y-137774006D01*
X149492401Y-137806079D01*
X149520717Y-137832630D01*
X149559568Y-137853890D01*
X149604371Y-137866864D01*
X149658181Y-137871475D01*
X149700172Y-137867859D01*
X149734157Y-137857803D01*
X149761740Y-137841983D01*
X149783358Y-137819802D01*
X149796324Y-137792652D01*
X149800879Y-137758941D01*
X149800879Y-137729448D01*
X149795786Y-137696249D01*
X149781140Y-137669606D01*
X149756122Y-137647871D01*
X149724784Y-137633532D01*
X149679611Y-137623559D01*
X149616232Y-137619722D01*
X149467915Y-137619722D01*
X149467915Y-137739279D01*
X149355991Y-137739279D01*
X149355991Y-137454187D01*
X149360988Y-137397707D01*
X149375145Y-137350038D01*
X149397866Y-137309501D01*
X149429447Y-137274912D01*
X149467656Y-137247853D01*
X149513292Y-137227777D01*
X149567808Y-137214995D01*
X149633024Y-137210432D01*
X149697151Y-137215517D01*
G37*
G36*
X149057710Y-137058513D02*
G01*
X149089404Y-137053710D01*
X149109489Y-137041050D01*
X149121928Y-137021330D01*
X149126281Y-136995560D01*
X149126281Y-136977363D01*
X149121926Y-136951603D01*
X149109489Y-136931934D01*
X149089398Y-136919228D01*
X149057710Y-136914410D01*
X149024917Y-136919307D01*
X149005258Y-136931934D01*
X148993339Y-136951548D01*
X148989138Y-136977363D01*
X148989138Y-136995560D01*
X148993337Y-137021385D01*
X149005258Y-137041050D01*
X149024910Y-137053631D01*
X149057710Y-137058513D01*
G37*
G36*
X149113641Y-137950000D02*
G01*
X149113641Y-137227041D01*
X149001778Y-137227041D01*
X149001778Y-137950000D01*
X149113641Y-137950000D01*
G37*
G36*
X148545654Y-137950000D02*
G01*
X148645000Y-137950000D01*
X148681841Y-137945985D01*
X148710588Y-137934870D01*
X148733111Y-137917149D01*
X148750018Y-137893623D01*
X148760298Y-137866227D01*
X148763885Y-137833862D01*
X148763885Y-136914410D01*
X148652022Y-136914410D01*
X148652022Y-137852058D01*
X148545654Y-137852058D01*
X148545654Y-137950000D01*
G37*
G36*
X148042453Y-137950000D02*
G01*
X148042453Y-136973028D01*
X147885771Y-136973028D01*
X147701124Y-137318876D01*
X147605991Y-137499494D01*
X147598969Y-137499494D01*
X147502432Y-137318876D01*
X147317785Y-136973028D01*
X147166659Y-136973028D01*
X147166659Y-137950000D01*
X147281392Y-137950000D01*
X147281392Y-137290727D01*
X147281392Y-137126962D01*
X147288414Y-137126962D01*
X147370907Y-137290788D01*
X147604587Y-137716381D01*
X147838205Y-137290788D01*
X147920759Y-137126962D01*
X147927720Y-137126962D01*
X147927720Y-137290727D01*
X147927720Y-137950000D01*
X148042453Y-137950000D01*
G37*
G36*
X146753537Y-137215517D02*
G01*
X146806985Y-137229793D01*
X146851708Y-137252381D01*
X146891848Y-137283022D01*
X146922704Y-137316009D01*
X146945436Y-137351543D01*
X146878270Y-137414375D01*
X146844762Y-137370121D01*
X146804142Y-137336278D01*
X146773041Y-137320360D01*
X146737011Y-137310451D01*
X146694965Y-137306969D01*
X146638531Y-137312176D01*
X146596830Y-137326138D01*
X146566310Y-137347452D01*
X146543763Y-137376976D01*
X146529490Y-137415164D01*
X146524301Y-137464628D01*
X146524301Y-137535764D01*
X146667000Y-137535764D01*
X146736984Y-137538870D01*
X146793897Y-137547391D01*
X146839801Y-137560310D01*
X146882761Y-137580054D01*
X146916051Y-137603930D01*
X146941223Y-137631873D01*
X146959492Y-137664704D01*
X146970824Y-137702896D01*
X146974807Y-137747705D01*
X146970503Y-137797398D01*
X146958262Y-137839782D01*
X146938568Y-137876218D01*
X146911181Y-137907684D01*
X146877877Y-137932452D01*
X146837974Y-137950782D01*
X146790159Y-137962443D01*
X146732762Y-137966608D01*
X146683383Y-137962587D01*
X146640147Y-137951044D01*
X146601970Y-137932353D01*
X146568980Y-137906183D01*
X146543234Y-137873190D01*
X146524301Y-137832274D01*
X146516322Y-137832274D01*
X146515447Y-137843392D01*
X146506166Y-137878558D01*
X146489540Y-137908677D01*
X146465560Y-137931071D01*
X146434703Y-137944916D01*
X146392776Y-137950000D01*
X146329822Y-137950000D01*
X146329822Y-137852058D01*
X146412376Y-137852058D01*
X146412376Y-137739279D01*
X146524301Y-137739279D01*
X146530327Y-137774006D01*
X146548786Y-137806079D01*
X146577102Y-137832630D01*
X146615953Y-137853890D01*
X146660756Y-137866864D01*
X146714566Y-137871475D01*
X146756557Y-137867859D01*
X146790543Y-137857803D01*
X146818125Y-137841983D01*
X146839744Y-137819802D01*
X146852709Y-137792652D01*
X146857265Y-137758941D01*
X146857265Y-137729448D01*
X146852171Y-137696249D01*
X146837525Y-137669606D01*
X146812507Y-137647871D01*
X146781169Y-137633532D01*
X146735996Y-137623559D01*
X146672617Y-137619722D01*
X146524301Y-137619722D01*
X146524301Y-137739279D01*
X146412376Y-137739279D01*
X146412376Y-137454187D01*
X146417373Y-137397707D01*
X146431531Y-137350038D01*
X146454251Y-137309501D01*
X146485832Y-137274912D01*
X146524041Y-137247853D01*
X146569678Y-137227777D01*
X146624194Y-137214995D01*
X146689409Y-137210432D01*
X146753537Y-137215517D01*
G37*
G36*
X145870646Y-137950000D02*
G01*
X146010597Y-137950000D01*
X146047372Y-137945904D01*
X146076122Y-137934541D01*
X146098707Y-137916355D01*
X146115574Y-137892348D01*
X146125875Y-137864233D01*
X146129482Y-137830870D01*
X146129482Y-137324982D01*
X146248428Y-137324982D01*
X146248428Y-137227041D01*
X146181262Y-137227041D01*
X146148621Y-137222757D01*
X146131619Y-137212447D01*
X146122202Y-137194433D01*
X146118308Y-137161523D01*
X146118308Y-137027739D01*
X146017558Y-137027739D01*
X146017558Y-137227041D01*
X145859472Y-137227041D01*
X145859472Y-137324982D01*
X146017558Y-137324982D01*
X146017558Y-137852058D01*
X145870646Y-137852058D01*
X145870646Y-137950000D01*
G37*
G36*
X145389060Y-137950000D02*
G01*
X145519180Y-137950000D01*
X145772399Y-137227041D01*
X145660475Y-137227041D01*
X145534568Y-137585833D01*
X145456166Y-137832458D01*
X145449205Y-137832458D01*
X145370864Y-137585833D01*
X145242148Y-137227041D01*
X145134437Y-137227041D01*
X145389060Y-137950000D01*
G37*
G36*
X144794074Y-137215896D02*
G01*
X144850505Y-137231665D01*
X144900879Y-137257388D01*
X144945347Y-137292424D01*
X144983010Y-137335930D01*
X145014208Y-137388974D01*
X145036153Y-137446772D01*
X145049920Y-137512808D01*
X145054752Y-137588520D01*
X145049920Y-137664232D01*
X145036153Y-137730268D01*
X145014208Y-137788066D01*
X144983013Y-137841114D01*
X144945349Y-137884642D01*
X144900879Y-137919713D01*
X144850509Y-137945402D01*
X144794077Y-137961150D01*
X144730215Y-137966608D01*
X144663421Y-137961189D01*
X144605161Y-137945663D01*
X144553933Y-137920568D01*
X144508173Y-137886292D01*
X144472130Y-137846878D01*
X144444817Y-137801866D01*
X144524501Y-137744652D01*
X144546182Y-137782111D01*
X144572460Y-137812486D01*
X144603575Y-137836610D01*
X144638850Y-137854153D01*
X144678408Y-137864929D01*
X144723193Y-137868667D01*
X144772897Y-137864424D01*
X144814796Y-137852423D01*
X144850349Y-137833232D01*
X144880607Y-137806690D01*
X144911762Y-137762473D01*
X144930682Y-137711325D01*
X144937272Y-137651290D01*
X144937272Y-137617829D01*
X144418195Y-137617829D01*
X144418195Y-137564462D01*
X144421213Y-137518361D01*
X144538545Y-137518361D01*
X144538545Y-137533871D01*
X144937272Y-137533871D01*
X144937272Y-137523979D01*
X144930445Y-137463151D01*
X144910710Y-137410589D01*
X144878871Y-137365871D01*
X144837254Y-137332431D01*
X144787674Y-137311440D01*
X144730215Y-137304221D01*
X144675583Y-137311123D01*
X144629465Y-137331027D01*
X144591215Y-137362842D01*
X144562359Y-137405704D01*
X144544790Y-137456446D01*
X144538545Y-137518361D01*
X144421213Y-137518361D01*
X144422617Y-137496918D01*
X144435375Y-137436382D01*
X144455991Y-137381830D01*
X144485132Y-137331688D01*
X144520905Y-137290086D01*
X144563702Y-137256106D01*
X144612200Y-137231161D01*
X144667219Y-137215787D01*
X144730215Y-137210432D01*
X144794074Y-137215896D01*
G37*
G36*
X144026174Y-137215896D02*
G01*
X144082606Y-137231665D01*
X144132980Y-137257388D01*
X144177447Y-137292424D01*
X144215111Y-137335930D01*
X144246309Y-137388974D01*
X144268253Y-137446772D01*
X144282020Y-137512808D01*
X144286853Y-137588520D01*
X144282020Y-137664232D01*
X144268253Y-137730268D01*
X144246309Y-137788066D01*
X144215113Y-137841114D01*
X144177450Y-137884642D01*
X144132980Y-137919713D01*
X144082609Y-137945402D01*
X144026178Y-137961150D01*
X143962315Y-137966608D01*
X143895522Y-137961189D01*
X143837262Y-137945663D01*
X143786033Y-137920568D01*
X143740273Y-137886292D01*
X143704230Y-137846878D01*
X143676918Y-137801866D01*
X143756602Y-137744652D01*
X143778282Y-137782111D01*
X143804560Y-137812486D01*
X143835675Y-137836610D01*
X143870950Y-137854153D01*
X143910509Y-137864929D01*
X143955293Y-137868667D01*
X144004997Y-137864424D01*
X144046897Y-137852423D01*
X144082450Y-137833232D01*
X144112708Y-137806690D01*
X144143863Y-137762473D01*
X144162782Y-137711325D01*
X144169372Y-137651290D01*
X144169372Y-137617829D01*
X143650295Y-137617829D01*
X143650295Y-137564462D01*
X143653314Y-137518361D01*
X143770646Y-137518361D01*
X143770646Y-137533871D01*
X144169372Y-137533871D01*
X144169372Y-137523979D01*
X144162545Y-137463151D01*
X144142811Y-137410589D01*
X144110971Y-137365871D01*
X144069355Y-137332431D01*
X144019775Y-137311440D01*
X143962315Y-137304221D01*
X143907684Y-137311123D01*
X143861565Y-137331027D01*
X143823316Y-137362842D01*
X143794459Y-137405704D01*
X143776890Y-137456446D01*
X143770646Y-137518361D01*
X143653314Y-137518361D01*
X143654718Y-137496918D01*
X143667475Y-137436382D01*
X143688092Y-137381830D01*
X143717233Y-137331688D01*
X143753006Y-137290086D01*
X143795803Y-137256106D01*
X143844301Y-137231161D01*
X143899319Y-137215787D01*
X143962315Y-137210432D01*
X144026174Y-137215896D01*
G37*
G36*
X143186966Y-137950000D02*
G01*
X143317087Y-137950000D01*
X143570306Y-137227041D01*
X143458381Y-137227041D01*
X143332474Y-137585833D01*
X143254072Y-137832458D01*
X143247111Y-137832458D01*
X143168770Y-137585833D01*
X143040054Y-137227041D01*
X142932343Y-137227041D01*
X143186966Y-137950000D01*
G37*
G36*
X156557980Y-139630000D02*
G01*
X156557980Y-139188408D01*
X157051839Y-139188408D01*
X157051839Y-139630000D01*
X157169320Y-139630000D01*
X157169320Y-138653028D01*
X157051839Y-138653028D01*
X157051839Y-139084849D01*
X156557980Y-139084849D01*
X156557980Y-138653028D01*
X156440438Y-138653028D01*
X156440438Y-139630000D01*
X156557980Y-139630000D01*
G37*
G36*
X155913851Y-139630000D02*
G01*
X156043971Y-139630000D01*
X156281803Y-138653028D01*
X156157300Y-138653028D01*
X156052337Y-139123379D01*
X155971187Y-139488705D01*
X155968378Y-139488705D01*
X155877459Y-139123379D01*
X155754360Y-138653028D01*
X155620027Y-138653028D01*
X155501141Y-139123379D01*
X155410222Y-139487301D01*
X155406009Y-139487301D01*
X155322050Y-139123379D01*
X155211531Y-138653028D01*
X155091241Y-138653028D01*
X155341651Y-139630000D01*
X155471771Y-139630000D01*
X155599083Y-139142918D01*
X155688598Y-138784553D01*
X155691407Y-138784553D01*
X155783730Y-139142918D01*
X155913851Y-139630000D01*
G37*
G36*
X153967663Y-139630000D02*
G01*
X154609838Y-139630000D01*
X154609838Y-139526502D01*
X154337019Y-139526502D01*
X154337019Y-138739795D01*
X154346789Y-138739795D01*
X154593047Y-138969506D01*
X154661557Y-138895317D01*
X154402781Y-138653028D01*
X154219477Y-138653028D01*
X154219477Y-139526502D01*
X153967663Y-139526502D01*
X153967663Y-139630000D01*
G37*
G36*
X153703453Y-139646608D02*
G01*
X153742616Y-139640322D01*
X153767811Y-139623527D01*
X153783410Y-139597895D01*
X153788816Y-139565458D01*
X153788816Y-139547262D01*
X153783330Y-139513733D01*
X153767811Y-139488522D01*
X153742683Y-139472240D01*
X153703453Y-139466113D01*
X153663122Y-139472320D01*
X153638423Y-139488522D01*
X153623421Y-139513678D01*
X153618090Y-139547262D01*
X153618090Y-139565458D01*
X153623343Y-139597947D01*
X153638423Y-139623527D01*
X153663191Y-139640241D01*
X153703453Y-139646608D01*
G37*
G36*
X153169326Y-138643530D02*
G01*
X153232151Y-138663621D01*
X153284943Y-138695893D01*
X153329055Y-138739822D01*
X153365744Y-138796597D01*
X153394791Y-138868695D01*
X153413394Y-138945018D01*
X153425417Y-139035258D01*
X153429718Y-139141514D01*
X153425408Y-139247782D01*
X153413378Y-139337779D01*
X153394791Y-139413661D01*
X153365808Y-139485302D01*
X153329130Y-139542121D01*
X153284943Y-139586463D01*
X153232104Y-139619122D01*
X153169280Y-139639426D01*
X153093945Y-139646608D01*
X153035407Y-139642486D01*
X152984758Y-139630760D01*
X152940738Y-139612043D01*
X152902337Y-139586463D01*
X152858559Y-139542170D01*
X152822117Y-139485357D01*
X152793221Y-139413661D01*
X152774601Y-139337776D01*
X152762550Y-139247779D01*
X152758233Y-139141514D01*
X152761467Y-139061769D01*
X152881332Y-139061769D01*
X152881332Y-139221259D01*
X152887035Y-139312080D01*
X152903008Y-139388443D01*
X152920955Y-139435455D01*
X152943631Y-139473222D01*
X152970847Y-139503176D01*
X153003829Y-139525511D01*
X153044196Y-139539470D01*
X153093945Y-139544453D01*
X153142801Y-139539516D01*
X153183023Y-139525595D01*
X153216433Y-139503176D01*
X153244050Y-139473171D01*
X153266942Y-139435400D01*
X153284943Y-139388443D01*
X153300916Y-139312080D01*
X153306619Y-139221259D01*
X153306619Y-139061769D01*
X153300879Y-138969792D01*
X153284943Y-138893913D01*
X153266973Y-138847403D01*
X153244087Y-138809836D01*
X153216433Y-138779851D01*
X153183023Y-138757432D01*
X153142801Y-138743512D01*
X153093945Y-138738574D01*
X153044196Y-138743557D01*
X153003829Y-138757517D01*
X152970847Y-138779851D01*
X152943594Y-138809786D01*
X152920925Y-138847348D01*
X152903008Y-138893913D01*
X152887072Y-138969792D01*
X152881332Y-139061769D01*
X152761467Y-139061769D01*
X152762542Y-139035261D01*
X152774585Y-138945021D01*
X152793221Y-138868695D01*
X152822182Y-138796541D01*
X152858633Y-138739773D01*
X152902337Y-138695893D01*
X152954695Y-138663701D01*
X153017667Y-138643574D01*
X153093945Y-138636420D01*
X153169326Y-138643530D01*
G37*
G36*
X152330108Y-138643530D02*
G01*
X152392933Y-138663621D01*
X152445725Y-138695893D01*
X152489837Y-138739822D01*
X152526525Y-138796597D01*
X152555573Y-138868695D01*
X152574176Y-138945018D01*
X152586198Y-139035258D01*
X152590499Y-139141514D01*
X152586190Y-139247782D01*
X152574160Y-139337779D01*
X152555573Y-139413661D01*
X152526590Y-139485302D01*
X152489911Y-139542121D01*
X152445725Y-139586463D01*
X152392885Y-139619122D01*
X152330062Y-139639426D01*
X152254727Y-139646608D01*
X152196188Y-139642486D01*
X152145539Y-139630760D01*
X152101519Y-139612043D01*
X152063118Y-139586463D01*
X152019341Y-139542170D01*
X151982898Y-139485357D01*
X151954003Y-139413661D01*
X151935382Y-139337776D01*
X151923332Y-139247779D01*
X151919015Y-139141514D01*
X151922248Y-139061769D01*
X152042113Y-139061769D01*
X152042113Y-139221259D01*
X152047817Y-139312080D01*
X152063790Y-139388443D01*
X152081737Y-139435455D01*
X152104412Y-139473222D01*
X152131628Y-139503176D01*
X152164611Y-139525511D01*
X152204977Y-139539470D01*
X152254727Y-139544453D01*
X152303582Y-139539516D01*
X152343805Y-139525595D01*
X152377214Y-139503176D01*
X152404831Y-139473171D01*
X152427724Y-139435400D01*
X152445725Y-139388443D01*
X152461698Y-139312080D01*
X152467401Y-139221259D01*
X152467401Y-139061769D01*
X152461661Y-138969792D01*
X152445725Y-138893913D01*
X152427755Y-138847403D01*
X152404869Y-138809836D01*
X152377214Y-138779851D01*
X152343805Y-138757432D01*
X152303582Y-138743512D01*
X152254727Y-138738574D01*
X152204977Y-138743557D01*
X152164611Y-138757517D01*
X152131628Y-138779851D01*
X152104375Y-138809786D01*
X152081706Y-138847348D01*
X152063790Y-138893913D01*
X152047854Y-138969792D01*
X152042113Y-139061769D01*
X151922248Y-139061769D01*
X151923323Y-139035261D01*
X151935367Y-138945021D01*
X151954003Y-138868695D01*
X151982963Y-138796541D01*
X152019415Y-138739773D01*
X152063118Y-138695893D01*
X152115476Y-138663701D01*
X152178449Y-138643574D01*
X152254727Y-138636420D01*
X152330108Y-138643530D01*
G37*
G36*
X151237822Y-139821486D02*
G01*
X151332954Y-139821486D01*
X151332954Y-138567055D01*
X151237822Y-138567055D01*
X151237822Y-139821486D01*
G37*
G36*
X149990473Y-139526502D02*
G01*
X149990473Y-139630000D01*
X150631244Y-139630000D01*
X150631244Y-139509710D01*
X150312263Y-139215825D01*
X150248656Y-139150016D01*
X150197530Y-139081491D01*
X150171155Y-139032365D01*
X150156197Y-138985548D01*
X150151368Y-138940136D01*
X150151368Y-138923344D01*
X150156716Y-138870887D01*
X150171801Y-138827678D01*
X150196126Y-138791758D01*
X150229258Y-138764814D01*
X150273326Y-138747670D01*
X150331803Y-138741383D01*
X150389647Y-138747293D01*
X150434106Y-138763493D01*
X150468273Y-138788949D01*
X150496180Y-138822721D01*
X150518305Y-138861632D01*
X150534707Y-138906430D01*
X150639610Y-138865886D01*
X150615843Y-138810157D01*
X150582945Y-138756099D01*
X150555821Y-138723662D01*
X150522713Y-138695005D01*
X150482928Y-138670003D01*
X150439693Y-138652013D01*
X150388027Y-138640525D01*
X150326246Y-138636420D01*
X150263685Y-138640788D01*
X150210068Y-138653159D01*
X150163947Y-138672812D01*
X150122326Y-138700450D01*
X150088557Y-138733661D01*
X150061853Y-138772890D01*
X150042756Y-138816546D01*
X150030961Y-138865401D01*
X150026865Y-138920474D01*
X150033851Y-138993738D01*
X150054160Y-139059082D01*
X150086314Y-139119752D01*
X150129692Y-139178028D01*
X150180653Y-139233012D01*
X150240883Y-139289952D01*
X150503933Y-139526502D01*
X149990473Y-139526502D01*
G37*
G36*
X149552578Y-138643530D02*
G01*
X149615403Y-138663621D01*
X149668195Y-138695893D01*
X149712307Y-138739822D01*
X149748995Y-138796597D01*
X149778043Y-138868695D01*
X149796646Y-138945018D01*
X149808668Y-139035258D01*
X149812970Y-139141514D01*
X149808660Y-139247782D01*
X149796630Y-139337779D01*
X149778043Y-139413661D01*
X149749060Y-139485302D01*
X149712382Y-139542121D01*
X149668195Y-139586463D01*
X149615356Y-139619122D01*
X149552532Y-139639426D01*
X149477197Y-139646608D01*
X149418659Y-139642486D01*
X149368010Y-139630760D01*
X149323990Y-139612043D01*
X149285588Y-139586463D01*
X149241811Y-139542170D01*
X149205369Y-139485357D01*
X149176473Y-139413661D01*
X149157853Y-139337776D01*
X149145802Y-139247779D01*
X149141485Y-139141514D01*
X149144719Y-139061769D01*
X149264584Y-139061769D01*
X149264584Y-139221259D01*
X149270287Y-139312080D01*
X149286260Y-139388443D01*
X149304207Y-139435455D01*
X149326883Y-139473222D01*
X149354099Y-139503176D01*
X149387081Y-139525511D01*
X149427448Y-139539470D01*
X149477197Y-139544453D01*
X149526053Y-139539516D01*
X149566275Y-139525595D01*
X149599685Y-139503176D01*
X149627302Y-139473171D01*
X149650194Y-139435400D01*
X149668195Y-139388443D01*
X149684168Y-139312080D01*
X149689871Y-139221259D01*
X149689871Y-139061769D01*
X149684131Y-138969792D01*
X149668195Y-138893913D01*
X149650225Y-138847403D01*
X149627339Y-138809836D01*
X149599685Y-138779851D01*
X149566275Y-138757432D01*
X149526053Y-138743512D01*
X149477197Y-138738574D01*
X149427448Y-138743557D01*
X149387081Y-138757517D01*
X149354099Y-138779851D01*
X149326846Y-138809786D01*
X149304177Y-138847348D01*
X149286260Y-138893913D01*
X149270324Y-138969792D01*
X149264584Y-139061769D01*
X149144719Y-139061769D01*
X149145794Y-139035261D01*
X149157837Y-138945021D01*
X149176473Y-138868695D01*
X149205434Y-138796541D01*
X149241885Y-138739773D01*
X149285588Y-138695893D01*
X149337946Y-138663701D01*
X149400919Y-138643574D01*
X149477197Y-138636420D01*
X149552578Y-138643530D01*
G37*
G36*
X148312036Y-139526502D02*
G01*
X148312036Y-139630000D01*
X148952808Y-139630000D01*
X148952808Y-139509710D01*
X148633826Y-139215825D01*
X148570220Y-139150016D01*
X148519093Y-139081491D01*
X148492718Y-139032365D01*
X148477761Y-138985548D01*
X148472931Y-138940136D01*
X148472931Y-138923344D01*
X148478279Y-138870887D01*
X148493365Y-138827678D01*
X148517689Y-138791758D01*
X148550821Y-138764814D01*
X148594889Y-138747670D01*
X148653366Y-138741383D01*
X148711211Y-138747293D01*
X148755669Y-138763493D01*
X148789837Y-138788949D01*
X148817743Y-138822721D01*
X148839868Y-138861632D01*
X148856271Y-138906430D01*
X148961173Y-138865886D01*
X148937406Y-138810157D01*
X148904509Y-138756099D01*
X148877384Y-138723662D01*
X148844276Y-138695005D01*
X148804491Y-138670003D01*
X148761256Y-138652013D01*
X148709591Y-138640525D01*
X148647809Y-138636420D01*
X148585248Y-138640788D01*
X148531631Y-138653159D01*
X148485510Y-138672812D01*
X148443889Y-138700450D01*
X148410120Y-138733661D01*
X148383416Y-138772890D01*
X148364319Y-138816546D01*
X148352525Y-138865401D01*
X148348429Y-138920474D01*
X148355414Y-138993738D01*
X148375723Y-139059082D01*
X148407878Y-139119752D01*
X148451255Y-139178028D01*
X148502216Y-139233012D01*
X148562446Y-139289952D01*
X148825496Y-139526502D01*
X148312036Y-139526502D01*
G37*
G36*
X147834051Y-138695250D02*
G01*
X147896030Y-138751702D01*
X147954035Y-138816386D01*
X148009359Y-138892325D01*
X148056324Y-138975413D01*
X148093317Y-139067264D01*
X148110604Y-139131380D01*
X148121164Y-139199312D01*
X148124763Y-139271573D01*
X148119976Y-139348195D01*
X148106403Y-139414373D01*
X148084891Y-139471669D01*
X148054063Y-139524081D01*
X148016423Y-139566870D01*
X147971562Y-139601118D01*
X147920812Y-139625926D01*
X147863229Y-139641261D01*
X147797356Y-139646608D01*
X147733148Y-139641835D01*
X147676704Y-139628143D01*
X147626752Y-139606064D01*
X147581741Y-139575284D01*
X147544169Y-139537486D01*
X147513423Y-139492002D01*
X147491198Y-139441611D01*
X147477540Y-139385778D01*
X147473137Y-139327627D01*
X147594512Y-139327627D01*
X147594512Y-139338801D01*
X147600996Y-139401293D01*
X147618997Y-139450725D01*
X147648810Y-139491376D01*
X147688973Y-139520701D01*
X147737553Y-139538167D01*
X147798760Y-139544453D01*
X147859975Y-139538169D01*
X147908608Y-139520701D01*
X147948771Y-139491376D01*
X147978584Y-139450725D01*
X147996585Y-139401293D01*
X148003069Y-139338801D01*
X148003069Y-139327627D01*
X147996585Y-139265135D01*
X147978584Y-139215703D01*
X147948769Y-139175064D01*
X147908608Y-139145788D01*
X147859971Y-139128274D01*
X147798760Y-139121974D01*
X147737558Y-139128276D01*
X147688973Y-139145788D01*
X147648813Y-139175064D01*
X147618997Y-139215703D01*
X147600996Y-139265135D01*
X147594512Y-139327627D01*
X147473137Y-139327627D01*
X147472818Y-139323414D01*
X147477204Y-139262791D01*
X147489744Y-139209815D01*
X147509882Y-139163251D01*
X147537983Y-139121150D01*
X147571877Y-139086648D01*
X147612036Y-139059021D01*
X147656669Y-139039084D01*
X147706012Y-139026853D01*
X147761025Y-139022629D01*
X147817543Y-139027405D01*
X147864522Y-139040825D01*
X147906344Y-139062595D01*
X147940787Y-139090528D01*
X147970139Y-139124007D01*
X147996047Y-139162519D01*
X148003069Y-139159771D01*
X147982172Y-139085269D01*
X147956875Y-139019304D01*
X147927476Y-138961018D01*
X147872518Y-138879190D01*
X147803706Y-138802138D01*
X147724033Y-138730080D01*
X147625287Y-138653028D01*
X147776412Y-138653028D01*
X147834051Y-138695250D01*
G37*
G36*
X146917593Y-139266566D02*
G01*
X147282736Y-139266566D01*
X147282736Y-139146277D01*
X146917593Y-139146277D01*
X146917593Y-139266566D01*
G37*
G36*
X146477072Y-138643530D02*
G01*
X146539897Y-138663621D01*
X146592689Y-138695893D01*
X146636801Y-138739822D01*
X146673490Y-138796597D01*
X146702537Y-138868695D01*
X146721140Y-138945018D01*
X146733163Y-139035258D01*
X146737464Y-139141514D01*
X146733154Y-139247782D01*
X146721124Y-139337779D01*
X146702537Y-139413661D01*
X146673554Y-139485302D01*
X146636876Y-139542121D01*
X146592689Y-139586463D01*
X146539850Y-139619122D01*
X146477026Y-139639426D01*
X146401691Y-139646608D01*
X146343153Y-139642486D01*
X146292504Y-139630760D01*
X146248484Y-139612043D01*
X146210083Y-139586463D01*
X146166305Y-139542170D01*
X146129863Y-139485357D01*
X146100967Y-139413661D01*
X146082347Y-139337776D01*
X146070296Y-139247779D01*
X146065979Y-139141514D01*
X146069213Y-139061769D01*
X146189078Y-139061769D01*
X146189078Y-139221259D01*
X146194781Y-139312080D01*
X146210754Y-139388443D01*
X146228701Y-139435455D01*
X146251377Y-139473222D01*
X146278593Y-139503176D01*
X146311575Y-139525511D01*
X146351942Y-139539470D01*
X146401691Y-139544453D01*
X146450547Y-139539516D01*
X146490769Y-139525595D01*
X146524179Y-139503176D01*
X146551796Y-139473171D01*
X146574688Y-139435400D01*
X146592689Y-139388443D01*
X146608662Y-139312080D01*
X146614365Y-139221259D01*
X146614365Y-139061769D01*
X146608625Y-138969792D01*
X146592689Y-138893913D01*
X146574719Y-138847403D01*
X146551833Y-138809836D01*
X146524179Y-138779851D01*
X146490769Y-138757432D01*
X146450547Y-138743512D01*
X146401691Y-138738574D01*
X146351942Y-138743557D01*
X146311575Y-138757517D01*
X146278593Y-138779851D01*
X146251340Y-138809786D01*
X146228671Y-138847348D01*
X146210754Y-138893913D01*
X146194818Y-138969792D01*
X146189078Y-139061769D01*
X146069213Y-139061769D01*
X146070288Y-139035261D01*
X146082331Y-138945021D01*
X146100967Y-138868695D01*
X146129928Y-138796541D01*
X146166379Y-138739773D01*
X146210083Y-138695893D01*
X146262441Y-138663701D01*
X146325413Y-138643574D01*
X146401691Y-138636420D01*
X146477072Y-138643530D01*
G37*
G36*
X145597763Y-138695250D02*
G01*
X145659742Y-138751702D01*
X145717748Y-138816386D01*
X145773071Y-138892325D01*
X145820036Y-138975413D01*
X145857029Y-139067264D01*
X145874317Y-139131380D01*
X145884877Y-139199312D01*
X145888476Y-139271573D01*
X145883688Y-139348195D01*
X145870116Y-139414373D01*
X145848603Y-139471669D01*
X145817775Y-139524081D01*
X145780136Y-139566870D01*
X145735274Y-139601118D01*
X145684525Y-139625926D01*
X145626942Y-139641261D01*
X145561068Y-139646608D01*
X145496860Y-139641835D01*
X145440416Y-139628143D01*
X145390465Y-139606064D01*
X145345453Y-139575284D01*
X145307881Y-139537486D01*
X145277136Y-139492002D01*
X145254911Y-139441611D01*
X145241253Y-139385778D01*
X145236850Y-139327627D01*
X145358225Y-139327627D01*
X145358225Y-139338801D01*
X145364709Y-139401293D01*
X145382710Y-139450725D01*
X145412523Y-139491376D01*
X145452685Y-139520701D01*
X145501266Y-139538167D01*
X145562473Y-139544453D01*
X145623688Y-139538169D01*
X145672321Y-139520701D01*
X145712483Y-139491376D01*
X145742296Y-139450725D01*
X145760298Y-139401293D01*
X145766782Y-139338801D01*
X145766782Y-139327627D01*
X145760298Y-139265135D01*
X145742296Y-139215703D01*
X145712481Y-139175064D01*
X145672321Y-139145788D01*
X145623684Y-139128274D01*
X145562473Y-139121974D01*
X145501270Y-139128276D01*
X145452685Y-139145788D01*
X145412525Y-139175064D01*
X145382710Y-139215703D01*
X145364709Y-139265135D01*
X145358225Y-139327627D01*
X145236850Y-139327627D01*
X145236531Y-139323414D01*
X145240917Y-139262791D01*
X145253457Y-139209815D01*
X145273594Y-139163251D01*
X145301696Y-139121150D01*
X145335590Y-139086648D01*
X145375749Y-139059021D01*
X145420382Y-139039084D01*
X145469724Y-139026853D01*
X145524737Y-139022629D01*
X145581255Y-139027405D01*
X145628235Y-139040825D01*
X145670057Y-139062595D01*
X145704500Y-139090528D01*
X145733852Y-139124007D01*
X145759760Y-139162519D01*
X145766782Y-139159771D01*
X145745885Y-139085269D01*
X145720588Y-139019304D01*
X145691189Y-138961018D01*
X145636230Y-138879190D01*
X145567419Y-138802138D01*
X145487745Y-138730080D01*
X145388999Y-138653028D01*
X145540124Y-138653028D01*
X145597763Y-138695250D01*
G37*
G36*
X144681305Y-139266566D02*
G01*
X145046449Y-139266566D01*
X145046449Y-139146277D01*
X144681305Y-139146277D01*
X144681305Y-139266566D01*
G37*
G36*
X144240784Y-138643530D02*
G01*
X144303610Y-138663621D01*
X144356401Y-138695893D01*
X144400514Y-138739822D01*
X144437202Y-138796597D01*
X144466250Y-138868695D01*
X144484853Y-138945018D01*
X144496875Y-139035258D01*
X144501176Y-139141514D01*
X144496867Y-139247782D01*
X144484837Y-139337779D01*
X144466250Y-139413661D01*
X144437267Y-139485302D01*
X144400588Y-139542121D01*
X144356401Y-139586463D01*
X144303562Y-139619122D01*
X144240739Y-139639426D01*
X144165404Y-139646608D01*
X144106865Y-139642486D01*
X144056216Y-139630760D01*
X144012196Y-139612043D01*
X143973795Y-139586463D01*
X143930018Y-139542170D01*
X143893575Y-139485357D01*
X143864680Y-139413661D01*
X143846059Y-139337776D01*
X143834009Y-139247779D01*
X143829692Y-139141514D01*
X143832925Y-139061769D01*
X143952790Y-139061769D01*
X143952790Y-139221259D01*
X143958493Y-139312080D01*
X143974467Y-139388443D01*
X143992414Y-139435455D01*
X144015089Y-139473222D01*
X144042305Y-139503176D01*
X144075288Y-139525511D01*
X144115654Y-139539470D01*
X144165404Y-139544453D01*
X144214259Y-139539516D01*
X144254482Y-139525595D01*
X144287891Y-139503176D01*
X144315508Y-139473171D01*
X144338401Y-139435400D01*
X144356401Y-139388443D01*
X144372375Y-139312080D01*
X144378078Y-139221259D01*
X144378078Y-139061769D01*
X144372338Y-138969792D01*
X144356401Y-138893913D01*
X144338431Y-138847403D01*
X144315546Y-138809836D01*
X144287891Y-138779851D01*
X144254482Y-138757432D01*
X144214259Y-138743512D01*
X144165404Y-138738574D01*
X144115654Y-138743557D01*
X144075288Y-138757517D01*
X144042305Y-138779851D01*
X144015052Y-138809786D01*
X143992383Y-138847348D01*
X143974467Y-138893913D01*
X143958530Y-138969792D01*
X143952790Y-139061769D01*
X143832925Y-139061769D01*
X143834000Y-139035261D01*
X143846044Y-138945021D01*
X143864680Y-138868695D01*
X143893640Y-138796541D01*
X143930092Y-138739773D01*
X143973795Y-138695893D01*
X144026153Y-138663701D01*
X144089126Y-138643574D01*
X144165404Y-138636420D01*
X144240784Y-138643530D01*
G37*
G36*
X143049214Y-138653028D02*
G01*
X143049214Y-138756587D01*
X143477310Y-138756587D01*
X143505276Y-139128996D01*
X143495506Y-139128996D01*
X143470544Y-139097346D01*
X143445131Y-139071660D01*
X143416430Y-139050660D01*
X143382178Y-139034535D01*
X143343758Y-139024782D01*
X143295410Y-139021224D01*
X143240431Y-139025435D01*
X143190851Y-139037655D01*
X143145751Y-139057616D01*
X143105074Y-139085221D01*
X143070741Y-139119501D01*
X143042253Y-139161114D01*
X143021813Y-139207322D01*
X143008981Y-139260932D01*
X143004456Y-139323414D01*
X143009037Y-139385843D01*
X143022247Y-139441448D01*
X143043657Y-139491331D01*
X143073549Y-139536302D01*
X143110839Y-139574105D01*
X143156253Y-139605331D01*
X143206740Y-139627665D01*
X143265199Y-139641673D01*
X143333207Y-139646608D01*
X143410751Y-139640066D01*
X143471754Y-139622123D01*
X143525487Y-139593835D01*
X143568962Y-139559902D01*
X143606502Y-139520714D01*
X143638205Y-139480095D01*
X143550034Y-139412990D01*
X143509462Y-139465922D01*
X143466808Y-139506046D01*
X143434497Y-139524733D01*
X143391049Y-139537097D01*
X143333207Y-139541706D01*
X143269077Y-139535123D01*
X143219602Y-139517046D01*
X143181410Y-139488583D01*
X143153185Y-139450055D01*
X143135390Y-139401151D01*
X143128959Y-139338862D01*
X143128959Y-139324818D01*
X143135391Y-139262530D01*
X143153187Y-139213649D01*
X143181410Y-139175158D01*
X143219607Y-139146660D01*
X143269082Y-139128563D01*
X143333207Y-139121974D01*
X143377497Y-139125094D01*
X143412056Y-139133568D01*
X143438842Y-139146460D01*
X143475391Y-139173223D01*
X143508085Y-139204528D01*
X143607431Y-139190546D01*
X143572443Y-138653028D01*
X143049214Y-138653028D01*
G37*
D11*
X161671331Y-151000000D02*
X161385617Y-150800000D01*
X161671331Y-150657143D02*
X161071331Y-150657143D01*
X161071331Y-150657143D02*
X161071331Y-150885714D01*
X161071331Y-150885714D02*
X161099902Y-150942857D01*
X161099902Y-150942857D02*
X161128474Y-150971428D01*
X161128474Y-150971428D02*
X161185617Y-151000000D01*
X161185617Y-151000000D02*
X161271331Y-151000000D01*
X161271331Y-151000000D02*
X161328474Y-150971428D01*
X161328474Y-150971428D02*
X161357045Y-150942857D01*
X161357045Y-150942857D02*
X161385617Y-150885714D01*
X161385617Y-150885714D02*
X161385617Y-150657143D01*
X161071331Y-151514286D02*
X161071331Y-151400000D01*
X161071331Y-151400000D02*
X161099902Y-151342857D01*
X161099902Y-151342857D02*
X161128474Y-151314286D01*
X161128474Y-151314286D02*
X161214188Y-151257143D01*
X161214188Y-151257143D02*
X161328474Y-151228571D01*
X161328474Y-151228571D02*
X161557045Y-151228571D01*
X161557045Y-151228571D02*
X161614188Y-151257143D01*
X161614188Y-151257143D02*
X161642760Y-151285714D01*
X161642760Y-151285714D02*
X161671331Y-151342857D01*
X161671331Y-151342857D02*
X161671331Y-151457143D01*
X161671331Y-151457143D02*
X161642760Y-151514286D01*
X161642760Y-151514286D02*
X161614188Y-151542857D01*
X161614188Y-151542857D02*
X161557045Y-151571428D01*
X161557045Y-151571428D02*
X161414188Y-151571428D01*
X161414188Y-151571428D02*
X161357045Y-151542857D01*
X161357045Y-151542857D02*
X161328474Y-151514286D01*
X161328474Y-151514286D02*
X161299902Y-151457143D01*
X161299902Y-151457143D02*
X161299902Y-151342857D01*
X161299902Y-151342857D02*
X161328474Y-151285714D01*
X161328474Y-151285714D02*
X161357045Y-151257143D01*
X161357045Y-151257143D02*
X161414188Y-151228571D01*
X163171331Y-151900000D02*
X162885617Y-151700000D01*
X163171331Y-151557143D02*
X162571331Y-151557143D01*
X162571331Y-151557143D02*
X162571331Y-151785714D01*
X162571331Y-151785714D02*
X162599902Y-151842857D01*
X162599902Y-151842857D02*
X162628474Y-151871428D01*
X162628474Y-151871428D02*
X162685617Y-151900000D01*
X162685617Y-151900000D02*
X162771331Y-151900000D01*
X162771331Y-151900000D02*
X162828474Y-151871428D01*
X162828474Y-151871428D02*
X162857045Y-151842857D01*
X162857045Y-151842857D02*
X162885617Y-151785714D01*
X162885617Y-151785714D02*
X162885617Y-151557143D01*
X162571331Y-152442857D02*
X162571331Y-152157143D01*
X162571331Y-152157143D02*
X162857045Y-152128571D01*
X162857045Y-152128571D02*
X162828474Y-152157143D01*
X162828474Y-152157143D02*
X162799902Y-152214286D01*
X162799902Y-152214286D02*
X162799902Y-152357143D01*
X162799902Y-152357143D02*
X162828474Y-152414286D01*
X162828474Y-152414286D02*
X162857045Y-152442857D01*
X162857045Y-152442857D02*
X162914188Y-152471428D01*
X162914188Y-152471428D02*
X163057045Y-152471428D01*
X163057045Y-152471428D02*
X163114188Y-152442857D01*
X163114188Y-152442857D02*
X163142760Y-152414286D01*
X163142760Y-152414286D02*
X163171331Y-152357143D01*
X163171331Y-152357143D02*
X163171331Y-152214286D01*
X163171331Y-152214286D02*
X163142760Y-152157143D01*
X163142760Y-152157143D02*
X163114188Y-152128571D01*
X156599999Y-151871331D02*
X156799999Y-151585617D01*
X156942856Y-151871331D02*
X156942856Y-151271331D01*
X156942856Y-151271331D02*
X156714285Y-151271331D01*
X156714285Y-151271331D02*
X156657142Y-151299902D01*
X156657142Y-151299902D02*
X156628571Y-151328474D01*
X156628571Y-151328474D02*
X156599999Y-151385617D01*
X156599999Y-151385617D02*
X156599999Y-151471331D01*
X156599999Y-151471331D02*
X156628571Y-151528474D01*
X156628571Y-151528474D02*
X156657142Y-151557045D01*
X156657142Y-151557045D02*
X156714285Y-151585617D01*
X156714285Y-151585617D02*
X156942856Y-151585617D01*
X156028571Y-151871331D02*
X156371428Y-151871331D01*
X156199999Y-151871331D02*
X156199999Y-151271331D01*
X156199999Y-151271331D02*
X156257142Y-151357045D01*
X156257142Y-151357045D02*
X156314285Y-151414188D01*
X156314285Y-151414188D02*
X156371428Y-151442760D01*
X176335714Y-141171331D02*
X176535714Y-140885617D01*
X176678571Y-141171331D02*
X176678571Y-140571331D01*
X176678571Y-140571331D02*
X176450000Y-140571331D01*
X176450000Y-140571331D02*
X176392857Y-140599902D01*
X176392857Y-140599902D02*
X176364286Y-140628474D01*
X176364286Y-140628474D02*
X176335714Y-140685617D01*
X176335714Y-140685617D02*
X176335714Y-140771331D01*
X176335714Y-140771331D02*
X176364286Y-140828474D01*
X176364286Y-140828474D02*
X176392857Y-140857045D01*
X176392857Y-140857045D02*
X176450000Y-140885617D01*
X176450000Y-140885617D02*
X176678571Y-140885617D01*
X175764286Y-141171331D02*
X176107143Y-141171331D01*
X175935714Y-141171331D02*
X175935714Y-140571331D01*
X175935714Y-140571331D02*
X175992857Y-140657045D01*
X175992857Y-140657045D02*
X176050000Y-140714188D01*
X176050000Y-140714188D02*
X176107143Y-140742760D01*
X175564285Y-140571331D02*
X175164285Y-140571331D01*
X175164285Y-140571331D02*
X175421428Y-141171331D01*
X173310714Y-139658831D02*
X173510714Y-139373117D01*
X173653571Y-139658831D02*
X173653571Y-139058831D01*
X173653571Y-139058831D02*
X173425000Y-139058831D01*
X173425000Y-139058831D02*
X173367857Y-139087402D01*
X173367857Y-139087402D02*
X173339286Y-139115974D01*
X173339286Y-139115974D02*
X173310714Y-139173117D01*
X173310714Y-139173117D02*
X173310714Y-139258831D01*
X173310714Y-139258831D02*
X173339286Y-139315974D01*
X173339286Y-139315974D02*
X173367857Y-139344545D01*
X173367857Y-139344545D02*
X173425000Y-139373117D01*
X173425000Y-139373117D02*
X173653571Y-139373117D01*
X172739286Y-139658831D02*
X173082143Y-139658831D01*
X172910714Y-139658831D02*
X172910714Y-139058831D01*
X172910714Y-139058831D02*
X172967857Y-139144545D01*
X172967857Y-139144545D02*
X173025000Y-139201688D01*
X173025000Y-139201688D02*
X173082143Y-139230260D01*
X172167857Y-139658831D02*
X172510714Y-139658831D01*
X172339285Y-139658831D02*
X172339285Y-139058831D01*
X172339285Y-139058831D02*
X172396428Y-139144545D01*
X172396428Y-139144545D02*
X172453571Y-139201688D01*
X172453571Y-139201688D02*
X172510714Y-139230260D01*
X198146331Y-142414285D02*
X197860617Y-142214285D01*
X198146331Y-142071428D02*
X197546331Y-142071428D01*
X197546331Y-142071428D02*
X197546331Y-142299999D01*
X197546331Y-142299999D02*
X197574902Y-142357142D01*
X197574902Y-142357142D02*
X197603474Y-142385713D01*
X197603474Y-142385713D02*
X197660617Y-142414285D01*
X197660617Y-142414285D02*
X197746331Y-142414285D01*
X197746331Y-142414285D02*
X197803474Y-142385713D01*
X197803474Y-142385713D02*
X197832045Y-142357142D01*
X197832045Y-142357142D02*
X197860617Y-142299999D01*
X197860617Y-142299999D02*
X197860617Y-142071428D01*
X197603474Y-142642856D02*
X197574902Y-142671428D01*
X197574902Y-142671428D02*
X197546331Y-142728571D01*
X197546331Y-142728571D02*
X197546331Y-142871428D01*
X197546331Y-142871428D02*
X197574902Y-142928571D01*
X197574902Y-142928571D02*
X197603474Y-142957142D01*
X197603474Y-142957142D02*
X197660617Y-142985713D01*
X197660617Y-142985713D02*
X197717760Y-142985713D01*
X197717760Y-142985713D02*
X197803474Y-142957142D01*
X197803474Y-142957142D02*
X198146331Y-142614285D01*
X198146331Y-142614285D02*
X198146331Y-142985713D01*
X197546331Y-143357142D02*
X197546331Y-143414285D01*
X197546331Y-143414285D02*
X197574902Y-143471428D01*
X197574902Y-143471428D02*
X197603474Y-143500000D01*
X197603474Y-143500000D02*
X197660617Y-143528571D01*
X197660617Y-143528571D02*
X197774902Y-143557142D01*
X197774902Y-143557142D02*
X197917760Y-143557142D01*
X197917760Y-143557142D02*
X198032045Y-143528571D01*
X198032045Y-143528571D02*
X198089188Y-143500000D01*
X198089188Y-143500000D02*
X198117760Y-143471428D01*
X198117760Y-143471428D02*
X198146331Y-143414285D01*
X198146331Y-143414285D02*
X198146331Y-143357142D01*
X198146331Y-143357142D02*
X198117760Y-143300000D01*
X198117760Y-143300000D02*
X198089188Y-143271428D01*
X198089188Y-143271428D02*
X198032045Y-143242857D01*
X198032045Y-143242857D02*
X197917760Y-143214285D01*
X197917760Y-143214285D02*
X197774902Y-143214285D01*
X197774902Y-143214285D02*
X197660617Y-143242857D01*
X197660617Y-143242857D02*
X197603474Y-143271428D01*
X197603474Y-143271428D02*
X197574902Y-143300000D01*
X197574902Y-143300000D02*
X197546331Y-143357142D01*
X164585714Y-145701688D02*
X164614286Y-145730260D01*
X164614286Y-145730260D02*
X164700000Y-145758831D01*
X164700000Y-145758831D02*
X164757143Y-145758831D01*
X164757143Y-145758831D02*
X164842857Y-145730260D01*
X164842857Y-145730260D02*
X164900000Y-145673117D01*
X164900000Y-145673117D02*
X164928571Y-145615974D01*
X164928571Y-145615974D02*
X164957143Y-145501688D01*
X164957143Y-145501688D02*
X164957143Y-145415974D01*
X164957143Y-145415974D02*
X164928571Y-145301688D01*
X164928571Y-145301688D02*
X164900000Y-145244545D01*
X164900000Y-145244545D02*
X164842857Y-145187402D01*
X164842857Y-145187402D02*
X164757143Y-145158831D01*
X164757143Y-145158831D02*
X164700000Y-145158831D01*
X164700000Y-145158831D02*
X164614286Y-145187402D01*
X164614286Y-145187402D02*
X164585714Y-145215974D01*
X164014286Y-145758831D02*
X164357143Y-145758831D01*
X164185714Y-145758831D02*
X164185714Y-145158831D01*
X164185714Y-145158831D02*
X164242857Y-145244545D01*
X164242857Y-145244545D02*
X164300000Y-145301688D01*
X164300000Y-145301688D02*
X164357143Y-145330260D01*
X163814285Y-145158831D02*
X163442857Y-145158831D01*
X163442857Y-145158831D02*
X163642857Y-145387402D01*
X163642857Y-145387402D02*
X163557142Y-145387402D01*
X163557142Y-145387402D02*
X163500000Y-145415974D01*
X163500000Y-145415974D02*
X163471428Y-145444545D01*
X163471428Y-145444545D02*
X163442857Y-145501688D01*
X163442857Y-145501688D02*
X163442857Y-145644545D01*
X163442857Y-145644545D02*
X163471428Y-145701688D01*
X163471428Y-145701688D02*
X163500000Y-145730260D01*
X163500000Y-145730260D02*
X163557142Y-145758831D01*
X163557142Y-145758831D02*
X163728571Y-145758831D01*
X163728571Y-145758831D02*
X163785714Y-145730260D01*
X163785714Y-145730260D02*
X163814285Y-145701688D01*
X172733902Y-150262428D02*
X172448188Y-150062428D01*
X172733902Y-149919571D02*
X172133902Y-149919571D01*
X172133902Y-149919571D02*
X172133902Y-150148142D01*
X172133902Y-150148142D02*
X172162473Y-150205285D01*
X172162473Y-150205285D02*
X172191045Y-150233856D01*
X172191045Y-150233856D02*
X172248188Y-150262428D01*
X172248188Y-150262428D02*
X172333902Y-150262428D01*
X172333902Y-150262428D02*
X172391045Y-150233856D01*
X172391045Y-150233856D02*
X172419616Y-150205285D01*
X172419616Y-150205285D02*
X172448188Y-150148142D01*
X172448188Y-150148142D02*
X172448188Y-149919571D01*
X172733902Y-150548142D02*
X172733902Y-150662428D01*
X172733902Y-150662428D02*
X172705331Y-150719571D01*
X172705331Y-150719571D02*
X172676759Y-150748142D01*
X172676759Y-150748142D02*
X172591045Y-150805285D01*
X172591045Y-150805285D02*
X172476759Y-150833856D01*
X172476759Y-150833856D02*
X172248188Y-150833856D01*
X172248188Y-150833856D02*
X172191045Y-150805285D01*
X172191045Y-150805285D02*
X172162473Y-150776714D01*
X172162473Y-150776714D02*
X172133902Y-150719571D01*
X172133902Y-150719571D02*
X172133902Y-150605285D01*
X172133902Y-150605285D02*
X172162473Y-150548142D01*
X172162473Y-150548142D02*
X172191045Y-150519571D01*
X172191045Y-150519571D02*
X172248188Y-150490999D01*
X172248188Y-150490999D02*
X172391045Y-150490999D01*
X172391045Y-150490999D02*
X172448188Y-150519571D01*
X172448188Y-150519571D02*
X172476759Y-150548142D01*
X172476759Y-150548142D02*
X172505331Y-150605285D01*
X172505331Y-150605285D02*
X172505331Y-150719571D01*
X172505331Y-150719571D02*
X172476759Y-150776714D01*
X172476759Y-150776714D02*
X172448188Y-150805285D01*
X172448188Y-150805285D02*
X172391045Y-150833856D01*
X182696355Y-149222809D02*
X182410641Y-149022809D01*
X182696355Y-148879952D02*
X182096355Y-148879952D01*
X182096355Y-148879952D02*
X182096355Y-149108523D01*
X182096355Y-149108523D02*
X182124926Y-149165666D01*
X182124926Y-149165666D02*
X182153498Y-149194237D01*
X182153498Y-149194237D02*
X182210641Y-149222809D01*
X182210641Y-149222809D02*
X182296355Y-149222809D01*
X182296355Y-149222809D02*
X182353498Y-149194237D01*
X182353498Y-149194237D02*
X182382069Y-149165666D01*
X182382069Y-149165666D02*
X182410641Y-149108523D01*
X182410641Y-149108523D02*
X182410641Y-148879952D01*
X182096355Y-149422809D02*
X182096355Y-149794237D01*
X182096355Y-149794237D02*
X182324926Y-149594237D01*
X182324926Y-149594237D02*
X182324926Y-149679952D01*
X182324926Y-149679952D02*
X182353498Y-149737095D01*
X182353498Y-149737095D02*
X182382069Y-149765666D01*
X182382069Y-149765666D02*
X182439212Y-149794237D01*
X182439212Y-149794237D02*
X182582069Y-149794237D01*
X182582069Y-149794237D02*
X182639212Y-149765666D01*
X182639212Y-149765666D02*
X182667784Y-149737095D01*
X182667784Y-149737095D02*
X182696355Y-149679952D01*
X182696355Y-149679952D02*
X182696355Y-149508523D01*
X182696355Y-149508523D02*
X182667784Y-149451380D01*
X182667784Y-149451380D02*
X182639212Y-149422809D01*
X182096355Y-150165666D02*
X182096355Y-150222809D01*
X182096355Y-150222809D02*
X182124926Y-150279952D01*
X182124926Y-150279952D02*
X182153498Y-150308524D01*
X182153498Y-150308524D02*
X182210641Y-150337095D01*
X182210641Y-150337095D02*
X182324926Y-150365666D01*
X182324926Y-150365666D02*
X182467784Y-150365666D01*
X182467784Y-150365666D02*
X182582069Y-150337095D01*
X182582069Y-150337095D02*
X182639212Y-150308524D01*
X182639212Y-150308524D02*
X182667784Y-150279952D01*
X182667784Y-150279952D02*
X182696355Y-150222809D01*
X182696355Y-150222809D02*
X182696355Y-150165666D01*
X182696355Y-150165666D02*
X182667784Y-150108524D01*
X182667784Y-150108524D02*
X182639212Y-150079952D01*
X182639212Y-150079952D02*
X182582069Y-150051381D01*
X182582069Y-150051381D02*
X182467784Y-150022809D01*
X182467784Y-150022809D02*
X182324926Y-150022809D01*
X182324926Y-150022809D02*
X182210641Y-150051381D01*
X182210641Y-150051381D02*
X182153498Y-150079952D01*
X182153498Y-150079952D02*
X182124926Y-150108524D01*
X182124926Y-150108524D02*
X182096355Y-150165666D01*
X190271331Y-141514285D02*
X189985617Y-141314285D01*
X190271331Y-141171428D02*
X189671331Y-141171428D01*
X189671331Y-141171428D02*
X189671331Y-141399999D01*
X189671331Y-141399999D02*
X189699902Y-141457142D01*
X189699902Y-141457142D02*
X189728474Y-141485713D01*
X189728474Y-141485713D02*
X189785617Y-141514285D01*
X189785617Y-141514285D02*
X189871331Y-141514285D01*
X189871331Y-141514285D02*
X189928474Y-141485713D01*
X189928474Y-141485713D02*
X189957045Y-141457142D01*
X189957045Y-141457142D02*
X189985617Y-141399999D01*
X189985617Y-141399999D02*
X189985617Y-141171428D01*
X189671331Y-141714285D02*
X189671331Y-142085713D01*
X189671331Y-142085713D02*
X189899902Y-141885713D01*
X189899902Y-141885713D02*
X189899902Y-141971428D01*
X189899902Y-141971428D02*
X189928474Y-142028571D01*
X189928474Y-142028571D02*
X189957045Y-142057142D01*
X189957045Y-142057142D02*
X190014188Y-142085713D01*
X190014188Y-142085713D02*
X190157045Y-142085713D01*
X190157045Y-142085713D02*
X190214188Y-142057142D01*
X190214188Y-142057142D02*
X190242760Y-142028571D01*
X190242760Y-142028571D02*
X190271331Y-141971428D01*
X190271331Y-141971428D02*
X190271331Y-141799999D01*
X190271331Y-141799999D02*
X190242760Y-141742856D01*
X190242760Y-141742856D02*
X190214188Y-141714285D01*
X189728474Y-142314285D02*
X189699902Y-142342857D01*
X189699902Y-142342857D02*
X189671331Y-142400000D01*
X189671331Y-142400000D02*
X189671331Y-142542857D01*
X189671331Y-142542857D02*
X189699902Y-142600000D01*
X189699902Y-142600000D02*
X189728474Y-142628571D01*
X189728474Y-142628571D02*
X189785617Y-142657142D01*
X189785617Y-142657142D02*
X189842760Y-142657142D01*
X189842760Y-142657142D02*
X189928474Y-142628571D01*
X189928474Y-142628571D02*
X190271331Y-142285714D01*
X190271331Y-142285714D02*
X190271331Y-142657142D01*
X189496331Y-137689285D02*
X189210617Y-137489285D01*
X189496331Y-137346428D02*
X188896331Y-137346428D01*
X188896331Y-137346428D02*
X188896331Y-137574999D01*
X188896331Y-137574999D02*
X188924902Y-137632142D01*
X188924902Y-137632142D02*
X188953474Y-137660713D01*
X188953474Y-137660713D02*
X189010617Y-137689285D01*
X189010617Y-137689285D02*
X189096331Y-137689285D01*
X189096331Y-137689285D02*
X189153474Y-137660713D01*
X189153474Y-137660713D02*
X189182045Y-137632142D01*
X189182045Y-137632142D02*
X189210617Y-137574999D01*
X189210617Y-137574999D02*
X189210617Y-137346428D01*
X188953474Y-137917856D02*
X188924902Y-137946428D01*
X188924902Y-137946428D02*
X188896331Y-138003571D01*
X188896331Y-138003571D02*
X188896331Y-138146428D01*
X188896331Y-138146428D02*
X188924902Y-138203571D01*
X188924902Y-138203571D02*
X188953474Y-138232142D01*
X188953474Y-138232142D02*
X189010617Y-138260713D01*
X189010617Y-138260713D02*
X189067760Y-138260713D01*
X189067760Y-138260713D02*
X189153474Y-138232142D01*
X189153474Y-138232142D02*
X189496331Y-137889285D01*
X189496331Y-137889285D02*
X189496331Y-138260713D01*
X189496331Y-138546428D02*
X189496331Y-138660714D01*
X189496331Y-138660714D02*
X189467760Y-138717857D01*
X189467760Y-138717857D02*
X189439188Y-138746428D01*
X189439188Y-138746428D02*
X189353474Y-138803571D01*
X189353474Y-138803571D02*
X189239188Y-138832142D01*
X189239188Y-138832142D02*
X189010617Y-138832142D01*
X189010617Y-138832142D02*
X188953474Y-138803571D01*
X188953474Y-138803571D02*
X188924902Y-138775000D01*
X188924902Y-138775000D02*
X188896331Y-138717857D01*
X188896331Y-138717857D02*
X188896331Y-138603571D01*
X188896331Y-138603571D02*
X188924902Y-138546428D01*
X188924902Y-138546428D02*
X188953474Y-138517857D01*
X188953474Y-138517857D02*
X189010617Y-138489285D01*
X189010617Y-138489285D02*
X189153474Y-138489285D01*
X189153474Y-138489285D02*
X189210617Y-138517857D01*
X189210617Y-138517857D02*
X189239188Y-138546428D01*
X189239188Y-138546428D02*
X189267760Y-138603571D01*
X189267760Y-138603571D02*
X189267760Y-138717857D01*
X189267760Y-138717857D02*
X189239188Y-138775000D01*
X189239188Y-138775000D02*
X189210617Y-138803571D01*
X189210617Y-138803571D02*
X189153474Y-138832142D01*
X195546331Y-150314285D02*
X195260617Y-150114285D01*
X195546331Y-149971428D02*
X194946331Y-149971428D01*
X194946331Y-149971428D02*
X194946331Y-150199999D01*
X194946331Y-150199999D02*
X194974902Y-150257142D01*
X194974902Y-150257142D02*
X195003474Y-150285713D01*
X195003474Y-150285713D02*
X195060617Y-150314285D01*
X195060617Y-150314285D02*
X195146331Y-150314285D01*
X195146331Y-150314285D02*
X195203474Y-150285713D01*
X195203474Y-150285713D02*
X195232045Y-150257142D01*
X195232045Y-150257142D02*
X195260617Y-150199999D01*
X195260617Y-150199999D02*
X195260617Y-149971428D01*
X195003474Y-150542856D02*
X194974902Y-150571428D01*
X194974902Y-150571428D02*
X194946331Y-150628571D01*
X194946331Y-150628571D02*
X194946331Y-150771428D01*
X194946331Y-150771428D02*
X194974902Y-150828571D01*
X194974902Y-150828571D02*
X195003474Y-150857142D01*
X195003474Y-150857142D02*
X195060617Y-150885713D01*
X195060617Y-150885713D02*
X195117760Y-150885713D01*
X195117760Y-150885713D02*
X195203474Y-150857142D01*
X195203474Y-150857142D02*
X195546331Y-150514285D01*
X195546331Y-150514285D02*
X195546331Y-150885713D01*
X195546331Y-151457142D02*
X195546331Y-151114285D01*
X195546331Y-151285714D02*
X194946331Y-151285714D01*
X194946331Y-151285714D02*
X195032045Y-151228571D01*
X195032045Y-151228571D02*
X195089188Y-151171428D01*
X195089188Y-151171428D02*
X195117760Y-151114285D01*
X184745642Y-148633044D02*
X184774214Y-148661616D01*
X184774214Y-148661616D02*
X184859928Y-148690187D01*
X184859928Y-148690187D02*
X184917071Y-148690187D01*
X184917071Y-148690187D02*
X185002785Y-148661616D01*
X185002785Y-148661616D02*
X185059928Y-148604473D01*
X185059928Y-148604473D02*
X185088499Y-148547330D01*
X185088499Y-148547330D02*
X185117071Y-148433044D01*
X185117071Y-148433044D02*
X185117071Y-148347330D01*
X185117071Y-148347330D02*
X185088499Y-148233044D01*
X185088499Y-148233044D02*
X185059928Y-148175901D01*
X185059928Y-148175901D02*
X185002785Y-148118758D01*
X185002785Y-148118758D02*
X184917071Y-148090187D01*
X184917071Y-148090187D02*
X184859928Y-148090187D01*
X184859928Y-148090187D02*
X184774214Y-148118758D01*
X184774214Y-148118758D02*
X184745642Y-148147330D01*
X184545642Y-148090187D02*
X184174214Y-148090187D01*
X184174214Y-148090187D02*
X184374214Y-148318758D01*
X184374214Y-148318758D02*
X184288499Y-148318758D01*
X184288499Y-148318758D02*
X184231357Y-148347330D01*
X184231357Y-148347330D02*
X184202785Y-148375901D01*
X184202785Y-148375901D02*
X184174214Y-148433044D01*
X184174214Y-148433044D02*
X184174214Y-148575901D01*
X184174214Y-148575901D02*
X184202785Y-148633044D01*
X184202785Y-148633044D02*
X184231357Y-148661616D01*
X184231357Y-148661616D02*
X184288499Y-148690187D01*
X184288499Y-148690187D02*
X184459928Y-148690187D01*
X184459928Y-148690187D02*
X184517071Y-148661616D01*
X184517071Y-148661616D02*
X184545642Y-148633044D01*
X183802785Y-148090187D02*
X183745642Y-148090187D01*
X183745642Y-148090187D02*
X183688499Y-148118758D01*
X183688499Y-148118758D02*
X183659928Y-148147330D01*
X183659928Y-148147330D02*
X183631356Y-148204473D01*
X183631356Y-148204473D02*
X183602785Y-148318758D01*
X183602785Y-148318758D02*
X183602785Y-148461616D01*
X183602785Y-148461616D02*
X183631356Y-148575901D01*
X183631356Y-148575901D02*
X183659928Y-148633044D01*
X183659928Y-148633044D02*
X183688499Y-148661616D01*
X183688499Y-148661616D02*
X183745642Y-148690187D01*
X183745642Y-148690187D02*
X183802785Y-148690187D01*
X183802785Y-148690187D02*
X183859928Y-148661616D01*
X183859928Y-148661616D02*
X183888499Y-148633044D01*
X183888499Y-148633044D02*
X183917070Y-148575901D01*
X183917070Y-148575901D02*
X183945642Y-148461616D01*
X183945642Y-148461616D02*
X183945642Y-148318758D01*
X183945642Y-148318758D02*
X183917070Y-148204473D01*
X183917070Y-148204473D02*
X183888499Y-148147330D01*
X183888499Y-148147330D02*
X183859928Y-148118758D01*
X183859928Y-148118758D02*
X183802785Y-148090187D01*
X185616333Y-154200000D02*
X185330619Y-154000000D01*
X185616333Y-153857143D02*
X185016333Y-153857143D01*
X185016333Y-153857143D02*
X185016333Y-154085714D01*
X185016333Y-154085714D02*
X185044904Y-154142857D01*
X185044904Y-154142857D02*
X185073476Y-154171428D01*
X185073476Y-154171428D02*
X185130619Y-154200000D01*
X185130619Y-154200000D02*
X185216333Y-154200000D01*
X185216333Y-154200000D02*
X185273476Y-154171428D01*
X185273476Y-154171428D02*
X185302047Y-154142857D01*
X185302047Y-154142857D02*
X185330619Y-154085714D01*
X185330619Y-154085714D02*
X185330619Y-153857143D01*
X185016333Y-154400000D02*
X185016333Y-154771428D01*
X185016333Y-154771428D02*
X185244904Y-154571428D01*
X185244904Y-154571428D02*
X185244904Y-154657143D01*
X185244904Y-154657143D02*
X185273476Y-154714286D01*
X185273476Y-154714286D02*
X185302047Y-154742857D01*
X185302047Y-154742857D02*
X185359190Y-154771428D01*
X185359190Y-154771428D02*
X185502047Y-154771428D01*
X185502047Y-154771428D02*
X185559190Y-154742857D01*
X185559190Y-154742857D02*
X185587762Y-154714286D01*
X185587762Y-154714286D02*
X185616333Y-154657143D01*
X185616333Y-154657143D02*
X185616333Y-154485714D01*
X185616333Y-154485714D02*
X185587762Y-154428571D01*
X185587762Y-154428571D02*
X185559190Y-154400000D01*
X186696331Y-136014285D02*
X186410617Y-135814285D01*
X186696331Y-135671428D02*
X186096331Y-135671428D01*
X186096331Y-135671428D02*
X186096331Y-135899999D01*
X186096331Y-135899999D02*
X186124902Y-135957142D01*
X186124902Y-135957142D02*
X186153474Y-135985713D01*
X186153474Y-135985713D02*
X186210617Y-136014285D01*
X186210617Y-136014285D02*
X186296331Y-136014285D01*
X186296331Y-136014285D02*
X186353474Y-135985713D01*
X186353474Y-135985713D02*
X186382045Y-135957142D01*
X186382045Y-135957142D02*
X186410617Y-135899999D01*
X186410617Y-135899999D02*
X186410617Y-135671428D01*
X186153474Y-136242856D02*
X186124902Y-136271428D01*
X186124902Y-136271428D02*
X186096331Y-136328571D01*
X186096331Y-136328571D02*
X186096331Y-136471428D01*
X186096331Y-136471428D02*
X186124902Y-136528571D01*
X186124902Y-136528571D02*
X186153474Y-136557142D01*
X186153474Y-136557142D02*
X186210617Y-136585713D01*
X186210617Y-136585713D02*
X186267760Y-136585713D01*
X186267760Y-136585713D02*
X186353474Y-136557142D01*
X186353474Y-136557142D02*
X186696331Y-136214285D01*
X186696331Y-136214285D02*
X186696331Y-136585713D01*
X186096331Y-137100000D02*
X186096331Y-136985714D01*
X186096331Y-136985714D02*
X186124902Y-136928571D01*
X186124902Y-136928571D02*
X186153474Y-136900000D01*
X186153474Y-136900000D02*
X186239188Y-136842857D01*
X186239188Y-136842857D02*
X186353474Y-136814285D01*
X186353474Y-136814285D02*
X186582045Y-136814285D01*
X186582045Y-136814285D02*
X186639188Y-136842857D01*
X186639188Y-136842857D02*
X186667760Y-136871428D01*
X186667760Y-136871428D02*
X186696331Y-136928571D01*
X186696331Y-136928571D02*
X186696331Y-137042857D01*
X186696331Y-137042857D02*
X186667760Y-137100000D01*
X186667760Y-137100000D02*
X186639188Y-137128571D01*
X186639188Y-137128571D02*
X186582045Y-137157142D01*
X186582045Y-137157142D02*
X186439188Y-137157142D01*
X186439188Y-137157142D02*
X186382045Y-137128571D01*
X186382045Y-137128571D02*
X186353474Y-137100000D01*
X186353474Y-137100000D02*
X186324902Y-137042857D01*
X186324902Y-137042857D02*
X186324902Y-136928571D01*
X186324902Y-136928571D02*
X186353474Y-136871428D01*
X186353474Y-136871428D02*
X186382045Y-136842857D01*
X186382045Y-136842857D02*
X186439188Y-136814285D01*
X187489188Y-144514285D02*
X187517760Y-144485713D01*
X187517760Y-144485713D02*
X187546331Y-144399999D01*
X187546331Y-144399999D02*
X187546331Y-144342856D01*
X187546331Y-144342856D02*
X187517760Y-144257142D01*
X187517760Y-144257142D02*
X187460617Y-144199999D01*
X187460617Y-144199999D02*
X187403474Y-144171428D01*
X187403474Y-144171428D02*
X187289188Y-144142856D01*
X187289188Y-144142856D02*
X187203474Y-144142856D01*
X187203474Y-144142856D02*
X187089188Y-144171428D01*
X187089188Y-144171428D02*
X187032045Y-144199999D01*
X187032045Y-144199999D02*
X186974902Y-144257142D01*
X186974902Y-144257142D02*
X186946331Y-144342856D01*
X186946331Y-144342856D02*
X186946331Y-144399999D01*
X186946331Y-144399999D02*
X186974902Y-144485713D01*
X186974902Y-144485713D02*
X187003474Y-144514285D01*
X187003474Y-144742856D02*
X186974902Y-144771428D01*
X186974902Y-144771428D02*
X186946331Y-144828571D01*
X186946331Y-144828571D02*
X186946331Y-144971428D01*
X186946331Y-144971428D02*
X186974902Y-145028571D01*
X186974902Y-145028571D02*
X187003474Y-145057142D01*
X187003474Y-145057142D02*
X187060617Y-145085713D01*
X187060617Y-145085713D02*
X187117760Y-145085713D01*
X187117760Y-145085713D02*
X187203474Y-145057142D01*
X187203474Y-145057142D02*
X187546331Y-144714285D01*
X187546331Y-144714285D02*
X187546331Y-145085713D01*
X187146331Y-145600000D02*
X187546331Y-145600000D01*
X186917760Y-145457142D02*
X187346331Y-145314285D01*
X187346331Y-145314285D02*
X187346331Y-145685714D01*
X185571331Y-137614285D02*
X185285617Y-137414285D01*
X185571331Y-137271428D02*
X184971331Y-137271428D01*
X184971331Y-137271428D02*
X184971331Y-137499999D01*
X184971331Y-137499999D02*
X184999902Y-137557142D01*
X184999902Y-137557142D02*
X185028474Y-137585713D01*
X185028474Y-137585713D02*
X185085617Y-137614285D01*
X185085617Y-137614285D02*
X185171331Y-137614285D01*
X185171331Y-137614285D02*
X185228474Y-137585713D01*
X185228474Y-137585713D02*
X185257045Y-137557142D01*
X185257045Y-137557142D02*
X185285617Y-137499999D01*
X185285617Y-137499999D02*
X185285617Y-137271428D01*
X185028474Y-137842856D02*
X184999902Y-137871428D01*
X184999902Y-137871428D02*
X184971331Y-137928571D01*
X184971331Y-137928571D02*
X184971331Y-138071428D01*
X184971331Y-138071428D02*
X184999902Y-138128571D01*
X184999902Y-138128571D02*
X185028474Y-138157142D01*
X185028474Y-138157142D02*
X185085617Y-138185713D01*
X185085617Y-138185713D02*
X185142760Y-138185713D01*
X185142760Y-138185713D02*
X185228474Y-138157142D01*
X185228474Y-138157142D02*
X185571331Y-137814285D01*
X185571331Y-137814285D02*
X185571331Y-138185713D01*
X185028474Y-138414285D02*
X184999902Y-138442857D01*
X184999902Y-138442857D02*
X184971331Y-138500000D01*
X184971331Y-138500000D02*
X184971331Y-138642857D01*
X184971331Y-138642857D02*
X184999902Y-138700000D01*
X184999902Y-138700000D02*
X185028474Y-138728571D01*
X185028474Y-138728571D02*
X185085617Y-138757142D01*
X185085617Y-138757142D02*
X185142760Y-138757142D01*
X185142760Y-138757142D02*
X185228474Y-138728571D01*
X185228474Y-138728571D02*
X185571331Y-138385714D01*
X185571331Y-138385714D02*
X185571331Y-138757142D01*
X172135714Y-148551688D02*
X172164286Y-148580260D01*
X172164286Y-148580260D02*
X172250000Y-148608831D01*
X172250000Y-148608831D02*
X172307143Y-148608831D01*
X172307143Y-148608831D02*
X172392857Y-148580260D01*
X172392857Y-148580260D02*
X172450000Y-148523117D01*
X172450000Y-148523117D02*
X172478571Y-148465974D01*
X172478571Y-148465974D02*
X172507143Y-148351688D01*
X172507143Y-148351688D02*
X172507143Y-148265974D01*
X172507143Y-148265974D02*
X172478571Y-148151688D01*
X172478571Y-148151688D02*
X172450000Y-148094545D01*
X172450000Y-148094545D02*
X172392857Y-148037402D01*
X172392857Y-148037402D02*
X172307143Y-148008831D01*
X172307143Y-148008831D02*
X172250000Y-148008831D01*
X172250000Y-148008831D02*
X172164286Y-148037402D01*
X172164286Y-148037402D02*
X172135714Y-148065974D01*
X171564286Y-148608831D02*
X171907143Y-148608831D01*
X171735714Y-148608831D02*
X171735714Y-148008831D01*
X171735714Y-148008831D02*
X171792857Y-148094545D01*
X171792857Y-148094545D02*
X171850000Y-148151688D01*
X171850000Y-148151688D02*
X171907143Y-148180260D01*
X171335714Y-148065974D02*
X171307142Y-148037402D01*
X171307142Y-148037402D02*
X171250000Y-148008831D01*
X171250000Y-148008831D02*
X171107142Y-148008831D01*
X171107142Y-148008831D02*
X171050000Y-148037402D01*
X171050000Y-148037402D02*
X171021428Y-148065974D01*
X171021428Y-148065974D02*
X170992857Y-148123117D01*
X170992857Y-148123117D02*
X170992857Y-148180260D01*
X170992857Y-148180260D02*
X171021428Y-148265974D01*
X171021428Y-148265974D02*
X171364285Y-148608831D01*
X171364285Y-148608831D02*
X170992857Y-148608831D01*
X184989188Y-140589285D02*
X185017760Y-140560713D01*
X185017760Y-140560713D02*
X185046331Y-140474999D01*
X185046331Y-140474999D02*
X185046331Y-140417856D01*
X185046331Y-140417856D02*
X185017760Y-140332142D01*
X185017760Y-140332142D02*
X184960617Y-140274999D01*
X184960617Y-140274999D02*
X184903474Y-140246428D01*
X184903474Y-140246428D02*
X184789188Y-140217856D01*
X184789188Y-140217856D02*
X184703474Y-140217856D01*
X184703474Y-140217856D02*
X184589188Y-140246428D01*
X184589188Y-140246428D02*
X184532045Y-140274999D01*
X184532045Y-140274999D02*
X184474902Y-140332142D01*
X184474902Y-140332142D02*
X184446331Y-140417856D01*
X184446331Y-140417856D02*
X184446331Y-140474999D01*
X184446331Y-140474999D02*
X184474902Y-140560713D01*
X184474902Y-140560713D02*
X184503474Y-140589285D01*
X184503474Y-140817856D02*
X184474902Y-140846428D01*
X184474902Y-140846428D02*
X184446331Y-140903571D01*
X184446331Y-140903571D02*
X184446331Y-141046428D01*
X184446331Y-141046428D02*
X184474902Y-141103571D01*
X184474902Y-141103571D02*
X184503474Y-141132142D01*
X184503474Y-141132142D02*
X184560617Y-141160713D01*
X184560617Y-141160713D02*
X184617760Y-141160713D01*
X184617760Y-141160713D02*
X184703474Y-141132142D01*
X184703474Y-141132142D02*
X185046331Y-140789285D01*
X185046331Y-140789285D02*
X185046331Y-141160713D01*
X184446331Y-141360714D02*
X184446331Y-141760714D01*
X184446331Y-141760714D02*
X185046331Y-141503571D01*
D12*
X146891553Y-153483333D02*
X146191553Y-153483333D01*
X146191553Y-153483333D02*
X146191553Y-153650000D01*
X146191553Y-153650000D02*
X146224886Y-153750000D01*
X146224886Y-153750000D02*
X146291553Y-153816667D01*
X146291553Y-153816667D02*
X146358220Y-153850000D01*
X146358220Y-153850000D02*
X146491553Y-153883333D01*
X146491553Y-153883333D02*
X146591553Y-153883333D01*
X146591553Y-153883333D02*
X146724886Y-153850000D01*
X146724886Y-153850000D02*
X146791553Y-153816667D01*
X146791553Y-153816667D02*
X146858220Y-153750000D01*
X146858220Y-153750000D02*
X146891553Y-153650000D01*
X146891553Y-153650000D02*
X146891553Y-153483333D01*
X146891553Y-154550000D02*
X146891553Y-154150000D01*
X146891553Y-154350000D02*
X146191553Y-154350000D01*
X146191553Y-154350000D02*
X146291553Y-154283333D01*
X146291553Y-154283333D02*
X146358220Y-154216667D01*
X146358220Y-154216667D02*
X146391553Y-154150000D01*
D11*
X176285714Y-142671331D02*
X176485714Y-142385617D01*
X176628571Y-142671331D02*
X176628571Y-142071331D01*
X176628571Y-142071331D02*
X176400000Y-142071331D01*
X176400000Y-142071331D02*
X176342857Y-142099902D01*
X176342857Y-142099902D02*
X176314286Y-142128474D01*
X176314286Y-142128474D02*
X176285714Y-142185617D01*
X176285714Y-142185617D02*
X176285714Y-142271331D01*
X176285714Y-142271331D02*
X176314286Y-142328474D01*
X176314286Y-142328474D02*
X176342857Y-142357045D01*
X176342857Y-142357045D02*
X176400000Y-142385617D01*
X176400000Y-142385617D02*
X176628571Y-142385617D01*
X175714286Y-142671331D02*
X176057143Y-142671331D01*
X175885714Y-142671331D02*
X175885714Y-142071331D01*
X175885714Y-142071331D02*
X175942857Y-142157045D01*
X175942857Y-142157045D02*
X176000000Y-142214188D01*
X176000000Y-142214188D02*
X176057143Y-142242760D01*
X175371428Y-142328474D02*
X175428571Y-142299902D01*
X175428571Y-142299902D02*
X175457142Y-142271331D01*
X175457142Y-142271331D02*
X175485714Y-142214188D01*
X175485714Y-142214188D02*
X175485714Y-142185617D01*
X175485714Y-142185617D02*
X175457142Y-142128474D01*
X175457142Y-142128474D02*
X175428571Y-142099902D01*
X175428571Y-142099902D02*
X175371428Y-142071331D01*
X175371428Y-142071331D02*
X175257142Y-142071331D01*
X175257142Y-142071331D02*
X175200000Y-142099902D01*
X175200000Y-142099902D02*
X175171428Y-142128474D01*
X175171428Y-142128474D02*
X175142857Y-142185617D01*
X175142857Y-142185617D02*
X175142857Y-142214188D01*
X175142857Y-142214188D02*
X175171428Y-142271331D01*
X175171428Y-142271331D02*
X175200000Y-142299902D01*
X175200000Y-142299902D02*
X175257142Y-142328474D01*
X175257142Y-142328474D02*
X175371428Y-142328474D01*
X175371428Y-142328474D02*
X175428571Y-142357045D01*
X175428571Y-142357045D02*
X175457142Y-142385617D01*
X175457142Y-142385617D02*
X175485714Y-142442760D01*
X175485714Y-142442760D02*
X175485714Y-142557045D01*
X175485714Y-142557045D02*
X175457142Y-142614188D01*
X175457142Y-142614188D02*
X175428571Y-142642760D01*
X175428571Y-142642760D02*
X175371428Y-142671331D01*
X175371428Y-142671331D02*
X175257142Y-142671331D01*
X175257142Y-142671331D02*
X175200000Y-142642760D01*
X175200000Y-142642760D02*
X175171428Y-142614188D01*
X175171428Y-142614188D02*
X175142857Y-142557045D01*
X175142857Y-142557045D02*
X175142857Y-142442760D01*
X175142857Y-142442760D02*
X175171428Y-142385617D01*
X175171428Y-142385617D02*
X175200000Y-142357045D01*
X175200000Y-142357045D02*
X175257142Y-142328474D01*
D13*
X174975788Y-153233918D02*
X175213883Y-153233918D01*
X175213883Y-153233918D02*
X175213883Y-152733918D01*
X174547216Y-153233918D02*
X174832930Y-153233918D01*
X174690073Y-153233918D02*
X174690073Y-152733918D01*
X174690073Y-152733918D02*
X174737692Y-152805347D01*
X174737692Y-152805347D02*
X174785311Y-152852966D01*
X174785311Y-152852966D02*
X174832930Y-152876775D01*
D11*
X177513806Y-147559557D02*
X177713806Y-147273843D01*
X177856663Y-147559557D02*
X177856663Y-146959557D01*
X177856663Y-146959557D02*
X177628092Y-146959557D01*
X177628092Y-146959557D02*
X177570949Y-146988128D01*
X177570949Y-146988128D02*
X177542378Y-147016700D01*
X177542378Y-147016700D02*
X177513806Y-147073843D01*
X177513806Y-147073843D02*
X177513806Y-147159557D01*
X177513806Y-147159557D02*
X177542378Y-147216700D01*
X177542378Y-147216700D02*
X177570949Y-147245271D01*
X177570949Y-147245271D02*
X177628092Y-147273843D01*
X177628092Y-147273843D02*
X177856663Y-147273843D01*
X176942378Y-147559557D02*
X177285235Y-147559557D01*
X177113806Y-147559557D02*
X177113806Y-146959557D01*
X177113806Y-146959557D02*
X177170949Y-147045271D01*
X177170949Y-147045271D02*
X177228092Y-147102414D01*
X177228092Y-147102414D02*
X177285235Y-147130986D01*
X176428092Y-147159557D02*
X176428092Y-147559557D01*
X176570949Y-146930986D02*
X176713806Y-147359557D01*
X176713806Y-147359557D02*
X176342377Y-147359557D01*
D12*
X199358333Y-146311553D02*
X199358333Y-146878220D01*
X199358333Y-146878220D02*
X199325000Y-146944886D01*
X199325000Y-146944886D02*
X199291666Y-146978220D01*
X199291666Y-146978220D02*
X199225000Y-147011553D01*
X199225000Y-147011553D02*
X199091666Y-147011553D01*
X199091666Y-147011553D02*
X199025000Y-146978220D01*
X199025000Y-146978220D02*
X198991666Y-146944886D01*
X198991666Y-146944886D02*
X198958333Y-146878220D01*
X198958333Y-146878220D02*
X198958333Y-146311553D01*
X198325000Y-146311553D02*
X198458333Y-146311553D01*
X198458333Y-146311553D02*
X198525000Y-146344886D01*
X198525000Y-146344886D02*
X198558333Y-146378220D01*
X198558333Y-146378220D02*
X198625000Y-146478220D01*
X198625000Y-146478220D02*
X198658333Y-146611553D01*
X198658333Y-146611553D02*
X198658333Y-146878220D01*
X198658333Y-146878220D02*
X198625000Y-146944886D01*
X198625000Y-146944886D02*
X198591667Y-146978220D01*
X198591667Y-146978220D02*
X198525000Y-147011553D01*
X198525000Y-147011553D02*
X198391667Y-147011553D01*
X198391667Y-147011553D02*
X198325000Y-146978220D01*
X198325000Y-146978220D02*
X198291667Y-146944886D01*
X198291667Y-146944886D02*
X198258333Y-146878220D01*
X198258333Y-146878220D02*
X198258333Y-146711553D01*
X198258333Y-146711553D02*
X198291667Y-146644886D01*
X198291667Y-146644886D02*
X198325000Y-146611553D01*
X198325000Y-146611553D02*
X198391667Y-146578220D01*
X198391667Y-146578220D02*
X198525000Y-146578220D01*
X198525000Y-146578220D02*
X198591667Y-146611553D01*
X198591667Y-146611553D02*
X198625000Y-146644886D01*
X198625000Y-146644886D02*
X198658333Y-146711553D01*
D11*
X187221331Y-133439285D02*
X186935617Y-133239285D01*
X187221331Y-133096428D02*
X186621331Y-133096428D01*
X186621331Y-133096428D02*
X186621331Y-133324999D01*
X186621331Y-133324999D02*
X186649902Y-133382142D01*
X186649902Y-133382142D02*
X186678474Y-133410713D01*
X186678474Y-133410713D02*
X186735617Y-133439285D01*
X186735617Y-133439285D02*
X186821331Y-133439285D01*
X186821331Y-133439285D02*
X186878474Y-133410713D01*
X186878474Y-133410713D02*
X186907045Y-133382142D01*
X186907045Y-133382142D02*
X186935617Y-133324999D01*
X186935617Y-133324999D02*
X186935617Y-133096428D01*
X186678474Y-133667856D02*
X186649902Y-133696428D01*
X186649902Y-133696428D02*
X186621331Y-133753571D01*
X186621331Y-133753571D02*
X186621331Y-133896428D01*
X186621331Y-133896428D02*
X186649902Y-133953571D01*
X186649902Y-133953571D02*
X186678474Y-133982142D01*
X186678474Y-133982142D02*
X186735617Y-134010713D01*
X186735617Y-134010713D02*
X186792760Y-134010713D01*
X186792760Y-134010713D02*
X186878474Y-133982142D01*
X186878474Y-133982142D02*
X187221331Y-133639285D01*
X187221331Y-133639285D02*
X187221331Y-134010713D01*
X186621331Y-134553571D02*
X186621331Y-134267857D01*
X186621331Y-134267857D02*
X186907045Y-134239285D01*
X186907045Y-134239285D02*
X186878474Y-134267857D01*
X186878474Y-134267857D02*
X186849902Y-134325000D01*
X186849902Y-134325000D02*
X186849902Y-134467857D01*
X186849902Y-134467857D02*
X186878474Y-134525000D01*
X186878474Y-134525000D02*
X186907045Y-134553571D01*
X186907045Y-134553571D02*
X186964188Y-134582142D01*
X186964188Y-134582142D02*
X187107045Y-134582142D01*
X187107045Y-134582142D02*
X187164188Y-134553571D01*
X187164188Y-134553571D02*
X187192760Y-134525000D01*
X187192760Y-134525000D02*
X187221331Y-134467857D01*
X187221331Y-134467857D02*
X187221331Y-134325000D01*
X187221331Y-134325000D02*
X187192760Y-134267857D01*
X187192760Y-134267857D02*
X187164188Y-134239285D01*
X165685714Y-134114188D02*
X165714286Y-134142760D01*
X165714286Y-134142760D02*
X165800000Y-134171331D01*
X165800000Y-134171331D02*
X165857143Y-134171331D01*
X165857143Y-134171331D02*
X165942857Y-134142760D01*
X165942857Y-134142760D02*
X166000000Y-134085617D01*
X166000000Y-134085617D02*
X166028571Y-134028474D01*
X166028571Y-134028474D02*
X166057143Y-133914188D01*
X166057143Y-133914188D02*
X166057143Y-133828474D01*
X166057143Y-133828474D02*
X166028571Y-133714188D01*
X166028571Y-133714188D02*
X166000000Y-133657045D01*
X166000000Y-133657045D02*
X165942857Y-133599902D01*
X165942857Y-133599902D02*
X165857143Y-133571331D01*
X165857143Y-133571331D02*
X165800000Y-133571331D01*
X165800000Y-133571331D02*
X165714286Y-133599902D01*
X165714286Y-133599902D02*
X165685714Y-133628474D01*
X165114286Y-134171331D02*
X165457143Y-134171331D01*
X165285714Y-134171331D02*
X165285714Y-133571331D01*
X165285714Y-133571331D02*
X165342857Y-133657045D01*
X165342857Y-133657045D02*
X165400000Y-133714188D01*
X165400000Y-133714188D02*
X165457143Y-133742760D01*
X164914285Y-133571331D02*
X164514285Y-133571331D01*
X164514285Y-133571331D02*
X164771428Y-134171331D01*
X189346331Y-139989285D02*
X189060617Y-139789285D01*
X189346331Y-139646428D02*
X188746331Y-139646428D01*
X188746331Y-139646428D02*
X188746331Y-139874999D01*
X188746331Y-139874999D02*
X188774902Y-139932142D01*
X188774902Y-139932142D02*
X188803474Y-139960713D01*
X188803474Y-139960713D02*
X188860617Y-139989285D01*
X188860617Y-139989285D02*
X188946331Y-139989285D01*
X188946331Y-139989285D02*
X189003474Y-139960713D01*
X189003474Y-139960713D02*
X189032045Y-139932142D01*
X189032045Y-139932142D02*
X189060617Y-139874999D01*
X189060617Y-139874999D02*
X189060617Y-139646428D01*
X188803474Y-140217856D02*
X188774902Y-140246428D01*
X188774902Y-140246428D02*
X188746331Y-140303571D01*
X188746331Y-140303571D02*
X188746331Y-140446428D01*
X188746331Y-140446428D02*
X188774902Y-140503571D01*
X188774902Y-140503571D02*
X188803474Y-140532142D01*
X188803474Y-140532142D02*
X188860617Y-140560713D01*
X188860617Y-140560713D02*
X188917760Y-140560713D01*
X188917760Y-140560713D02*
X189003474Y-140532142D01*
X189003474Y-140532142D02*
X189346331Y-140189285D01*
X189346331Y-140189285D02*
X189346331Y-140560713D01*
X188746331Y-140760714D02*
X188746331Y-141160714D01*
X188746331Y-141160714D02*
X189346331Y-140903571D01*
D12*
X194158333Y-136756553D02*
X194158333Y-137323220D01*
X194158333Y-137323220D02*
X194125000Y-137389886D01*
X194125000Y-137389886D02*
X194091666Y-137423220D01*
X194091666Y-137423220D02*
X194025000Y-137456553D01*
X194025000Y-137456553D02*
X193891666Y-137456553D01*
X193891666Y-137456553D02*
X193825000Y-137423220D01*
X193825000Y-137423220D02*
X193791666Y-137389886D01*
X193791666Y-137389886D02*
X193758333Y-137323220D01*
X193758333Y-137323220D02*
X193758333Y-136756553D01*
X193491667Y-136756553D02*
X193025000Y-136756553D01*
X193025000Y-136756553D02*
X193325000Y-137456553D01*
D11*
X171760714Y-135858831D02*
X171960714Y-135573117D01*
X172103571Y-135858831D02*
X172103571Y-135258831D01*
X172103571Y-135258831D02*
X171875000Y-135258831D01*
X171875000Y-135258831D02*
X171817857Y-135287402D01*
X171817857Y-135287402D02*
X171789286Y-135315974D01*
X171789286Y-135315974D02*
X171760714Y-135373117D01*
X171760714Y-135373117D02*
X171760714Y-135458831D01*
X171760714Y-135458831D02*
X171789286Y-135515974D01*
X171789286Y-135515974D02*
X171817857Y-135544545D01*
X171817857Y-135544545D02*
X171875000Y-135573117D01*
X171875000Y-135573117D02*
X172103571Y-135573117D01*
X171189286Y-135858831D02*
X171532143Y-135858831D01*
X171360714Y-135858831D02*
X171360714Y-135258831D01*
X171360714Y-135258831D02*
X171417857Y-135344545D01*
X171417857Y-135344545D02*
X171475000Y-135401688D01*
X171475000Y-135401688D02*
X171532143Y-135430260D01*
X170646428Y-135258831D02*
X170932142Y-135258831D01*
X170932142Y-135258831D02*
X170960714Y-135544545D01*
X170960714Y-135544545D02*
X170932142Y-135515974D01*
X170932142Y-135515974D02*
X170875000Y-135487402D01*
X170875000Y-135487402D02*
X170732142Y-135487402D01*
X170732142Y-135487402D02*
X170675000Y-135515974D01*
X170675000Y-135515974D02*
X170646428Y-135544545D01*
X170646428Y-135544545D02*
X170617857Y-135601688D01*
X170617857Y-135601688D02*
X170617857Y-135744545D01*
X170617857Y-135744545D02*
X170646428Y-135801688D01*
X170646428Y-135801688D02*
X170675000Y-135830260D01*
X170675000Y-135830260D02*
X170732142Y-135858831D01*
X170732142Y-135858831D02*
X170875000Y-135858831D01*
X170875000Y-135858831D02*
X170932142Y-135830260D01*
X170932142Y-135830260D02*
X170960714Y-135801688D01*
X183571331Y-134600000D02*
X183285617Y-134400000D01*
X183571331Y-134257143D02*
X182971331Y-134257143D01*
X182971331Y-134257143D02*
X182971331Y-134485714D01*
X182971331Y-134485714D02*
X182999902Y-134542857D01*
X182999902Y-134542857D02*
X183028474Y-134571428D01*
X183028474Y-134571428D02*
X183085617Y-134600000D01*
X183085617Y-134600000D02*
X183171331Y-134600000D01*
X183171331Y-134600000D02*
X183228474Y-134571428D01*
X183228474Y-134571428D02*
X183257045Y-134542857D01*
X183257045Y-134542857D02*
X183285617Y-134485714D01*
X183285617Y-134485714D02*
X183285617Y-134257143D01*
X183171331Y-135114286D02*
X183571331Y-135114286D01*
X182942760Y-134971428D02*
X183371331Y-134828571D01*
X183371331Y-134828571D02*
X183371331Y-135200000D01*
X141574999Y-143589188D02*
X141603571Y-143617760D01*
X141603571Y-143617760D02*
X141689285Y-143646331D01*
X141689285Y-143646331D02*
X141746428Y-143646331D01*
X141746428Y-143646331D02*
X141832142Y-143617760D01*
X141832142Y-143617760D02*
X141889285Y-143560617D01*
X141889285Y-143560617D02*
X141917856Y-143503474D01*
X141917856Y-143503474D02*
X141946428Y-143389188D01*
X141946428Y-143389188D02*
X141946428Y-143303474D01*
X141946428Y-143303474D02*
X141917856Y-143189188D01*
X141917856Y-143189188D02*
X141889285Y-143132045D01*
X141889285Y-143132045D02*
X141832142Y-143074902D01*
X141832142Y-143074902D02*
X141746428Y-143046331D01*
X141746428Y-143046331D02*
X141689285Y-143046331D01*
X141689285Y-143046331D02*
X141603571Y-143074902D01*
X141603571Y-143074902D02*
X141574999Y-143103474D01*
X141346428Y-143103474D02*
X141317856Y-143074902D01*
X141317856Y-143074902D02*
X141260714Y-143046331D01*
X141260714Y-143046331D02*
X141117856Y-143046331D01*
X141117856Y-143046331D02*
X141060714Y-143074902D01*
X141060714Y-143074902D02*
X141032142Y-143103474D01*
X141032142Y-143103474D02*
X141003571Y-143160617D01*
X141003571Y-143160617D02*
X141003571Y-143217760D01*
X141003571Y-143217760D02*
X141032142Y-143303474D01*
X141032142Y-143303474D02*
X141374999Y-143646331D01*
X141374999Y-143646331D02*
X141003571Y-143646331D01*
X176492454Y-153259497D02*
X176521026Y-153288069D01*
X176521026Y-153288069D02*
X176606740Y-153316640D01*
X176606740Y-153316640D02*
X176663883Y-153316640D01*
X176663883Y-153316640D02*
X176749597Y-153288069D01*
X176749597Y-153288069D02*
X176806740Y-153230926D01*
X176806740Y-153230926D02*
X176835311Y-153173783D01*
X176835311Y-153173783D02*
X176863883Y-153059497D01*
X176863883Y-153059497D02*
X176863883Y-152973783D01*
X176863883Y-152973783D02*
X176835311Y-152859497D01*
X176835311Y-152859497D02*
X176806740Y-152802354D01*
X176806740Y-152802354D02*
X176749597Y-152745211D01*
X176749597Y-152745211D02*
X176663883Y-152716640D01*
X176663883Y-152716640D02*
X176606740Y-152716640D01*
X176606740Y-152716640D02*
X176521026Y-152745211D01*
X176521026Y-152745211D02*
X176492454Y-152773783D01*
X175949597Y-152716640D02*
X176235311Y-152716640D01*
X176235311Y-152716640D02*
X176263883Y-153002354D01*
X176263883Y-153002354D02*
X176235311Y-152973783D01*
X176235311Y-152973783D02*
X176178169Y-152945211D01*
X176178169Y-152945211D02*
X176035311Y-152945211D01*
X176035311Y-152945211D02*
X175978169Y-152973783D01*
X175978169Y-152973783D02*
X175949597Y-153002354D01*
X175949597Y-153002354D02*
X175921026Y-153059497D01*
X175921026Y-153059497D02*
X175921026Y-153202354D01*
X175921026Y-153202354D02*
X175949597Y-153259497D01*
X175949597Y-153259497D02*
X175978169Y-153288069D01*
X175978169Y-153288069D02*
X176035311Y-153316640D01*
X176035311Y-153316640D02*
X176178169Y-153316640D01*
X176178169Y-153316640D02*
X176235311Y-153288069D01*
X176235311Y-153288069D02*
X176263883Y-153259497D01*
X191585714Y-134246331D02*
X191785714Y-133960617D01*
X191928571Y-134246331D02*
X191928571Y-133646331D01*
X191928571Y-133646331D02*
X191700000Y-133646331D01*
X191700000Y-133646331D02*
X191642857Y-133674902D01*
X191642857Y-133674902D02*
X191614286Y-133703474D01*
X191614286Y-133703474D02*
X191585714Y-133760617D01*
X191585714Y-133760617D02*
X191585714Y-133846331D01*
X191585714Y-133846331D02*
X191614286Y-133903474D01*
X191614286Y-133903474D02*
X191642857Y-133932045D01*
X191642857Y-133932045D02*
X191700000Y-133960617D01*
X191700000Y-133960617D02*
X191928571Y-133960617D01*
X191357143Y-133703474D02*
X191328571Y-133674902D01*
X191328571Y-133674902D02*
X191271429Y-133646331D01*
X191271429Y-133646331D02*
X191128571Y-133646331D01*
X191128571Y-133646331D02*
X191071429Y-133674902D01*
X191071429Y-133674902D02*
X191042857Y-133703474D01*
X191042857Y-133703474D02*
X191014286Y-133760617D01*
X191014286Y-133760617D02*
X191014286Y-133817760D01*
X191014286Y-133817760D02*
X191042857Y-133903474D01*
X191042857Y-133903474D02*
X191385714Y-134246331D01*
X191385714Y-134246331D02*
X191014286Y-134246331D01*
X190500000Y-133846331D02*
X190500000Y-134246331D01*
X190642857Y-133617760D02*
X190785714Y-134046331D01*
X190785714Y-134046331D02*
X190414285Y-134046331D01*
X187496331Y-148114285D02*
X187210617Y-147914285D01*
X187496331Y-147771428D02*
X186896331Y-147771428D01*
X186896331Y-147771428D02*
X186896331Y-147999999D01*
X186896331Y-147999999D02*
X186924902Y-148057142D01*
X186924902Y-148057142D02*
X186953474Y-148085713D01*
X186953474Y-148085713D02*
X187010617Y-148114285D01*
X187010617Y-148114285D02*
X187096331Y-148114285D01*
X187096331Y-148114285D02*
X187153474Y-148085713D01*
X187153474Y-148085713D02*
X187182045Y-148057142D01*
X187182045Y-148057142D02*
X187210617Y-147999999D01*
X187210617Y-147999999D02*
X187210617Y-147771428D01*
X187496331Y-148685713D02*
X187496331Y-148342856D01*
X187496331Y-148514285D02*
X186896331Y-148514285D01*
X186896331Y-148514285D02*
X186982045Y-148457142D01*
X186982045Y-148457142D02*
X187039188Y-148399999D01*
X187039188Y-148399999D02*
X187067760Y-148342856D01*
X187496331Y-148971428D02*
X187496331Y-149085714D01*
X187496331Y-149085714D02*
X187467760Y-149142857D01*
X187467760Y-149142857D02*
X187439188Y-149171428D01*
X187439188Y-149171428D02*
X187353474Y-149228571D01*
X187353474Y-149228571D02*
X187239188Y-149257142D01*
X187239188Y-149257142D02*
X187010617Y-149257142D01*
X187010617Y-149257142D02*
X186953474Y-149228571D01*
X186953474Y-149228571D02*
X186924902Y-149200000D01*
X186924902Y-149200000D02*
X186896331Y-149142857D01*
X186896331Y-149142857D02*
X186896331Y-149028571D01*
X186896331Y-149028571D02*
X186924902Y-148971428D01*
X186924902Y-148971428D02*
X186953474Y-148942857D01*
X186953474Y-148942857D02*
X187010617Y-148914285D01*
X187010617Y-148914285D02*
X187153474Y-148914285D01*
X187153474Y-148914285D02*
X187210617Y-148942857D01*
X187210617Y-148942857D02*
X187239188Y-148971428D01*
X187239188Y-148971428D02*
X187267760Y-149028571D01*
X187267760Y-149028571D02*
X187267760Y-149142857D01*
X187267760Y-149142857D02*
X187239188Y-149200000D01*
X187239188Y-149200000D02*
X187210617Y-149228571D01*
X187210617Y-149228571D02*
X187153474Y-149257142D01*
X197214188Y-140714285D02*
X197242760Y-140685713D01*
X197242760Y-140685713D02*
X197271331Y-140599999D01*
X197271331Y-140599999D02*
X197271331Y-140542856D01*
X197271331Y-140542856D02*
X197242760Y-140457142D01*
X197242760Y-140457142D02*
X197185617Y-140399999D01*
X197185617Y-140399999D02*
X197128474Y-140371428D01*
X197128474Y-140371428D02*
X197014188Y-140342856D01*
X197014188Y-140342856D02*
X196928474Y-140342856D01*
X196928474Y-140342856D02*
X196814188Y-140371428D01*
X196814188Y-140371428D02*
X196757045Y-140399999D01*
X196757045Y-140399999D02*
X196699902Y-140457142D01*
X196699902Y-140457142D02*
X196671331Y-140542856D01*
X196671331Y-140542856D02*
X196671331Y-140599999D01*
X196671331Y-140599999D02*
X196699902Y-140685713D01*
X196699902Y-140685713D02*
X196728474Y-140714285D01*
X196671331Y-140914285D02*
X196671331Y-141285713D01*
X196671331Y-141285713D02*
X196899902Y-141085713D01*
X196899902Y-141085713D02*
X196899902Y-141171428D01*
X196899902Y-141171428D02*
X196928474Y-141228571D01*
X196928474Y-141228571D02*
X196957045Y-141257142D01*
X196957045Y-141257142D02*
X197014188Y-141285713D01*
X197014188Y-141285713D02*
X197157045Y-141285713D01*
X197157045Y-141285713D02*
X197214188Y-141257142D01*
X197214188Y-141257142D02*
X197242760Y-141228571D01*
X197242760Y-141228571D02*
X197271331Y-141171428D01*
X197271331Y-141171428D02*
X197271331Y-140999999D01*
X197271331Y-140999999D02*
X197242760Y-140942856D01*
X197242760Y-140942856D02*
X197214188Y-140914285D01*
X196728474Y-141514285D02*
X196699902Y-141542857D01*
X196699902Y-141542857D02*
X196671331Y-141600000D01*
X196671331Y-141600000D02*
X196671331Y-141742857D01*
X196671331Y-141742857D02*
X196699902Y-141800000D01*
X196699902Y-141800000D02*
X196728474Y-141828571D01*
X196728474Y-141828571D02*
X196785617Y-141857142D01*
X196785617Y-141857142D02*
X196842760Y-141857142D01*
X196842760Y-141857142D02*
X196928474Y-141828571D01*
X196928474Y-141828571D02*
X197271331Y-141485714D01*
X197271331Y-141485714D02*
X197271331Y-141857142D01*
X150964188Y-151514285D02*
X150992760Y-151485713D01*
X150992760Y-151485713D02*
X151021331Y-151399999D01*
X151021331Y-151399999D02*
X151021331Y-151342856D01*
X151021331Y-151342856D02*
X150992760Y-151257142D01*
X150992760Y-151257142D02*
X150935617Y-151199999D01*
X150935617Y-151199999D02*
X150878474Y-151171428D01*
X150878474Y-151171428D02*
X150764188Y-151142856D01*
X150764188Y-151142856D02*
X150678474Y-151142856D01*
X150678474Y-151142856D02*
X150564188Y-151171428D01*
X150564188Y-151171428D02*
X150507045Y-151199999D01*
X150507045Y-151199999D02*
X150449902Y-151257142D01*
X150449902Y-151257142D02*
X150421331Y-151342856D01*
X150421331Y-151342856D02*
X150421331Y-151399999D01*
X150421331Y-151399999D02*
X150449902Y-151485713D01*
X150449902Y-151485713D02*
X150478474Y-151514285D01*
X151021331Y-152085713D02*
X151021331Y-151742856D01*
X151021331Y-151914285D02*
X150421331Y-151914285D01*
X150421331Y-151914285D02*
X150507045Y-151857142D01*
X150507045Y-151857142D02*
X150564188Y-151799999D01*
X150564188Y-151799999D02*
X150592760Y-151742856D01*
X150421331Y-152628571D02*
X150421331Y-152342857D01*
X150421331Y-152342857D02*
X150707045Y-152314285D01*
X150707045Y-152314285D02*
X150678474Y-152342857D01*
X150678474Y-152342857D02*
X150649902Y-152400000D01*
X150649902Y-152400000D02*
X150649902Y-152542857D01*
X150649902Y-152542857D02*
X150678474Y-152600000D01*
X150678474Y-152600000D02*
X150707045Y-152628571D01*
X150707045Y-152628571D02*
X150764188Y-152657142D01*
X150764188Y-152657142D02*
X150907045Y-152657142D01*
X150907045Y-152657142D02*
X150964188Y-152628571D01*
X150964188Y-152628571D02*
X150992760Y-152600000D01*
X150992760Y-152600000D02*
X151021331Y-152542857D01*
X151021331Y-152542857D02*
X151021331Y-152400000D01*
X151021331Y-152400000D02*
X150992760Y-152342857D01*
X150992760Y-152342857D02*
X150964188Y-152314285D01*
X182960410Y-144702492D02*
X183160410Y-144416778D01*
X183303267Y-144702492D02*
X183303267Y-144102492D01*
X183303267Y-144102492D02*
X183074696Y-144102492D01*
X183074696Y-144102492D02*
X183017553Y-144131063D01*
X183017553Y-144131063D02*
X182988982Y-144159635D01*
X182988982Y-144159635D02*
X182960410Y-144216778D01*
X182960410Y-144216778D02*
X182960410Y-144302492D01*
X182960410Y-144302492D02*
X182988982Y-144359635D01*
X182988982Y-144359635D02*
X183017553Y-144388206D01*
X183017553Y-144388206D02*
X183074696Y-144416778D01*
X183074696Y-144416778D02*
X183303267Y-144416778D01*
X182731839Y-144159635D02*
X182703267Y-144131063D01*
X182703267Y-144131063D02*
X182646125Y-144102492D01*
X182646125Y-144102492D02*
X182503267Y-144102492D01*
X182503267Y-144102492D02*
X182446125Y-144131063D01*
X182446125Y-144131063D02*
X182417553Y-144159635D01*
X182417553Y-144159635D02*
X182388982Y-144216778D01*
X182388982Y-144216778D02*
X182388982Y-144273921D01*
X182388982Y-144273921D02*
X182417553Y-144359635D01*
X182417553Y-144359635D02*
X182760410Y-144702492D01*
X182760410Y-144702492D02*
X182388982Y-144702492D01*
X182046124Y-144359635D02*
X182103267Y-144331063D01*
X182103267Y-144331063D02*
X182131838Y-144302492D01*
X182131838Y-144302492D02*
X182160410Y-144245349D01*
X182160410Y-144245349D02*
X182160410Y-144216778D01*
X182160410Y-144216778D02*
X182131838Y-144159635D01*
X182131838Y-144159635D02*
X182103267Y-144131063D01*
X182103267Y-144131063D02*
X182046124Y-144102492D01*
X182046124Y-144102492D02*
X181931838Y-144102492D01*
X181931838Y-144102492D02*
X181874696Y-144131063D01*
X181874696Y-144131063D02*
X181846124Y-144159635D01*
X181846124Y-144159635D02*
X181817553Y-144216778D01*
X181817553Y-144216778D02*
X181817553Y-144245349D01*
X181817553Y-144245349D02*
X181846124Y-144302492D01*
X181846124Y-144302492D02*
X181874696Y-144331063D01*
X181874696Y-144331063D02*
X181931838Y-144359635D01*
X181931838Y-144359635D02*
X182046124Y-144359635D01*
X182046124Y-144359635D02*
X182103267Y-144388206D01*
X182103267Y-144388206D02*
X182131838Y-144416778D01*
X182131838Y-144416778D02*
X182160410Y-144473921D01*
X182160410Y-144473921D02*
X182160410Y-144588206D01*
X182160410Y-144588206D02*
X182131838Y-144645349D01*
X182131838Y-144645349D02*
X182103267Y-144673921D01*
X182103267Y-144673921D02*
X182046124Y-144702492D01*
X182046124Y-144702492D02*
X181931838Y-144702492D01*
X181931838Y-144702492D02*
X181874696Y-144673921D01*
X181874696Y-144673921D02*
X181846124Y-144645349D01*
X181846124Y-144645349D02*
X181817553Y-144588206D01*
X181817553Y-144588206D02*
X181817553Y-144473921D01*
X181817553Y-144473921D02*
X181846124Y-144416778D01*
X181846124Y-144416778D02*
X181874696Y-144388206D01*
X181874696Y-144388206D02*
X181931838Y-144359635D01*
X170060714Y-134526688D02*
X170089286Y-134555260D01*
X170089286Y-134555260D02*
X170175000Y-134583831D01*
X170175000Y-134583831D02*
X170232143Y-134583831D01*
X170232143Y-134583831D02*
X170317857Y-134555260D01*
X170317857Y-134555260D02*
X170375000Y-134498117D01*
X170375000Y-134498117D02*
X170403571Y-134440974D01*
X170403571Y-134440974D02*
X170432143Y-134326688D01*
X170432143Y-134326688D02*
X170432143Y-134240974D01*
X170432143Y-134240974D02*
X170403571Y-134126688D01*
X170403571Y-134126688D02*
X170375000Y-134069545D01*
X170375000Y-134069545D02*
X170317857Y-134012402D01*
X170317857Y-134012402D02*
X170232143Y-133983831D01*
X170232143Y-133983831D02*
X170175000Y-133983831D01*
X170175000Y-133983831D02*
X170089286Y-134012402D01*
X170089286Y-134012402D02*
X170060714Y-134040974D01*
X169489286Y-134583831D02*
X169832143Y-134583831D01*
X169660714Y-134583831D02*
X169660714Y-133983831D01*
X169660714Y-133983831D02*
X169717857Y-134069545D01*
X169717857Y-134069545D02*
X169775000Y-134126688D01*
X169775000Y-134126688D02*
X169832143Y-134155260D01*
X168975000Y-133983831D02*
X169089285Y-133983831D01*
X169089285Y-133983831D02*
X169146428Y-134012402D01*
X169146428Y-134012402D02*
X169175000Y-134040974D01*
X169175000Y-134040974D02*
X169232142Y-134126688D01*
X169232142Y-134126688D02*
X169260714Y-134240974D01*
X169260714Y-134240974D02*
X169260714Y-134469545D01*
X169260714Y-134469545D02*
X169232142Y-134526688D01*
X169232142Y-134526688D02*
X169203571Y-134555260D01*
X169203571Y-134555260D02*
X169146428Y-134583831D01*
X169146428Y-134583831D02*
X169032142Y-134583831D01*
X169032142Y-134583831D02*
X168975000Y-134555260D01*
X168975000Y-134555260D02*
X168946428Y-134526688D01*
X168946428Y-134526688D02*
X168917857Y-134469545D01*
X168917857Y-134469545D02*
X168917857Y-134326688D01*
X168917857Y-134326688D02*
X168946428Y-134269545D01*
X168946428Y-134269545D02*
X168975000Y-134240974D01*
X168975000Y-134240974D02*
X169032142Y-134212402D01*
X169032142Y-134212402D02*
X169146428Y-134212402D01*
X169146428Y-134212402D02*
X169203571Y-134240974D01*
X169203571Y-134240974D02*
X169232142Y-134269545D01*
X169232142Y-134269545D02*
X169260714Y-134326688D01*
X199885714Y-143046331D02*
X200085714Y-142760617D01*
X200228571Y-143046331D02*
X200228571Y-142446331D01*
X200228571Y-142446331D02*
X200000000Y-142446331D01*
X200000000Y-142446331D02*
X199942857Y-142474902D01*
X199942857Y-142474902D02*
X199914286Y-142503474D01*
X199914286Y-142503474D02*
X199885714Y-142560617D01*
X199885714Y-142560617D02*
X199885714Y-142646331D01*
X199885714Y-142646331D02*
X199914286Y-142703474D01*
X199914286Y-142703474D02*
X199942857Y-142732045D01*
X199942857Y-142732045D02*
X200000000Y-142760617D01*
X200000000Y-142760617D02*
X200228571Y-142760617D01*
X199685714Y-142446331D02*
X199314286Y-142446331D01*
X199314286Y-142446331D02*
X199514286Y-142674902D01*
X199514286Y-142674902D02*
X199428571Y-142674902D01*
X199428571Y-142674902D02*
X199371429Y-142703474D01*
X199371429Y-142703474D02*
X199342857Y-142732045D01*
X199342857Y-142732045D02*
X199314286Y-142789188D01*
X199314286Y-142789188D02*
X199314286Y-142932045D01*
X199314286Y-142932045D02*
X199342857Y-142989188D01*
X199342857Y-142989188D02*
X199371429Y-143017760D01*
X199371429Y-143017760D02*
X199428571Y-143046331D01*
X199428571Y-143046331D02*
X199600000Y-143046331D01*
X199600000Y-143046331D02*
X199657143Y-143017760D01*
X199657143Y-143017760D02*
X199685714Y-142989188D01*
X198742857Y-143046331D02*
X199085714Y-143046331D01*
X198914285Y-143046331D02*
X198914285Y-142446331D01*
X198914285Y-142446331D02*
X198971428Y-142532045D01*
X198971428Y-142532045D02*
X199028571Y-142589188D01*
X199028571Y-142589188D02*
X199085714Y-142617760D01*
D12*
X178158333Y-137054053D02*
X178158333Y-137620720D01*
X178158333Y-137620720D02*
X178125000Y-137687386D01*
X178125000Y-137687386D02*
X178091666Y-137720720D01*
X178091666Y-137720720D02*
X178025000Y-137754053D01*
X178025000Y-137754053D02*
X177891666Y-137754053D01*
X177891666Y-137754053D02*
X177825000Y-137720720D01*
X177825000Y-137720720D02*
X177791666Y-137687386D01*
X177791666Y-137687386D02*
X177758333Y-137620720D01*
X177758333Y-137620720D02*
X177758333Y-137054053D01*
X177491667Y-137054053D02*
X177058333Y-137054053D01*
X177058333Y-137054053D02*
X177291667Y-137320720D01*
X177291667Y-137320720D02*
X177191667Y-137320720D01*
X177191667Y-137320720D02*
X177125000Y-137354053D01*
X177125000Y-137354053D02*
X177091667Y-137387386D01*
X177091667Y-137387386D02*
X177058333Y-137454053D01*
X177058333Y-137454053D02*
X177058333Y-137620720D01*
X177058333Y-137620720D02*
X177091667Y-137687386D01*
X177091667Y-137687386D02*
X177125000Y-137720720D01*
X177125000Y-137720720D02*
X177191667Y-137754053D01*
X177191667Y-137754053D02*
X177391667Y-137754053D01*
X177391667Y-137754053D02*
X177458333Y-137720720D01*
X177458333Y-137720720D02*
X177491667Y-137687386D01*
D11*
X201585714Y-142764188D02*
X201614286Y-142792760D01*
X201614286Y-142792760D02*
X201700000Y-142821331D01*
X201700000Y-142821331D02*
X201757143Y-142821331D01*
X201757143Y-142821331D02*
X201842857Y-142792760D01*
X201842857Y-142792760D02*
X201900000Y-142735617D01*
X201900000Y-142735617D02*
X201928571Y-142678474D01*
X201928571Y-142678474D02*
X201957143Y-142564188D01*
X201957143Y-142564188D02*
X201957143Y-142478474D01*
X201957143Y-142478474D02*
X201928571Y-142364188D01*
X201928571Y-142364188D02*
X201900000Y-142307045D01*
X201900000Y-142307045D02*
X201842857Y-142249902D01*
X201842857Y-142249902D02*
X201757143Y-142221331D01*
X201757143Y-142221331D02*
X201700000Y-142221331D01*
X201700000Y-142221331D02*
X201614286Y-142249902D01*
X201614286Y-142249902D02*
X201585714Y-142278474D01*
X201385714Y-142221331D02*
X201014286Y-142221331D01*
X201014286Y-142221331D02*
X201214286Y-142449902D01*
X201214286Y-142449902D02*
X201128571Y-142449902D01*
X201128571Y-142449902D02*
X201071429Y-142478474D01*
X201071429Y-142478474D02*
X201042857Y-142507045D01*
X201042857Y-142507045D02*
X201014286Y-142564188D01*
X201014286Y-142564188D02*
X201014286Y-142707045D01*
X201014286Y-142707045D02*
X201042857Y-142764188D01*
X201042857Y-142764188D02*
X201071429Y-142792760D01*
X201071429Y-142792760D02*
X201128571Y-142821331D01*
X201128571Y-142821331D02*
X201300000Y-142821331D01*
X201300000Y-142821331D02*
X201357143Y-142792760D01*
X201357143Y-142792760D02*
X201385714Y-142764188D01*
X200442857Y-142821331D02*
X200785714Y-142821331D01*
X200614285Y-142821331D02*
X200614285Y-142221331D01*
X200614285Y-142221331D02*
X200671428Y-142307045D01*
X200671428Y-142307045D02*
X200728571Y-142364188D01*
X200728571Y-142364188D02*
X200785714Y-142392760D01*
X165729751Y-149941673D02*
X165444037Y-149741673D01*
X165729751Y-149598816D02*
X165129751Y-149598816D01*
X165129751Y-149598816D02*
X165129751Y-149827387D01*
X165129751Y-149827387D02*
X165158322Y-149884530D01*
X165158322Y-149884530D02*
X165186894Y-149913101D01*
X165186894Y-149913101D02*
X165244037Y-149941673D01*
X165244037Y-149941673D02*
X165329751Y-149941673D01*
X165329751Y-149941673D02*
X165386894Y-149913101D01*
X165386894Y-149913101D02*
X165415465Y-149884530D01*
X165415465Y-149884530D02*
X165444037Y-149827387D01*
X165444037Y-149827387D02*
X165444037Y-149598816D01*
X165729751Y-150513101D02*
X165729751Y-150170244D01*
X165729751Y-150341673D02*
X165129751Y-150341673D01*
X165129751Y-150341673D02*
X165215465Y-150284530D01*
X165215465Y-150284530D02*
X165272608Y-150227387D01*
X165272608Y-150227387D02*
X165301180Y-150170244D01*
X165129751Y-150884530D02*
X165129751Y-150941673D01*
X165129751Y-150941673D02*
X165158322Y-150998816D01*
X165158322Y-150998816D02*
X165186894Y-151027388D01*
X165186894Y-151027388D02*
X165244037Y-151055959D01*
X165244037Y-151055959D02*
X165358322Y-151084530D01*
X165358322Y-151084530D02*
X165501180Y-151084530D01*
X165501180Y-151084530D02*
X165615465Y-151055959D01*
X165615465Y-151055959D02*
X165672608Y-151027388D01*
X165672608Y-151027388D02*
X165701180Y-150998816D01*
X165701180Y-150998816D02*
X165729751Y-150941673D01*
X165729751Y-150941673D02*
X165729751Y-150884530D01*
X165729751Y-150884530D02*
X165701180Y-150827388D01*
X165701180Y-150827388D02*
X165672608Y-150798816D01*
X165672608Y-150798816D02*
X165615465Y-150770245D01*
X165615465Y-150770245D02*
X165501180Y-150741673D01*
X165501180Y-150741673D02*
X165358322Y-150741673D01*
X165358322Y-150741673D02*
X165244037Y-150770245D01*
X165244037Y-150770245D02*
X165186894Y-150798816D01*
X165186894Y-150798816D02*
X165158322Y-150827388D01*
X165158322Y-150827388D02*
X165129751Y-150884530D01*
X193074922Y-143558931D02*
X193103494Y-143587503D01*
X193103494Y-143587503D02*
X193189208Y-143616074D01*
X193189208Y-143616074D02*
X193246351Y-143616074D01*
X193246351Y-143616074D02*
X193332065Y-143587503D01*
X193332065Y-143587503D02*
X193389208Y-143530360D01*
X193389208Y-143530360D02*
X193417779Y-143473217D01*
X193417779Y-143473217D02*
X193446351Y-143358931D01*
X193446351Y-143358931D02*
X193446351Y-143273217D01*
X193446351Y-143273217D02*
X193417779Y-143158931D01*
X193417779Y-143158931D02*
X193389208Y-143101788D01*
X193389208Y-143101788D02*
X193332065Y-143044645D01*
X193332065Y-143044645D02*
X193246351Y-143016074D01*
X193246351Y-143016074D02*
X193189208Y-143016074D01*
X193189208Y-143016074D02*
X193103494Y-143044645D01*
X193103494Y-143044645D02*
X193074922Y-143073217D01*
X192846351Y-143073217D02*
X192817779Y-143044645D01*
X192817779Y-143044645D02*
X192760637Y-143016074D01*
X192760637Y-143016074D02*
X192617779Y-143016074D01*
X192617779Y-143016074D02*
X192560637Y-143044645D01*
X192560637Y-143044645D02*
X192532065Y-143073217D01*
X192532065Y-143073217D02*
X192503494Y-143130360D01*
X192503494Y-143130360D02*
X192503494Y-143187503D01*
X192503494Y-143187503D02*
X192532065Y-143273217D01*
X192532065Y-143273217D02*
X192874922Y-143616074D01*
X192874922Y-143616074D02*
X192503494Y-143616074D01*
X191960636Y-143016074D02*
X192246350Y-143016074D01*
X192246350Y-143016074D02*
X192274922Y-143301788D01*
X192274922Y-143301788D02*
X192246350Y-143273217D01*
X192246350Y-143273217D02*
X192189208Y-143244645D01*
X192189208Y-143244645D02*
X192046350Y-143244645D01*
X192046350Y-143244645D02*
X191989208Y-143273217D01*
X191989208Y-143273217D02*
X191960636Y-143301788D01*
X191960636Y-143301788D02*
X191932065Y-143358931D01*
X191932065Y-143358931D02*
X191932065Y-143501788D01*
X191932065Y-143501788D02*
X191960636Y-143558931D01*
X191960636Y-143558931D02*
X191989208Y-143587503D01*
X191989208Y-143587503D02*
X192046350Y-143616074D01*
X192046350Y-143616074D02*
X192189208Y-143616074D01*
X192189208Y-143616074D02*
X192246350Y-143587503D01*
X192246350Y-143587503D02*
X192274922Y-143558931D01*
X168110714Y-134526688D02*
X168139286Y-134555260D01*
X168139286Y-134555260D02*
X168225000Y-134583831D01*
X168225000Y-134583831D02*
X168282143Y-134583831D01*
X168282143Y-134583831D02*
X168367857Y-134555260D01*
X168367857Y-134555260D02*
X168425000Y-134498117D01*
X168425000Y-134498117D02*
X168453571Y-134440974D01*
X168453571Y-134440974D02*
X168482143Y-134326688D01*
X168482143Y-134326688D02*
X168482143Y-134240974D01*
X168482143Y-134240974D02*
X168453571Y-134126688D01*
X168453571Y-134126688D02*
X168425000Y-134069545D01*
X168425000Y-134069545D02*
X168367857Y-134012402D01*
X168367857Y-134012402D02*
X168282143Y-133983831D01*
X168282143Y-133983831D02*
X168225000Y-133983831D01*
X168225000Y-133983831D02*
X168139286Y-134012402D01*
X168139286Y-134012402D02*
X168110714Y-134040974D01*
X167539286Y-134583831D02*
X167882143Y-134583831D01*
X167710714Y-134583831D02*
X167710714Y-133983831D01*
X167710714Y-133983831D02*
X167767857Y-134069545D01*
X167767857Y-134069545D02*
X167825000Y-134126688D01*
X167825000Y-134126688D02*
X167882143Y-134155260D01*
X166967857Y-134583831D02*
X167310714Y-134583831D01*
X167139285Y-134583831D02*
X167139285Y-133983831D01*
X167139285Y-133983831D02*
X167196428Y-134069545D01*
X167196428Y-134069545D02*
X167253571Y-134126688D01*
X167253571Y-134126688D02*
X167310714Y-134155260D01*
X182916333Y-154125000D02*
X182630619Y-153925000D01*
X182916333Y-153782143D02*
X182316333Y-153782143D01*
X182316333Y-153782143D02*
X182316333Y-154010714D01*
X182316333Y-154010714D02*
X182344904Y-154067857D01*
X182344904Y-154067857D02*
X182373476Y-154096428D01*
X182373476Y-154096428D02*
X182430619Y-154125000D01*
X182430619Y-154125000D02*
X182516333Y-154125000D01*
X182516333Y-154125000D02*
X182573476Y-154096428D01*
X182573476Y-154096428D02*
X182602047Y-154067857D01*
X182602047Y-154067857D02*
X182630619Y-154010714D01*
X182630619Y-154010714D02*
X182630619Y-153782143D01*
X182373476Y-154353571D02*
X182344904Y-154382143D01*
X182344904Y-154382143D02*
X182316333Y-154439286D01*
X182316333Y-154439286D02*
X182316333Y-154582143D01*
X182316333Y-154582143D02*
X182344904Y-154639286D01*
X182344904Y-154639286D02*
X182373476Y-154667857D01*
X182373476Y-154667857D02*
X182430619Y-154696428D01*
X182430619Y-154696428D02*
X182487762Y-154696428D01*
X182487762Y-154696428D02*
X182573476Y-154667857D01*
X182573476Y-154667857D02*
X182916333Y-154325000D01*
X182916333Y-154325000D02*
X182916333Y-154696428D01*
X185476164Y-142670796D02*
X185504736Y-142642224D01*
X185504736Y-142642224D02*
X185533307Y-142556510D01*
X185533307Y-142556510D02*
X185533307Y-142499367D01*
X185533307Y-142499367D02*
X185504736Y-142413653D01*
X185504736Y-142413653D02*
X185447593Y-142356510D01*
X185447593Y-142356510D02*
X185390450Y-142327939D01*
X185390450Y-142327939D02*
X185276164Y-142299367D01*
X185276164Y-142299367D02*
X185190450Y-142299367D01*
X185190450Y-142299367D02*
X185076164Y-142327939D01*
X185076164Y-142327939D02*
X185019021Y-142356510D01*
X185019021Y-142356510D02*
X184961878Y-142413653D01*
X184961878Y-142413653D02*
X184933307Y-142499367D01*
X184933307Y-142499367D02*
X184933307Y-142556510D01*
X184933307Y-142556510D02*
X184961878Y-142642224D01*
X184961878Y-142642224D02*
X184990450Y-142670796D01*
X184990450Y-142899367D02*
X184961878Y-142927939D01*
X184961878Y-142927939D02*
X184933307Y-142985082D01*
X184933307Y-142985082D02*
X184933307Y-143127939D01*
X184933307Y-143127939D02*
X184961878Y-143185082D01*
X184961878Y-143185082D02*
X184990450Y-143213653D01*
X184990450Y-143213653D02*
X185047593Y-143242224D01*
X185047593Y-143242224D02*
X185104736Y-143242224D01*
X185104736Y-143242224D02*
X185190450Y-143213653D01*
X185190450Y-143213653D02*
X185533307Y-142870796D01*
X185533307Y-142870796D02*
X185533307Y-143242224D01*
X185190450Y-143585082D02*
X185161878Y-143527939D01*
X185161878Y-143527939D02*
X185133307Y-143499368D01*
X185133307Y-143499368D02*
X185076164Y-143470796D01*
X185076164Y-143470796D02*
X185047593Y-143470796D01*
X185047593Y-143470796D02*
X184990450Y-143499368D01*
X184990450Y-143499368D02*
X184961878Y-143527939D01*
X184961878Y-143527939D02*
X184933307Y-143585082D01*
X184933307Y-143585082D02*
X184933307Y-143699368D01*
X184933307Y-143699368D02*
X184961878Y-143756511D01*
X184961878Y-143756511D02*
X184990450Y-143785082D01*
X184990450Y-143785082D02*
X185047593Y-143813653D01*
X185047593Y-143813653D02*
X185076164Y-143813653D01*
X185076164Y-143813653D02*
X185133307Y-143785082D01*
X185133307Y-143785082D02*
X185161878Y-143756511D01*
X185161878Y-143756511D02*
X185190450Y-143699368D01*
X185190450Y-143699368D02*
X185190450Y-143585082D01*
X185190450Y-143585082D02*
X185219021Y-143527939D01*
X185219021Y-143527939D02*
X185247593Y-143499368D01*
X185247593Y-143499368D02*
X185304736Y-143470796D01*
X185304736Y-143470796D02*
X185419021Y-143470796D01*
X185419021Y-143470796D02*
X185476164Y-143499368D01*
X185476164Y-143499368D02*
X185504736Y-143527939D01*
X185504736Y-143527939D02*
X185533307Y-143585082D01*
X185533307Y-143585082D02*
X185533307Y-143699368D01*
X185533307Y-143699368D02*
X185504736Y-143756511D01*
X185504736Y-143756511D02*
X185476164Y-143785082D01*
X185476164Y-143785082D02*
X185419021Y-143813653D01*
X185419021Y-143813653D02*
X185304736Y-143813653D01*
X185304736Y-143813653D02*
X185247593Y-143785082D01*
X185247593Y-143785082D02*
X185219021Y-143756511D01*
X185219021Y-143756511D02*
X185190450Y-143699368D01*
X162015588Y-146512285D02*
X162044160Y-146483713D01*
X162044160Y-146483713D02*
X162072731Y-146397999D01*
X162072731Y-146397999D02*
X162072731Y-146340856D01*
X162072731Y-146340856D02*
X162044160Y-146255142D01*
X162044160Y-146255142D02*
X161987017Y-146197999D01*
X161987017Y-146197999D02*
X161929874Y-146169428D01*
X161929874Y-146169428D02*
X161815588Y-146140856D01*
X161815588Y-146140856D02*
X161729874Y-146140856D01*
X161729874Y-146140856D02*
X161615588Y-146169428D01*
X161615588Y-146169428D02*
X161558445Y-146197999D01*
X161558445Y-146197999D02*
X161501302Y-146255142D01*
X161501302Y-146255142D02*
X161472731Y-146340856D01*
X161472731Y-146340856D02*
X161472731Y-146397999D01*
X161472731Y-146397999D02*
X161501302Y-146483713D01*
X161501302Y-146483713D02*
X161529874Y-146512285D01*
X162072731Y-147083713D02*
X162072731Y-146740856D01*
X162072731Y-146912285D02*
X161472731Y-146912285D01*
X161472731Y-146912285D02*
X161558445Y-146855142D01*
X161558445Y-146855142D02*
X161615588Y-146797999D01*
X161615588Y-146797999D02*
X161644160Y-146740856D01*
X162072731Y-147369428D02*
X162072731Y-147483714D01*
X162072731Y-147483714D02*
X162044160Y-147540857D01*
X162044160Y-147540857D02*
X162015588Y-147569428D01*
X162015588Y-147569428D02*
X161929874Y-147626571D01*
X161929874Y-147626571D02*
X161815588Y-147655142D01*
X161815588Y-147655142D02*
X161587017Y-147655142D01*
X161587017Y-147655142D02*
X161529874Y-147626571D01*
X161529874Y-147626571D02*
X161501302Y-147598000D01*
X161501302Y-147598000D02*
X161472731Y-147540857D01*
X161472731Y-147540857D02*
X161472731Y-147426571D01*
X161472731Y-147426571D02*
X161501302Y-147369428D01*
X161501302Y-147369428D02*
X161529874Y-147340857D01*
X161529874Y-147340857D02*
X161587017Y-147312285D01*
X161587017Y-147312285D02*
X161729874Y-147312285D01*
X161729874Y-147312285D02*
X161787017Y-147340857D01*
X161787017Y-147340857D02*
X161815588Y-147369428D01*
X161815588Y-147369428D02*
X161844160Y-147426571D01*
X161844160Y-147426571D02*
X161844160Y-147540857D01*
X161844160Y-147540857D02*
X161815588Y-147598000D01*
X161815588Y-147598000D02*
X161787017Y-147626571D01*
X161787017Y-147626571D02*
X161729874Y-147655142D01*
X187389188Y-146214285D02*
X187417760Y-146185713D01*
X187417760Y-146185713D02*
X187446331Y-146099999D01*
X187446331Y-146099999D02*
X187446331Y-146042856D01*
X187446331Y-146042856D02*
X187417760Y-145957142D01*
X187417760Y-145957142D02*
X187360617Y-145899999D01*
X187360617Y-145899999D02*
X187303474Y-145871428D01*
X187303474Y-145871428D02*
X187189188Y-145842856D01*
X187189188Y-145842856D02*
X187103474Y-145842856D01*
X187103474Y-145842856D02*
X186989188Y-145871428D01*
X186989188Y-145871428D02*
X186932045Y-145899999D01*
X186932045Y-145899999D02*
X186874902Y-145957142D01*
X186874902Y-145957142D02*
X186846331Y-146042856D01*
X186846331Y-146042856D02*
X186846331Y-146099999D01*
X186846331Y-146099999D02*
X186874902Y-146185713D01*
X186874902Y-146185713D02*
X186903474Y-146214285D01*
X186903474Y-146442856D02*
X186874902Y-146471428D01*
X186874902Y-146471428D02*
X186846331Y-146528571D01*
X186846331Y-146528571D02*
X186846331Y-146671428D01*
X186846331Y-146671428D02*
X186874902Y-146728571D01*
X186874902Y-146728571D02*
X186903474Y-146757142D01*
X186903474Y-146757142D02*
X186960617Y-146785713D01*
X186960617Y-146785713D02*
X187017760Y-146785713D01*
X187017760Y-146785713D02*
X187103474Y-146757142D01*
X187103474Y-146757142D02*
X187446331Y-146414285D01*
X187446331Y-146414285D02*
X187446331Y-146785713D01*
X186846331Y-146985714D02*
X186846331Y-147357142D01*
X186846331Y-147357142D02*
X187074902Y-147157142D01*
X187074902Y-147157142D02*
X187074902Y-147242857D01*
X187074902Y-147242857D02*
X187103474Y-147300000D01*
X187103474Y-147300000D02*
X187132045Y-147328571D01*
X187132045Y-147328571D02*
X187189188Y-147357142D01*
X187189188Y-147357142D02*
X187332045Y-147357142D01*
X187332045Y-147357142D02*
X187389188Y-147328571D01*
X187389188Y-147328571D02*
X187417760Y-147300000D01*
X187417760Y-147300000D02*
X187446331Y-147242857D01*
X187446331Y-147242857D02*
X187446331Y-147071428D01*
X187446331Y-147071428D02*
X187417760Y-147014285D01*
X187417760Y-147014285D02*
X187389188Y-146985714D01*
X167219999Y-156216331D02*
X167419999Y-155930617D01*
X167562856Y-156216331D02*
X167562856Y-155616331D01*
X167562856Y-155616331D02*
X167334285Y-155616331D01*
X167334285Y-155616331D02*
X167277142Y-155644902D01*
X167277142Y-155644902D02*
X167248571Y-155673474D01*
X167248571Y-155673474D02*
X167219999Y-155730617D01*
X167219999Y-155730617D02*
X167219999Y-155816331D01*
X167219999Y-155816331D02*
X167248571Y-155873474D01*
X167248571Y-155873474D02*
X167277142Y-155902045D01*
X167277142Y-155902045D02*
X167334285Y-155930617D01*
X167334285Y-155930617D02*
X167562856Y-155930617D01*
X167019999Y-155616331D02*
X166619999Y-155616331D01*
X166619999Y-155616331D02*
X166877142Y-156216331D01*
X175646331Y-133001785D02*
X175360617Y-132801785D01*
X175646331Y-132658928D02*
X175046331Y-132658928D01*
X175046331Y-132658928D02*
X175046331Y-132887499D01*
X175046331Y-132887499D02*
X175074902Y-132944642D01*
X175074902Y-132944642D02*
X175103474Y-132973213D01*
X175103474Y-132973213D02*
X175160617Y-133001785D01*
X175160617Y-133001785D02*
X175246331Y-133001785D01*
X175246331Y-133001785D02*
X175303474Y-132973213D01*
X175303474Y-132973213D02*
X175332045Y-132944642D01*
X175332045Y-132944642D02*
X175360617Y-132887499D01*
X175360617Y-132887499D02*
X175360617Y-132658928D01*
X175646331Y-133573213D02*
X175646331Y-133230356D01*
X175646331Y-133401785D02*
X175046331Y-133401785D01*
X175046331Y-133401785D02*
X175132045Y-133344642D01*
X175132045Y-133344642D02*
X175189188Y-133287499D01*
X175189188Y-133287499D02*
X175217760Y-133230356D01*
X175103474Y-133801785D02*
X175074902Y-133830357D01*
X175074902Y-133830357D02*
X175046331Y-133887500D01*
X175046331Y-133887500D02*
X175046331Y-134030357D01*
X175046331Y-134030357D02*
X175074902Y-134087500D01*
X175074902Y-134087500D02*
X175103474Y-134116071D01*
X175103474Y-134116071D02*
X175160617Y-134144642D01*
X175160617Y-134144642D02*
X175217760Y-134144642D01*
X175217760Y-134144642D02*
X175303474Y-134116071D01*
X175303474Y-134116071D02*
X175646331Y-133773214D01*
X175646331Y-133773214D02*
X175646331Y-134144642D01*
X152085714Y-134414188D02*
X152114286Y-134442760D01*
X152114286Y-134442760D02*
X152200000Y-134471331D01*
X152200000Y-134471331D02*
X152257143Y-134471331D01*
X152257143Y-134471331D02*
X152342857Y-134442760D01*
X152342857Y-134442760D02*
X152400000Y-134385617D01*
X152400000Y-134385617D02*
X152428571Y-134328474D01*
X152428571Y-134328474D02*
X152457143Y-134214188D01*
X152457143Y-134214188D02*
X152457143Y-134128474D01*
X152457143Y-134128474D02*
X152428571Y-134014188D01*
X152428571Y-134014188D02*
X152400000Y-133957045D01*
X152400000Y-133957045D02*
X152342857Y-133899902D01*
X152342857Y-133899902D02*
X152257143Y-133871331D01*
X152257143Y-133871331D02*
X152200000Y-133871331D01*
X152200000Y-133871331D02*
X152114286Y-133899902D01*
X152114286Y-133899902D02*
X152085714Y-133928474D01*
X151885714Y-133871331D02*
X151514286Y-133871331D01*
X151514286Y-133871331D02*
X151714286Y-134099902D01*
X151714286Y-134099902D02*
X151628571Y-134099902D01*
X151628571Y-134099902D02*
X151571429Y-134128474D01*
X151571429Y-134128474D02*
X151542857Y-134157045D01*
X151542857Y-134157045D02*
X151514286Y-134214188D01*
X151514286Y-134214188D02*
X151514286Y-134357045D01*
X151514286Y-134357045D02*
X151542857Y-134414188D01*
X151542857Y-134414188D02*
X151571429Y-134442760D01*
X151571429Y-134442760D02*
X151628571Y-134471331D01*
X151628571Y-134471331D02*
X151800000Y-134471331D01*
X151800000Y-134471331D02*
X151857143Y-134442760D01*
X151857143Y-134442760D02*
X151885714Y-134414188D01*
X151314285Y-133871331D02*
X150942857Y-133871331D01*
X150942857Y-133871331D02*
X151142857Y-134099902D01*
X151142857Y-134099902D02*
X151057142Y-134099902D01*
X151057142Y-134099902D02*
X151000000Y-134128474D01*
X151000000Y-134128474D02*
X150971428Y-134157045D01*
X150971428Y-134157045D02*
X150942857Y-134214188D01*
X150942857Y-134214188D02*
X150942857Y-134357045D01*
X150942857Y-134357045D02*
X150971428Y-134414188D01*
X150971428Y-134414188D02*
X151000000Y-134442760D01*
X151000000Y-134442760D02*
X151057142Y-134471331D01*
X151057142Y-134471331D02*
X151228571Y-134471331D01*
X151228571Y-134471331D02*
X151285714Y-134442760D01*
X151285714Y-134442760D02*
X151314285Y-134414188D01*
X151664661Y-143214188D02*
X151693233Y-143242760D01*
X151693233Y-143242760D02*
X151778947Y-143271331D01*
X151778947Y-143271331D02*
X151836090Y-143271331D01*
X151836090Y-143271331D02*
X151921804Y-143242760D01*
X151921804Y-143242760D02*
X151978947Y-143185617D01*
X151978947Y-143185617D02*
X152007518Y-143128474D01*
X152007518Y-143128474D02*
X152036090Y-143014188D01*
X152036090Y-143014188D02*
X152036090Y-142928474D01*
X152036090Y-142928474D02*
X152007518Y-142814188D01*
X152007518Y-142814188D02*
X151978947Y-142757045D01*
X151978947Y-142757045D02*
X151921804Y-142699902D01*
X151921804Y-142699902D02*
X151836090Y-142671331D01*
X151836090Y-142671331D02*
X151778947Y-142671331D01*
X151778947Y-142671331D02*
X151693233Y-142699902D01*
X151693233Y-142699902D02*
X151664661Y-142728474D01*
X151150376Y-142871331D02*
X151150376Y-143271331D01*
X151293233Y-142642760D02*
X151436090Y-143071331D01*
X151436090Y-143071331D02*
X151064661Y-143071331D01*
D12*
X176898383Y-144800726D02*
X176898383Y-144515012D01*
X176898383Y-144515012D02*
X176298383Y-144515012D01*
X176355526Y-144972154D02*
X176326954Y-145000726D01*
X176326954Y-145000726D02*
X176298383Y-145057869D01*
X176298383Y-145057869D02*
X176298383Y-145200726D01*
X176298383Y-145200726D02*
X176326954Y-145257869D01*
X176326954Y-145257869D02*
X176355526Y-145286440D01*
X176355526Y-145286440D02*
X176412669Y-145315011D01*
X176412669Y-145315011D02*
X176469812Y-145315011D01*
X176469812Y-145315011D02*
X176555526Y-145286440D01*
X176555526Y-145286440D02*
X176898383Y-144943583D01*
X176898383Y-144943583D02*
X176898383Y-145315011D01*
D11*
X170219999Y-156216331D02*
X170419999Y-155930617D01*
X170562856Y-156216331D02*
X170562856Y-155616331D01*
X170562856Y-155616331D02*
X170334285Y-155616331D01*
X170334285Y-155616331D02*
X170277142Y-155644902D01*
X170277142Y-155644902D02*
X170248571Y-155673474D01*
X170248571Y-155673474D02*
X170219999Y-155730617D01*
X170219999Y-155730617D02*
X170219999Y-155816331D01*
X170219999Y-155816331D02*
X170248571Y-155873474D01*
X170248571Y-155873474D02*
X170277142Y-155902045D01*
X170277142Y-155902045D02*
X170334285Y-155930617D01*
X170334285Y-155930617D02*
X170562856Y-155930617D01*
X169877142Y-155873474D02*
X169934285Y-155844902D01*
X169934285Y-155844902D02*
X169962856Y-155816331D01*
X169962856Y-155816331D02*
X169991428Y-155759188D01*
X169991428Y-155759188D02*
X169991428Y-155730617D01*
X169991428Y-155730617D02*
X169962856Y-155673474D01*
X169962856Y-155673474D02*
X169934285Y-155644902D01*
X169934285Y-155644902D02*
X169877142Y-155616331D01*
X169877142Y-155616331D02*
X169762856Y-155616331D01*
X169762856Y-155616331D02*
X169705714Y-155644902D01*
X169705714Y-155644902D02*
X169677142Y-155673474D01*
X169677142Y-155673474D02*
X169648571Y-155730617D01*
X169648571Y-155730617D02*
X169648571Y-155759188D01*
X169648571Y-155759188D02*
X169677142Y-155816331D01*
X169677142Y-155816331D02*
X169705714Y-155844902D01*
X169705714Y-155844902D02*
X169762856Y-155873474D01*
X169762856Y-155873474D02*
X169877142Y-155873474D01*
X169877142Y-155873474D02*
X169934285Y-155902045D01*
X169934285Y-155902045D02*
X169962856Y-155930617D01*
X169962856Y-155930617D02*
X169991428Y-155987760D01*
X169991428Y-155987760D02*
X169991428Y-156102045D01*
X169991428Y-156102045D02*
X169962856Y-156159188D01*
X169962856Y-156159188D02*
X169934285Y-156187760D01*
X169934285Y-156187760D02*
X169877142Y-156216331D01*
X169877142Y-156216331D02*
X169762856Y-156216331D01*
X169762856Y-156216331D02*
X169705714Y-156187760D01*
X169705714Y-156187760D02*
X169677142Y-156159188D01*
X169677142Y-156159188D02*
X169648571Y-156102045D01*
X169648571Y-156102045D02*
X169648571Y-155987760D01*
X169648571Y-155987760D02*
X169677142Y-155930617D01*
X169677142Y-155930617D02*
X169705714Y-155902045D01*
X169705714Y-155902045D02*
X169762856Y-155873474D01*
X161922500Y-148862742D02*
X161922500Y-149337258D01*
X160877500Y-148862742D02*
X160877500Y-149337258D01*
X162377500Y-149762742D02*
X162377500Y-150237258D01*
X163422500Y-149762742D02*
X163422500Y-150237258D01*
X156737258Y-152177500D02*
X156262742Y-152177500D01*
X156737258Y-153222500D02*
X156262742Y-153222500D01*
X169018100Y-147621920D02*
X169018100Y-147903080D01*
X170038100Y-147621920D02*
X170038100Y-147903080D01*
X173837258Y-140377500D02*
X173362742Y-140377500D01*
X173837258Y-141422500D02*
X173362742Y-141422500D01*
X172402500Y-137150242D02*
X172402500Y-137624758D01*
X173447500Y-137150242D02*
X173447500Y-137624758D01*
X195637742Y-142277500D02*
X196112258Y-142277500D01*
X195637742Y-143322500D02*
X196112258Y-143322500D01*
X163790000Y-143346920D02*
X163790000Y-143628080D01*
X164810000Y-143346920D02*
X164810000Y-143628080D01*
X170699829Y-149839928D02*
X170225313Y-149839928D01*
X170699829Y-150884928D02*
X170225313Y-150884928D01*
X184187766Y-149086024D02*
X184662282Y-149086024D01*
X184187766Y-150131024D02*
X184662282Y-150131024D01*
X191762742Y-141377500D02*
X192237258Y-141377500D01*
X191762742Y-142422500D02*
X192237258Y-142422500D01*
X187462258Y-137552500D02*
X186987742Y-137552500D01*
X187462258Y-138597500D02*
X186987742Y-138597500D01*
X197037742Y-150177500D02*
X197512258Y-150177500D01*
X197037742Y-151222500D02*
X197512258Y-151222500D01*
X183849928Y-146278276D02*
X183849928Y-146559436D01*
X184869928Y-146278276D02*
X184869928Y-146559436D01*
X183722502Y-154537258D02*
X183722502Y-154062742D01*
X184767502Y-154537258D02*
X184767502Y-154062742D01*
X188662258Y-135877500D02*
X188187742Y-135877500D01*
X188662258Y-136922500D02*
X188187742Y-136922500D01*
X189415580Y-144390000D02*
X189134420Y-144390000D01*
X189415580Y-145410000D02*
X189134420Y-145410000D01*
X183537258Y-137477500D02*
X183062742Y-137477500D01*
X183537258Y-138522500D02*
X183062742Y-138522500D01*
X171915580Y-146727500D02*
X171634420Y-146727500D01*
X171915580Y-147747500D02*
X171634420Y-147747500D01*
X182634420Y-140465000D02*
X182915580Y-140465000D01*
X182634420Y-141485000D02*
X182915580Y-141485000D01*
X168159420Y-143990000D02*
X168440580Y-143990000D01*
X168159420Y-145010000D02*
X168440580Y-145010000D01*
X147265000Y-153150000D02*
X150525000Y-153150000D01*
X147265000Y-154850000D02*
X147265000Y-153150000D01*
X147265000Y-154850000D02*
X150525000Y-154850000D01*
X172806800Y-144671920D02*
X172806800Y-144953080D01*
X173826800Y-144671920D02*
X173826800Y-144953080D01*
X173837258Y-141877500D02*
X173362742Y-141877500D01*
X173837258Y-142922500D02*
X173362742Y-142922500D01*
X174382455Y-151270588D02*
X174382455Y-150945030D01*
X175402455Y-151270588D02*
X175402455Y-150945030D01*
X175112258Y-146715000D02*
X174637742Y-146715000D01*
X175112258Y-147760000D02*
X174637742Y-147760000D01*
X198825000Y-144135000D02*
X196875000Y-144135000D01*
X198825000Y-144135000D02*
X200775000Y-144135000D01*
X198825000Y-149255000D02*
X196875000Y-149255000D01*
X198825000Y-149255000D02*
X200775000Y-149255000D01*
X201525000Y-144230000D02*
X201285000Y-143900000D01*
X201765000Y-143900000D01*
X201525000Y-144230000D01*
G36*
X201525000Y-144230000D02*
G01*
X201285000Y-143900000D01*
X201765000Y-143900000D01*
X201525000Y-144230000D01*
G37*
X187577500Y-133562742D02*
X187577500Y-134037258D01*
X188622500Y-133562742D02*
X188622500Y-134037258D01*
X164502500Y-147974758D02*
X164502500Y-147500242D01*
X165547500Y-147974758D02*
X165547500Y-147500242D01*
X164790000Y-136040580D02*
X164790000Y-135759420D01*
X165810000Y-136040580D02*
X165810000Y-135759420D01*
X187312258Y-139852500D02*
X186837742Y-139852500D01*
X187312258Y-140897500D02*
X186837742Y-140897500D01*
X159840000Y-145731920D02*
X159840000Y-146013080D01*
X160860000Y-145731920D02*
X160860000Y-146013080D01*
X193625000Y-134580000D02*
X191675000Y-134580000D01*
X193625000Y-134580000D02*
X195575000Y-134580000D01*
X193625000Y-139700000D02*
X191675000Y-139700000D01*
X193625000Y-139700000D02*
X195575000Y-139700000D01*
X191165000Y-139935000D02*
X190685000Y-139935000D01*
X190925000Y-139605000D01*
X191165000Y-139935000D01*
G36*
X191165000Y-139935000D02*
G01*
X190685000Y-139935000D01*
X190925000Y-139605000D01*
X191165000Y-139935000D01*
G37*
X179715000Y-141546920D02*
X179715000Y-141828080D01*
X180735000Y-141546920D02*
X180735000Y-141828080D01*
X170852500Y-137624758D02*
X170852500Y-137150242D01*
X171897500Y-137624758D02*
X171897500Y-137150242D01*
X184359420Y-135890000D02*
X184640580Y-135890000D01*
X184359420Y-136910000D02*
X184640580Y-136910000D01*
X181677500Y-134937258D02*
X181677500Y-134462742D01*
X182722500Y-134937258D02*
X182722500Y-134462742D01*
X140965000Y-141515580D02*
X140965000Y-141234420D01*
X141985000Y-141515580D02*
X141985000Y-141234420D01*
X163965000Y-139628080D02*
X163965000Y-139346920D01*
X164985000Y-139628080D02*
X164985000Y-139346920D01*
X175882455Y-150979729D02*
X175882455Y-151260889D01*
X176902455Y-150979729D02*
X176902455Y-151260889D01*
X193912258Y-132752500D02*
X193437742Y-132752500D01*
X193912258Y-133797500D02*
X193437742Y-133797500D01*
X189462258Y-147977500D02*
X188987742Y-147977500D01*
X189462258Y-149022500D02*
X188987742Y-149022500D01*
X194859420Y-140590000D02*
X195140580Y-140590000D01*
X194859420Y-141610000D02*
X195140580Y-141610000D01*
X148634420Y-151390000D02*
X148915580Y-151390000D01*
X148634420Y-152410000D02*
X148915580Y-152410000D01*
X178215000Y-144496920D02*
X178215000Y-144778080D01*
X179235000Y-144496920D02*
X179235000Y-144778080D01*
X182052196Y-146668419D02*
X182052196Y-146193903D01*
X183097196Y-146668419D02*
X183097196Y-146193903D01*
X169165000Y-136453080D02*
X169165000Y-136171920D01*
X170185000Y-136453080D02*
X170185000Y-136171920D01*
X198977500Y-140537742D02*
X198977500Y-141012258D01*
X200022500Y-140537742D02*
X200022500Y-141012258D01*
X183062742Y-138977500D02*
X183537258Y-138977500D01*
X183062742Y-140022500D02*
X183537258Y-140022500D01*
X171306800Y-144671920D02*
X171306800Y-144953080D01*
X172326800Y-144671920D02*
X172326800Y-144953080D01*
X177625000Y-134877500D02*
X175675000Y-134877500D01*
X177625000Y-134877500D02*
X179575000Y-134877500D01*
X177625000Y-139997500D02*
X175675000Y-139997500D01*
X177625000Y-139997500D02*
X179575000Y-139997500D01*
X175165000Y-140232500D02*
X174685000Y-140232500D01*
X174925000Y-139902500D01*
X175165000Y-140232500D01*
G36*
X175165000Y-140232500D02*
G01*
X174685000Y-140232500D01*
X174925000Y-139902500D01*
X175165000Y-140232500D01*
G37*
X200690000Y-140409420D02*
X200690000Y-140690580D01*
X201710000Y-140409420D02*
X201710000Y-140690580D01*
X180247500Y-144545242D02*
X180247500Y-145019758D01*
X181292500Y-144545242D02*
X181292500Y-145019758D01*
X167221162Y-149804888D02*
X167695678Y-149804888D01*
X167221162Y-150849888D02*
X167695678Y-150849888D01*
X192179208Y-145485323D02*
X192179208Y-145204163D01*
X193199208Y-145485323D02*
X193199208Y-145204163D01*
X167215000Y-136453080D02*
X167215000Y-136171920D01*
X168235000Y-136453080D02*
X168235000Y-136171920D01*
X181022502Y-154462258D02*
X181022502Y-153987742D01*
X182067502Y-154462258D02*
X182067502Y-153987742D01*
X183402556Y-142546511D02*
X183121396Y-142546511D01*
X183402556Y-143566511D02*
X183121396Y-143566511D01*
X162391400Y-146757420D02*
X162391400Y-147038580D01*
X163411400Y-146757420D02*
X163411400Y-147038580D01*
X189315580Y-146090000D02*
X189034420Y-146090000D01*
X189315580Y-147110000D02*
X189034420Y-147110000D01*
X166597500Y-154182258D02*
X166597500Y-153707742D01*
X167642500Y-154182258D02*
X167642500Y-153707742D01*
X168890000Y-140613880D02*
X168890000Y-140332720D01*
X169910000Y-140613880D02*
X169910000Y-140332720D01*
X157765000Y-144182500D02*
X157765000Y-140262500D01*
X161035000Y-144182500D02*
X157765000Y-144182500D01*
X177137742Y-132865000D02*
X177612258Y-132865000D01*
X177137742Y-133910000D02*
X177612258Y-133910000D01*
X151840580Y-134790000D02*
X151559420Y-134790000D01*
X151840580Y-135810000D02*
X151559420Y-135810000D01*
X149540580Y-142490000D02*
X149259420Y-142490000D01*
X149540580Y-143510000D02*
X149259420Y-143510000D01*
X166060000Y-147621920D02*
X166060000Y-147903080D01*
X167080000Y-147621920D02*
X167080000Y-147903080D01*
D14*
X175220710Y-146400000D02*
G75*
G02*
X175029290Y-146400000I-95710J0D01*
G01*
X175029290Y-146400000D02*
G75*
G02*
X175220710Y-146400000I95710J0D01*
G01*
D11*
X169597500Y-154182258D02*
X169597500Y-153707742D01*
X170642500Y-154182258D02*
X170642500Y-153707742D01*
M02*
