G04 #@! TF.GenerationSoftware,KiCad,Pcbnew,10.0.1*
G04 #@! TF.CreationDate,2026-06-05T15:47:18+03:00*
G04 #@! TF.ProjectId,frank_zero,6672616e-6b5f-47a6-9572-6f2e6b696361,1.00*
G04 #@! TF.SameCoordinates,Original*
G04 #@! TF.FileFunction,Copper,L2,Inr*
G04 #@! TF.FilePolarity,Positive*
%FSLAX46Y46*%
G04 Gerber Fmt 4.6, Leading zero omitted, Abs format (unit mm)*
G04 Created by KiCad (PCBNEW 10.0.1) date 2026-06-05 15:47:18*
%MOMM*%
%LPD*%
G01*
G04 APERTURE LIST*
G04 Aperture macros list*
%AMRoundRect*
0 Rectangle with rounded corners*
0 $1 Rounding radius*
0 $2 $3 $4 $5 $6 $7 $8 $9 X,Y pos of 4 corners*
0 Add a 4 corners polygon primitive as box body*
4,1,4,$2,$3,$4,$5,$6,$7,$8,$9,$2,$3,0*
0 Add four circle primitives for the rounded corners*
1,1,$1+$1,$2,$3*
1,1,$1+$1,$4,$5*
1,1,$1+$1,$6,$7*
1,1,$1+$1,$8,$9*
0 Add four rect primitives between the rounded corners*
20,1,$1+$1,$2,$3,$4,$5,0*
20,1,$1+$1,$4,$5,$6,$7,0*
20,1,$1+$1,$6,$7,$8,$9,0*
20,1,$1+$1,$8,$9,$2,$3,0*%
G04 Aperture macros list end*
G04 #@! TA.AperFunction,ComponentPad*
%ADD10C,0.600000*%
G04 #@! TD*
G04 #@! TA.AperFunction,ComponentPad*
%ADD11O,1.000000X2.100000*%
G04 #@! TD*
G04 #@! TA.AperFunction,ComponentPad*
%ADD12O,1.000000X1.600000*%
G04 #@! TD*
G04 #@! TA.AperFunction,ComponentPad*
%ADD13RoundRect,0.350000X-0.350000X-1.300000X0.350000X-1.300000X0.350000X1.300000X-0.350000X1.300000X0*%
G04 #@! TD*
G04 #@! TA.AperFunction,ComponentPad*
%ADD14RoundRect,0.350000X-0.350000X-0.700000X0.350000X-0.700000X0.350000X0.700000X-0.350000X0.700000X0*%
G04 #@! TD*
G04 #@! TA.AperFunction,ViaPad*
%ADD15C,0.600000*%
G04 #@! TD*
G04 APERTURE END LIST*
D10*
X168275000Y-140662500D03*
X166900000Y-140662500D03*
X165525000Y-140662500D03*
X168275000Y-142037500D03*
X166900000Y-142037500D03*
X165525000Y-142037500D03*
X168275000Y-143412500D03*
X166900000Y-143412500D03*
X165525000Y-143412500D03*
D11*
X164530000Y-151815000D03*
D12*
X164530000Y-155995000D03*
D11*
X173170000Y-151815000D03*
D12*
X173170000Y-155995000D03*
D11*
X178525002Y-151820000D03*
D12*
X178525002Y-156000000D03*
D11*
X187165002Y-151820000D03*
D12*
X187165002Y-156000000D03*
D13*
X144825000Y-149800000D03*
D14*
X144825000Y-155760000D03*
X159325000Y-155760000D03*
D13*
X159325000Y-149800000D03*
D15*
X169100000Y-154900000D03*
X168100000Y-154900000D03*
X155115625Y-152709546D03*
X162382222Y-152362648D03*
X180000000Y-153600000D03*
X183100000Y-152300000D03*
X163024461Y-149729360D03*
X160919580Y-147800702D03*
X196000000Y-133800000D03*
X183600000Y-133700000D03*
X168486704Y-148591683D03*
X167700000Y-148600000D03*
X140689649Y-148307346D03*
X161392220Y-141792220D03*
X169080456Y-135153351D03*
X155056830Y-140768644D03*
X188922353Y-139244002D03*
X184720544Y-139477519D03*
X163411936Y-138664814D03*
X181923895Y-137640304D03*
X177474068Y-144942000D03*
X192900000Y-135000000D03*
X155056830Y-141932771D03*
X162433072Y-141807500D03*
X140697453Y-146496947D03*
X170284645Y-137424034D03*
X169435593Y-141843859D03*
X164447563Y-140791620D03*
X176535924Y-132738457D03*
X180733696Y-141412331D03*
X162200000Y-145100000D03*
X180226534Y-145201667D03*
X148841179Y-142371905D03*
X175724944Y-146533952D03*
X172026269Y-144650092D03*
X182484109Y-133340356D03*
X169588848Y-146377414D03*
X178326508Y-143279129D03*
X165112402Y-136072415D03*
X150600000Y-135900000D03*
X167183367Y-146699743D03*
X169300000Y-143000000D03*
X168097049Y-137665373D03*
X166928638Y-144506953D03*
X172828717Y-144544274D03*
X167600000Y-139600000D03*
X164507457Y-142105496D03*
X156400000Y-137000000D03*
X148525000Y-135900000D03*
X163850000Y-136025000D03*
X178500000Y-139700000D03*
X175900000Y-139500000D03*
X201400000Y-142600000D03*
X163100000Y-137100000D03*
X185400000Y-135000000D03*
X162050000Y-137350000D03*
X201986822Y-144342423D03*
X185200000Y-134000000D03*
X184700000Y-133100000D03*
X202096230Y-146063107D03*
X161337500Y-138037500D03*
X161900000Y-141172500D03*
X182791827Y-137055039D03*
X162127756Y-142994982D03*
X187859397Y-139253132D03*
X173816976Y-139853771D03*
X165428351Y-146390060D03*
X172500000Y-147900000D03*
X170925205Y-146090822D03*
X177067672Y-142635185D03*
X173600000Y-143100000D03*
X176100000Y-142500000D03*
X173600000Y-141700000D03*
X176632190Y-139125000D03*
X176094054Y-136819469D03*
X176083951Y-137986394D03*
X174021311Y-138099692D03*
X171374815Y-137651899D03*
X150881106Y-153355378D03*
X190597315Y-142069295D03*
X141482534Y-140000000D03*
X143949223Y-143983636D03*
X174850292Y-152481041D03*
X187832152Y-148581361D03*
X173300000Y-148100000D03*
X182120283Y-136493485D03*
X171400716Y-135995772D03*
X158708732Y-133739065D03*
X162300000Y-133575000D03*
X168200000Y-133100000D03*
X171291005Y-151347727D03*
X180404669Y-151328674D03*
X176949707Y-149876210D03*
X166404111Y-151328674D03*
X174267121Y-150537138D03*
X185300000Y-151328674D03*
X164398590Y-148430626D03*
X191776512Y-152088256D03*
X186400000Y-145300000D03*
X178692049Y-133596557D03*
X177350000Y-137500000D03*
X148108942Y-151268701D03*
X174601780Y-142957500D03*
X175149202Y-140281276D03*
X184313504Y-136073633D03*
X197800000Y-140800000D03*
X170100000Y-152600000D03*
X168933348Y-152199973D03*
X167300000Y-152600000D03*
X168367991Y-149699876D03*
X174300743Y-148383241D03*
X166640968Y-149704998D03*
X181849667Y-142981533D03*
X187485662Y-134692251D03*
X195156100Y-139037559D03*
X195242887Y-140645000D03*
X195178201Y-137800476D03*
X184900532Y-145167045D03*
X184243489Y-152925149D03*
X181320797Y-152854111D03*
X171891181Y-141791181D03*
X172229286Y-142760653D03*
X194700000Y-136484361D03*
X182055855Y-145137135D03*
X188992199Y-136018258D03*
G04 #@! TA.AperFunction,Conductor*
G36*
X176176170Y-132220185D02*
G01*
X176221925Y-132272989D01*
X176231869Y-132342147D01*
X176202844Y-132405703D01*
X176196812Y-132412181D01*
X176159431Y-132449561D01*
X176159429Y-132449564D01*
X176097488Y-132556850D01*
X176097488Y-132556851D01*
X176065424Y-132676514D01*
X176065424Y-132800400D01*
X176097488Y-132920063D01*
X176159430Y-133027351D01*
X176247030Y-133114951D01*
X176354318Y-133176893D01*
X176473981Y-133208957D01*
X176473984Y-133208957D01*
X176597864Y-133208957D01*
X176597867Y-133208957D01*
X176717530Y-133176893D01*
X176824818Y-133114951D01*
X176912418Y-133027351D01*
X176974360Y-132920063D01*
X177006424Y-132800400D01*
X177006424Y-132676514D01*
X176974360Y-132556851D01*
X176912418Y-132449563D01*
X176875036Y-132412181D01*
X176841551Y-132350858D01*
X176846535Y-132281166D01*
X176888407Y-132225233D01*
X176953871Y-132200816D01*
X176962717Y-132200500D01*
X200273071Y-132200500D01*
X200296519Y-132200500D01*
X200303472Y-132200695D01*
X200617697Y-132218342D01*
X200631498Y-132219897D01*
X200914359Y-132267957D01*
X200938331Y-132272030D01*
X200951888Y-132275124D01*
X201250955Y-132361284D01*
X201264079Y-132365877D01*
X201551610Y-132484975D01*
X201564140Y-132491009D01*
X201836532Y-132641556D01*
X201848305Y-132648953D01*
X202102127Y-132829049D01*
X202112999Y-132837719D01*
X202337180Y-133038059D01*
X202345063Y-133045103D01*
X202354894Y-133054934D01*
X202399189Y-133104500D01*
X202562280Y-133287000D01*
X202570950Y-133297872D01*
X202751046Y-133551694D01*
X202758443Y-133563467D01*
X202908990Y-133835859D01*
X202915024Y-133848389D01*
X203034122Y-134135920D01*
X203038715Y-134149044D01*
X203124875Y-134448111D01*
X203127969Y-134461668D01*
X203180101Y-134768493D01*
X203181658Y-134782311D01*
X203199305Y-135096527D01*
X203199500Y-135103480D01*
X203199500Y-154096519D01*
X203199305Y-154103472D01*
X203181658Y-154417688D01*
X203180101Y-154431506D01*
X203127969Y-154738331D01*
X203124875Y-154751888D01*
X203038715Y-155050955D01*
X203034122Y-155064079D01*
X202915024Y-155351610D01*
X202908990Y-155364140D01*
X202758443Y-155636532D01*
X202751046Y-155648305D01*
X202570950Y-155902127D01*
X202562280Y-155912999D01*
X202354896Y-156145063D01*
X202345063Y-156154896D01*
X202112999Y-156362280D01*
X202102127Y-156370950D01*
X201848305Y-156551046D01*
X201836532Y-156558443D01*
X201564140Y-156708990D01*
X201551610Y-156715024D01*
X201264079Y-156834122D01*
X201250955Y-156838715D01*
X200951888Y-156924875D01*
X200938331Y-156927969D01*
X200631506Y-156980101D01*
X200617688Y-156981658D01*
X200303472Y-156999305D01*
X200296519Y-156999500D01*
X141303481Y-156999500D01*
X141296528Y-156999305D01*
X140982311Y-156981658D01*
X140968493Y-156980101D01*
X140661668Y-156927969D01*
X140648111Y-156924875D01*
X140349044Y-156838715D01*
X140335920Y-156834122D01*
X140048389Y-156715024D01*
X140035859Y-156708990D01*
X139763467Y-156558443D01*
X139751694Y-156551046D01*
X139497872Y-156370950D01*
X139487000Y-156362280D01*
X139254936Y-156154896D01*
X139245103Y-156145063D01*
X139037719Y-155912999D01*
X139029049Y-155902127D01*
X138848953Y-155648305D01*
X138841556Y-155636532D01*
X138691009Y-155364140D01*
X138684975Y-155351610D01*
X138565877Y-155064079D01*
X138561284Y-155050955D01*
X138475124Y-154751888D01*
X138472030Y-154738331D01*
X138419898Y-154431506D01*
X138418342Y-154417697D01*
X138401629Y-154120097D01*
X139449500Y-154120097D01*
X139449500Y-154379902D01*
X139490140Y-154636493D01*
X139570422Y-154883576D01*
X139618306Y-154977552D01*
X139688366Y-155115051D01*
X139841069Y-155325229D01*
X140024771Y-155508931D01*
X140234949Y-155661634D01*
X140382445Y-155736787D01*
X140466423Y-155779577D01*
X140466425Y-155779577D01*
X140466428Y-155779579D01*
X140713507Y-155859860D01*
X140845706Y-155880797D01*
X140970098Y-155900500D01*
X140970103Y-155900500D01*
X141229902Y-155900500D01*
X141343298Y-155882539D01*
X141486493Y-155859860D01*
X141733572Y-155779579D01*
X141965051Y-155661634D01*
X142175229Y-155508931D01*
X142358931Y-155325229D01*
X142367533Y-155313389D01*
X192799500Y-155313389D01*
X192799500Y-155486611D01*
X192803130Y-155509529D01*
X192825109Y-155648305D01*
X192826598Y-155657701D01*
X192880127Y-155822445D01*
X192958768Y-155976788D01*
X193060586Y-156116928D01*
X193183072Y-156239414D01*
X193323212Y-156341232D01*
X193477555Y-156419873D01*
X193642299Y-156473402D01*
X193813389Y-156500500D01*
X193813390Y-156500500D01*
X193986610Y-156500500D01*
X193986611Y-156500500D01*
X194157701Y-156473402D01*
X194322445Y-156419873D01*
X194476788Y-156341232D01*
X194616928Y-156239414D01*
X194739414Y-156116928D01*
X194841232Y-155976788D01*
X194919873Y-155822445D01*
X194973402Y-155657701D01*
X195000500Y-155486611D01*
X195000500Y-155313389D01*
X194973402Y-155142299D01*
X194919873Y-154977555D01*
X194841232Y-154823212D01*
X194739414Y-154683072D01*
X194616928Y-154560586D01*
X194476788Y-154458768D01*
X194322445Y-154380127D01*
X194157701Y-154326598D01*
X194157699Y-154326597D01*
X194157698Y-154326597D01*
X194026271Y-154305781D01*
X193986611Y-154299500D01*
X193813389Y-154299500D01*
X193773728Y-154305781D01*
X193642302Y-154326597D01*
X193642299Y-154326598D01*
X193478248Y-154379902D01*
X193477552Y-154380128D01*
X193323211Y-154458768D01*
X193243256Y-154516859D01*
X193183072Y-154560586D01*
X193183070Y-154560588D01*
X193183069Y-154560588D01*
X193060588Y-154683069D01*
X193060588Y-154683070D01*
X193060586Y-154683072D01*
X193020438Y-154738331D01*
X192958768Y-154823211D01*
X192880128Y-154977552D01*
X192826597Y-155142302D01*
X192799500Y-155313389D01*
X142367533Y-155313389D01*
X142511634Y-155115051D01*
X142629579Y-154883572D01*
X142709860Y-154636493D01*
X142732539Y-154493298D01*
X142750500Y-154379902D01*
X142750500Y-154120097D01*
X198849500Y-154120097D01*
X198849500Y-154379902D01*
X198890140Y-154636493D01*
X198970422Y-154883576D01*
X199018306Y-154977552D01*
X199088366Y-155115051D01*
X199241069Y-155325229D01*
X199424771Y-155508931D01*
X199634949Y-155661634D01*
X199782445Y-155736787D01*
X199866423Y-155779577D01*
X199866425Y-155779577D01*
X199866428Y-155779579D01*
X200113507Y-155859860D01*
X200245706Y-155880797D01*
X200370098Y-155900500D01*
X200370103Y-155900500D01*
X200629902Y-155900500D01*
X200743298Y-155882539D01*
X200886493Y-155859860D01*
X201133572Y-155779579D01*
X201365051Y-155661634D01*
X201575229Y-155508931D01*
X201758931Y-155325229D01*
X201911634Y-155115051D01*
X202029579Y-154883572D01*
X202109860Y-154636493D01*
X202132539Y-154493298D01*
X202150500Y-154379902D01*
X202150500Y-154120097D01*
X202127755Y-153976492D01*
X202109860Y-153863507D01*
X202029579Y-153616428D01*
X202029577Y-153616425D01*
X202029577Y-153616423D01*
X201986787Y-153532445D01*
X201911634Y-153384949D01*
X201758931Y-153174771D01*
X201575229Y-152991069D01*
X201558458Y-152978884D01*
X201365054Y-152838368D01*
X201365053Y-152838367D01*
X201365051Y-152838366D01*
X201253654Y-152781606D01*
X201133576Y-152720422D01*
X200886493Y-152640140D01*
X200629902Y-152599500D01*
X200629897Y-152599500D01*
X200370103Y-152599500D01*
X200370098Y-152599500D01*
X200113506Y-152640140D01*
X199866423Y-152720422D01*
X199634945Y-152838368D01*
X199424774Y-152991066D01*
X199424768Y-152991071D01*
X199241071Y-153174768D01*
X199241066Y-153174774D01*
X199088368Y-153384945D01*
X198970422Y-153616423D01*
X198890140Y-153863506D01*
X198849500Y-154120097D01*
X142750500Y-154120097D01*
X142727755Y-153976492D01*
X142709860Y-153863507D01*
X142629579Y-153616428D01*
X142629577Y-153616425D01*
X142629577Y-153616423D01*
X142528675Y-153418394D01*
X142511634Y-153384949D01*
X142445145Y-153293435D01*
X150410606Y-153293435D01*
X150410606Y-153417321D01*
X150442670Y-153536984D01*
X150504612Y-153644272D01*
X150592212Y-153731872D01*
X150699500Y-153793814D01*
X150819163Y-153825878D01*
X150819166Y-153825878D01*
X150943046Y-153825878D01*
X150943049Y-153825878D01*
X151062712Y-153793814D01*
X151170000Y-153731872D01*
X151257600Y-153644272D01*
X151319542Y-153536984D01*
X151351606Y-153417321D01*
X151351606Y-153293435D01*
X151319542Y-153173772D01*
X151257600Y-153066484D01*
X151170000Y-152978884D01*
X151062712Y-152916942D01*
X151062713Y-152916942D01*
X151015584Y-152904314D01*
X150943049Y-152884878D01*
X150819163Y-152884878D01*
X150746628Y-152904314D01*
X150699499Y-152916942D01*
X150592213Y-152978883D01*
X150592210Y-152978885D01*
X150504613Y-153066482D01*
X150504611Y-153066485D01*
X150442670Y-153173771D01*
X150442083Y-153175963D01*
X150410606Y-153293435D01*
X142445145Y-153293435D01*
X142358931Y-153174771D01*
X142175229Y-152991069D01*
X142158458Y-152978884D01*
X141965054Y-152838368D01*
X141965053Y-152838367D01*
X141965051Y-152838366D01*
X141779322Y-152743732D01*
X141733576Y-152720422D01*
X141509462Y-152647603D01*
X154645125Y-152647603D01*
X154645125Y-152771489D01*
X154677189Y-152891152D01*
X154739131Y-152998440D01*
X154826731Y-153086040D01*
X154934019Y-153147982D01*
X155053682Y-153180046D01*
X155053685Y-153180046D01*
X155177565Y-153180046D01*
X155177568Y-153180046D01*
X155297231Y-153147982D01*
X155404519Y-153086040D01*
X155492119Y-152998440D01*
X155554061Y-152891152D01*
X155586125Y-152771489D01*
X155586125Y-152647603D01*
X155554061Y-152527940D01*
X155492119Y-152420652D01*
X155404519Y-152333052D01*
X155318499Y-152283389D01*
X165334500Y-152283389D01*
X165334500Y-152406610D01*
X165358535Y-152527444D01*
X165358538Y-152527454D01*
X165405687Y-152641283D01*
X165405692Y-152641292D01*
X165474141Y-152743732D01*
X165474144Y-152743736D01*
X165561263Y-152830855D01*
X165561267Y-152830858D01*
X165663707Y-152899307D01*
X165663713Y-152899310D01*
X165663714Y-152899311D01*
X165777548Y-152946463D01*
X165898389Y-152970499D01*
X165898393Y-152970500D01*
X165898394Y-152970500D01*
X166021607Y-152970500D01*
X166021608Y-152970499D01*
X166142452Y-152946463D01*
X166256286Y-152899311D01*
X166358733Y-152830858D01*
X166445858Y-152743733D01*
X166514311Y-152641286D01*
X166557070Y-152538057D01*
X166829500Y-152538057D01*
X166829500Y-152661943D01*
X166861564Y-152781606D01*
X166923506Y-152888894D01*
X167011106Y-152976494D01*
X167118394Y-153038436D01*
X167238057Y-153070500D01*
X167238060Y-153070500D01*
X167361940Y-153070500D01*
X167361943Y-153070500D01*
X167481606Y-153038436D01*
X167588894Y-152976494D01*
X167676494Y-152888894D01*
X167738436Y-152781606D01*
X167770500Y-152661943D01*
X167770500Y-152538057D01*
X167738436Y-152418394D01*
X167676494Y-152311106D01*
X167588894Y-152223506D01*
X167588893Y-152223505D01*
X167481606Y-152161564D01*
X167481607Y-152161564D01*
X167451690Y-152153548D01*
X167393777Y-152138030D01*
X168462848Y-152138030D01*
X168462848Y-152261916D01*
X168494912Y-152381579D01*
X168556854Y-152488867D01*
X168644454Y-152576467D01*
X168751742Y-152638409D01*
X168871405Y-152670473D01*
X168871408Y-152670473D01*
X168995288Y-152670473D01*
X168995291Y-152670473D01*
X169114954Y-152638409D01*
X169222242Y-152576467D01*
X169260652Y-152538057D01*
X169629500Y-152538057D01*
X169629500Y-152661943D01*
X169661564Y-152781606D01*
X169723506Y-152888894D01*
X169811106Y-152976494D01*
X169918394Y-153038436D01*
X170038057Y-153070500D01*
X170038060Y-153070500D01*
X170161940Y-153070500D01*
X170161943Y-153070500D01*
X170281606Y-153038436D01*
X170388894Y-152976494D01*
X170476494Y-152888894D01*
X170538436Y-152781606D01*
X170570500Y-152661943D01*
X170570500Y-152538057D01*
X170538436Y-152418394D01*
X170476494Y-152311106D01*
X170388894Y-152223506D01*
X170281606Y-152161564D01*
X170281607Y-152161564D01*
X170251690Y-152153548D01*
X170161943Y-152129500D01*
X170038057Y-152129500D01*
X169948309Y-152153548D01*
X169918393Y-152161564D01*
X169811107Y-152223505D01*
X169811104Y-152223507D01*
X169723507Y-152311104D01*
X169723505Y-152311107D01*
X169661564Y-152418393D01*
X169651849Y-152454649D01*
X169629500Y-152538057D01*
X169260652Y-152538057D01*
X169309842Y-152488867D01*
X169371784Y-152381579D01*
X169403848Y-152261916D01*
X169403848Y-152138030D01*
X169371784Y-152018367D01*
X169309842Y-151911079D01*
X169222242Y-151823479D01*
X169114954Y-151761537D01*
X169114955Y-151761537D01*
X169085038Y-151753521D01*
X168995291Y-151729473D01*
X168871405Y-151729473D01*
X168781657Y-151753521D01*
X168751741Y-151761537D01*
X168644455Y-151823478D01*
X168644452Y-151823480D01*
X168556855Y-151911077D01*
X168556853Y-151911080D01*
X168494912Y-152018366D01*
X168494912Y-152018367D01*
X168462848Y-152138030D01*
X167393777Y-152138030D01*
X167361943Y-152129500D01*
X167238057Y-152129500D01*
X167148309Y-152153548D01*
X167118393Y-152161564D01*
X167011107Y-152223505D01*
X167011104Y-152223507D01*
X166923507Y-152311104D01*
X166923505Y-152311107D01*
X166861564Y-152418393D01*
X166851849Y-152454649D01*
X166829500Y-152538057D01*
X166557070Y-152538057D01*
X166561463Y-152527452D01*
X166585500Y-152406606D01*
X166585500Y-152283394D01*
X166561463Y-152162548D01*
X166521321Y-152065637D01*
X166514312Y-152048716D01*
X166514307Y-152048707D01*
X166461702Y-151969978D01*
X166440824Y-151903300D01*
X166459309Y-151835920D01*
X166511288Y-151789230D01*
X166532703Y-151781314D01*
X166585717Y-151767110D01*
X166693005Y-151705168D01*
X166780605Y-151617568D01*
X166842547Y-151510280D01*
X166874611Y-151390617D01*
X166874611Y-151285784D01*
X170820505Y-151285784D01*
X170820505Y-151409670D01*
X170852569Y-151529333D01*
X170914511Y-151636621D01*
X171002111Y-151724221D01*
X171109399Y-151786163D01*
X171155750Y-151798583D01*
X171215410Y-151834947D01*
X171245939Y-151897794D01*
X171237644Y-151967169D01*
X171226759Y-151987247D01*
X171185691Y-152048709D01*
X171185687Y-152048716D01*
X171138538Y-152162545D01*
X171138535Y-152162555D01*
X171114500Y-152283389D01*
X171114500Y-152406610D01*
X171138535Y-152527444D01*
X171138538Y-152527454D01*
X171185687Y-152641283D01*
X171185692Y-152641292D01*
X171254141Y-152743732D01*
X171254144Y-152743736D01*
X171341263Y-152830855D01*
X171341267Y-152830858D01*
X171443707Y-152899307D01*
X171443713Y-152899310D01*
X171443714Y-152899311D01*
X171557548Y-152946463D01*
X171678389Y-152970499D01*
X171678393Y-152970500D01*
X171678394Y-152970500D01*
X171801607Y-152970500D01*
X171801608Y-152970499D01*
X171922452Y-152946463D01*
X172036286Y-152899311D01*
X172138733Y-152830858D01*
X172225858Y-152743733D01*
X172294311Y-152641286D01*
X172341463Y-152527452D01*
X172363015Y-152419098D01*
X174379792Y-152419098D01*
X174379792Y-152542984D01*
X174411856Y-152662647D01*
X174473798Y-152769935D01*
X174561398Y-152857535D01*
X174668686Y-152919477D01*
X174788349Y-152951541D01*
X174788352Y-152951541D01*
X174912232Y-152951541D01*
X174912235Y-152951541D01*
X175031898Y-152919477D01*
X175139186Y-152857535D01*
X175226786Y-152769935D01*
X175288728Y-152662647D01*
X175320792Y-152542984D01*
X175320792Y-152419098D01*
X175288728Y-152299435D01*
X175282351Y-152288389D01*
X179329502Y-152288389D01*
X179329502Y-152411610D01*
X179353537Y-152532444D01*
X179353540Y-152532454D01*
X179400689Y-152646283D01*
X179400694Y-152646292D01*
X179469143Y-152748732D01*
X179469146Y-152748736D01*
X179556265Y-152835855D01*
X179556269Y-152835858D01*
X179658709Y-152904307D01*
X179658718Y-152904312D01*
X179695327Y-152919476D01*
X179772545Y-152951461D01*
X179778178Y-152953794D01*
X179777152Y-152956269D01*
X179825903Y-152988232D01*
X179854347Y-153052050D01*
X179843772Y-153121115D01*
X179797537Y-153173499D01*
X179793453Y-153175963D01*
X179711109Y-153223503D01*
X179711104Y-153223507D01*
X179623507Y-153311104D01*
X179623505Y-153311107D01*
X179561564Y-153418393D01*
X179561564Y-153418394D01*
X179529500Y-153538057D01*
X179529500Y-153661943D01*
X179561564Y-153781606D01*
X179623506Y-153888894D01*
X179711106Y-153976494D01*
X179818394Y-154038436D01*
X179938057Y-154070500D01*
X179938060Y-154070500D01*
X180061940Y-154070500D01*
X180061943Y-154070500D01*
X180181606Y-154038436D01*
X180288894Y-153976494D01*
X180376494Y-153888894D01*
X180438436Y-153781606D01*
X180470500Y-153661943D01*
X180470500Y-153538057D01*
X180438436Y-153418394D01*
X180376494Y-153311106D01*
X180288894Y-153223506D01*
X180181606Y-153161564D01*
X180181604Y-153161563D01*
X180174568Y-153157501D01*
X180175338Y-153156166D01*
X180128087Y-153118091D01*
X180106021Y-153051797D01*
X180123299Y-152984098D01*
X180174435Y-152936486D01*
X180182482Y-152932811D01*
X180208580Y-152922001D01*
X180251282Y-152904314D01*
X180251285Y-152904312D01*
X180251288Y-152904311D01*
X180353735Y-152835858D01*
X180397425Y-152792168D01*
X180850297Y-152792168D01*
X180850297Y-152916054D01*
X180882361Y-153035717D01*
X180944303Y-153143005D01*
X181031903Y-153230605D01*
X181139191Y-153292547D01*
X181258854Y-153324611D01*
X181258857Y-153324611D01*
X181382737Y-153324611D01*
X181382740Y-153324611D01*
X181502403Y-153292547D01*
X181609691Y-153230605D01*
X181697291Y-153143005D01*
X181759233Y-153035717D01*
X181791297Y-152916054D01*
X181791297Y-152863206D01*
X183772989Y-152863206D01*
X183772989Y-152987092D01*
X183805053Y-153106755D01*
X183866995Y-153214043D01*
X183954595Y-153301643D01*
X184061883Y-153363585D01*
X184181546Y-153395649D01*
X184181549Y-153395649D01*
X184305429Y-153395649D01*
X184305432Y-153395649D01*
X184425095Y-153363585D01*
X184532383Y-153301643D01*
X184619983Y-153214043D01*
X184681925Y-153106755D01*
X184713989Y-152987092D01*
X184713989Y-152863206D01*
X184681925Y-152743543D01*
X184619983Y-152636255D01*
X184532383Y-152548655D01*
X184425095Y-152486713D01*
X184425096Y-152486713D01*
X184391145Y-152477616D01*
X184305432Y-152454649D01*
X184181546Y-152454649D01*
X184095833Y-152477616D01*
X184061882Y-152486713D01*
X183954596Y-152548654D01*
X183954593Y-152548656D01*
X183866996Y-152636253D01*
X183866994Y-152636256D01*
X183805053Y-152743542D01*
X183803333Y-152749961D01*
X183772989Y-152863206D01*
X181791297Y-152863206D01*
X181791297Y-152792168D01*
X181759233Y-152672505D01*
X181697291Y-152565217D01*
X181609691Y-152477617D01*
X181502403Y-152415675D01*
X181502404Y-152415675D01*
X181468557Y-152406606D01*
X181382740Y-152383611D01*
X181258854Y-152383611D01*
X181173037Y-152406606D01*
X181139190Y-152415675D01*
X181031904Y-152477616D01*
X181031901Y-152477618D01*
X180944304Y-152565215D01*
X180944302Y-152565218D01*
X180882361Y-152672504D01*
X180881292Y-152676494D01*
X180850297Y-152792168D01*
X180397425Y-152792168D01*
X180440860Y-152748733D01*
X180459778Y-152720421D01*
X180463300Y-152715150D01*
X180509309Y-152646292D01*
X180509309Y-152646291D01*
X180509313Y-152646286D01*
X180556465Y-152532452D01*
X180580502Y-152411606D01*
X180580502Y-152288394D01*
X180570490Y-152238057D01*
X182629500Y-152238057D01*
X182629500Y-152361943D01*
X182661564Y-152481606D01*
X182723506Y-152588894D01*
X182811106Y-152676494D01*
X182918394Y-152738436D01*
X183038057Y-152770500D01*
X183038060Y-152770500D01*
X183161940Y-152770500D01*
X183161943Y-152770500D01*
X183281606Y-152738436D01*
X183388894Y-152676494D01*
X183476494Y-152588894D01*
X183538436Y-152481606D01*
X183570500Y-152361943D01*
X183570500Y-152238057D01*
X183538436Y-152118394D01*
X183476494Y-152011106D01*
X183388894Y-151923506D01*
X183281606Y-151861564D01*
X183281607Y-151861564D01*
X183251690Y-151853548D01*
X183161943Y-151829500D01*
X183038057Y-151829500D01*
X182948309Y-151853548D01*
X182918393Y-151861564D01*
X182811107Y-151923505D01*
X182811104Y-151923507D01*
X182723507Y-152011104D01*
X182723505Y-152011107D01*
X182661564Y-152118393D01*
X182661564Y-152118394D01*
X182629500Y-152238057D01*
X180570490Y-152238057D01*
X180556465Y-152167548D01*
X180509313Y-152053714D01*
X180509310Y-152053709D01*
X180509309Y-152053707D01*
X180454714Y-151972000D01*
X180433836Y-151905322D01*
X180452321Y-151837942D01*
X180504299Y-151791252D01*
X180525712Y-151783337D01*
X180586275Y-151767110D01*
X180693563Y-151705168D01*
X180781163Y-151617568D01*
X180843105Y-151510280D01*
X180875169Y-151390617D01*
X180875169Y-151266731D01*
X184829500Y-151266731D01*
X184829500Y-151390617D01*
X184861564Y-151510280D01*
X184923506Y-151617568D01*
X185011106Y-151705168D01*
X185118394Y-151767110D01*
X185166509Y-151780002D01*
X185226167Y-151816365D01*
X185256697Y-151879212D01*
X185248403Y-151948588D01*
X185237517Y-151968666D01*
X185180693Y-152053709D01*
X185180689Y-152053716D01*
X185133540Y-152167545D01*
X185133537Y-152167555D01*
X185109502Y-152288389D01*
X185109502Y-152411610D01*
X185133537Y-152532444D01*
X185133540Y-152532454D01*
X185180689Y-152646283D01*
X185180694Y-152646292D01*
X185249143Y-152748732D01*
X185249146Y-152748736D01*
X185336265Y-152835855D01*
X185336269Y-152835858D01*
X185438709Y-152904307D01*
X185438715Y-152904310D01*
X185438716Y-152904311D01*
X185552550Y-152951463D01*
X185648259Y-152970500D01*
X185673391Y-152975499D01*
X185673395Y-152975500D01*
X185673396Y-152975500D01*
X185796609Y-152975500D01*
X185796610Y-152975499D01*
X185917454Y-152951463D01*
X186031288Y-152904311D01*
X186133735Y-152835858D01*
X186220860Y-152748733D01*
X186289313Y-152646286D01*
X186336465Y-152532452D01*
X186360502Y-152411606D01*
X186360502Y-152288394D01*
X186336465Y-152167548D01*
X186316105Y-152118394D01*
X186294253Y-152065638D01*
X186294252Y-152065637D01*
X186289317Y-152053722D01*
X186289309Y-152053707D01*
X186271005Y-152026313D01*
X191306012Y-152026313D01*
X191306012Y-152150199D01*
X191338076Y-152269862D01*
X191400018Y-152377150D01*
X191487618Y-152464750D01*
X191594906Y-152526692D01*
X191714569Y-152558756D01*
X191714572Y-152558756D01*
X191838452Y-152558756D01*
X191838455Y-152558756D01*
X191958118Y-152526692D01*
X192065406Y-152464750D01*
X192153006Y-152377150D01*
X192214948Y-152269862D01*
X192247012Y-152150199D01*
X192247012Y-152026313D01*
X192214948Y-151906650D01*
X192153006Y-151799362D01*
X192065406Y-151711762D01*
X191958118Y-151649820D01*
X191958119Y-151649820D01*
X191928202Y-151641804D01*
X191838455Y-151617756D01*
X191714569Y-151617756D01*
X191624821Y-151641804D01*
X191594905Y-151649820D01*
X191487619Y-151711761D01*
X191487616Y-151711763D01*
X191400019Y-151799360D01*
X191400017Y-151799363D01*
X191338076Y-151906649D01*
X191338076Y-151906650D01*
X191306012Y-152026313D01*
X186271005Y-152026313D01*
X186220860Y-151951267D01*
X186220857Y-151951263D01*
X186133738Y-151864144D01*
X186133734Y-151864141D01*
X186031294Y-151795692D01*
X186031285Y-151795687D01*
X185917456Y-151748538D01*
X185917454Y-151748537D01*
X185917452Y-151748536D01*
X185917448Y-151748535D01*
X185803205Y-151725811D01*
X185741294Y-151693426D01*
X185706720Y-151632710D01*
X185710460Y-151562941D01*
X185720005Y-151542203D01*
X185738436Y-151510280D01*
X185770500Y-151390617D01*
X185770500Y-151266731D01*
X185738436Y-151147068D01*
X185676494Y-151039780D01*
X185588894Y-150952180D01*
X185481606Y-150890238D01*
X185481607Y-150890238D01*
X185451690Y-150882222D01*
X185361943Y-150858174D01*
X185238057Y-150858174D01*
X185148309Y-150882222D01*
X185118393Y-150890238D01*
X185011107Y-150952179D01*
X185011104Y-150952181D01*
X184923507Y-151039778D01*
X184923505Y-151039781D01*
X184861564Y-151147067D01*
X184861564Y-151147068D01*
X184829500Y-151266731D01*
X180875169Y-151266731D01*
X180843105Y-151147068D01*
X180781163Y-151039780D01*
X180693563Y-150952180D01*
X180586275Y-150890238D01*
X180586276Y-150890238D01*
X180556359Y-150882222D01*
X180466612Y-150858174D01*
X180342726Y-150858174D01*
X180252978Y-150882222D01*
X180223062Y-150890238D01*
X180115776Y-150952179D01*
X180115773Y-150952181D01*
X180028176Y-151039778D01*
X180028174Y-151039781D01*
X179966233Y-151147067D01*
X179966233Y-151147068D01*
X179934169Y-151266731D01*
X179934169Y-151390617D01*
X179950163Y-151450307D01*
X179966233Y-151510281D01*
X179966235Y-151510284D01*
X179983180Y-151539635D01*
X179999651Y-151607536D01*
X179976798Y-151673562D01*
X179921876Y-151716752D01*
X179899171Y-151722309D01*
X179899371Y-151723311D01*
X179772557Y-151748535D01*
X179772547Y-151748538D01*
X179658718Y-151795687D01*
X179658709Y-151795692D01*
X179556269Y-151864141D01*
X179556265Y-151864144D01*
X179469146Y-151951263D01*
X179469143Y-151951267D01*
X179400694Y-152053707D01*
X179400689Y-152053716D01*
X179353540Y-152167545D01*
X179353537Y-152167555D01*
X179329502Y-152288389D01*
X175282351Y-152288389D01*
X175226786Y-152192147D01*
X175139186Y-152104547D01*
X175031898Y-152042605D01*
X175031899Y-152042605D01*
X175001982Y-152034589D01*
X174912235Y-152010541D01*
X174788349Y-152010541D01*
X174698601Y-152034589D01*
X174668685Y-152042605D01*
X174561399Y-152104546D01*
X174561396Y-152104548D01*
X174473799Y-152192145D01*
X174473797Y-152192148D01*
X174411856Y-152299434D01*
X174402848Y-152333052D01*
X174379792Y-152419098D01*
X172363015Y-152419098D01*
X172365500Y-152406606D01*
X172365500Y-152283394D01*
X172341463Y-152162548D01*
X172301321Y-152065637D01*
X172294312Y-152048716D01*
X172294307Y-152048707D01*
X172225858Y-151946267D01*
X172225855Y-151946263D01*
X172138736Y-151859144D01*
X172138732Y-151859141D01*
X172036292Y-151790692D01*
X172036283Y-151790687D01*
X171922454Y-151743538D01*
X171922452Y-151743537D01*
X171922450Y-151743536D01*
X171922446Y-151743535D01*
X171808108Y-151720792D01*
X171746197Y-151688407D01*
X171711623Y-151627691D01*
X171715363Y-151557922D01*
X171724911Y-151537178D01*
X171729441Y-151529333D01*
X171761505Y-151409670D01*
X171761505Y-151285784D01*
X171729441Y-151166121D01*
X171667499Y-151058833D01*
X171579899Y-150971233D01*
X171472611Y-150909291D01*
X171472612Y-150909291D01*
X171442695Y-150901275D01*
X171352948Y-150877227D01*
X171229062Y-150877227D01*
X171139314Y-150901275D01*
X171109398Y-150909291D01*
X171002112Y-150971232D01*
X171002109Y-150971234D01*
X170914512Y-151058831D01*
X170914510Y-151058834D01*
X170852569Y-151166120D01*
X170852569Y-151166121D01*
X170820505Y-151285784D01*
X166874611Y-151285784D01*
X166874611Y-151266731D01*
X166842547Y-151147068D01*
X166780605Y-151039780D01*
X166693005Y-150952180D01*
X166585717Y-150890238D01*
X166585718Y-150890238D01*
X166555801Y-150882222D01*
X166466054Y-150858174D01*
X166342168Y-150858174D01*
X166252420Y-150882222D01*
X166222504Y-150890238D01*
X166115218Y-150952179D01*
X166115215Y-150952181D01*
X166027618Y-151039778D01*
X166027616Y-151039781D01*
X165965675Y-151147067D01*
X165965675Y-151147068D01*
X165933611Y-151266731D01*
X165933611Y-151390617D01*
X165949605Y-151450307D01*
X165965675Y-151510281D01*
X165965676Y-151510282D01*
X165980573Y-151536084D01*
X165997046Y-151603984D01*
X165974194Y-151670011D01*
X165919272Y-151713202D01*
X165897377Y-151719701D01*
X165777555Y-151743535D01*
X165777545Y-151743538D01*
X165663716Y-151790687D01*
X165663707Y-151790692D01*
X165561267Y-151859141D01*
X165561263Y-151859144D01*
X165474144Y-151946263D01*
X165474141Y-151946267D01*
X165405692Y-152048707D01*
X165405687Y-152048716D01*
X165358538Y-152162545D01*
X165358535Y-152162555D01*
X165334500Y-152283389D01*
X155318499Y-152283389D01*
X155297231Y-152271110D01*
X155297232Y-152271110D01*
X155262908Y-152261913D01*
X155177568Y-152239046D01*
X155053682Y-152239046D01*
X154968342Y-152261913D01*
X154934018Y-152271110D01*
X154826732Y-152333051D01*
X154826729Y-152333053D01*
X154739132Y-152420650D01*
X154739130Y-152420653D01*
X154677189Y-152527939D01*
X154673159Y-152542981D01*
X154645125Y-152647603D01*
X141509462Y-152647603D01*
X141486493Y-152640140D01*
X141229902Y-152599500D01*
X141229897Y-152599500D01*
X140970103Y-152599500D01*
X140970098Y-152599500D01*
X140713506Y-152640140D01*
X140466423Y-152720422D01*
X140234945Y-152838368D01*
X140024774Y-152991066D01*
X140024768Y-152991071D01*
X139841071Y-153174768D01*
X139841066Y-153174774D01*
X139688368Y-153384945D01*
X139570422Y-153616423D01*
X139490140Y-153863506D01*
X139449500Y-154120097D01*
X138401629Y-154120097D01*
X138400695Y-154103472D01*
X138400500Y-154096519D01*
X138400500Y-151206758D01*
X147638442Y-151206758D01*
X147638442Y-151330644D01*
X147670506Y-151450307D01*
X147732448Y-151557595D01*
X147820048Y-151645195D01*
X147927336Y-151707137D01*
X148046999Y-151739201D01*
X148047002Y-151739201D01*
X148170882Y-151739201D01*
X148170885Y-151739201D01*
X148290548Y-151707137D01*
X148397836Y-151645195D01*
X148485436Y-151557595D01*
X148547378Y-151450307D01*
X148579442Y-151330644D01*
X148579442Y-151206758D01*
X148547378Y-151087095D01*
X148485436Y-150979807D01*
X148397836Y-150892207D01*
X148290548Y-150830265D01*
X148290549Y-150830265D01*
X148260632Y-150822249D01*
X148170885Y-150798201D01*
X148046999Y-150798201D01*
X147957251Y-150822249D01*
X147927335Y-150830265D01*
X147820049Y-150892206D01*
X147820046Y-150892208D01*
X147732449Y-150979805D01*
X147732447Y-150979808D01*
X147670506Y-151087094D01*
X147670506Y-151087095D01*
X147638442Y-151206758D01*
X138400500Y-151206758D01*
X138400500Y-150475195D01*
X173796621Y-150475195D01*
X173796621Y-150599081D01*
X173828685Y-150718744D01*
X173890627Y-150826032D01*
X173978227Y-150913632D01*
X174085515Y-150975574D01*
X174205178Y-151007638D01*
X174205181Y-151007638D01*
X174329061Y-151007638D01*
X174329064Y-151007638D01*
X174448727Y-150975574D01*
X174556015Y-150913632D01*
X174643615Y-150826032D01*
X174705557Y-150718744D01*
X174737621Y-150599081D01*
X174737621Y-150475195D01*
X174705557Y-150355532D01*
X174643615Y-150248244D01*
X174556015Y-150160644D01*
X174448727Y-150098702D01*
X174448728Y-150098702D01*
X174418811Y-150090686D01*
X174329064Y-150066638D01*
X174205178Y-150066638D01*
X174115430Y-150090686D01*
X174085514Y-150098702D01*
X173978228Y-150160643D01*
X173978225Y-150160645D01*
X173890628Y-150248242D01*
X173890626Y-150248245D01*
X173828685Y-150355531D01*
X173828685Y-150355532D01*
X173796621Y-150475195D01*
X138400500Y-150475195D01*
X138400500Y-149667417D01*
X162553961Y-149667417D01*
X162553961Y-149791303D01*
X162586025Y-149910966D01*
X162647967Y-150018254D01*
X162735567Y-150105854D01*
X162842855Y-150167796D01*
X162962518Y-150199860D01*
X162962521Y-150199860D01*
X163086401Y-150199860D01*
X163086404Y-150199860D01*
X163206067Y-150167796D01*
X163313355Y-150105854D01*
X163400955Y-150018254D01*
X163462897Y-149910966D01*
X163494961Y-149791303D01*
X163494961Y-149667417D01*
X163488433Y-149643055D01*
X166170468Y-149643055D01*
X166170468Y-149766941D01*
X166202532Y-149886604D01*
X166264474Y-149993892D01*
X166352074Y-150081492D01*
X166459362Y-150143434D01*
X166579025Y-150175498D01*
X166579028Y-150175498D01*
X166702908Y-150175498D01*
X166702911Y-150175498D01*
X166822574Y-150143434D01*
X166929862Y-150081492D01*
X167017462Y-149993892D01*
X167079404Y-149886604D01*
X167111468Y-149766941D01*
X167111468Y-149643055D01*
X167110096Y-149637933D01*
X167897491Y-149637933D01*
X167897491Y-149761819D01*
X167929555Y-149881482D01*
X167991497Y-149988770D01*
X168079097Y-150076370D01*
X168186385Y-150138312D01*
X168306048Y-150170376D01*
X168306051Y-150170376D01*
X168429931Y-150170376D01*
X168429934Y-150170376D01*
X168549597Y-150138312D01*
X168656885Y-150076370D01*
X168744485Y-149988770D01*
X168806427Y-149881482D01*
X168824437Y-149814267D01*
X176479207Y-149814267D01*
X176479207Y-149938153D01*
X176511271Y-150057816D01*
X176573213Y-150165104D01*
X176660813Y-150252704D01*
X176768101Y-150314646D01*
X176887764Y-150346710D01*
X176887767Y-150346710D01*
X177011647Y-150346710D01*
X177011650Y-150346710D01*
X177131313Y-150314646D01*
X177238601Y-150252704D01*
X177326201Y-150165104D01*
X177388143Y-150057816D01*
X177420207Y-149938153D01*
X177420207Y-149814267D01*
X177388143Y-149694604D01*
X177326201Y-149587316D01*
X177238601Y-149499716D01*
X177131313Y-149437774D01*
X177131314Y-149437774D01*
X177101397Y-149429758D01*
X177011650Y-149405710D01*
X176887764Y-149405710D01*
X176798016Y-149429758D01*
X176768100Y-149437774D01*
X176660814Y-149499715D01*
X176660811Y-149499717D01*
X176573214Y-149587314D01*
X176573212Y-149587317D01*
X176511271Y-149694603D01*
X176511271Y-149694604D01*
X176479207Y-149814267D01*
X168824437Y-149814267D01*
X168838491Y-149761819D01*
X168838491Y-149637933D01*
X168806427Y-149518270D01*
X168744485Y-149410982D01*
X168656885Y-149323382D01*
X168549597Y-149261440D01*
X168549598Y-149261440D01*
X168519681Y-149253424D01*
X168429934Y-149229376D01*
X168306048Y-149229376D01*
X168216300Y-149253424D01*
X168186384Y-149261440D01*
X168079098Y-149323381D01*
X168079095Y-149323383D01*
X167991498Y-149410980D01*
X167991496Y-149410983D01*
X167929555Y-149518269D01*
X167921655Y-149547753D01*
X167897491Y-149637933D01*
X167110096Y-149637933D01*
X167079404Y-149523392D01*
X167017462Y-149416104D01*
X166929862Y-149328504D01*
X166822574Y-149266562D01*
X166822575Y-149266562D01*
X166792658Y-149258546D01*
X166702911Y-149234498D01*
X166579025Y-149234498D01*
X166489277Y-149258546D01*
X166459361Y-149266562D01*
X166352075Y-149328503D01*
X166352072Y-149328505D01*
X166264475Y-149416102D01*
X166264473Y-149416105D01*
X166202532Y-149523391D01*
X166202532Y-149523392D01*
X166170468Y-149643055D01*
X163488433Y-149643055D01*
X163462897Y-149547754D01*
X163400955Y-149440466D01*
X163313355Y-149352866D01*
X163206067Y-149290924D01*
X163206068Y-149290924D01*
X163176151Y-149282908D01*
X163086404Y-149258860D01*
X162962518Y-149258860D01*
X162872770Y-149282908D01*
X162842854Y-149290924D01*
X162735568Y-149352865D01*
X162735565Y-149352867D01*
X162647968Y-149440464D01*
X162647966Y-149440467D01*
X162586025Y-149547753D01*
X162586025Y-149547754D01*
X162553961Y-149667417D01*
X138400500Y-149667417D01*
X138400500Y-148245403D01*
X140219149Y-148245403D01*
X140219149Y-148369289D01*
X140251213Y-148488952D01*
X140313155Y-148596240D01*
X140400755Y-148683840D01*
X140508043Y-148745782D01*
X140627706Y-148777846D01*
X140627709Y-148777846D01*
X140751589Y-148777846D01*
X140751592Y-148777846D01*
X140871255Y-148745782D01*
X140978543Y-148683840D01*
X141066143Y-148596240D01*
X141128085Y-148488952D01*
X141160149Y-148369289D01*
X141160149Y-148368683D01*
X163928090Y-148368683D01*
X163928090Y-148492569D01*
X163960154Y-148612232D01*
X164022096Y-148719520D01*
X164109696Y-148807120D01*
X164216984Y-148869062D01*
X164336647Y-148901126D01*
X164336650Y-148901126D01*
X164460530Y-148901126D01*
X164460533Y-148901126D01*
X164580196Y-148869062D01*
X164687484Y-148807120D01*
X164775084Y-148719520D01*
X164837026Y-148612232D01*
X164869090Y-148492569D01*
X164869090Y-148368683D01*
X164837026Y-148249020D01*
X164775084Y-148141732D01*
X164687484Y-148054132D01*
X164580196Y-147992190D01*
X164580197Y-147992190D01*
X164543316Y-147982308D01*
X164460533Y-147960126D01*
X164336647Y-147960126D01*
X164253864Y-147982308D01*
X164216983Y-147992190D01*
X164109697Y-148054131D01*
X164109694Y-148054133D01*
X164022097Y-148141730D01*
X164022095Y-148141733D01*
X163960154Y-148249019D01*
X163960154Y-148249020D01*
X163928090Y-148368683D01*
X141160149Y-148368683D01*
X141160149Y-148245403D01*
X141128085Y-148125740D01*
X141066143Y-148018452D01*
X140978543Y-147930852D01*
X140871255Y-147868910D01*
X140871256Y-147868910D01*
X140847863Y-147862642D01*
X140751592Y-147836846D01*
X140627706Y-147836846D01*
X140537958Y-147860894D01*
X140508042Y-147868910D01*
X140400756Y-147930851D01*
X140400753Y-147930853D01*
X140313156Y-148018450D01*
X140313154Y-148018453D01*
X140251213Y-148125739D01*
X140246776Y-148142299D01*
X140219149Y-148245403D01*
X138400500Y-148245403D01*
X138400500Y-147738759D01*
X160449080Y-147738759D01*
X160449080Y-147862645D01*
X160481144Y-147982308D01*
X160543086Y-148089596D01*
X160630686Y-148177196D01*
X160737974Y-148239138D01*
X160857637Y-148271202D01*
X160857640Y-148271202D01*
X160981520Y-148271202D01*
X160981523Y-148271202D01*
X161101186Y-148239138D01*
X161208474Y-148177196D01*
X161296074Y-148089596D01*
X161358016Y-147982308D01*
X161390080Y-147862645D01*
X161390080Y-147838057D01*
X172029500Y-147838057D01*
X172029500Y-147961943D01*
X172061564Y-148081606D01*
X172123506Y-148188894D01*
X172211106Y-148276494D01*
X172318394Y-148338436D01*
X172438057Y-148370500D01*
X172438060Y-148370500D01*
X172561940Y-148370500D01*
X172561943Y-148370500D01*
X172681606Y-148338436D01*
X172733795Y-148308304D01*
X172801696Y-148291832D01*
X172867722Y-148314685D01*
X172903182Y-148353693D01*
X172923501Y-148388887D01*
X172923505Y-148388892D01*
X172923506Y-148388894D01*
X173011106Y-148476494D01*
X173118394Y-148538436D01*
X173238057Y-148570500D01*
X173238060Y-148570500D01*
X173361940Y-148570500D01*
X173361943Y-148570500D01*
X173481606Y-148538436D01*
X173588894Y-148476494D01*
X173633989Y-148431398D01*
X173695310Y-148397914D01*
X173765001Y-148402898D01*
X173820935Y-148444769D01*
X173841443Y-148486983D01*
X173862307Y-148564847D01*
X173924249Y-148672135D01*
X174011849Y-148759735D01*
X174119137Y-148821677D01*
X174238800Y-148853741D01*
X174238803Y-148853741D01*
X174362683Y-148853741D01*
X174362686Y-148853741D01*
X174482349Y-148821677D01*
X174589637Y-148759735D01*
X174677237Y-148672135D01*
X174739179Y-148564847D01*
X174751352Y-148519418D01*
X187361652Y-148519418D01*
X187361652Y-148643304D01*
X187393716Y-148762967D01*
X187455658Y-148870255D01*
X187543258Y-148957855D01*
X187650546Y-149019797D01*
X187770209Y-149051861D01*
X187770212Y-149051861D01*
X187894092Y-149051861D01*
X187894095Y-149051861D01*
X188013758Y-149019797D01*
X188121046Y-148957855D01*
X188208646Y-148870255D01*
X188270588Y-148762967D01*
X188302652Y-148643304D01*
X188302652Y-148519418D01*
X188270588Y-148399755D01*
X188253706Y-148370515D01*
X188253706Y-148370513D01*
X188220726Y-148313389D01*
X192799500Y-148313389D01*
X192799500Y-148486610D01*
X192824317Y-148643304D01*
X192826598Y-148657701D01*
X192880127Y-148822445D01*
X192958768Y-148976788D01*
X193060586Y-149116928D01*
X193183072Y-149239414D01*
X193323212Y-149341232D01*
X193477555Y-149419873D01*
X193642299Y-149473402D01*
X193813389Y-149500500D01*
X193813390Y-149500500D01*
X193986610Y-149500500D01*
X193986611Y-149500500D01*
X194157701Y-149473402D01*
X194322445Y-149419873D01*
X194476788Y-149341232D01*
X194616928Y-149239414D01*
X194739414Y-149116928D01*
X194841232Y-148976788D01*
X194919873Y-148822445D01*
X194973402Y-148657701D01*
X195000500Y-148486611D01*
X195000500Y-148313389D01*
X194973402Y-148142299D01*
X194919873Y-147977555D01*
X194841232Y-147823212D01*
X194739414Y-147683072D01*
X194616928Y-147560586D01*
X194476788Y-147458768D01*
X194322445Y-147380127D01*
X194157701Y-147326598D01*
X194157699Y-147326597D01*
X194157698Y-147326597D01*
X194026271Y-147305781D01*
X193986611Y-147299500D01*
X193813389Y-147299500D01*
X193773728Y-147305781D01*
X193642302Y-147326597D01*
X193477552Y-147380128D01*
X193323211Y-147458768D01*
X193243256Y-147516859D01*
X193183072Y-147560586D01*
X193183070Y-147560588D01*
X193183069Y-147560588D01*
X193060588Y-147683069D01*
X193060588Y-147683070D01*
X193060586Y-147683072D01*
X193042354Y-147708166D01*
X192958768Y-147823211D01*
X192880128Y-147977552D01*
X192826597Y-148142302D01*
X192799500Y-148313389D01*
X188220726Y-148313389D01*
X188208650Y-148292473D01*
X188208647Y-148292469D01*
X188208646Y-148292467D01*
X188121046Y-148204867D01*
X188013758Y-148142925D01*
X188013759Y-148142925D01*
X187983842Y-148134909D01*
X187894095Y-148110861D01*
X187770209Y-148110861D01*
X187680461Y-148134909D01*
X187650545Y-148142925D01*
X187543259Y-148204866D01*
X187543256Y-148204868D01*
X187455659Y-148292465D01*
X187455657Y-148292468D01*
X187393716Y-148399754D01*
X187393716Y-148399755D01*
X187361652Y-148519418D01*
X174751352Y-148519418D01*
X174771243Y-148445184D01*
X174771243Y-148321298D01*
X174739179Y-148201635D01*
X174677237Y-148094347D01*
X174589637Y-148006747D01*
X174482349Y-147944805D01*
X174482350Y-147944805D01*
X174452433Y-147936789D01*
X174362686Y-147912741D01*
X174238800Y-147912741D01*
X174149052Y-147936789D01*
X174119136Y-147944805D01*
X174011850Y-148006746D01*
X174011847Y-148006748D01*
X173966753Y-148051842D01*
X173905430Y-148085326D01*
X173835738Y-148080341D01*
X173779805Y-148038469D01*
X173759299Y-147996257D01*
X173738436Y-147918394D01*
X173676494Y-147811106D01*
X173588894Y-147723506D01*
X173481606Y-147661564D01*
X173481607Y-147661564D01*
X173451690Y-147653548D01*
X173361943Y-147629500D01*
X173238057Y-147629500D01*
X173175337Y-147646306D01*
X173118392Y-147661564D01*
X173118391Y-147661565D01*
X173066201Y-147691696D01*
X172998301Y-147708166D01*
X172932275Y-147685313D01*
X172896816Y-147646306D01*
X172887113Y-147629500D01*
X172876494Y-147611106D01*
X172788894Y-147523506D01*
X172681606Y-147461564D01*
X172681607Y-147461564D01*
X172651690Y-147453548D01*
X172561943Y-147429500D01*
X172438057Y-147429500D01*
X172348309Y-147453548D01*
X172318393Y-147461564D01*
X172211107Y-147523505D01*
X172211104Y-147523507D01*
X172123507Y-147611104D01*
X172123505Y-147611107D01*
X172061564Y-147718393D01*
X172050876Y-147758281D01*
X172029500Y-147838057D01*
X161390080Y-147838057D01*
X161390080Y-147738759D01*
X161358016Y-147619096D01*
X161296074Y-147511808D01*
X161208474Y-147424208D01*
X161101186Y-147362266D01*
X161101187Y-147362266D01*
X161071270Y-147354250D01*
X160981523Y-147330202D01*
X160857637Y-147330202D01*
X160767889Y-147354250D01*
X160737973Y-147362266D01*
X160630687Y-147424207D01*
X160630684Y-147424209D01*
X160543087Y-147511806D01*
X160543085Y-147511809D01*
X160481144Y-147619095D01*
X160481144Y-147619096D01*
X160449080Y-147738759D01*
X138400500Y-147738759D01*
X138400500Y-146435004D01*
X140226953Y-146435004D01*
X140226953Y-146558890D01*
X140259017Y-146678553D01*
X140320959Y-146785841D01*
X140408559Y-146873441D01*
X140515847Y-146935383D01*
X140635510Y-146967447D01*
X140635513Y-146967447D01*
X140759393Y-146967447D01*
X140759396Y-146967447D01*
X140879059Y-146935383D01*
X140986347Y-146873441D01*
X141073947Y-146785841D01*
X141135889Y-146678553D01*
X141167953Y-146558890D01*
X141167953Y-146435004D01*
X141139312Y-146328117D01*
X164957851Y-146328117D01*
X164957851Y-146452003D01*
X164989915Y-146571666D01*
X165051857Y-146678954D01*
X165139457Y-146766554D01*
X165246745Y-146828496D01*
X165366408Y-146860560D01*
X165366411Y-146860560D01*
X165490291Y-146860560D01*
X165490294Y-146860560D01*
X165609957Y-146828496D01*
X165717245Y-146766554D01*
X165804845Y-146678954D01*
X165828605Y-146637800D01*
X166712867Y-146637800D01*
X166712867Y-146761686D01*
X166744931Y-146881349D01*
X166806873Y-146988637D01*
X166894473Y-147076237D01*
X167001761Y-147138179D01*
X167121424Y-147170243D01*
X167121427Y-147170243D01*
X167245307Y-147170243D01*
X167245310Y-147170243D01*
X167364973Y-147138179D01*
X167472261Y-147076237D01*
X167559861Y-146988637D01*
X167621803Y-146881349D01*
X167653867Y-146761686D01*
X167653867Y-146637800D01*
X167621803Y-146518137D01*
X167559861Y-146410849D01*
X167472261Y-146323249D01*
X167458789Y-146315471D01*
X169118348Y-146315471D01*
X169118348Y-146439357D01*
X169150412Y-146559020D01*
X169212354Y-146666308D01*
X169299954Y-146753908D01*
X169407242Y-146815850D01*
X169526905Y-146847914D01*
X169526908Y-146847914D01*
X169650788Y-146847914D01*
X169650791Y-146847914D01*
X169770454Y-146815850D01*
X169877742Y-146753908D01*
X169965342Y-146666308D01*
X170027284Y-146559020D01*
X170059348Y-146439357D01*
X170059348Y-146315471D01*
X170027284Y-146195808D01*
X170027280Y-146195801D01*
X169965345Y-146088525D01*
X169965344Y-146088524D01*
X169965342Y-146088520D01*
X169905701Y-146028879D01*
X170454705Y-146028879D01*
X170454705Y-146152765D01*
X170486769Y-146272428D01*
X170548711Y-146379716D01*
X170636311Y-146467316D01*
X170743599Y-146529258D01*
X170863262Y-146561322D01*
X170863265Y-146561322D01*
X170987145Y-146561322D01*
X170987148Y-146561322D01*
X171106811Y-146529258D01*
X171205970Y-146472009D01*
X175254444Y-146472009D01*
X175254444Y-146595895D01*
X175286508Y-146715558D01*
X175348450Y-146822846D01*
X175436050Y-146910446D01*
X175543338Y-146972388D01*
X175663001Y-147004452D01*
X175663004Y-147004452D01*
X175786884Y-147004452D01*
X175786887Y-147004452D01*
X175906550Y-146972388D01*
X176013838Y-146910446D01*
X176101438Y-146822846D01*
X176163380Y-146715558D01*
X176195444Y-146595895D01*
X176195444Y-146472009D01*
X176163380Y-146352346D01*
X176101438Y-146245058D01*
X176013838Y-146157458D01*
X175906552Y-146095517D01*
X175906551Y-146095516D01*
X175876634Y-146087500D01*
X175786887Y-146063452D01*
X175663001Y-146063452D01*
X175573253Y-146087500D01*
X175543337Y-146095516D01*
X175436051Y-146157457D01*
X175436048Y-146157459D01*
X175348451Y-146245056D01*
X175348449Y-146245059D01*
X175286508Y-146352345D01*
X175286508Y-146352346D01*
X175254444Y-146472009D01*
X171205970Y-146472009D01*
X171214099Y-146467316D01*
X171301699Y-146379716D01*
X171363641Y-146272428D01*
X171395705Y-146152765D01*
X171395705Y-146028879D01*
X171388279Y-146001164D01*
X201625730Y-146001164D01*
X201625730Y-146125050D01*
X201657794Y-146244713D01*
X201719736Y-146352001D01*
X201807336Y-146439601D01*
X201914624Y-146501543D01*
X202034287Y-146533607D01*
X202034290Y-146533607D01*
X202158170Y-146533607D01*
X202158173Y-146533607D01*
X202277836Y-146501543D01*
X202385124Y-146439601D01*
X202472724Y-146352001D01*
X202534666Y-146244713D01*
X202566730Y-146125050D01*
X202566730Y-146001164D01*
X202534666Y-145881501D01*
X202472724Y-145774213D01*
X202385124Y-145686613D01*
X202277836Y-145624671D01*
X202277837Y-145624671D01*
X202247920Y-145616655D01*
X202158173Y-145592607D01*
X202034287Y-145592607D01*
X201944539Y-145616655D01*
X201914623Y-145624671D01*
X201807337Y-145686612D01*
X201807334Y-145686614D01*
X201719737Y-145774211D01*
X201719735Y-145774214D01*
X201657794Y-145881500D01*
X201650368Y-145909215D01*
X201625730Y-146001164D01*
X171388279Y-146001164D01*
X171363641Y-145909216D01*
X171301699Y-145801928D01*
X171214099Y-145714328D01*
X171106811Y-145652386D01*
X171106812Y-145652386D01*
X171076895Y-145644370D01*
X170987148Y-145620322D01*
X170863262Y-145620322D01*
X170773514Y-145644370D01*
X170743598Y-145652386D01*
X170636312Y-145714327D01*
X170636309Y-145714329D01*
X170548712Y-145801926D01*
X170548710Y-145801929D01*
X170486769Y-145909215D01*
X170486769Y-145909216D01*
X170454705Y-146028879D01*
X169905701Y-146028879D01*
X169877742Y-146000920D01*
X169770454Y-145938978D01*
X169770455Y-145938978D01*
X169740538Y-145930962D01*
X169650791Y-145906914D01*
X169526905Y-145906914D01*
X169437157Y-145930962D01*
X169407241Y-145938978D01*
X169299955Y-146000919D01*
X169299952Y-146000921D01*
X169212355Y-146088518D01*
X169212353Y-146088521D01*
X169150412Y-146195807D01*
X169147024Y-146208453D01*
X169118348Y-146315471D01*
X167458789Y-146315471D01*
X167364973Y-146261307D01*
X167364974Y-146261307D01*
X167335057Y-146253291D01*
X167245310Y-146229243D01*
X167121424Y-146229243D01*
X167031676Y-146253291D01*
X167001760Y-146261307D01*
X166894474Y-146323248D01*
X166894471Y-146323250D01*
X166806874Y-146410847D01*
X166806872Y-146410850D01*
X166744931Y-146518136D01*
X166744931Y-146518137D01*
X166712867Y-146637800D01*
X165828605Y-146637800D01*
X165866787Y-146571666D01*
X165898851Y-146452003D01*
X165898851Y-146328117D01*
X165866787Y-146208454D01*
X165804845Y-146101166D01*
X165717245Y-146013566D01*
X165609957Y-145951624D01*
X165609958Y-145951624D01*
X165580041Y-145943608D01*
X165490294Y-145919560D01*
X165366408Y-145919560D01*
X165276660Y-145943608D01*
X165246744Y-145951624D01*
X165139458Y-146013565D01*
X165139455Y-146013567D01*
X165051858Y-146101164D01*
X165051856Y-146101167D01*
X164989915Y-146208453D01*
X164980199Y-146244713D01*
X164957851Y-146328117D01*
X141139312Y-146328117D01*
X141135889Y-146315341D01*
X141073947Y-146208053D01*
X140986347Y-146120453D01*
X140879059Y-146058511D01*
X140879060Y-146058511D01*
X140849143Y-146050495D01*
X140759396Y-146026447D01*
X140635510Y-146026447D01*
X140545762Y-146050495D01*
X140515846Y-146058511D01*
X140408560Y-146120452D01*
X140408557Y-146120454D01*
X140320960Y-146208051D01*
X140320958Y-146208054D01*
X140259017Y-146315340D01*
X140255593Y-146328119D01*
X140226953Y-146435004D01*
X138400500Y-146435004D01*
X138400500Y-145038057D01*
X161729500Y-145038057D01*
X161729500Y-145161943D01*
X161761564Y-145281606D01*
X161823506Y-145388894D01*
X161911106Y-145476494D01*
X162018394Y-145538436D01*
X162138057Y-145570500D01*
X162138060Y-145570500D01*
X162261940Y-145570500D01*
X162261943Y-145570500D01*
X162381606Y-145538436D01*
X162488894Y-145476494D01*
X162576494Y-145388894D01*
X162638436Y-145281606D01*
X162670500Y-145161943D01*
X162670500Y-145139724D01*
X179756034Y-145139724D01*
X179756034Y-145263610D01*
X179788098Y-145383273D01*
X179850040Y-145490561D01*
X179937640Y-145578161D01*
X180044928Y-145640103D01*
X180164591Y-145672167D01*
X180164594Y-145672167D01*
X180288474Y-145672167D01*
X180288477Y-145672167D01*
X180408140Y-145640103D01*
X180515428Y-145578161D01*
X180603028Y-145490561D01*
X180664970Y-145383273D01*
X180697034Y-145263610D01*
X180697034Y-145139724D01*
X180679742Y-145075192D01*
X181585355Y-145075192D01*
X181585355Y-145199078D01*
X181617419Y-145318741D01*
X181679361Y-145426029D01*
X181766961Y-145513629D01*
X181874249Y-145575571D01*
X181993912Y-145607635D01*
X181993915Y-145607635D01*
X182117795Y-145607635D01*
X182117798Y-145607635D01*
X182237461Y-145575571D01*
X182344749Y-145513629D01*
X182432349Y-145426029D01*
X182494291Y-145318741D01*
X182526355Y-145199078D01*
X182526355Y-145105102D01*
X184430032Y-145105102D01*
X184430032Y-145228988D01*
X184462096Y-145348651D01*
X184524038Y-145455939D01*
X184611638Y-145543539D01*
X184718926Y-145605481D01*
X184838589Y-145637545D01*
X184838592Y-145637545D01*
X184962472Y-145637545D01*
X184962475Y-145637545D01*
X185082138Y-145605481D01*
X185189426Y-145543539D01*
X185277026Y-145455939D01*
X185338968Y-145348651D01*
X185368602Y-145238057D01*
X185929500Y-145238057D01*
X185929500Y-145361943D01*
X185961564Y-145481606D01*
X186023506Y-145588894D01*
X186111106Y-145676494D01*
X186218394Y-145738436D01*
X186338057Y-145770500D01*
X186338060Y-145770500D01*
X186461940Y-145770500D01*
X186461943Y-145770500D01*
X186581606Y-145738436D01*
X186688894Y-145676494D01*
X186776494Y-145588894D01*
X186838436Y-145481606D01*
X186870500Y-145361943D01*
X186870500Y-145238057D01*
X186838436Y-145118394D01*
X186776494Y-145011106D01*
X186688894Y-144923506D01*
X186581606Y-144861564D01*
X186581607Y-144861564D01*
X186531888Y-144848242D01*
X186461943Y-144829500D01*
X186338057Y-144829500D01*
X186268112Y-144848242D01*
X186218393Y-144861564D01*
X186111107Y-144923505D01*
X186111104Y-144923507D01*
X186023507Y-145011104D01*
X186023505Y-145011107D01*
X185961564Y-145118393D01*
X185955848Y-145139726D01*
X185929500Y-145238057D01*
X185368602Y-145238057D01*
X185371032Y-145228988D01*
X185371032Y-145105102D01*
X185338968Y-144985439D01*
X185277026Y-144878151D01*
X185189426Y-144790551D01*
X185082138Y-144728609D01*
X185082139Y-144728609D01*
X185045960Y-144718915D01*
X184962475Y-144696545D01*
X184838589Y-144696545D01*
X184755104Y-144718915D01*
X184718925Y-144728609D01*
X184611639Y-144790550D01*
X184611636Y-144790552D01*
X184524039Y-144878149D01*
X184524037Y-144878152D01*
X184462096Y-144985438D01*
X184462096Y-144985439D01*
X184430032Y-145105102D01*
X182526355Y-145105102D01*
X182526355Y-145075192D01*
X182494291Y-144955529D01*
X182432349Y-144848241D01*
X182344749Y-144760641D01*
X182237461Y-144698699D01*
X182237462Y-144698699D01*
X182199618Y-144688559D01*
X182117798Y-144666635D01*
X181993912Y-144666635D01*
X181912092Y-144688559D01*
X181874248Y-144698699D01*
X181766962Y-144760640D01*
X181766959Y-144760642D01*
X181679362Y-144848239D01*
X181679360Y-144848242D01*
X181617419Y-144955528D01*
X181606731Y-144995416D01*
X181585355Y-145075192D01*
X180679742Y-145075192D01*
X180664970Y-145020061D01*
X180603028Y-144912773D01*
X180515428Y-144825173D01*
X180408140Y-144763231D01*
X180408141Y-144763231D01*
X180378224Y-144755215D01*
X180288477Y-144731167D01*
X180164591Y-144731167D01*
X180074843Y-144755215D01*
X180044927Y-144763231D01*
X179937641Y-144825172D01*
X179937638Y-144825174D01*
X179850041Y-144912771D01*
X179850039Y-144912774D01*
X179788098Y-145020060D01*
X179786349Y-145026587D01*
X179756034Y-145139724D01*
X162670500Y-145139724D01*
X162670500Y-145038057D01*
X162638436Y-144918394D01*
X162576494Y-144811106D01*
X162488894Y-144723506D01*
X162381606Y-144661564D01*
X162381607Y-144661564D01*
X162351690Y-144653548D01*
X162261943Y-144629500D01*
X162138057Y-144629500D01*
X162048309Y-144653548D01*
X162018393Y-144661564D01*
X161911107Y-144723505D01*
X161911104Y-144723507D01*
X161823507Y-144811104D01*
X161823505Y-144811107D01*
X161761564Y-144918393D01*
X161761564Y-144918394D01*
X161729500Y-145038057D01*
X138400500Y-145038057D01*
X138400500Y-143921693D01*
X143478723Y-143921693D01*
X143478723Y-144045579D01*
X143510787Y-144165242D01*
X143572729Y-144272530D01*
X143660329Y-144360130D01*
X143767617Y-144422072D01*
X143887280Y-144454136D01*
X143887283Y-144454136D01*
X144011163Y-144454136D01*
X144011166Y-144454136D01*
X144045224Y-144445010D01*
X166458138Y-144445010D01*
X166458138Y-144568896D01*
X166490202Y-144688559D01*
X166552144Y-144795847D01*
X166639744Y-144883447D01*
X166747032Y-144945389D01*
X166866695Y-144977453D01*
X166866698Y-144977453D01*
X166990578Y-144977453D01*
X166990581Y-144977453D01*
X167110244Y-144945389D01*
X167217532Y-144883447D01*
X167305132Y-144795847D01*
X167367074Y-144688559D01*
X167393979Y-144588149D01*
X171555769Y-144588149D01*
X171555769Y-144712035D01*
X171587833Y-144831698D01*
X171649775Y-144938986D01*
X171737375Y-145026586D01*
X171844663Y-145088528D01*
X171964326Y-145120592D01*
X171964329Y-145120592D01*
X172088209Y-145120592D01*
X172088212Y-145120592D01*
X172207875Y-145088528D01*
X172315163Y-145026586D01*
X172397202Y-144944546D01*
X172458521Y-144911064D01*
X172528213Y-144916048D01*
X172546879Y-144924842D01*
X172581013Y-144944549D01*
X172647111Y-144982710D01*
X172766774Y-145014774D01*
X172766777Y-145014774D01*
X172890657Y-145014774D01*
X172890660Y-145014774D01*
X173010323Y-144982710D01*
X173117611Y-144920768D01*
X173205211Y-144833168D01*
X173267153Y-144725880D01*
X173299217Y-144606217D01*
X173299217Y-144482331D01*
X173267153Y-144362668D01*
X173259378Y-144349202D01*
X173250805Y-144334352D01*
X173250804Y-144334350D01*
X173219703Y-144280480D01*
X201516322Y-144280480D01*
X201516322Y-144404366D01*
X201548386Y-144524029D01*
X201610328Y-144631317D01*
X201697928Y-144718917D01*
X201805216Y-144780859D01*
X201924879Y-144812923D01*
X201924882Y-144812923D01*
X202048762Y-144812923D01*
X202048765Y-144812923D01*
X202168428Y-144780859D01*
X202275716Y-144718917D01*
X202363316Y-144631317D01*
X202425258Y-144524029D01*
X202457322Y-144404366D01*
X202457322Y-144280480D01*
X202425258Y-144160817D01*
X202363316Y-144053529D01*
X202275716Y-143965929D01*
X202168428Y-143903987D01*
X202168429Y-143903987D01*
X202138512Y-143895971D01*
X202048765Y-143871923D01*
X201924879Y-143871923D01*
X201835131Y-143895971D01*
X201805215Y-143903987D01*
X201697929Y-143965928D01*
X201697926Y-143965930D01*
X201610329Y-144053527D01*
X201610327Y-144053530D01*
X201548386Y-144160816D01*
X201546520Y-144167780D01*
X201516322Y-144280480D01*
X173219703Y-144280480D01*
X173205213Y-144255383D01*
X173205209Y-144255378D01*
X173117612Y-144167781D01*
X173117611Y-144167780D01*
X173010323Y-144105838D01*
X173010324Y-144105838D01*
X172980407Y-144097822D01*
X172890660Y-144073774D01*
X172766774Y-144073774D01*
X172677026Y-144097822D01*
X172647110Y-144105838D01*
X172539824Y-144167778D01*
X172457786Y-144249817D01*
X172396462Y-144283301D01*
X172326771Y-144278317D01*
X172308106Y-144269523D01*
X172207875Y-144211656D01*
X172207876Y-144211656D01*
X172177959Y-144203640D01*
X172088212Y-144179592D01*
X171964326Y-144179592D01*
X171874578Y-144203640D01*
X171844662Y-144211656D01*
X171737376Y-144273597D01*
X171737373Y-144273599D01*
X171649776Y-144361196D01*
X171649774Y-144361199D01*
X171587833Y-144468485D01*
X171577145Y-144508373D01*
X171555769Y-144588149D01*
X167393979Y-144588149D01*
X167399138Y-144568896D01*
X167399138Y-144445010D01*
X167367074Y-144325347D01*
X167305132Y-144218059D01*
X167217532Y-144130459D01*
X167110244Y-144068517D01*
X167110245Y-144068517D01*
X167054312Y-144053530D01*
X166990581Y-144036453D01*
X166866695Y-144036453D01*
X166802964Y-144053530D01*
X166747031Y-144068517D01*
X166639745Y-144130458D01*
X166639742Y-144130460D01*
X166552145Y-144218057D01*
X166552143Y-144218060D01*
X166490202Y-144325346D01*
X166487789Y-144334352D01*
X166458138Y-144445010D01*
X144045224Y-144445010D01*
X144130829Y-144422072D01*
X144238117Y-144360130D01*
X144325717Y-144272530D01*
X144387659Y-144165242D01*
X144419723Y-144045579D01*
X144419723Y-143921693D01*
X144387659Y-143802030D01*
X144325717Y-143694742D01*
X144238117Y-143607142D01*
X144130829Y-143545200D01*
X144130830Y-143545200D01*
X144100913Y-143537184D01*
X144011166Y-143513136D01*
X143887280Y-143513136D01*
X143797532Y-143537184D01*
X143767616Y-143545200D01*
X143660330Y-143607141D01*
X143660327Y-143607143D01*
X143572730Y-143694740D01*
X143572728Y-143694743D01*
X143510787Y-143802029D01*
X143510787Y-143802030D01*
X143478723Y-143921693D01*
X138400500Y-143921693D01*
X138400500Y-142933039D01*
X161657256Y-142933039D01*
X161657256Y-143056925D01*
X161689320Y-143176588D01*
X161751262Y-143283876D01*
X161838862Y-143371476D01*
X161946150Y-143433418D01*
X162065813Y-143465482D01*
X162065816Y-143465482D01*
X162189696Y-143465482D01*
X162189699Y-143465482D01*
X162309362Y-143433418D01*
X162416650Y-143371476D01*
X162504250Y-143283876D01*
X162566192Y-143176588D01*
X162598256Y-143056925D01*
X162598256Y-142938057D01*
X168829500Y-142938057D01*
X168829500Y-143061943D01*
X168861564Y-143181606D01*
X168923506Y-143288894D01*
X169011106Y-143376494D01*
X169118394Y-143438436D01*
X169238057Y-143470500D01*
X169238060Y-143470500D01*
X169361940Y-143470500D01*
X169361943Y-143470500D01*
X169481606Y-143438436D01*
X169588894Y-143376494D01*
X169676494Y-143288894D01*
X169738436Y-143181606D01*
X169770500Y-143061943D01*
X169770500Y-142938057D01*
X169738436Y-142818394D01*
X169676494Y-142711106D01*
X169588894Y-142623506D01*
X169481606Y-142561564D01*
X169481607Y-142561564D01*
X169477635Y-142560500D01*
X169468801Y-142558132D01*
X169409143Y-142521769D01*
X169378614Y-142458922D01*
X169386909Y-142389546D01*
X169431394Y-142335668D01*
X169489688Y-142317033D01*
X169489476Y-142315420D01*
X169497532Y-142314359D01*
X169497536Y-142314359D01*
X169617199Y-142282295D01*
X169724487Y-142220353D01*
X169812087Y-142132753D01*
X169874029Y-142025465D01*
X169906093Y-141905802D01*
X169906093Y-141781916D01*
X169891978Y-141729238D01*
X171420681Y-141729238D01*
X171420681Y-141853124D01*
X171452745Y-141972787D01*
X171514687Y-142080075D01*
X171602287Y-142167675D01*
X171709575Y-142229617D01*
X171806043Y-142255466D01*
X171865702Y-142291830D01*
X171896231Y-142354677D01*
X171887936Y-142424053D01*
X171861632Y-142462918D01*
X171852794Y-142471756D01*
X171852791Y-142471760D01*
X171790850Y-142579046D01*
X171790850Y-142579047D01*
X171758786Y-142698710D01*
X171758786Y-142822596D01*
X171790850Y-142942259D01*
X171852792Y-143049547D01*
X171940392Y-143137147D01*
X172047680Y-143199089D01*
X172167343Y-143231153D01*
X172167346Y-143231153D01*
X172291226Y-143231153D01*
X172291229Y-143231153D01*
X172410892Y-143199089D01*
X172518180Y-143137147D01*
X172605780Y-143049547D01*
X172612414Y-143038057D01*
X173129500Y-143038057D01*
X173129500Y-143161943D01*
X173161564Y-143281606D01*
X173223506Y-143388894D01*
X173311106Y-143476494D01*
X173418394Y-143538436D01*
X173538057Y-143570500D01*
X173538060Y-143570500D01*
X173661940Y-143570500D01*
X173661943Y-143570500D01*
X173781606Y-143538436D01*
X173888894Y-143476494D01*
X173976494Y-143388894D01*
X174038436Y-143281606D01*
X174038437Y-143281601D01*
X174038915Y-143280774D01*
X174089481Y-143232558D01*
X174158088Y-143219334D01*
X174222953Y-143245301D01*
X174233984Y-143255092D01*
X174312886Y-143333994D01*
X174420174Y-143395936D01*
X174539837Y-143428000D01*
X174539840Y-143428000D01*
X174663720Y-143428000D01*
X174663723Y-143428000D01*
X174783386Y-143395936D01*
X174890674Y-143333994D01*
X174978274Y-143246394D01*
X174995137Y-143217186D01*
X177856008Y-143217186D01*
X177856008Y-143341072D01*
X177888072Y-143460735D01*
X177950014Y-143568023D01*
X178037614Y-143655623D01*
X178144902Y-143717565D01*
X178264565Y-143749629D01*
X178264568Y-143749629D01*
X178388448Y-143749629D01*
X178388451Y-143749629D01*
X178508114Y-143717565D01*
X178615402Y-143655623D01*
X178703002Y-143568023D01*
X178764944Y-143460735D01*
X178797008Y-143341072D01*
X178797008Y-143217186D01*
X178764944Y-143097523D01*
X178703002Y-142990235D01*
X178632357Y-142919590D01*
X181379167Y-142919590D01*
X181379167Y-143043476D01*
X181411231Y-143163139D01*
X181473173Y-143270427D01*
X181560773Y-143358027D01*
X181668061Y-143419969D01*
X181787724Y-143452033D01*
X181787727Y-143452033D01*
X181911607Y-143452033D01*
X181911610Y-143452033D01*
X182031273Y-143419969D01*
X182138561Y-143358027D01*
X182226161Y-143270427D01*
X182288103Y-143163139D01*
X182320167Y-143043476D01*
X182320167Y-142919590D01*
X182288103Y-142799927D01*
X182226161Y-142692639D01*
X182138561Y-142605039D01*
X182031273Y-142543097D01*
X182031274Y-142543097D01*
X182001357Y-142535081D01*
X181911610Y-142511033D01*
X181787724Y-142511033D01*
X181697976Y-142535081D01*
X181668060Y-142543097D01*
X181560774Y-142605038D01*
X181560771Y-142605040D01*
X181473174Y-142692637D01*
X181473172Y-142692640D01*
X181411231Y-142799926D01*
X181400985Y-142838165D01*
X181379167Y-142919590D01*
X178632357Y-142919590D01*
X178615402Y-142902635D01*
X178508114Y-142840693D01*
X178508115Y-142840693D01*
X178467864Y-142829908D01*
X178388451Y-142808629D01*
X178264565Y-142808629D01*
X178185152Y-142829908D01*
X178144901Y-142840693D01*
X178037615Y-142902634D01*
X178037612Y-142902636D01*
X177950015Y-142990233D01*
X177950013Y-142990236D01*
X177888072Y-143097522D01*
X177888072Y-143097523D01*
X177856008Y-143217186D01*
X174995137Y-143217186D01*
X175040216Y-143139106D01*
X175072280Y-143019443D01*
X175072280Y-142895557D01*
X175040216Y-142775894D01*
X174978274Y-142668606D01*
X174890674Y-142581006D01*
X174783386Y-142519064D01*
X174783387Y-142519064D01*
X174741087Y-142507730D01*
X174663723Y-142487000D01*
X174539837Y-142487000D01*
X174462473Y-142507730D01*
X174420173Y-142519064D01*
X174312887Y-142581005D01*
X174312884Y-142581007D01*
X174225287Y-142668604D01*
X174225283Y-142668609D01*
X174162863Y-142776726D01*
X174112296Y-142824941D01*
X174043689Y-142838165D01*
X173978825Y-142812197D01*
X173967795Y-142802407D01*
X173888895Y-142723507D01*
X173888894Y-142723506D01*
X173781606Y-142661564D01*
X173781607Y-142661564D01*
X173751690Y-142653548D01*
X173661943Y-142629500D01*
X173538057Y-142629500D01*
X173448309Y-142653548D01*
X173418393Y-142661564D01*
X173311107Y-142723505D01*
X173311104Y-142723507D01*
X173223507Y-142811104D01*
X173223505Y-142811107D01*
X173161564Y-142918393D01*
X173160040Y-142924080D01*
X173129500Y-143038057D01*
X172612414Y-143038057D01*
X172667722Y-142942259D01*
X172699786Y-142822596D01*
X172699786Y-142698710D01*
X172667722Y-142579047D01*
X172605780Y-142471759D01*
X172572078Y-142438057D01*
X175629500Y-142438057D01*
X175629500Y-142561943D01*
X175661564Y-142681606D01*
X175723506Y-142788894D01*
X175811106Y-142876494D01*
X175918394Y-142938436D01*
X176038057Y-142970500D01*
X176038060Y-142970500D01*
X176161940Y-142970500D01*
X176161943Y-142970500D01*
X176281606Y-142938436D01*
X176388894Y-142876494D01*
X176448852Y-142816535D01*
X176510171Y-142783053D01*
X176579863Y-142788037D01*
X176635797Y-142829908D01*
X176643912Y-142842211D01*
X176663704Y-142876492D01*
X176691176Y-142924077D01*
X176691178Y-142924079D01*
X176778778Y-143011679D01*
X176886066Y-143073621D01*
X177005729Y-143105685D01*
X177005732Y-143105685D01*
X177129612Y-143105685D01*
X177129615Y-143105685D01*
X177249278Y-143073621D01*
X177356566Y-143011679D01*
X177444166Y-142924079D01*
X177506108Y-142816791D01*
X177538172Y-142697128D01*
X177538172Y-142573242D01*
X177506108Y-142453579D01*
X177444166Y-142346291D01*
X177356566Y-142258691D01*
X177249278Y-142196749D01*
X177249279Y-142196749D01*
X177201676Y-142183994D01*
X177129615Y-142164685D01*
X177005729Y-142164685D01*
X176933668Y-142183994D01*
X176886065Y-142196749D01*
X176778779Y-142258689D01*
X176718822Y-142318647D01*
X176657498Y-142352131D01*
X176587807Y-142347146D01*
X176531873Y-142305275D01*
X176523757Y-142292970D01*
X176487781Y-142230656D01*
X176476496Y-142211109D01*
X176476495Y-142211107D01*
X176476494Y-142211106D01*
X176388894Y-142123506D01*
X176281606Y-142061564D01*
X176281607Y-142061564D01*
X176251690Y-142053548D01*
X176161943Y-142029500D01*
X176038057Y-142029500D01*
X175948309Y-142053548D01*
X175918393Y-142061564D01*
X175811107Y-142123505D01*
X175811104Y-142123507D01*
X175723507Y-142211104D01*
X175723505Y-142211107D01*
X175661564Y-142318393D01*
X175656935Y-142335668D01*
X175629500Y-142438057D01*
X172572078Y-142438057D01*
X172518180Y-142384159D01*
X172410892Y-142322217D01*
X172410887Y-142322215D01*
X172314423Y-142296367D01*
X172254763Y-142260002D01*
X172224235Y-142197155D01*
X172232530Y-142127779D01*
X172258837Y-142088912D01*
X172267675Y-142080075D01*
X172329617Y-141972787D01*
X172361681Y-141853124D01*
X172361681Y-141729238D01*
X172337249Y-141638057D01*
X173129500Y-141638057D01*
X173129500Y-141761943D01*
X173161564Y-141881606D01*
X173223506Y-141988894D01*
X173311106Y-142076494D01*
X173418394Y-142138436D01*
X173538057Y-142170500D01*
X173538060Y-142170500D01*
X173661940Y-142170500D01*
X173661943Y-142170500D01*
X173781606Y-142138436D01*
X173888894Y-142076494D01*
X173958036Y-142007352D01*
X190126815Y-142007352D01*
X190126815Y-142131238D01*
X190158879Y-142250901D01*
X190220821Y-142358189D01*
X190308421Y-142445789D01*
X190415709Y-142507731D01*
X190535372Y-142539795D01*
X190535375Y-142539795D01*
X190659255Y-142539795D01*
X190659258Y-142539795D01*
X190665744Y-142538057D01*
X200929500Y-142538057D01*
X200929500Y-142661943D01*
X200961564Y-142781606D01*
X201023506Y-142888894D01*
X201111106Y-142976494D01*
X201218394Y-143038436D01*
X201338057Y-143070500D01*
X201338060Y-143070500D01*
X201461940Y-143070500D01*
X201461943Y-143070500D01*
X201581606Y-143038436D01*
X201688894Y-142976494D01*
X201776494Y-142888894D01*
X201838436Y-142781606D01*
X201870500Y-142661943D01*
X201870500Y-142538057D01*
X201838436Y-142418394D01*
X201776494Y-142311106D01*
X201688894Y-142223506D01*
X201581606Y-142161564D01*
X201581607Y-142161564D01*
X201551690Y-142153548D01*
X201461943Y-142129500D01*
X201338057Y-142129500D01*
X201248309Y-142153548D01*
X201218393Y-142161564D01*
X201111107Y-142223505D01*
X201111104Y-142223507D01*
X201023507Y-142311104D01*
X201023505Y-142311107D01*
X200961564Y-142418393D01*
X200957424Y-142433845D01*
X200929500Y-142538057D01*
X190665744Y-142538057D01*
X190778921Y-142507731D01*
X190886209Y-142445789D01*
X190973809Y-142358189D01*
X191035751Y-142250901D01*
X191067815Y-142131238D01*
X191067815Y-142007352D01*
X191035751Y-141887689D01*
X190973809Y-141780401D01*
X190886209Y-141692801D01*
X190778921Y-141630859D01*
X190778922Y-141630859D01*
X190749005Y-141622843D01*
X190659258Y-141598795D01*
X190535372Y-141598795D01*
X190445624Y-141622843D01*
X190415708Y-141630859D01*
X190308422Y-141692800D01*
X190308419Y-141692802D01*
X190220822Y-141780399D01*
X190220820Y-141780402D01*
X190158879Y-141887688D01*
X190149179Y-141923889D01*
X190126815Y-142007352D01*
X173958036Y-142007352D01*
X173976494Y-141988894D01*
X174038436Y-141881606D01*
X174070500Y-141761943D01*
X174070500Y-141638057D01*
X174038436Y-141518394D01*
X173976494Y-141411106D01*
X173915776Y-141350388D01*
X180263196Y-141350388D01*
X180263196Y-141474274D01*
X180295260Y-141593937D01*
X180357202Y-141701225D01*
X180444802Y-141788825D01*
X180552090Y-141850767D01*
X180671753Y-141882831D01*
X180671756Y-141882831D01*
X180795636Y-141882831D01*
X180795639Y-141882831D01*
X180915302Y-141850767D01*
X181022590Y-141788825D01*
X181110190Y-141701225D01*
X181172132Y-141593937D01*
X181204196Y-141474274D01*
X181204196Y-141350388D01*
X181172132Y-141230725D01*
X181110190Y-141123437D01*
X181022590Y-141035837D01*
X180915302Y-140973895D01*
X180915303Y-140973895D01*
X180885386Y-140965879D01*
X180795639Y-140941831D01*
X180671753Y-140941831D01*
X180582005Y-140965879D01*
X180552089Y-140973895D01*
X180444803Y-141035836D01*
X180444800Y-141035838D01*
X180357203Y-141123435D01*
X180357201Y-141123438D01*
X180295260Y-141230724D01*
X180295260Y-141230725D01*
X180263196Y-141350388D01*
X173915776Y-141350388D01*
X173888894Y-141323506D01*
X173781606Y-141261564D01*
X173781607Y-141261564D01*
X173751690Y-141253548D01*
X173661943Y-141229500D01*
X173538057Y-141229500D01*
X173448309Y-141253548D01*
X173418393Y-141261564D01*
X173311107Y-141323505D01*
X173311104Y-141323507D01*
X173223507Y-141411104D01*
X173223505Y-141411107D01*
X173161564Y-141518393D01*
X173161507Y-141518606D01*
X173129500Y-141638057D01*
X172337249Y-141638057D01*
X172329617Y-141609575D01*
X172267675Y-141502287D01*
X172180075Y-141414687D01*
X172072787Y-141352745D01*
X172072788Y-141352745D01*
X172042871Y-141344729D01*
X171953124Y-141320681D01*
X171829238Y-141320681D01*
X171739490Y-141344729D01*
X171709574Y-141352745D01*
X171602288Y-141414686D01*
X171602285Y-141414688D01*
X171514688Y-141502285D01*
X171514686Y-141502288D01*
X171452745Y-141609574D01*
X171448372Y-141625894D01*
X171420681Y-141729238D01*
X169891978Y-141729238D01*
X169874029Y-141662253D01*
X169812087Y-141554965D01*
X169724487Y-141467365D01*
X169617199Y-141405423D01*
X169617200Y-141405423D01*
X169587283Y-141397407D01*
X169497536Y-141373359D01*
X169373650Y-141373359D01*
X169283902Y-141397407D01*
X169253986Y-141405423D01*
X169146700Y-141467364D01*
X169146697Y-141467366D01*
X169059100Y-141554963D01*
X169059098Y-141554966D01*
X168997157Y-141662252D01*
X168997157Y-141662253D01*
X168965093Y-141781916D01*
X168965093Y-141905802D01*
X168997157Y-142025465D01*
X169059099Y-142132753D01*
X169146699Y-142220353D01*
X169253987Y-142282295D01*
X169266791Y-142285726D01*
X169326450Y-142322090D01*
X169356979Y-142384937D01*
X169348684Y-142454313D01*
X169304199Y-142508191D01*
X169245904Y-142526825D01*
X169246117Y-142528439D01*
X169238060Y-142529499D01*
X169118393Y-142561564D01*
X169011107Y-142623505D01*
X169011104Y-142623507D01*
X168923507Y-142711104D01*
X168923505Y-142711107D01*
X168861564Y-142818393D01*
X168858479Y-142829908D01*
X168829500Y-142938057D01*
X162598256Y-142938057D01*
X162598256Y-142933039D01*
X162566192Y-142813376D01*
X162504250Y-142706088D01*
X162416650Y-142618488D01*
X162309362Y-142556546D01*
X162309363Y-142556546D01*
X162262286Y-142543932D01*
X162189699Y-142524482D01*
X162065813Y-142524482D01*
X161993226Y-142543932D01*
X161946149Y-142556546D01*
X161838863Y-142618487D01*
X161838860Y-142618489D01*
X161751263Y-142706086D01*
X161751261Y-142706089D01*
X161689320Y-142813375D01*
X161687975Y-142818394D01*
X161657256Y-142933039D01*
X138400500Y-142933039D01*
X138400500Y-142309962D01*
X148370679Y-142309962D01*
X148370679Y-142433848D01*
X148402743Y-142553511D01*
X148464685Y-142660799D01*
X148552285Y-142748399D01*
X148659573Y-142810341D01*
X148779236Y-142842405D01*
X148779239Y-142842405D01*
X148903119Y-142842405D01*
X148903122Y-142842405D01*
X149022785Y-142810341D01*
X149130073Y-142748399D01*
X149217673Y-142660799D01*
X149279615Y-142553511D01*
X149311679Y-142433848D01*
X149311679Y-142309962D01*
X149279615Y-142190299D01*
X149217673Y-142083011D01*
X149130073Y-141995411D01*
X149022785Y-141933469D01*
X149022786Y-141933469D01*
X148987032Y-141923889D01*
X148903122Y-141901405D01*
X148779236Y-141901405D01*
X148695326Y-141923889D01*
X148659572Y-141933469D01*
X148552286Y-141995410D01*
X148552283Y-141995412D01*
X148464686Y-142083009D01*
X148464684Y-142083012D01*
X148402743Y-142190298D01*
X148400906Y-142197155D01*
X148370679Y-142309962D01*
X138400500Y-142309962D01*
X138400500Y-141730277D01*
X160921720Y-141730277D01*
X160921720Y-141854163D01*
X160953784Y-141973826D01*
X161015726Y-142081114D01*
X161103326Y-142168714D01*
X161210614Y-142230656D01*
X161330277Y-142262720D01*
X161330280Y-142262720D01*
X161454160Y-142262720D01*
X161454163Y-142262720D01*
X161573826Y-142230656D01*
X161681114Y-142168714D01*
X161768714Y-142081114D01*
X161800848Y-142025454D01*
X161851413Y-141977240D01*
X161920020Y-141964016D01*
X161984885Y-141989983D01*
X162015621Y-142025454D01*
X162026071Y-142043553D01*
X162056576Y-142096392D01*
X162056578Y-142096394D01*
X162144178Y-142183994D01*
X162251466Y-142245936D01*
X162371129Y-142278000D01*
X162371132Y-142278000D01*
X162495012Y-142278000D01*
X162495015Y-142278000D01*
X162614678Y-142245936D01*
X162721966Y-142183994D01*
X162809566Y-142096394D01*
X162840073Y-142043553D01*
X164036957Y-142043553D01*
X164036957Y-142167439D01*
X164069021Y-142287102D01*
X164130963Y-142394390D01*
X164218563Y-142481990D01*
X164325851Y-142543932D01*
X164445514Y-142575996D01*
X164445517Y-142575996D01*
X164569397Y-142575996D01*
X164569400Y-142575996D01*
X164689063Y-142543932D01*
X164796351Y-142481990D01*
X164883951Y-142394390D01*
X164945893Y-142287102D01*
X164977957Y-142167439D01*
X164977957Y-142043553D01*
X164945893Y-141923890D01*
X164883951Y-141816602D01*
X164796351Y-141729002D01*
X164689063Y-141667060D01*
X164689064Y-141667060D01*
X164659147Y-141659044D01*
X164569400Y-141634996D01*
X164445514Y-141634996D01*
X164355766Y-141659044D01*
X164325850Y-141667060D01*
X164218564Y-141729001D01*
X164218561Y-141729003D01*
X164130964Y-141816600D01*
X164130962Y-141816603D01*
X164069021Y-141923889D01*
X164069021Y-141923890D01*
X164036957Y-142043553D01*
X162840073Y-142043553D01*
X162871508Y-141989106D01*
X162903572Y-141869443D01*
X162903572Y-141745557D01*
X162871508Y-141625894D01*
X162809566Y-141518606D01*
X162721966Y-141431006D01*
X162614678Y-141369064D01*
X162614679Y-141369064D01*
X162584762Y-141361048D01*
X162495015Y-141337000D01*
X162494500Y-141337000D01*
X162494082Y-141336877D01*
X162486955Y-141335939D01*
X162487101Y-141334827D01*
X162427461Y-141317315D01*
X162381706Y-141264511D01*
X162370500Y-141213000D01*
X162370500Y-141110559D01*
X162370500Y-141110557D01*
X162338436Y-140990894D01*
X162276494Y-140883606D01*
X162188894Y-140796006D01*
X162081606Y-140734064D01*
X162081607Y-140734064D01*
X162065234Y-140729677D01*
X163977063Y-140729677D01*
X163977063Y-140853563D01*
X164009127Y-140973226D01*
X164071069Y-141080514D01*
X164158669Y-141168114D01*
X164265957Y-141230056D01*
X164385620Y-141262120D01*
X164385623Y-141262120D01*
X164509503Y-141262120D01*
X164509506Y-141262120D01*
X164629169Y-141230056D01*
X164736457Y-141168114D01*
X164824057Y-141080514D01*
X164885999Y-140973226D01*
X164918063Y-140853563D01*
X164918063Y-140729677D01*
X164885999Y-140610014D01*
X164824057Y-140502726D01*
X164736457Y-140415126D01*
X164629169Y-140353184D01*
X164629170Y-140353184D01*
X164599253Y-140345168D01*
X164509506Y-140321120D01*
X164385620Y-140321120D01*
X164295872Y-140345168D01*
X164265956Y-140353184D01*
X164158670Y-140415125D01*
X164158667Y-140415127D01*
X164071070Y-140502724D01*
X164071068Y-140502727D01*
X164009127Y-140610013D01*
X163998439Y-140649901D01*
X163977063Y-140729677D01*
X162065234Y-140729677D01*
X162051690Y-140726048D01*
X161961943Y-140702000D01*
X161838057Y-140702000D01*
X161748309Y-140726048D01*
X161718393Y-140734064D01*
X161611107Y-140796005D01*
X161611104Y-140796007D01*
X161523507Y-140883604D01*
X161523505Y-140883607D01*
X161461564Y-140990893D01*
X161461564Y-140990894D01*
X161429500Y-141110557D01*
X161429500Y-141110559D01*
X161429500Y-141199985D01*
X161409815Y-141267024D01*
X161357011Y-141312779D01*
X161337594Y-141319760D01*
X161330279Y-141321720D01*
X161330277Y-141321720D01*
X161249436Y-141343381D01*
X161210613Y-141353784D01*
X161103327Y-141415725D01*
X161103324Y-141415727D01*
X161015727Y-141503324D01*
X161015725Y-141503327D01*
X160953784Y-141610613D01*
X160946430Y-141638059D01*
X160921720Y-141730277D01*
X138400500Y-141730277D01*
X138400500Y-139938057D01*
X141012034Y-139938057D01*
X141012034Y-140061943D01*
X141044098Y-140181606D01*
X141106040Y-140288894D01*
X141193640Y-140376494D01*
X141300928Y-140438436D01*
X141420591Y-140470500D01*
X141420594Y-140470500D01*
X141544474Y-140470500D01*
X141544477Y-140470500D01*
X141664140Y-140438436D01*
X141771428Y-140376494D01*
X141859028Y-140288894D01*
X141920970Y-140181606D01*
X141953034Y-140061943D01*
X141953034Y-139938057D01*
X141920970Y-139818394D01*
X141859028Y-139711106D01*
X141771428Y-139623506D01*
X141664140Y-139561564D01*
X141664141Y-139561564D01*
X141634224Y-139553548D01*
X141576412Y-139538057D01*
X167129500Y-139538057D01*
X167129500Y-139661943D01*
X167161564Y-139781606D01*
X167223506Y-139888894D01*
X167311106Y-139976494D01*
X167418394Y-140038436D01*
X167538057Y-140070500D01*
X167538060Y-140070500D01*
X167661940Y-140070500D01*
X167661943Y-140070500D01*
X167781606Y-140038436D01*
X167888894Y-139976494D01*
X167976494Y-139888894D01*
X168032534Y-139791828D01*
X173346476Y-139791828D01*
X173346476Y-139915714D01*
X173378540Y-140035377D01*
X173440482Y-140142665D01*
X173528082Y-140230265D01*
X173635370Y-140292207D01*
X173755033Y-140324271D01*
X173755036Y-140324271D01*
X173878916Y-140324271D01*
X173878919Y-140324271D01*
X173998582Y-140292207D01*
X174105870Y-140230265D01*
X174116802Y-140219333D01*
X174678702Y-140219333D01*
X174678702Y-140343219D01*
X174710766Y-140462882D01*
X174772708Y-140570170D01*
X174860308Y-140657770D01*
X174967596Y-140719712D01*
X175087259Y-140751776D01*
X175087262Y-140751776D01*
X175211142Y-140751776D01*
X175211145Y-140751776D01*
X175330808Y-140719712D01*
X175438096Y-140657770D01*
X175512809Y-140583057D01*
X194772387Y-140583057D01*
X194772387Y-140706943D01*
X194804451Y-140826606D01*
X194866393Y-140933894D01*
X194953993Y-141021494D01*
X195061281Y-141083436D01*
X195180944Y-141115500D01*
X195180947Y-141115500D01*
X195304827Y-141115500D01*
X195304830Y-141115500D01*
X195424493Y-141083436D01*
X195531781Y-141021494D01*
X195619381Y-140933894D01*
X195681323Y-140826606D01*
X195705050Y-140738057D01*
X197329500Y-140738057D01*
X197329500Y-140861943D01*
X197361564Y-140981606D01*
X197423506Y-141088894D01*
X197511106Y-141176494D01*
X197618394Y-141238436D01*
X197738057Y-141270500D01*
X197738060Y-141270500D01*
X197861940Y-141270500D01*
X197861943Y-141270500D01*
X197981606Y-141238436D01*
X198088894Y-141176494D01*
X198176494Y-141088894D01*
X198238436Y-140981606D01*
X198270500Y-140861943D01*
X198270500Y-140738057D01*
X198238436Y-140618394D01*
X198176494Y-140511106D01*
X198088894Y-140423506D01*
X197981606Y-140361564D01*
X197981607Y-140361564D01*
X197950332Y-140353184D01*
X197861943Y-140329500D01*
X197738057Y-140329500D01*
X197649668Y-140353184D01*
X197618393Y-140361564D01*
X197511107Y-140423505D01*
X197511104Y-140423507D01*
X197423507Y-140511104D01*
X197423505Y-140511107D01*
X197361564Y-140618393D01*
X197361564Y-140618394D01*
X197329500Y-140738057D01*
X195705050Y-140738057D01*
X195713387Y-140706943D01*
X195713387Y-140583057D01*
X195681323Y-140463394D01*
X195619381Y-140356106D01*
X195531781Y-140268506D01*
X195424493Y-140206564D01*
X195424494Y-140206564D01*
X195394577Y-140198548D01*
X195304830Y-140174500D01*
X195180944Y-140174500D01*
X195091196Y-140198548D01*
X195061280Y-140206564D01*
X194953994Y-140268505D01*
X194953991Y-140268507D01*
X194866394Y-140356104D01*
X194866392Y-140356107D01*
X194804451Y-140463393D01*
X194804451Y-140463394D01*
X194772387Y-140583057D01*
X175512809Y-140583057D01*
X175525696Y-140570170D01*
X175587638Y-140462882D01*
X175619702Y-140343219D01*
X175619702Y-140219333D01*
X175587638Y-140099670D01*
X175587635Y-140099665D01*
X175586566Y-140095674D01*
X175588229Y-140025825D01*
X175627391Y-139967962D01*
X175691619Y-139940457D01*
X175738429Y-139943804D01*
X175838057Y-139970500D01*
X175838060Y-139970500D01*
X175961940Y-139970500D01*
X175961943Y-139970500D01*
X176081606Y-139938436D01*
X176188894Y-139876494D01*
X176276494Y-139788894D01*
X176338436Y-139681606D01*
X176343397Y-139663088D01*
X176358655Y-139638057D01*
X178029500Y-139638057D01*
X178029500Y-139761943D01*
X178061564Y-139881606D01*
X178123506Y-139988894D01*
X178211106Y-140076494D01*
X178318394Y-140138436D01*
X178438057Y-140170500D01*
X178438060Y-140170500D01*
X178561940Y-140170500D01*
X178561943Y-140170500D01*
X178681606Y-140138436D01*
X178788894Y-140076494D01*
X178876494Y-139988894D01*
X178938436Y-139881606D01*
X178970500Y-139761943D01*
X178970500Y-139638057D01*
X178938436Y-139518394D01*
X178876494Y-139411106D01*
X178788894Y-139323506D01*
X178731637Y-139290449D01*
X178731635Y-139290447D01*
X178681612Y-139261567D01*
X178681607Y-139261564D01*
X178651690Y-139253548D01*
X178561943Y-139229500D01*
X178438057Y-139229500D01*
X178348309Y-139253548D01*
X178318393Y-139261564D01*
X178211107Y-139323505D01*
X178211104Y-139323507D01*
X178123507Y-139411104D01*
X178123505Y-139411107D01*
X178061564Y-139518393D01*
X178058588Y-139529500D01*
X178029500Y-139638057D01*
X176358655Y-139638057D01*
X176379762Y-139603429D01*
X176442609Y-139572900D01*
X176495263Y-139575407D01*
X176570247Y-139595500D01*
X176570250Y-139595500D01*
X176694130Y-139595500D01*
X176694133Y-139595500D01*
X176813796Y-139563436D01*
X176921084Y-139501494D01*
X177008684Y-139413894D01*
X177070626Y-139306606D01*
X177101552Y-139191189D01*
X187388897Y-139191189D01*
X187388897Y-139315075D01*
X187420961Y-139434738D01*
X187482903Y-139542026D01*
X187570503Y-139629626D01*
X187677791Y-139691568D01*
X187797454Y-139723632D01*
X187797457Y-139723632D01*
X187921337Y-139723632D01*
X187921340Y-139723632D01*
X188041003Y-139691568D01*
X188148291Y-139629626D01*
X188235891Y-139542026D01*
X188297833Y-139434738D01*
X188329897Y-139315075D01*
X188329897Y-139191189D01*
X188297833Y-139071526D01*
X188242460Y-138975616D01*
X194685600Y-138975616D01*
X194685600Y-139099502D01*
X194717664Y-139219165D01*
X194779606Y-139326453D01*
X194867206Y-139414053D01*
X194974494Y-139475995D01*
X195094157Y-139508059D01*
X195094160Y-139508059D01*
X195218040Y-139508059D01*
X195218043Y-139508059D01*
X195337706Y-139475995D01*
X195444994Y-139414053D01*
X195532594Y-139326453D01*
X195594536Y-139219165D01*
X195626600Y-139099502D01*
X195626600Y-138975616D01*
X195594536Y-138855953D01*
X195532594Y-138748665D01*
X195444994Y-138661065D01*
X195337706Y-138599123D01*
X195337707Y-138599123D01*
X195307790Y-138591107D01*
X195218043Y-138567059D01*
X195094157Y-138567059D01*
X195004409Y-138591107D01*
X194974493Y-138599123D01*
X194867207Y-138661064D01*
X194867204Y-138661066D01*
X194779607Y-138748663D01*
X194779605Y-138748666D01*
X194717664Y-138855952D01*
X194717664Y-138855953D01*
X194685600Y-138975616D01*
X188242460Y-138975616D01*
X188235891Y-138964238D01*
X188148291Y-138876638D01*
X188041003Y-138814696D01*
X188041004Y-138814696D01*
X188011087Y-138806680D01*
X187921340Y-138782632D01*
X187797454Y-138782632D01*
X187707706Y-138806680D01*
X187677790Y-138814696D01*
X187570504Y-138876637D01*
X187570501Y-138876639D01*
X187482904Y-138964236D01*
X187482902Y-138964239D01*
X187420961Y-139071525D01*
X187413465Y-139099502D01*
X187388897Y-139191189D01*
X177101552Y-139191189D01*
X177102690Y-139186943D01*
X177102690Y-139063057D01*
X177070626Y-138943394D01*
X177008684Y-138836106D01*
X176921084Y-138748506D01*
X176813796Y-138686564D01*
X176813797Y-138686564D01*
X176783880Y-138678548D01*
X176694133Y-138654500D01*
X176570247Y-138654500D01*
X176480499Y-138678548D01*
X176450583Y-138686564D01*
X176343297Y-138748505D01*
X176343294Y-138748507D01*
X176255697Y-138836104D01*
X176255695Y-138836107D01*
X176193754Y-138943393D01*
X176193752Y-138943399D01*
X176188790Y-138961915D01*
X176152423Y-139021574D01*
X176089575Y-139052100D01*
X176036924Y-139049591D01*
X175994645Y-139038262D01*
X175961943Y-139029500D01*
X175838057Y-139029500D01*
X175753714Y-139052100D01*
X175718393Y-139061564D01*
X175611107Y-139123505D01*
X175611104Y-139123507D01*
X175523507Y-139211104D01*
X175523505Y-139211107D01*
X175461564Y-139318393D01*
X175459404Y-139326454D01*
X175429500Y-139438057D01*
X175429500Y-139561943D01*
X175461564Y-139681606D01*
X175461565Y-139681607D01*
X175462635Y-139685601D01*
X175460972Y-139755451D01*
X175421810Y-139813314D01*
X175357581Y-139840818D01*
X175310767Y-139837470D01*
X175211145Y-139810776D01*
X175087259Y-139810776D01*
X174997511Y-139834824D01*
X174967595Y-139842840D01*
X174860309Y-139904781D01*
X174860306Y-139904783D01*
X174772709Y-139992380D01*
X174772707Y-139992383D01*
X174710766Y-140099669D01*
X174710766Y-140099670D01*
X174678702Y-140219333D01*
X174116802Y-140219333D01*
X174193470Y-140142665D01*
X174255412Y-140035377D01*
X174287476Y-139915714D01*
X174287476Y-139791828D01*
X174255412Y-139672165D01*
X174193470Y-139564877D01*
X174105870Y-139477277D01*
X173998582Y-139415335D01*
X173998583Y-139415335D01*
X173968666Y-139407319D01*
X173878919Y-139383271D01*
X173755033Y-139383271D01*
X173665285Y-139407319D01*
X173635369Y-139415335D01*
X173528083Y-139477276D01*
X173528080Y-139477278D01*
X173440483Y-139564875D01*
X173440481Y-139564878D01*
X173378540Y-139672164D01*
X173376010Y-139681606D01*
X173346476Y-139791828D01*
X168032534Y-139791828D01*
X168038436Y-139781606D01*
X168043706Y-139761940D01*
X168046475Y-139751606D01*
X168057326Y-139711107D01*
X168070500Y-139661943D01*
X168070500Y-139538057D01*
X168038436Y-139418394D01*
X167976494Y-139311106D01*
X167888894Y-139223506D01*
X167781606Y-139161564D01*
X167781607Y-139161564D01*
X167751690Y-139153548D01*
X167661943Y-139129500D01*
X167538057Y-139129500D01*
X167448309Y-139153548D01*
X167418393Y-139161564D01*
X167311107Y-139223505D01*
X167311104Y-139223507D01*
X167223507Y-139311104D01*
X167223505Y-139311107D01*
X167161564Y-139418393D01*
X167156295Y-139438057D01*
X167129500Y-139538057D01*
X141576412Y-139538057D01*
X141544477Y-139529500D01*
X141420591Y-139529500D01*
X141330843Y-139553548D01*
X141300927Y-139561564D01*
X141193641Y-139623505D01*
X141193638Y-139623507D01*
X141106041Y-139711104D01*
X141106039Y-139711107D01*
X141044098Y-139818393D01*
X141038089Y-139840818D01*
X141012034Y-139938057D01*
X138400500Y-139938057D01*
X138400500Y-137975557D01*
X160867000Y-137975557D01*
X160867000Y-138099443D01*
X160899064Y-138219106D01*
X160961006Y-138326394D01*
X161048606Y-138413994D01*
X161155894Y-138475936D01*
X161275557Y-138508000D01*
X161275560Y-138508000D01*
X161399440Y-138508000D01*
X161399443Y-138508000D01*
X161519106Y-138475936D01*
X161626394Y-138413994D01*
X161713994Y-138326394D01*
X161775936Y-138219106D01*
X161808000Y-138099443D01*
X161808000Y-137975557D01*
X161804899Y-137963984D01*
X161806560Y-137894136D01*
X161845722Y-137836273D01*
X161909950Y-137808767D01*
X161956763Y-137812114D01*
X161988057Y-137820500D01*
X161988060Y-137820500D01*
X162111940Y-137820500D01*
X162111943Y-137820500D01*
X162231606Y-137788436D01*
X162338894Y-137726494D01*
X162426494Y-137638894D01*
X162446969Y-137603430D01*
X167626549Y-137603430D01*
X167626549Y-137727316D01*
X167658613Y-137846979D01*
X167720555Y-137954267D01*
X167808155Y-138041867D01*
X167915443Y-138103809D01*
X168035106Y-138135873D01*
X168035109Y-138135873D01*
X168158989Y-138135873D01*
X168158992Y-138135873D01*
X168278655Y-138103809D01*
X168385943Y-138041867D01*
X168473543Y-137954267D01*
X168535485Y-137846979D01*
X168567549Y-137727316D01*
X168567549Y-137603430D01*
X168535485Y-137483767D01*
X168494020Y-137411947D01*
X168473545Y-137376482D01*
X168473544Y-137376480D01*
X168473543Y-137376479D01*
X168459155Y-137362091D01*
X169814145Y-137362091D01*
X169814145Y-137485977D01*
X169846209Y-137605640D01*
X169908151Y-137712928D01*
X169995751Y-137800528D01*
X170103039Y-137862470D01*
X170222702Y-137894534D01*
X170222705Y-137894534D01*
X170346585Y-137894534D01*
X170346588Y-137894534D01*
X170466251Y-137862470D01*
X170573539Y-137800528D01*
X170661139Y-137712928D01*
X170677382Y-137684794D01*
X170727948Y-137636577D01*
X170796555Y-137623353D01*
X170861420Y-137649320D01*
X170901949Y-137706234D01*
X170904539Y-137714681D01*
X170936379Y-137833505D01*
X170998321Y-137940793D01*
X171085921Y-138028393D01*
X171193209Y-138090335D01*
X171312872Y-138122399D01*
X171312875Y-138122399D01*
X171436755Y-138122399D01*
X171436758Y-138122399D01*
X171556421Y-138090335D01*
X171647504Y-138037749D01*
X173550811Y-138037749D01*
X173550811Y-138161635D01*
X173582875Y-138281298D01*
X173644817Y-138388586D01*
X173732417Y-138476186D01*
X173839705Y-138538128D01*
X173959368Y-138570192D01*
X173959371Y-138570192D01*
X174083251Y-138570192D01*
X174083254Y-138570192D01*
X174202917Y-138538128D01*
X174310205Y-138476186D01*
X174397805Y-138388586D01*
X174459747Y-138281298D01*
X174491811Y-138161635D01*
X174491811Y-138037749D01*
X174461453Y-137924451D01*
X175613451Y-137924451D01*
X175613451Y-138048337D01*
X175645515Y-138168000D01*
X175707457Y-138275288D01*
X175795057Y-138362888D01*
X175902345Y-138424830D01*
X176022008Y-138456894D01*
X176022011Y-138456894D01*
X176145891Y-138456894D01*
X176145894Y-138456894D01*
X176265557Y-138424830D01*
X176372845Y-138362888D01*
X176460445Y-138275288D01*
X176522387Y-138168000D01*
X176554451Y-138048337D01*
X176554451Y-137924451D01*
X176522387Y-137804788D01*
X176460445Y-137697500D01*
X176372845Y-137609900D01*
X176265557Y-137547958D01*
X176176364Y-137524058D01*
X176116707Y-137487695D01*
X176092594Y-137438057D01*
X176879500Y-137438057D01*
X176879500Y-137561943D01*
X176911564Y-137681606D01*
X176973506Y-137788894D01*
X177061106Y-137876494D01*
X177168394Y-137938436D01*
X177288057Y-137970500D01*
X177288060Y-137970500D01*
X177411940Y-137970500D01*
X177411943Y-137970500D01*
X177531606Y-137938436D01*
X177638894Y-137876494D01*
X177726494Y-137788894D01*
X177755570Y-137738533D01*
X194707701Y-137738533D01*
X194707701Y-137862419D01*
X194739765Y-137982082D01*
X194801707Y-138089370D01*
X194889307Y-138176970D01*
X194996595Y-138238912D01*
X195116258Y-138270976D01*
X195116261Y-138270976D01*
X195240141Y-138270976D01*
X195240144Y-138270976D01*
X195359807Y-138238912D01*
X195467095Y-138176970D01*
X195554695Y-138089370D01*
X195616637Y-137982082D01*
X195648701Y-137862419D01*
X195648701Y-137738533D01*
X195616637Y-137618870D01*
X195554695Y-137511582D01*
X195467095Y-137423982D01*
X195359807Y-137362040D01*
X195359808Y-137362040D01*
X195318322Y-137350924D01*
X195240144Y-137329976D01*
X195116258Y-137329976D01*
X195038080Y-137350924D01*
X194996594Y-137362040D01*
X194889308Y-137423981D01*
X194889305Y-137423983D01*
X194801708Y-137511580D01*
X194801706Y-137511583D01*
X194739765Y-137618869D01*
X194734399Y-137638895D01*
X194707701Y-137738533D01*
X177755570Y-137738533D01*
X177788436Y-137681606D01*
X177820500Y-137561943D01*
X177820500Y-137438057D01*
X177788436Y-137318394D01*
X177726494Y-137211106D01*
X177638894Y-137123506D01*
X177531606Y-137061564D01*
X177531607Y-137061564D01*
X177501690Y-137053548D01*
X177411943Y-137029500D01*
X177288057Y-137029500D01*
X177198309Y-137053548D01*
X177168393Y-137061564D01*
X177061107Y-137123505D01*
X177061104Y-137123507D01*
X176973507Y-137211104D01*
X176973505Y-137211107D01*
X176911564Y-137318393D01*
X176901629Y-137355472D01*
X176879500Y-137438057D01*
X176092594Y-137438057D01*
X176086504Y-137425521D01*
X176083532Y-137450389D01*
X176039046Y-137504267D01*
X176001638Y-137521351D01*
X175902349Y-137547956D01*
X175902344Y-137547958D01*
X175795058Y-137609899D01*
X175795055Y-137609901D01*
X175707458Y-137697498D01*
X175707456Y-137697501D01*
X175645515Y-137804787D01*
X175634827Y-137844675D01*
X175613451Y-137924451D01*
X174461453Y-137924451D01*
X174459747Y-137918086D01*
X174397805Y-137810798D01*
X174310205Y-137723198D01*
X174202917Y-137661256D01*
X174202918Y-137661256D01*
X174173001Y-137653240D01*
X174083254Y-137629192D01*
X173959368Y-137629192D01*
X173869620Y-137653240D01*
X173839704Y-137661256D01*
X173732418Y-137723197D01*
X173732415Y-137723199D01*
X173644818Y-137810796D01*
X173644816Y-137810799D01*
X173582875Y-137918085D01*
X173576790Y-137940794D01*
X173550811Y-138037749D01*
X171647504Y-138037749D01*
X171663709Y-138028393D01*
X171751309Y-137940793D01*
X171813251Y-137833505D01*
X171845315Y-137713842D01*
X171845315Y-137589956D01*
X171813251Y-137470293D01*
X171751309Y-137363005D01*
X171663709Y-137275405D01*
X171556421Y-137213463D01*
X171556422Y-137213463D01*
X171526505Y-137205447D01*
X171436758Y-137181399D01*
X171312872Y-137181399D01*
X171223124Y-137205447D01*
X171193208Y-137213463D01*
X171085922Y-137275404D01*
X171085919Y-137275406D01*
X170998322Y-137363003D01*
X170998318Y-137363008D01*
X170982075Y-137391142D01*
X170931507Y-137439357D01*
X170862900Y-137452578D01*
X170798036Y-137426609D01*
X170757508Y-137369694D01*
X170754922Y-137361261D01*
X170723081Y-137242428D01*
X170661139Y-137135140D01*
X170573539Y-137047540D01*
X170466251Y-136985598D01*
X170466252Y-136985598D01*
X170436335Y-136977582D01*
X170346588Y-136953534D01*
X170222702Y-136953534D01*
X170132954Y-136977582D01*
X170103038Y-136985598D01*
X169995752Y-137047539D01*
X169995749Y-137047541D01*
X169908152Y-137135138D01*
X169908150Y-137135141D01*
X169846209Y-137242427D01*
X169846209Y-137242428D01*
X169814145Y-137362091D01*
X168459155Y-137362091D01*
X168385943Y-137288879D01*
X168278655Y-137226937D01*
X168278656Y-137226937D01*
X168248739Y-137218921D01*
X168158992Y-137194873D01*
X168035106Y-137194873D01*
X167945358Y-137218921D01*
X167915442Y-137226937D01*
X167808156Y-137288878D01*
X167808153Y-137288880D01*
X167720556Y-137376477D01*
X167720554Y-137376480D01*
X167658613Y-137483766D01*
X167656012Y-137493474D01*
X167626549Y-137603430D01*
X162446969Y-137603430D01*
X162488436Y-137531606D01*
X162512684Y-137441109D01*
X162549046Y-137381454D01*
X162611893Y-137350924D01*
X162681269Y-137359218D01*
X162720138Y-137385526D01*
X162723506Y-137388894D01*
X162811106Y-137476494D01*
X162918394Y-137538436D01*
X163038057Y-137570500D01*
X163038060Y-137570500D01*
X163161940Y-137570500D01*
X163161943Y-137570500D01*
X163281606Y-137538436D01*
X163388894Y-137476494D01*
X163476494Y-137388894D01*
X163538436Y-137281606D01*
X163570500Y-137161943D01*
X163570500Y-137038057D01*
X163538436Y-136918394D01*
X163476494Y-136811106D01*
X163422914Y-136757526D01*
X175623554Y-136757526D01*
X175623554Y-136881412D01*
X175655618Y-137001075D01*
X175717560Y-137108363D01*
X175805160Y-137195963D01*
X175912448Y-137257905D01*
X176001639Y-137281804D01*
X176061297Y-137318167D01*
X176091499Y-137380340D01*
X176094473Y-137355472D01*
X176138958Y-137301594D01*
X176176362Y-137284511D01*
X176275660Y-137257905D01*
X176382948Y-137195963D01*
X176470548Y-137108363D01*
X176532490Y-137001075D01*
X176564554Y-136881412D01*
X176564554Y-136757526D01*
X176532490Y-136637863D01*
X176470548Y-136530575D01*
X176382948Y-136442975D01*
X176363145Y-136431542D01*
X181649783Y-136431542D01*
X181649783Y-136555428D01*
X181681847Y-136675091D01*
X181743789Y-136782379D01*
X181831389Y-136869979D01*
X181938677Y-136931921D01*
X182058340Y-136963985D01*
X182058343Y-136963985D01*
X182190353Y-136963985D01*
X182190353Y-136965566D01*
X182250164Y-136974886D01*
X182302425Y-137021260D01*
X182321327Y-137087066D01*
X182321327Y-137116982D01*
X182353391Y-137236645D01*
X182415333Y-137343933D01*
X182502933Y-137431533D01*
X182610221Y-137493475D01*
X182729884Y-137525539D01*
X182729887Y-137525539D01*
X182853767Y-137525539D01*
X182853770Y-137525539D01*
X182973433Y-137493475D01*
X183080721Y-137431533D01*
X183168321Y-137343933D01*
X183230263Y-137236645D01*
X183262327Y-137116982D01*
X183262327Y-136993096D01*
X183230263Y-136873433D01*
X183168321Y-136766145D01*
X183080721Y-136678545D01*
X182973433Y-136616603D01*
X182973434Y-136616603D01*
X182943517Y-136608587D01*
X182853770Y-136584539D01*
X182729884Y-136584539D01*
X182721757Y-136584539D01*
X182721757Y-136582959D01*
X182661931Y-136573629D01*
X182609676Y-136527248D01*
X182590783Y-136461457D01*
X182590783Y-136431544D01*
X182590783Y-136431542D01*
X182558719Y-136311879D01*
X182496777Y-136204591D01*
X182409177Y-136116991D01*
X182409176Y-136116990D01*
X182398715Y-136110951D01*
X182393373Y-136107867D01*
X182301889Y-136055049D01*
X182301890Y-136055049D01*
X182267838Y-136045925D01*
X182182226Y-136022985D01*
X182058340Y-136022985D01*
X181972728Y-136045925D01*
X181938676Y-136055049D01*
X181831390Y-136116990D01*
X181831387Y-136116992D01*
X181743790Y-136204589D01*
X181743788Y-136204592D01*
X181681847Y-136311878D01*
X181681307Y-136313894D01*
X181649783Y-136431542D01*
X176363145Y-136431542D01*
X176275660Y-136381033D01*
X176275661Y-136381033D01*
X176245744Y-136373017D01*
X176155997Y-136348969D01*
X176032111Y-136348969D01*
X175942363Y-136373017D01*
X175912447Y-136381033D01*
X175805161Y-136442974D01*
X175805158Y-136442976D01*
X175717561Y-136530573D01*
X175717559Y-136530576D01*
X175655618Y-136637862D01*
X175655618Y-136637863D01*
X175623554Y-136757526D01*
X163422914Y-136757526D01*
X163388894Y-136723506D01*
X163281606Y-136661564D01*
X163281607Y-136661564D01*
X163251690Y-136653548D01*
X163161943Y-136629500D01*
X163038057Y-136629500D01*
X162948309Y-136653548D01*
X162918393Y-136661564D01*
X162811107Y-136723505D01*
X162811104Y-136723507D01*
X162723507Y-136811104D01*
X162723505Y-136811107D01*
X162661564Y-136918393D01*
X162661564Y-136918394D01*
X162637316Y-137008887D01*
X162600952Y-137068546D01*
X162538105Y-137099075D01*
X162468729Y-137090780D01*
X162429861Y-137064473D01*
X162338895Y-136973507D01*
X162338894Y-136973506D01*
X162231606Y-136911564D01*
X162231607Y-136911564D01*
X162201690Y-136903548D01*
X162111943Y-136879500D01*
X161988057Y-136879500D01*
X161898309Y-136903548D01*
X161868393Y-136911564D01*
X161761107Y-136973505D01*
X161761104Y-136973507D01*
X161673507Y-137061104D01*
X161673505Y-137061107D01*
X161611564Y-137168393D01*
X161611564Y-137168394D01*
X161579500Y-137288057D01*
X161579500Y-137288059D01*
X161579500Y-137411947D01*
X161582601Y-137423518D01*
X161580937Y-137493367D01*
X161541774Y-137551229D01*
X161477545Y-137578732D01*
X161430734Y-137575384D01*
X161399444Y-137567000D01*
X161399443Y-137567000D01*
X161275557Y-137567000D01*
X161189885Y-137589956D01*
X161155893Y-137599064D01*
X161048607Y-137661005D01*
X161048604Y-137661007D01*
X160961007Y-137748604D01*
X160961005Y-137748607D01*
X160899064Y-137855893D01*
X160897302Y-137862469D01*
X160867000Y-137975557D01*
X138400500Y-137975557D01*
X138400500Y-136938057D01*
X155929500Y-136938057D01*
X155929500Y-137061943D01*
X155961564Y-137181606D01*
X156023506Y-137288894D01*
X156111106Y-137376494D01*
X156218394Y-137438436D01*
X156338057Y-137470500D01*
X156338060Y-137470500D01*
X156461940Y-137470500D01*
X156461943Y-137470500D01*
X156581606Y-137438436D01*
X156688894Y-137376494D01*
X156776494Y-137288894D01*
X156838436Y-137181606D01*
X156870500Y-137061943D01*
X156870500Y-136938057D01*
X156838436Y-136818394D01*
X156776494Y-136711106D01*
X156688894Y-136623506D01*
X156581606Y-136561564D01*
X156581607Y-136561564D01*
X156540315Y-136550500D01*
X156461943Y-136529500D01*
X156338057Y-136529500D01*
X156259685Y-136550500D01*
X156218393Y-136561564D01*
X156111107Y-136623505D01*
X156111104Y-136623507D01*
X156023507Y-136711104D01*
X156023505Y-136711107D01*
X155961564Y-136818393D01*
X155961564Y-136818394D01*
X155929500Y-136938057D01*
X138400500Y-136938057D01*
X138400500Y-135103480D01*
X138400695Y-135096527D01*
X138407175Y-134981143D01*
X138418342Y-134782300D01*
X138419717Y-134770097D01*
X139449500Y-134770097D01*
X139449500Y-135029902D01*
X139490140Y-135286493D01*
X139570422Y-135533576D01*
X139651534Y-135692764D01*
X139688365Y-135765050D01*
X139688368Y-135765054D01*
X139832227Y-135963059D01*
X139841069Y-135975229D01*
X140024771Y-136158931D01*
X140234949Y-136311634D01*
X140371152Y-136381033D01*
X140466423Y-136429577D01*
X140466425Y-136429577D01*
X140466428Y-136429579D01*
X140713507Y-136509860D01*
X140837512Y-136529500D01*
X140970098Y-136550500D01*
X140970103Y-136550500D01*
X141229902Y-136550500D01*
X141343298Y-136532539D01*
X141486493Y-136509860D01*
X141733572Y-136429579D01*
X141965051Y-136311634D01*
X142175229Y-136158931D01*
X142358931Y-135975229D01*
X142458592Y-135838057D01*
X148054500Y-135838057D01*
X148054500Y-135961943D01*
X148086564Y-136081606D01*
X148148506Y-136188894D01*
X148236106Y-136276494D01*
X148343394Y-136338436D01*
X148463057Y-136370500D01*
X148463060Y-136370500D01*
X148586940Y-136370500D01*
X148586943Y-136370500D01*
X148706606Y-136338436D01*
X148813894Y-136276494D01*
X148901494Y-136188894D01*
X148963436Y-136081606D01*
X148995500Y-135961943D01*
X148995500Y-135838057D01*
X150129500Y-135838057D01*
X150129500Y-135961943D01*
X150161564Y-136081606D01*
X150223506Y-136188894D01*
X150311106Y-136276494D01*
X150418394Y-136338436D01*
X150538057Y-136370500D01*
X150538060Y-136370500D01*
X150661940Y-136370500D01*
X150661943Y-136370500D01*
X150781606Y-136338436D01*
X150888894Y-136276494D01*
X150976494Y-136188894D01*
X151038436Y-136081606D01*
X151070202Y-135963057D01*
X163379500Y-135963057D01*
X163379500Y-136086943D01*
X163411564Y-136206606D01*
X163473506Y-136313894D01*
X163561106Y-136401494D01*
X163668394Y-136463436D01*
X163788057Y-136495500D01*
X163788060Y-136495500D01*
X163911940Y-136495500D01*
X163911943Y-136495500D01*
X164031606Y-136463436D01*
X164138894Y-136401494D01*
X164226494Y-136313894D01*
X164288436Y-136206606D01*
X164320500Y-136086943D01*
X164320500Y-136010472D01*
X164641902Y-136010472D01*
X164641902Y-136134358D01*
X164673966Y-136254021D01*
X164735908Y-136361309D01*
X164823508Y-136448909D01*
X164930796Y-136510851D01*
X165050459Y-136542915D01*
X165050462Y-136542915D01*
X165174342Y-136542915D01*
X165174345Y-136542915D01*
X165294008Y-136510851D01*
X165401296Y-136448909D01*
X165488896Y-136361309D01*
X165550838Y-136254021D01*
X165582902Y-136134358D01*
X165582902Y-136010472D01*
X165562365Y-135933829D01*
X170930216Y-135933829D01*
X170930216Y-136057715D01*
X170962280Y-136177378D01*
X171024222Y-136284666D01*
X171111822Y-136372266D01*
X171219110Y-136434208D01*
X171338773Y-136466272D01*
X171338776Y-136466272D01*
X171462656Y-136466272D01*
X171462659Y-136466272D01*
X171582322Y-136434208D01*
X171689610Y-136372266D01*
X171777210Y-136284666D01*
X171839152Y-136177378D01*
X171871216Y-136057715D01*
X171871216Y-136011690D01*
X183843004Y-136011690D01*
X183843004Y-136135576D01*
X183875068Y-136255239D01*
X183937010Y-136362527D01*
X184024610Y-136450127D01*
X184131898Y-136512069D01*
X184251561Y-136544133D01*
X184251564Y-136544133D01*
X184375444Y-136544133D01*
X184375447Y-136544133D01*
X184495110Y-136512069D01*
X184602398Y-136450127D01*
X184689998Y-136362527D01*
X184751940Y-136255239D01*
X184784004Y-136135576D01*
X184784004Y-136011690D01*
X184769166Y-135956315D01*
X188521699Y-135956315D01*
X188521699Y-136080201D01*
X188553763Y-136199864D01*
X188615705Y-136307152D01*
X188703305Y-136394752D01*
X188810593Y-136456694D01*
X188930256Y-136488758D01*
X188930259Y-136488758D01*
X189054139Y-136488758D01*
X189054142Y-136488758D01*
X189173805Y-136456694D01*
X189233173Y-136422418D01*
X194229500Y-136422418D01*
X194229500Y-136546304D01*
X194261564Y-136665967D01*
X194323506Y-136773255D01*
X194411106Y-136860855D01*
X194518394Y-136922797D01*
X194638057Y-136954861D01*
X194638060Y-136954861D01*
X194761940Y-136954861D01*
X194761943Y-136954861D01*
X194881606Y-136922797D01*
X194988894Y-136860855D01*
X195076494Y-136773255D01*
X195138436Y-136665967D01*
X195170500Y-136546304D01*
X195170500Y-136422418D01*
X195138436Y-136302755D01*
X195076494Y-136195467D01*
X194988894Y-136107867D01*
X194881606Y-136045925D01*
X194881607Y-136045925D01*
X194851690Y-136037909D01*
X194761943Y-136013861D01*
X194638057Y-136013861D01*
X194548309Y-136037909D01*
X194518393Y-136045925D01*
X194411107Y-136107866D01*
X194411104Y-136107868D01*
X194323507Y-136195465D01*
X194323505Y-136195468D01*
X194261564Y-136302754D01*
X194259185Y-136311634D01*
X194229500Y-136422418D01*
X189233173Y-136422418D01*
X189281093Y-136394752D01*
X189368693Y-136307152D01*
X189430635Y-136199864D01*
X189462699Y-136080201D01*
X189462699Y-135956315D01*
X189430635Y-135836652D01*
X189368693Y-135729364D01*
X189281093Y-135641764D01*
X189173805Y-135579822D01*
X189173806Y-135579822D01*
X189143889Y-135571806D01*
X189054142Y-135547758D01*
X188930256Y-135547758D01*
X188840508Y-135571806D01*
X188810592Y-135579822D01*
X188703306Y-135641763D01*
X188703303Y-135641765D01*
X188615706Y-135729362D01*
X188615704Y-135729365D01*
X188553763Y-135836651D01*
X188553386Y-135838059D01*
X188521699Y-135956315D01*
X184769166Y-135956315D01*
X184751940Y-135892027D01*
X184689998Y-135784739D01*
X184602398Y-135697139D01*
X184495110Y-135635197D01*
X184495111Y-135635197D01*
X184465194Y-135627181D01*
X184375447Y-135603133D01*
X184251561Y-135603133D01*
X184161813Y-135627181D01*
X184131897Y-135635197D01*
X184024611Y-135697138D01*
X184024608Y-135697140D01*
X183937011Y-135784737D01*
X183937009Y-135784740D01*
X183875068Y-135892026D01*
X183875068Y-135892027D01*
X183843004Y-136011690D01*
X171871216Y-136011690D01*
X171871216Y-135933829D01*
X171839152Y-135814166D01*
X171777210Y-135706878D01*
X171689610Y-135619278D01*
X171582322Y-135557336D01*
X171582323Y-135557336D01*
X171546577Y-135547758D01*
X171462659Y-135525272D01*
X171338773Y-135525272D01*
X171254855Y-135547758D01*
X171219109Y-135557336D01*
X171111823Y-135619277D01*
X171111820Y-135619279D01*
X171024223Y-135706876D01*
X171024221Y-135706879D01*
X170962280Y-135814165D01*
X170954448Y-135843394D01*
X170930216Y-135933829D01*
X165562365Y-135933829D01*
X165550838Y-135890809D01*
X165488896Y-135783521D01*
X165401296Y-135695921D01*
X165294008Y-135633979D01*
X165294009Y-135633979D01*
X165264092Y-135625963D01*
X165174345Y-135601915D01*
X165050459Y-135601915D01*
X164960711Y-135625963D01*
X164930795Y-135633979D01*
X164823509Y-135695920D01*
X164823506Y-135695922D01*
X164735909Y-135783519D01*
X164735907Y-135783522D01*
X164673966Y-135890808D01*
X164663278Y-135930696D01*
X164641902Y-136010472D01*
X164320500Y-136010472D01*
X164320500Y-135963057D01*
X164288436Y-135843394D01*
X164226494Y-135736106D01*
X164138894Y-135648506D01*
X164031606Y-135586564D01*
X164031607Y-135586564D01*
X164001690Y-135578548D01*
X163911943Y-135554500D01*
X163788057Y-135554500D01*
X163698309Y-135578548D01*
X163668393Y-135586564D01*
X163561107Y-135648505D01*
X163561104Y-135648507D01*
X163473507Y-135736104D01*
X163473505Y-135736107D01*
X163411564Y-135843393D01*
X163411564Y-135843394D01*
X163379500Y-135963057D01*
X151070202Y-135963057D01*
X151070500Y-135961943D01*
X151070500Y-135838057D01*
X151038436Y-135718394D01*
X150976494Y-135611106D01*
X150888894Y-135523506D01*
X150781606Y-135461564D01*
X150781607Y-135461564D01*
X150751690Y-135453548D01*
X150661943Y-135429500D01*
X150538057Y-135429500D01*
X150448309Y-135453548D01*
X150418393Y-135461564D01*
X150311107Y-135523505D01*
X150311104Y-135523507D01*
X150223507Y-135611104D01*
X150223505Y-135611107D01*
X150161564Y-135718393D01*
X150156818Y-135736106D01*
X150129500Y-135838057D01*
X148995500Y-135838057D01*
X148963436Y-135718394D01*
X148901494Y-135611106D01*
X148813894Y-135523506D01*
X148706606Y-135461564D01*
X148706607Y-135461564D01*
X148676690Y-135453548D01*
X148586943Y-135429500D01*
X148463057Y-135429500D01*
X148373309Y-135453548D01*
X148343393Y-135461564D01*
X148236107Y-135523505D01*
X148236104Y-135523507D01*
X148148507Y-135611104D01*
X148148505Y-135611107D01*
X148086564Y-135718393D01*
X148081818Y-135736106D01*
X148054500Y-135838057D01*
X142458592Y-135838057D01*
X142511634Y-135765051D01*
X142629579Y-135533572D01*
X142709860Y-135286493D01*
X142739947Y-135096527D01*
X142750500Y-135029902D01*
X142750500Y-134770097D01*
X142717471Y-134561564D01*
X142709860Y-134513507D01*
X142629579Y-134266428D01*
X142629577Y-134266425D01*
X142629577Y-134266423D01*
X142584268Y-134177500D01*
X142511634Y-134034949D01*
X142358931Y-133824771D01*
X142211282Y-133677122D01*
X158238232Y-133677122D01*
X158238232Y-133801008D01*
X158270296Y-133920671D01*
X158332238Y-134027959D01*
X158419838Y-134115559D01*
X158527126Y-134177501D01*
X158646789Y-134209565D01*
X158646792Y-134209565D01*
X158770672Y-134209565D01*
X158770675Y-134209565D01*
X158890338Y-134177501D01*
X158997626Y-134115559D01*
X159085226Y-134027959D01*
X159147168Y-133920671D01*
X159179232Y-133801008D01*
X159179232Y-133677122D01*
X159147168Y-133557459D01*
X159121533Y-133513057D01*
X161829500Y-133513057D01*
X161829500Y-133636943D01*
X161861564Y-133756606D01*
X161923506Y-133863894D01*
X162011106Y-133951494D01*
X162118394Y-134013436D01*
X162238057Y-134045500D01*
X162238060Y-134045500D01*
X162361940Y-134045500D01*
X162361943Y-134045500D01*
X162481606Y-134013436D01*
X162588894Y-133951494D01*
X162676494Y-133863894D01*
X162738436Y-133756606D01*
X162770500Y-133636943D01*
X162770500Y-133513057D01*
X162738436Y-133393394D01*
X162676494Y-133286106D01*
X162588894Y-133198506D01*
X162481606Y-133136564D01*
X162481607Y-133136564D01*
X162442394Y-133126057D01*
X162361943Y-133104500D01*
X162238057Y-133104500D01*
X162157606Y-133126057D01*
X162118393Y-133136564D01*
X162011107Y-133198505D01*
X162011104Y-133198507D01*
X161923507Y-133286104D01*
X161923505Y-133286107D01*
X161861564Y-133393393D01*
X161855790Y-133414944D01*
X161829500Y-133513057D01*
X159121533Y-133513057D01*
X159085226Y-133450171D01*
X158997626Y-133362571D01*
X158890338Y-133300629D01*
X158890339Y-133300629D01*
X158851193Y-133290140D01*
X158770675Y-133268565D01*
X158646789Y-133268565D01*
X158566271Y-133290140D01*
X158527125Y-133300629D01*
X158419839Y-133362570D01*
X158419836Y-133362572D01*
X158332239Y-133450169D01*
X158332237Y-133450172D01*
X158270296Y-133557458D01*
X158261527Y-133590185D01*
X158238232Y-133677122D01*
X142211282Y-133677122D01*
X142175229Y-133641069D01*
X141999038Y-133513059D01*
X141965054Y-133488368D01*
X141965053Y-133488367D01*
X141965051Y-133488366D01*
X141890086Y-133450169D01*
X141733576Y-133370422D01*
X141486493Y-133290140D01*
X141229902Y-133249500D01*
X141229897Y-133249500D01*
X140970103Y-133249500D01*
X140970098Y-133249500D01*
X140713506Y-133290140D01*
X140466423Y-133370422D01*
X140234945Y-133488368D01*
X140024774Y-133641066D01*
X140024768Y-133641071D01*
X139841071Y-133824768D01*
X139841066Y-133824774D01*
X139688368Y-134034945D01*
X139570422Y-134266423D01*
X139490140Y-134513506D01*
X139449500Y-134770097D01*
X138419717Y-134770097D01*
X138419898Y-134768495D01*
X138472030Y-134461663D01*
X138475124Y-134448111D01*
X138477015Y-134441550D01*
X138561285Y-134149040D01*
X138565877Y-134135920D01*
X138610595Y-134027960D01*
X138684978Y-133848380D01*
X138691004Y-133835867D01*
X138841556Y-133563467D01*
X138848953Y-133551694D01*
X139029056Y-133297862D01*
X139037712Y-133287008D01*
X139245113Y-133054925D01*
X139254925Y-133045113D01*
X139262821Y-133038057D01*
X167729500Y-133038057D01*
X167729500Y-133161943D01*
X167761564Y-133281606D01*
X167823506Y-133388894D01*
X167911106Y-133476494D01*
X168018394Y-133538436D01*
X168138057Y-133570500D01*
X168138060Y-133570500D01*
X168261940Y-133570500D01*
X168261943Y-133570500D01*
X168381606Y-133538436D01*
X168388226Y-133534614D01*
X178221549Y-133534614D01*
X178221549Y-133658500D01*
X178253613Y-133778163D01*
X178315555Y-133885451D01*
X178403155Y-133973051D01*
X178510443Y-134034993D01*
X178630106Y-134067057D01*
X178630109Y-134067057D01*
X178753989Y-134067057D01*
X178753992Y-134067057D01*
X178873655Y-134034993D01*
X178980943Y-133973051D01*
X179068543Y-133885451D01*
X179130485Y-133778163D01*
X179162549Y-133658500D01*
X179162549Y-133534614D01*
X179130485Y-133414951D01*
X179127066Y-133409029D01*
X179082760Y-133332287D01*
X179082758Y-133332285D01*
X179068543Y-133307663D01*
X179039293Y-133278413D01*
X182013609Y-133278413D01*
X182013609Y-133402299D01*
X182045673Y-133521962D01*
X182107615Y-133629250D01*
X182195215Y-133716850D01*
X182302503Y-133778792D01*
X182422166Y-133810856D01*
X182422169Y-133810856D01*
X182546049Y-133810856D01*
X182546052Y-133810856D01*
X182665715Y-133778792D01*
X182773003Y-133716850D01*
X182860603Y-133629250D01*
X182922545Y-133521962D01*
X182954609Y-133402299D01*
X182954609Y-133278413D01*
X182922545Y-133158750D01*
X182915250Y-133146115D01*
X182883968Y-133091931D01*
X182883966Y-133091929D01*
X182860603Y-133051462D01*
X182847198Y-133038057D01*
X184229500Y-133038057D01*
X184229500Y-133161943D01*
X184261564Y-133281606D01*
X184323506Y-133388894D01*
X184411106Y-133476494D01*
X184518394Y-133538436D01*
X184638057Y-133570500D01*
X184638060Y-133570500D01*
X184689911Y-133570500D01*
X184756950Y-133590185D01*
X184802705Y-133642989D01*
X184812649Y-133712147D01*
X184797298Y-133756499D01*
X184761567Y-133818387D01*
X184761564Y-133818392D01*
X184749373Y-133863892D01*
X184729500Y-133938057D01*
X184729500Y-134061943D01*
X184761564Y-134181606D01*
X184823506Y-134288894D01*
X184911106Y-134376494D01*
X185018394Y-134438436D01*
X185030018Y-134441550D01*
X185089678Y-134477915D01*
X185120207Y-134540762D01*
X185111912Y-134610137D01*
X185085606Y-134649006D01*
X185023504Y-134711107D01*
X184961564Y-134818393D01*
X184961564Y-134818394D01*
X184929500Y-134938057D01*
X184929500Y-135061943D01*
X184961564Y-135181606D01*
X185023506Y-135288894D01*
X185111106Y-135376494D01*
X185218394Y-135438436D01*
X185338057Y-135470500D01*
X185338060Y-135470500D01*
X185461940Y-135470500D01*
X185461943Y-135470500D01*
X185581606Y-135438436D01*
X185688894Y-135376494D01*
X185776494Y-135288894D01*
X185838436Y-135181606D01*
X185870500Y-135061943D01*
X185870500Y-134938057D01*
X185838436Y-134818394D01*
X185776494Y-134711106D01*
X185695696Y-134630308D01*
X187015162Y-134630308D01*
X187015162Y-134754194D01*
X187047226Y-134873857D01*
X187109168Y-134981145D01*
X187196768Y-135068745D01*
X187304056Y-135130687D01*
X187423719Y-135162751D01*
X187423722Y-135162751D01*
X187547602Y-135162751D01*
X187547605Y-135162751D01*
X187667268Y-135130687D01*
X187774556Y-135068745D01*
X187862156Y-134981145D01*
X187924098Y-134873857D01*
X187951901Y-134770097D01*
X198849500Y-134770097D01*
X198849500Y-135029902D01*
X198890140Y-135286493D01*
X198970422Y-135533576D01*
X199051534Y-135692764D01*
X199088365Y-135765050D01*
X199088368Y-135765054D01*
X199232227Y-135963059D01*
X199241069Y-135975229D01*
X199424771Y-136158931D01*
X199634949Y-136311634D01*
X199771152Y-136381033D01*
X199866423Y-136429577D01*
X199866425Y-136429577D01*
X199866428Y-136429579D01*
X200113507Y-136509860D01*
X200237512Y-136529500D01*
X200370098Y-136550500D01*
X200370103Y-136550500D01*
X200629902Y-136550500D01*
X200743298Y-136532539D01*
X200886493Y-136509860D01*
X201133572Y-136429579D01*
X201365051Y-136311634D01*
X201575229Y-136158931D01*
X201758931Y-135975229D01*
X201911634Y-135765051D01*
X202029579Y-135533572D01*
X202109860Y-135286493D01*
X202139947Y-135096527D01*
X202150500Y-135029902D01*
X202150500Y-134770097D01*
X202117471Y-134561564D01*
X202109860Y-134513507D01*
X202029579Y-134266428D01*
X202029577Y-134266425D01*
X202029577Y-134266423D01*
X201984268Y-134177500D01*
X201911634Y-134034949D01*
X201758931Y-133824771D01*
X201575229Y-133641069D01*
X201399038Y-133513059D01*
X201365054Y-133488368D01*
X201365053Y-133488367D01*
X201365051Y-133488366D01*
X201290086Y-133450169D01*
X201133576Y-133370422D01*
X200886493Y-133290140D01*
X200629902Y-133249500D01*
X200629897Y-133249500D01*
X200370103Y-133249500D01*
X200370098Y-133249500D01*
X200113506Y-133290140D01*
X199866423Y-133370422D01*
X199634945Y-133488368D01*
X199424774Y-133641066D01*
X199424768Y-133641071D01*
X199241071Y-133824768D01*
X199241066Y-133824774D01*
X199088368Y-134034945D01*
X198970422Y-134266423D01*
X198890140Y-134513506D01*
X198849500Y-134770097D01*
X187951901Y-134770097D01*
X187956162Y-134754194D01*
X187956162Y-134630308D01*
X187924098Y-134510645D01*
X187862156Y-134403357D01*
X187774556Y-134315757D01*
X187667268Y-134253815D01*
X187667269Y-134253815D01*
X187637352Y-134245799D01*
X187547605Y-134221751D01*
X187423719Y-134221751D01*
X187333971Y-134245799D01*
X187304055Y-134253815D01*
X187196769Y-134315756D01*
X187196766Y-134315758D01*
X187109169Y-134403355D01*
X187109167Y-134403358D01*
X187047226Y-134510644D01*
X187047226Y-134510645D01*
X187015162Y-134630308D01*
X185695696Y-134630308D01*
X185688894Y-134623506D01*
X185581606Y-134561564D01*
X185569976Y-134558447D01*
X185510318Y-134522081D01*
X185479791Y-134459233D01*
X185488088Y-134389858D01*
X185514389Y-134350998D01*
X185576494Y-134288894D01*
X185638436Y-134181606D01*
X185670500Y-134061943D01*
X185670500Y-133938057D01*
X185638436Y-133818394D01*
X185576494Y-133711106D01*
X185488894Y-133623506D01*
X185381606Y-133561564D01*
X185381607Y-133561564D01*
X185344771Y-133551694D01*
X185261943Y-133529500D01*
X185210089Y-133529500D01*
X185143050Y-133509815D01*
X185097295Y-133457011D01*
X185087351Y-133387853D01*
X185102702Y-133343501D01*
X185133509Y-133290140D01*
X185138436Y-133281606D01*
X185170500Y-133161943D01*
X185170500Y-133038057D01*
X185138436Y-132918394D01*
X185076494Y-132811106D01*
X184988894Y-132723506D01*
X184881606Y-132661564D01*
X184881607Y-132661564D01*
X184851690Y-132653548D01*
X184761943Y-132629500D01*
X184638057Y-132629500D01*
X184548309Y-132653548D01*
X184518393Y-132661564D01*
X184411107Y-132723505D01*
X184411104Y-132723507D01*
X184323507Y-132811104D01*
X184323505Y-132811107D01*
X184261564Y-132918393D01*
X184261564Y-132918394D01*
X184229500Y-133038057D01*
X182847198Y-133038057D01*
X182773004Y-132963863D01*
X182773003Y-132963862D01*
X182665715Y-132901920D01*
X182665716Y-132901920D01*
X182635799Y-132893904D01*
X182546052Y-132869856D01*
X182422166Y-132869856D01*
X182332418Y-132893904D01*
X182302502Y-132901920D01*
X182195216Y-132963861D01*
X182195213Y-132963863D01*
X182107616Y-133051460D01*
X182107614Y-133051463D01*
X182045673Y-133158749D01*
X182035021Y-133198505D01*
X182013609Y-133278413D01*
X179039293Y-133278413D01*
X178980944Y-133220064D01*
X178980943Y-133220063D01*
X178873655Y-133158121D01*
X178873656Y-133158121D01*
X178843739Y-133150105D01*
X178753992Y-133126057D01*
X178630106Y-133126057D01*
X178540358Y-133150105D01*
X178510442Y-133158121D01*
X178403156Y-133220062D01*
X178403153Y-133220064D01*
X178315556Y-133307661D01*
X178315554Y-133307664D01*
X178253613Y-133414950D01*
X178253613Y-133414951D01*
X178221549Y-133534614D01*
X168388226Y-133534614D01*
X168488894Y-133476494D01*
X168576494Y-133388894D01*
X168638436Y-133281606D01*
X168670500Y-133161943D01*
X168670500Y-133038057D01*
X168638436Y-132918394D01*
X168576494Y-132811106D01*
X168488894Y-132723506D01*
X168381606Y-132661564D01*
X168381607Y-132661564D01*
X168351690Y-132653548D01*
X168261943Y-132629500D01*
X168138057Y-132629500D01*
X168048309Y-132653548D01*
X168018393Y-132661564D01*
X167911107Y-132723505D01*
X167911104Y-132723507D01*
X167823507Y-132811104D01*
X167823505Y-132811107D01*
X167761564Y-132918393D01*
X167761564Y-132918394D01*
X167729500Y-133038057D01*
X139262821Y-133038057D01*
X139487008Y-132837712D01*
X139497862Y-132829056D01*
X139751699Y-132648949D01*
X139763467Y-132641556D01*
X139916730Y-132556850D01*
X140035867Y-132491004D01*
X140048380Y-132484978D01*
X140335920Y-132365877D01*
X140349040Y-132361285D01*
X140648116Y-132275122D01*
X140661663Y-132272030D01*
X140968503Y-132219896D01*
X140982300Y-132218342D01*
X141296528Y-132200695D01*
X141303481Y-132200500D01*
X141326929Y-132200500D01*
X176109131Y-132200500D01*
X176176170Y-132220185D01*
G37*
G04 #@! TD.AperFunction*
M02*
