G04 #@! TF.GenerationSoftware,KiCad,Pcbnew,10.0.1*
G04 #@! TF.CreationDate,2026-06-05T15:47:18+03:00*
G04 #@! TF.ProjectId,frank_zero,6672616e-6b5f-47a6-9572-6f2e6b696361,1.00*
G04 #@! TF.SameCoordinates,Original*
G04 #@! TF.FileFunction,Paste,Bot*
G04 #@! TF.FilePolarity,Positive*
%FSLAX46Y46*%
G04 Gerber Fmt 4.6, Leading zero omitted, Abs format (unit mm)*
G04 Created by KiCad (PCBNEW 10.0.1) date 2026-06-05 15:47:18*
%MOMM*%
%LPD*%
G01*
G04 APERTURE LIST*
G04 Aperture macros list*
%AMRoundRect*
0 Rectangle with rounded corners*
0 $1 Rounding radius*
0 $2 $3 $4 $5 $6 $7 $8 $9 X,Y pos of 4 corners*
0 Add a 4 corners polygon primitive as box body*
4,1,4,$2,$3,$4,$5,$6,$7,$8,$9,$2,$3,0*
0 Add four circle primitives for the rounded corners*
1,1,$1+$1,$2,$3*
1,1,$1+$1,$4,$5*
1,1,$1+$1,$6,$7*
1,1,$1+$1,$8,$9*
0 Add four rect primitives between the rounded corners*
20,1,$1+$1,$2,$3,$4,$5,0*
20,1,$1+$1,$4,$5,$6,$7,0*
20,1,$1+$1,$6,$7,$8,$9,0*
20,1,$1+$1,$8,$9,$2,$3,0*%
G04 Aperture macros list end*
%ADD10RoundRect,0.200000X-0.275000X0.200000X-0.275000X-0.200000X0.275000X-0.200000X0.275000X0.200000X0*%
%ADD11RoundRect,0.200000X0.200000X0.275000X-0.200000X0.275000X-0.200000X-0.275000X0.200000X-0.275000X0*%
%ADD12RoundRect,0.225000X-0.250000X0.225000X-0.250000X-0.225000X0.250000X-0.225000X0.250000X0.225000X0*%
%ADD13RoundRect,0.200000X-0.200000X-0.275000X0.200000X-0.275000X0.200000X0.275000X-0.200000X0.275000X0*%
%ADD14RoundRect,0.200000X0.275000X-0.200000X0.275000X0.200000X-0.275000X0.200000X-0.275000X-0.200000X0*%
%ADD15RoundRect,0.225000X0.225000X0.250000X-0.225000X0.250000X-0.225000X-0.250000X0.225000X-0.250000X0*%
%ADD16RoundRect,0.225000X-0.225000X-0.250000X0.225000X-0.250000X0.225000X0.250000X-0.225000X0.250000X0*%
%ADD17RoundRect,0.250000X-0.250000X-0.250000X0.250000X-0.250000X0.250000X0.250000X-0.250000X0.250000X0*%
%ADD18RoundRect,0.218750X0.256250X-0.218750X0.256250X0.218750X-0.256250X0.218750X-0.256250X-0.218750X0*%
%ADD19RoundRect,0.150000X0.725000X0.150000X-0.725000X0.150000X-0.725000X-0.150000X0.725000X-0.150000X0*%
%ADD20RoundRect,0.225000X0.250000X-0.225000X0.250000X0.225000X-0.250000X0.225000X-0.250000X-0.225000X0*%
%ADD21RoundRect,0.150000X-0.725000X-0.150000X0.725000X-0.150000X0.725000X0.150000X-0.725000X0.150000X0*%
%ADD22RoundRect,0.250000X0.300000X-0.400000X0.300000X0.400000X-0.300000X0.400000X-0.300000X-0.400000X0*%
%ADD23R,1.700000X0.700000*%
G04 APERTURE END LIST*
D10*
X161400000Y-149925000D03*
X161400000Y-148275000D03*
X162900000Y-149175000D03*
X162900000Y-150825000D03*
D11*
X157325000Y-152700000D03*
X155675000Y-152700000D03*
D12*
X169528100Y-146987500D03*
X169528100Y-148537500D03*
D11*
X174425000Y-140900000D03*
X172775000Y-140900000D03*
D10*
X172925000Y-136562500D03*
X172925000Y-138212500D03*
D13*
X195050000Y-142800000D03*
X196700000Y-142800000D03*
D12*
X164300000Y-142712500D03*
X164300000Y-144262500D03*
D11*
X171287571Y-150362428D03*
X169637571Y-150362428D03*
D13*
X183600024Y-149608524D03*
X185250024Y-149608524D03*
X191175000Y-141900000D03*
X192825000Y-141900000D03*
D11*
X188050000Y-138075000D03*
X186400000Y-138075000D03*
D13*
X196450000Y-150700000D03*
X198100000Y-150700000D03*
D12*
X184359928Y-145643856D03*
X184359928Y-147193856D03*
D14*
X184245002Y-155125000D03*
X184245002Y-153475000D03*
D11*
X189250000Y-136400000D03*
X187600000Y-136400000D03*
D15*
X190050000Y-144900000D03*
X188500000Y-144900000D03*
D11*
X184125000Y-138000000D03*
X182475000Y-138000000D03*
D15*
X172550000Y-147237500D03*
X171000000Y-147237500D03*
D16*
X182000000Y-140975000D03*
X183550000Y-140975000D03*
X167525000Y-144500000D03*
X169075000Y-144500000D03*
D17*
X148025000Y-154000000D03*
X150525000Y-154000000D03*
D12*
X173316800Y-144037500D03*
X173316800Y-145587500D03*
D11*
X174425000Y-142400000D03*
X172775000Y-142400000D03*
D18*
X174892455Y-151895309D03*
X174892455Y-150320309D03*
D11*
X175700000Y-147237500D03*
X174050000Y-147237500D03*
D19*
X201400000Y-144790000D03*
X201400000Y-146060000D03*
X201400000Y-147330000D03*
X201400000Y-148600000D03*
X196250000Y-148600000D03*
X196250000Y-147330000D03*
X196250000Y-146060000D03*
X196250000Y-144790000D03*
D10*
X188100000Y-132975000D03*
X188100000Y-134625000D03*
D14*
X165025000Y-148562500D03*
X165025000Y-146912500D03*
D20*
X165300000Y-136675000D03*
X165300000Y-135125000D03*
D11*
X187900000Y-140375000D03*
X186250000Y-140375000D03*
D12*
X160350000Y-145097500D03*
X160350000Y-146647500D03*
D21*
X191050000Y-139045000D03*
X191050000Y-137775000D03*
X191050000Y-136505000D03*
X191050000Y-135235000D03*
X196200000Y-135235000D03*
X196200000Y-136505000D03*
X196200000Y-137775000D03*
X196200000Y-139045000D03*
D12*
X180225000Y-140912500D03*
X180225000Y-142462500D03*
D14*
X171375000Y-138212500D03*
X171375000Y-136562500D03*
D16*
X183725000Y-136400000D03*
X185275000Y-136400000D03*
D14*
X182200000Y-135525000D03*
X182200000Y-133875000D03*
D20*
X141475000Y-142150000D03*
X141475000Y-140600000D03*
X164475000Y-140262500D03*
X164475000Y-138712500D03*
D12*
X176392455Y-150345309D03*
X176392455Y-151895309D03*
D11*
X194500000Y-133275000D03*
X192850000Y-133275000D03*
X190050000Y-148500000D03*
X188400000Y-148500000D03*
D16*
X194225000Y-141100000D03*
X195775000Y-141100000D03*
X148000000Y-151900000D03*
X149550000Y-151900000D03*
D12*
X178725000Y-143862500D03*
X178725000Y-145412500D03*
D14*
X182574696Y-147256161D03*
X182574696Y-145606161D03*
D20*
X169675000Y-137087500D03*
X169675000Y-135537500D03*
D10*
X199500000Y-139950000D03*
X199500000Y-141600000D03*
D13*
X182475000Y-139500000D03*
X184125000Y-139500000D03*
D12*
X171816800Y-144037500D03*
X171816800Y-145587500D03*
D21*
X175050000Y-139342500D03*
X175050000Y-138072500D03*
X175050000Y-136802500D03*
X175050000Y-135532500D03*
X180200000Y-135532500D03*
X180200000Y-136802500D03*
X180200000Y-138072500D03*
X180200000Y-139342500D03*
D12*
X201200000Y-139775000D03*
X201200000Y-141325000D03*
D10*
X180770000Y-143957500D03*
X180770000Y-145607500D03*
D13*
X166633420Y-150327388D03*
X168283420Y-150327388D03*
D20*
X192689208Y-146119743D03*
X192689208Y-144569743D03*
X167725000Y-137087500D03*
X167725000Y-135537500D03*
D14*
X181545002Y-155050000D03*
X181545002Y-153400000D03*
D15*
X184036976Y-143056511D03*
X182486976Y-143056511D03*
D12*
X162901400Y-146123000D03*
X162901400Y-147673000D03*
D15*
X189950000Y-146600000D03*
X188400000Y-146600000D03*
D14*
X167120000Y-154770000D03*
X167120000Y-153120000D03*
D20*
X169400000Y-141248300D03*
X169400000Y-139698300D03*
D22*
X158575000Y-143272500D03*
X158575000Y-141172500D03*
X160225000Y-141172500D03*
X160225000Y-143272500D03*
D13*
X176550000Y-133387500D03*
X178200000Y-133387500D03*
D15*
X152475000Y-135300000D03*
X150925000Y-135300000D03*
X150175000Y-143000000D03*
X148625000Y-143000000D03*
D12*
X166570000Y-146987500D03*
X166570000Y-148537500D03*
D23*
X175125000Y-144200000D03*
X175125000Y-145600000D03*
D14*
X170120000Y-154770000D03*
X170120000Y-153120000D03*
M02*
