G04 #@! TF.GenerationSoftware,KiCad,Pcbnew,10.0.1*
G04 #@! TF.CreationDate,2026-06-05T15:47:18+03:00*
G04 #@! TF.ProjectId,frank_zero,6672616e-6b5f-47a6-9572-6f2e6b696361,1.00*
G04 #@! TF.SameCoordinates,Original*
G04 #@! TF.FileFunction,Paste,Top*
G04 #@! TF.FilePolarity,Positive*
%FSLAX46Y46*%
G04 Gerber Fmt 4.6, Leading zero omitted, Abs format (unit mm)*
G04 Created by KiCad (PCBNEW 10.0.1) date 2026-06-05 15:47:18*
%MOMM*%
%LPD*%
G01*
G04 APERTURE LIST*
G04 Aperture macros list*
%AMRoundRect*
0 Rectangle with rounded corners*
0 $1 Rounding radius*
0 $2 $3 $4 $5 $6 $7 $8 $9 X,Y pos of 4 corners*
0 Add a 4 corners polygon primitive as box body*
4,1,4,$2,$3,$4,$5,$6,$7,$8,$9,$2,$3,0*
0 Add four circle primitives for the rounded corners*
1,1,$1+$1,$2,$3*
1,1,$1+$1,$4,$5*
1,1,$1+$1,$6,$7*
1,1,$1+$1,$8,$9*
0 Add four rect primitives between the rounded corners*
20,1,$1+$1,$2,$3,$4,$5,0*
20,1,$1+$1,$4,$5,$6,$7,0*
20,1,$1+$1,$6,$7,$8,$9,0*
20,1,$1+$1,$8,$9,$2,$3,0*%
%AMFreePoly0*
4,1,18,-0.437500,0.050000,-0.433694,0.069134,-0.422855,0.085355,-0.406634,0.096194,-0.387500,0.100000,0.387500,0.100000,0.437500,0.050000,0.437500,-0.050000,0.433694,-0.069134,0.422855,-0.085355,0.406634,-0.096194,0.387500,-0.100000,-0.387500,-0.100000,-0.406634,-0.096194,-0.422855,-0.085355,-0.433694,-0.069134,-0.437500,-0.050000,-0.437500,0.050000,-0.437500,0.050000,$1*%
%AMFreePoly1*
4,1,18,-0.437500,0.050000,-0.433694,0.069134,-0.422855,0.085355,-0.406634,0.096194,-0.387500,0.100000,0.387500,0.100000,0.406634,0.096194,0.422855,0.085355,0.433694,0.069134,0.437500,0.050000,0.437500,-0.050000,0.387500,-0.100000,-0.387500,-0.100000,-0.406634,-0.096194,-0.422855,-0.085355,-0.433694,-0.069134,-0.437500,-0.050000,-0.437500,0.050000,-0.437500,0.050000,$1*%
%AMFreePoly2*
4,1,18,-0.100000,0.387500,-0.050000,0.437500,0.050000,0.437500,0.069134,0.433694,0.085355,0.422855,0.096194,0.406634,0.100000,0.387500,0.100000,-0.387500,0.096194,-0.406634,0.085355,-0.422855,0.069134,-0.433694,0.050000,-0.437500,-0.050000,-0.437500,-0.069134,-0.433694,-0.085355,-0.422855,-0.096194,-0.406634,-0.100000,-0.387500,-0.100000,0.387500,-0.100000,0.387500,$1*%
%AMFreePoly3*
4,1,18,-0.100000,0.387500,-0.096194,0.406634,-0.085355,0.422855,-0.069134,0.433694,-0.050000,0.437500,0.050000,0.437500,0.100000,0.387500,0.100000,-0.387500,0.096194,-0.406634,0.085355,-0.422855,0.069134,-0.433694,0.050000,-0.437500,-0.050000,-0.437500,-0.069134,-0.433694,-0.085355,-0.422855,-0.096194,-0.406634,-0.100000,-0.387500,-0.100000,0.387500,-0.100000,0.387500,$1*%
%AMFreePoly4*
4,1,18,-0.437500,0.050000,-0.433694,0.069134,-0.422855,0.085355,-0.406634,0.096194,-0.387500,0.100000,0.387500,0.100000,0.406634,0.096194,0.422855,0.085355,0.433694,0.069134,0.437500,0.050000,0.437500,-0.050000,0.433694,-0.069134,0.422855,-0.085355,0.406634,-0.096194,0.387500,-0.100000,-0.387500,-0.100000,-0.437500,-0.050000,-0.437500,0.050000,-0.437500,0.050000,$1*%
%AMFreePoly5*
4,1,18,-0.437500,0.050000,-0.387500,0.100000,0.387500,0.100000,0.406634,0.096194,0.422855,0.085355,0.433694,0.069134,0.437500,0.050000,0.437500,-0.050000,0.433694,-0.069134,0.422855,-0.085355,0.406634,-0.096194,0.387500,-0.100000,-0.387500,-0.100000,-0.406634,-0.096194,-0.422855,-0.085355,-0.433694,-0.069134,-0.437500,-0.050000,-0.437500,0.050000,-0.437500,0.050000,$1*%
%AMFreePoly6*
4,1,18,-0.100000,0.387500,-0.096194,0.406634,-0.085355,0.422855,-0.069134,0.433694,-0.050000,0.437500,0.050000,0.437500,0.069134,0.433694,0.085355,0.422855,0.096194,0.406634,0.100000,0.387500,0.100000,-0.387500,0.050000,-0.437500,-0.050000,-0.437500,-0.069134,-0.433694,-0.085355,-0.422855,-0.096194,-0.406634,-0.100000,-0.387500,-0.100000,0.387500,-0.100000,0.387500,$1*%
%AMFreePoly7*
4,1,18,-0.100000,0.387500,-0.096194,0.406634,-0.085355,0.422855,-0.069134,0.433694,-0.050000,0.437500,0.050000,0.437500,0.069134,0.433694,0.085355,0.422855,0.096194,0.406634,0.100000,0.387500,0.100000,-0.387500,0.096194,-0.406634,0.085355,-0.422855,0.069134,-0.433694,0.050000,-0.437500,-0.050000,-0.437500,-0.100000,-0.387500,-0.100000,0.387500,-0.100000,0.387500,$1*%
%AMFreePoly8*
4,1,9,3.862500,-0.866500,0.737500,-0.866500,0.737500,-0.450000,-0.737500,-0.450000,-0.737500,0.450000,0.737500,0.450000,0.737500,0.866500,3.862500,0.866500,3.862500,-0.866500,3.862500,-0.866500,$1*%
G04 Aperture macros list end*
%ADD10RoundRect,0.150000X-0.625000X0.150000X-0.625000X-0.150000X0.625000X-0.150000X0.625000X0.150000X0*%
%ADD11RoundRect,0.250000X-0.650000X0.350000X-0.650000X-0.350000X0.650000X-0.350000X0.650000X0.350000X0*%
%ADD12RoundRect,0.250001X0.499999X0.924999X-0.499999X0.924999X-0.499999X-0.924999X0.499999X-0.924999X0*%
%ADD13RoundRect,0.250000X-0.350000X0.350000X-0.350000X-0.350000X0.350000X-0.350000X0.350000X0.350000X0*%
%ADD14FreePoly0,270.000000*%
%ADD15RoundRect,0.050000X-0.050000X0.387500X-0.050000X-0.387500X0.050000X-0.387500X0.050000X0.387500X0*%
%ADD16FreePoly1,270.000000*%
%ADD17FreePoly2,270.000000*%
%ADD18RoundRect,0.050000X-0.387500X0.050000X-0.387500X-0.050000X0.387500X-0.050000X0.387500X0.050000X0*%
%ADD19FreePoly3,270.000000*%
%ADD20FreePoly4,270.000000*%
%ADD21FreePoly5,270.000000*%
%ADD22FreePoly6,270.000000*%
%ADD23FreePoly7,270.000000*%
%ADD24RoundRect,0.150000X0.150000X-0.512500X0.150000X0.512500X-0.150000X0.512500X-0.150000X-0.512500X0*%
%ADD25R,0.800000X0.500000*%
%ADD26R,0.800000X0.400000*%
%ADD27RoundRect,0.250001X-0.499999X-0.924999X0.499999X-0.924999X0.499999X0.924999X-0.499999X0.924999X0*%
%ADD28R,0.900000X1.000000*%
%ADD29R,0.600000X1.450000*%
%ADD30R,0.300000X1.450000*%
%ADD31RoundRect,0.150000X-0.150000X-0.625000X0.150000X-0.625000X0.150000X0.625000X-0.150000X0.625000X0*%
%ADD32RoundRect,0.250000X-0.350000X-0.650000X0.350000X-0.650000X0.350000X0.650000X-0.350000X0.650000X0*%
%ADD33R,1.400000X0.900000*%
%ADD34R,0.700000X1.000000*%
%ADD35R,1.000000X0.700000*%
%ADD36R,1.150000X1.200000*%
%ADD37R,1.450000X1.200000*%
%ADD38RoundRect,0.225000X-0.425000X-0.225000X0.425000X-0.225000X0.425000X0.225000X-0.425000X0.225000X0*%
%ADD39FreePoly8,0.000000*%
%ADD40RoundRect,0.250001X-0.924999X0.499999X-0.924999X-0.499999X0.924999X-0.499999X0.924999X0.499999X0*%
%ADD41R,2.500000X1.200000*%
%ADD42RoundRect,0.150000X-0.150000X0.800000X-0.150000X-0.800000X0.150000X-0.800000X0.150000X0.800000X0*%
%ADD43RoundRect,0.218750X-0.256250X0.218750X-0.256250X-0.218750X0.256250X-0.218750X0.256250X0.218750X0*%
%ADD44R,0.300000X2.600000*%
%ADD45RoundRect,0.218750X-0.218750X-0.256250X0.218750X-0.256250X0.218750X0.256250X-0.218750X0.256250X0*%
G04 APERTURE END LIST*
D10*
X139775000Y-148500000D03*
D11*
X142300000Y-145200000D03*
D10*
X139775000Y-147500000D03*
D11*
X142300000Y-149800000D03*
D10*
X139775000Y-146500000D03*
D12*
X194307314Y-139807219D03*
X191057314Y-139807219D03*
D13*
X167600000Y-141337500D03*
X166200000Y-141337500D03*
X167600000Y-142737500D03*
X166200000Y-142737500D03*
D14*
X169700000Y-138600000D03*
D15*
X169300000Y-138600000D03*
X168900000Y-138600000D03*
X168500000Y-138600000D03*
X168100000Y-138600000D03*
X167700000Y-138600000D03*
X167300000Y-138600000D03*
X166900000Y-138600000D03*
X166500000Y-138600000D03*
X166100000Y-138600000D03*
X165700000Y-138600000D03*
X165300000Y-138600000D03*
X164900000Y-138600000D03*
X164500000Y-138600000D03*
D16*
X164100000Y-138600000D03*
D17*
X163462500Y-139237500D03*
D18*
X163462500Y-139637500D03*
X163462500Y-140037500D03*
X163462500Y-140437500D03*
X163462500Y-140837500D03*
X163462500Y-141237500D03*
X163462500Y-141637500D03*
X163462500Y-142037500D03*
X163462500Y-142437500D03*
X163462500Y-142837500D03*
X163462500Y-143237500D03*
X163462500Y-143637500D03*
X163462500Y-144037500D03*
X163462500Y-144437500D03*
D19*
X163462500Y-144837500D03*
D20*
X164100000Y-145475000D03*
D15*
X164500000Y-145475000D03*
X164900000Y-145475000D03*
X165300000Y-145475000D03*
X165700000Y-145475000D03*
X166100000Y-145475000D03*
X166500000Y-145475000D03*
X166900000Y-145475000D03*
X167300000Y-145475000D03*
X167700000Y-145475000D03*
X168100000Y-145475000D03*
X168500000Y-145475000D03*
X168900000Y-145475000D03*
X169300000Y-145475000D03*
D21*
X169700000Y-145475000D03*
D22*
X170337500Y-144837500D03*
D18*
X170337500Y-144437500D03*
X170337500Y-144037500D03*
X170337500Y-143637500D03*
X170337500Y-143237500D03*
X170337500Y-142837500D03*
X170337500Y-142437500D03*
X170337500Y-142037500D03*
X170337500Y-141637500D03*
X170337500Y-141237500D03*
X170337500Y-140837500D03*
X170337500Y-140437500D03*
X170337500Y-140037500D03*
X170337500Y-139637500D03*
D23*
X170337500Y-139237500D03*
D24*
X174300000Y-147575000D03*
X175250000Y-147575000D03*
X176200000Y-147575000D03*
X176200000Y-145300000D03*
X175250000Y-145300000D03*
X174300000Y-145300000D03*
D25*
X160500000Y-141400000D03*
D26*
X160500000Y-140600000D03*
X160500000Y-139800000D03*
D25*
X160500000Y-139000000D03*
X158700000Y-139000000D03*
D26*
X158700000Y-139800000D03*
X158700000Y-140600000D03*
D25*
X158700000Y-141400000D03*
D27*
X150900522Y-141435927D03*
X154150522Y-141435927D03*
D25*
X160500000Y-145190970D03*
D26*
X160500000Y-144390970D03*
X160500000Y-143590970D03*
D25*
X160500000Y-142790970D03*
X158700000Y-142790970D03*
D26*
X158700000Y-143590970D03*
X158700000Y-144390970D03*
D25*
X158700000Y-145190970D03*
D28*
X158100000Y-136000000D03*
X158100000Y-133800000D03*
X162900000Y-136000000D03*
X162900000Y-133800000D03*
D29*
X165625000Y-150900000D03*
X166400000Y-150900000D03*
D30*
X167100000Y-150900000D03*
X167600000Y-150900000D03*
X168100000Y-150900000D03*
X168600000Y-150900000D03*
X169100000Y-150900000D03*
X169600000Y-150900000D03*
X170100000Y-150900000D03*
X170600000Y-150900000D03*
D29*
X171300000Y-150900000D03*
X172075000Y-150900000D03*
D31*
X170100000Y-136125000D03*
D32*
X166800000Y-133600000D03*
D31*
X169100000Y-136125000D03*
D32*
X171400000Y-133600000D03*
D31*
X168100000Y-136125000D03*
D33*
X145775000Y-132750000D03*
D34*
X147425000Y-136540000D03*
X148525000Y-136540000D03*
X149625000Y-136540000D03*
X150725000Y-136540000D03*
X151825000Y-136540000D03*
X152925000Y-136540000D03*
X154025000Y-136540000D03*
X155125000Y-136540000D03*
D35*
X145575000Y-133900000D03*
D36*
X156200000Y-135490000D03*
X156200000Y-132900000D03*
D37*
X145800000Y-135050000D03*
D38*
X144750000Y-141129791D03*
D39*
X144837500Y-142629791D03*
D38*
X144750000Y-144129791D03*
D40*
X140875000Y-139100000D03*
X140875000Y-142350000D03*
D41*
X190650000Y-150800000D03*
X190650000Y-153800000D03*
X197150000Y-145700000D03*
X190650000Y-146800000D03*
D42*
X178330000Y-134537500D03*
X177060000Y-134537500D03*
X175790000Y-134537500D03*
X174520000Y-134537500D03*
X174520000Y-141537500D03*
X175790000Y-141537500D03*
X177060000Y-141537500D03*
X178330000Y-141537500D03*
D29*
X179620002Y-150905000D03*
X180395002Y-150905000D03*
D30*
X181095002Y-150905000D03*
X181595002Y-150905000D03*
X182095002Y-150905000D03*
X182595002Y-150905000D03*
X183095002Y-150905000D03*
X183595002Y-150905000D03*
X184095002Y-150905000D03*
X184595002Y-150905000D03*
D29*
X185295002Y-150905000D03*
X186070002Y-150905000D03*
D43*
X181500000Y-134912500D03*
X181500000Y-136487500D03*
D44*
X156575000Y-149040000D03*
X156075000Y-149040000D03*
X155575000Y-149040000D03*
X155075000Y-149040000D03*
X154575000Y-149040000D03*
X154075000Y-149040000D03*
X153575000Y-149040000D03*
X153075000Y-149040000D03*
X152575000Y-149040000D03*
X152075000Y-149040000D03*
X151575000Y-149040000D03*
X151075000Y-149040000D03*
X150575000Y-149040000D03*
X150075000Y-149040000D03*
X149575000Y-149040000D03*
X149075000Y-149040000D03*
X148575000Y-149040000D03*
X148075000Y-149040000D03*
X147575000Y-149040000D03*
D28*
X188556815Y-134995161D03*
X188556815Y-137195161D03*
X183756815Y-134995161D03*
X183756815Y-137195161D03*
D45*
X162225000Y-148200000D03*
X163800000Y-148200000D03*
M02*
