M48
; DRILL file KiCad 10.0.1 date 2026-06-05T15:47:20
; FORMAT={-:-/ absolute / metric / decimal}
; #@! TF.CreationDate,2026-06-05T15:47:20+03:00
; #@! TF.GenerationSoftware,Kicad,Pcbnew,10.0.1
; #@! TF.FileFunction,Plated,1,4,PTH
FMAT,2
METRIC
; #@! TA.AperFunction,Plated,PTH,ViaDrill
T1C0.300
; #@! TA.AperFunction,Plated,PTH,ComponentDrill
T2C0.350
; #@! TA.AperFunction,Plated,PTH,ComponentDrill
T3C0.600
; #@! TA.AperFunction,Plated,PTH,ComponentDrill
T4C0.900
%
G90
G05
T1
X140.69Y-148.307
X140.697Y-146.497
X141.483Y-140.0
X143.949Y-143.984
X148.109Y-151.269
X148.525Y-135.9
X148.841Y-142.372
X150.6Y-135.9
X150.881Y-153.355
X155.057Y-140.769
X155.057Y-141.933
X155.116Y-152.71
X156.4Y-137.0
X158.709Y-133.739
X160.92Y-147.801
X161.338Y-138.037
X161.392Y-141.792
X161.9Y-141.172
X162.05Y-137.35
X162.128Y-142.995
X162.2Y-145.1
X162.3Y-133.575
X162.382Y-152.363
X162.433Y-141.808
X163.024Y-149.729
X163.1Y-137.1
X163.412Y-138.665
X163.85Y-136.025
X164.399Y-148.431
X164.448Y-140.792
X164.507Y-142.105
X165.112Y-136.072
X165.428Y-146.39
X166.404Y-151.329
X166.641Y-149.705
X166.929Y-144.507
X167.183Y-146.7
X167.3Y-152.6
X167.6Y-139.6
X167.7Y-148.6
X168.097Y-137.665
X168.1Y-154.9
X168.2Y-133.1
X168.368Y-149.7
X168.487Y-148.592
X168.933Y-152.2
X169.08Y-135.153
X169.1Y-154.9
X169.3Y-143.0
X169.436Y-141.844
X169.589Y-146.377
X170.1Y-152.6
X170.285Y-137.424
X170.925Y-146.091
X171.291Y-151.348
X171.375Y-137.652
X171.401Y-135.996
X171.891Y-141.791
X172.026Y-144.65
X172.229Y-142.761
X172.5Y-147.9
X172.829Y-144.544
X173.3Y-148.1
X173.6Y-141.7
X173.6Y-143.1
X173.817Y-139.854
X174.021Y-138.1
X174.267Y-150.537
X174.301Y-148.383
X174.602Y-142.957
X174.85Y-152.481
X175.149Y-140.281
X175.725Y-146.534
X175.9Y-139.5
X176.084Y-137.986
X176.094Y-136.819
X176.1Y-142.5
X176.536Y-132.738
X176.632Y-139.125
X176.95Y-149.876
X177.068Y-142.635
X177.35Y-137.5
X177.474Y-144.942
X178.327Y-143.279
X178.5Y-139.7
X178.692Y-133.597
X180.0Y-153.6
X180.227Y-145.202
X180.405Y-151.329
X180.734Y-141.412
X181.321Y-152.854
X181.85Y-142.982
X181.924Y-137.64
X182.056Y-145.137
X182.12Y-136.493
X182.484Y-133.34
X182.792Y-137.055
X183.1Y-152.3
X183.6Y-133.7
X184.243Y-152.925
X184.314Y-136.074
X184.7Y-133.1
X184.721Y-139.478
X184.901Y-145.167
X185.2Y-134.0
X185.3Y-151.329
X185.4Y-135.0
X186.4Y-145.3
X187.486Y-134.692
X187.832Y-148.581
X187.859Y-139.253
X188.922Y-139.244
X188.992Y-136.018
X190.597Y-142.069
X191.777Y-152.088
X192.9Y-135.0
X194.7Y-136.484
X195.156Y-139.038
X195.178Y-137.8
X195.243Y-140.645
X196.0Y-133.8
X197.8Y-140.8
X201.4Y-142.6
X201.987Y-144.342
X202.096Y-146.063
T2
X165.525Y-140.662
X165.525Y-142.037
X165.525Y-143.412
X166.9Y-140.662
X166.9Y-142.037
X166.9Y-143.412
X168.275Y-140.662
X168.275Y-142.037
X168.275Y-143.412
T3
G00X164.53Y-151.265
M15
G01X164.53Y-152.365
M16
G05
G00X164.53Y-155.695
M15
G01X164.53Y-156.295
M16
G05
G00X173.17Y-151.265
M15
G01X173.17Y-152.365
M16
G05
G00X173.17Y-155.695
M15
G01X173.17Y-156.295
M16
G05
G00X178.525Y-151.27
M15
G01X178.525Y-152.37
M16
G05
G00X178.525Y-155.7
M15
G01X178.525Y-156.3
M16
G05
G00X187.165Y-151.27
M15
G01X187.165Y-152.37
M16
G05
G00X187.165Y-155.7
M15
G01X187.165Y-156.3
M16
G05
T4
G00X144.825Y-148.9
M15
G01X144.825Y-150.7
M16
G05
G00X144.825Y-155.36
M15
G01X144.825Y-156.16
M16
G05
G00X159.325Y-148.9
M15
G01X159.325Y-150.7
M16
G05
G00X159.325Y-155.36
M15
G01X159.325Y-156.16
M16
G05
M30
