#VRML V2.0 utf8
# 3D model generated by easyeda2kicad.py (https://github.com/uPesy/easyeda2kicad.py)

Shape{
    appearance Appearance {
        material  Material 	{
            diffuseColor 0.3 0.3 0.3
            specularColor 0.15 0.15 0.15
            ambientIntensity 0.1244
            transparency 0.0
            shininess 0.5
        }
    }
    geometry IndexedFaceSet {
        ccw TRUE
        solid FALSE
        coord DEF co Coordinate {
            point [
                0.3906 -0.3555 0.0394, 0.3906 -0.4539 0.0394, 0.3906 -0.5622 0.0197, 0.3906 0.5402 0.0197, 0.3906 0.4319 0.0394, 0.3906 0.3335 0.0394, 0.3906 -0.3555 0.0669, 0.3906 0.5402 0.1772, 0.3906 -0.5622 0.1772, 0.3906 -0.4539 0.0669, 0.3906 0.4319 0.0669, 0.3906 0.3335 0.0669, 0.3906 -0.0602 0.0394, 0.3906 0.0382 0.0394, 0.3906 0.0382 0.0669, 0.3906 -0.0602 0.0669, -0.3968 -0.5622 0.0197, -0.3968 -0.5622 0.1772, -0.3968 -0.4539 0.0669, -0.3968 0.0382 0.0669, -0.3968 -0.0602 0.0669, -0.3968 -0.0602 0.0394, -0.3968 -0.3555 0.0669, -0.3968 -0.3555 0.0394, -0.3968 -0.4539 0.0394, -0.3968 0.5402 0.0197, -0.3968 0.0382 0.0394, -0.3968 0.5402 0.1772, -0.3968 0.3335 0.0669, -0.3968 0.3335 0.0394, -0.3968 0.4319 0.0394, -0.3968 0.4319 0.0669, 0.0251 -0.1625 0.2165, 0.1676 -0.1625 0.2165, 0.1676 0.0834 0.2165, 0.3019 -0.5622 0.2165, 0.3512 -0.5622 0.2165, 0.3512 -0.5228 0.2165, 0.0131 0.2348 0.2165, 0.0131 0.084 0.2165, 0.0251 0.084 0.2165, 0.0044 0.2705 0.2165, 0.0072 0.2669 0.2165, 0.0251 0.2669 0.2165, -0.052 0.1315 0.2165, -0.052 0.2669 0.2165, -0.0627 0.2669 0.2165, -0.052 0.2685 0.2165, -0.0477 0.2685 0.2165, 0.0251 0.5402 0.2165, -0.0627 0.5402 0.2165, 0.0055 0.1161 0.2165, 0.0055 0.2345 0.2165, -0.0472 0.2669 0.2165, 0.005 0.2493 0.2165, 0.0029 0.264 0.2165, 0.0021 0.2669 0.2165, 0.0018 0.2679 0.2165, -0.0627 0.084 0.2165, -0.0558 0.1021 0.2165, -0.0557 0.1034 0.2165, -0.0503 0.0856 0.2165, -0.0548 0.0983 0.2165, -0.0556 0.1006 0.2165, -0.0535 0.1127 0.2165, -0.052 0.129 0.2165, -0.0544 0.1083 0.2165, -0.0484 0.0813 0.2165, -0.0494 0.0834 0.2165, -0.0627 0.0834 0.2165, -0.0497 0.084 0.2165, -0.0498 0.0842 0.2165, 0.0251 0.0834 0.2165, 0.0131 0.0834 0.2165, 0.0131 0.0816 0.2165, -0.0462 0.0799 0.2165, -0.0463 0.0798 0.2165, -0.0627 -0.1625 0.2165, -0.0464 0.0798 0.2165, -0.0465 0.0797 0.2165, -0.0466 0.0797 0.2165, -0.0454 0.0834 0.2165, -0.0455 0.0827 0.2165, 0.0089 0.0816 0.2165, -0.0459 0.0804 0.2165, -0.0461 0.08 0.2165, -0.0468 0.0798 0.2165, -0.0472 0.08 0.2165, -0.0478 0.0804 0.2165, 0.0083 0.0834 0.2165, 0.0081 0.084 0.2165, -0.0454 0.084 0.2165, -0.0443 0.2334 0.2165, -0.0443 0.1046 0.2165, -0.0448 0.0917 0.2165, 0.0165 0.2554 0.2165, 0.0138 0.2453 0.2165, -0.2488 -0.5228 0.2165, -0.2488 -0.4822 0.2165, -0.2495 -0.4821 0.2165, -0.3575 -0.5228 0.2165, -0.2734 -0.4244 0.2165, -0.2672 -0.4162 0.2165, -0.3575 -0.1625 0.2165, -0.259 -0.41 0.2165, -0.2495 -0.406 0.2165, -0.259 -0.4782 0.2165, -0.2672 -0.4719 0.2165, -0.2734 -0.4638 0.2165, -0.2774 -0.4543 0.2165, -0.2787 -0.4441 0.2165, -0.2774 -0.4339 0.2165, -0.2053 -0.4638 0.2165, -0.2115 -0.4719 0.2165, -0.1853 -0.5228 0.2165, -0.2488 -0.1625 0.2165, -0.2488 -0.4059 0.2165, -0.2394 -0.4047 0.2165, -0.2197 -0.4782 0.2165, -0.2292 -0.4821 0.2165, -0.2394 -0.4834 0.2165, -0.2292 -0.406 0.2165, -0.2197 -0.41 0.2165, -0.1853 -0.1625 0.2165, -0.2115 -0.4162 0.2165, -0.2053 -0.4244 0.2165, -0.2013 -0.4339 0.2165, -0.2 -0.4441 0.2165, -0.2013 -0.4543 0.2165, -0.2713 0.1098 0.2165, -0.2681 0.1215 0.2165, -0.3207 0.1317 0.2165, -0.2679 0.1229 0.2165, -0.3214 0.1538 0.2165, -0.295 0.0949 0.2165, -0.3185 0.1156 0.2165, -0.2917 0.0946 0.2165, -0.2859 0.0952 0.2165, -0.2821 0.0966 0.2165, -0.2791 0.0987 0.2165, -0.2748 0.1035 0.2165, -0.3162 0.1091 0.2165, -0.3136 0.1051 0.2165, -0.3084 0.1003 0.2165, -0.3019 0.0968 0.2165, -0.3575 0.5402 0.2165, -0.3575 0.2669 0.2165, -0.333 0.2682 0.2165, -0.2668 0.1432 0.2165, -0.2668 0.1614 0.2165, -0.3214 0.2311 0.2165, -0.2668 0.2342 0.2165, -0.3209 0.2429 0.2165, -0.2672 0.2488 0.2165, -0.3183 0.2543 0.2165, -0.2693 0.2631 0.2165, -0.3277 0.2669 0.2165, -0.2703 0.2669 0.2165, -0.3308 0.271 0.2165, -0.2705 0.2677 0.2165, -0.2679 0.2705 0.2165, -0.3122 0.0906 0.2165, -0.3176 0.0954 0.2165, -0.3575 0.084 0.2165, -0.3222 0.1022 0.2165, -0.3258 0.1121 0.2165, -0.3287 0.1326 0.2165, -0.3293 0.1544 0.2165, -0.3293 0.2348 0.2165, -0.33 0.2493 0.2165, -0.3319 0.2637 0.2165, -0.3327 0.2669 0.2165, -0.2929 0.0836 0.2165, -0.2957 0.0839 0.2165, -0.3575 0.0834 0.2165, -0.296 0.084 0.2165, -0.3046 0.0862 0.2165, -0.2653 0.2669 0.2165, -0.2488 0.2669 0.2165, -0.2554 0.2535 0.2165, -0.2594 0.1521 0.2165, -0.2595 0.1322 0.2165, -0.2488 0.084 0.2165, -0.2613 0.1149 0.2165, -0.2657 0.1018 0.2165, -0.2709 0.094 0.2165, -0.276 0.089 0.2165, -0.2808 0.0861 0.2165, -0.2488 0.0834 0.2165, -0.2896 0.084 0.2165, -0.2863 0.0843 0.2165, -0.2581 0.2433 0.2165, -0.2588 0.2328 0.2165, -0.2594 0.2195 0.2165, -0.1613 0.084 0.2165, -0.1197 0.0846 0.2165, -0.1266 0.0884 0.2165, -0.1273 0.257 0.2165, -0.1224 0.2619 0.2165, -0.1613 0.2669 0.2165, -0.1169 0.265 0.2165, -0.111 0.2668 0.2165, -0.1489 0.2038 0.2165, -0.1441 0.226 0.2165, -0.1362 0.2445 0.2165, -0.1317 0.0931 0.2165, -0.138 0.1027 0.2165, -0.1457 0.1222 0.2165, -0.1474 0.1289 0.2165, -0.1515 0.1541 0.2165, -0.1517 0.1782 0.2165, -0.117 0.084 0.2165, -0.1613 0.0834 0.2165, -0.1145 0.0834 0.2165, -0.1613 -0.1625 0.2165, -0.1141 0.0833 0.2165, -0.1122 0.0834 0.2165, -0.0989 0.0881 0.2165, -0.1049 0.0849 0.2165, -0.1081 0.084 0.2165, -0.1098 0.0835 0.2165, -0.1068 0.2669 0.2165, -0.1013 0.2653 0.2165, -0.094 0.2608 0.2165, -0.0793 0.1194 0.2165, -0.0868 0.1028 0.2165, -0.0936 0.0931 0.2165, -0.0887 0.2553 0.2165, -0.0823 0.2444 0.2165, -0.0749 0.2229 0.2165, -0.0702 0.1946 0.2165, -0.0696 0.1719 0.2165, -0.0726 0.1451 0.2165, -0.1613 0.5402 0.2165, -0.1096 0.2669 0.2165, -0.1073 0.2671 0.2165, -0.1833 0.2478 0.2165, -0.1804 0.2651 0.2165, -0.1853 0.2669 0.2165, -0.1776 0.2648 0.2165, -0.1776 0.194 0.2165, -0.181 0.1937 0.2165, -0.1853 0.1746 0.2165, -0.183 0.2237 0.2165, -0.1853 0.2348 0.2165, -0.1773 0.1039 0.2165, -0.1837 0.094 0.2165, -0.1831 0.1729 0.2165, -0.1786 0.1673 0.2165, -0.1756 0.1608 0.2165, -0.1723 0.1447 0.2165, -0.1716 0.1266 0.2165, -0.1731 0.1164 0.2165, -0.2059 0.0844 0.2165, -0.2129 0.085 0.2165, -0.1853 0.0925 0.2165, -0.1853 0.084 0.2165, -0.1877 0.0901 0.2165, -0.2083 0.0952 0.2165, -0.2065 0.0952 0.2165, -0.2039 0.1731 0.2165, -0.2185 0.087 0.2165, -0.224 0.0905 0.2165, -0.2305 0.0974 0.2165, -0.1959 0.2619 0.2165, -0.1898 0.2571 0.2165, -0.194 0.0866 0.2165, -0.2002 0.0849 0.2165, -0.2356 0.1064 0.2165, -0.24 0.1217 0.2165, -0.2411 0.1312 0.2165, -0.2262 0.2608 0.2165, -0.2211 0.2644 0.2165, -0.2167 0.2661 0.2165, -0.2099 0.2668 0.2165, -0.2025 0.2652 0.2165, -0.1867 0.2532 0.2165, -0.1853 0.2509 0.2165, -0.2422 0.1462 0.2165, -0.2309 0.1872 0.2165, -0.2354 0.1933 0.2165, -0.2352 0.1269 0.2165, -0.2309 0.1129 0.2165, -0.2267 0.1057 0.2165, -0.2218 0.1004 0.2165, -0.2382 0.1462 0.2165, -0.2161 0.1776 0.2165, -0.2249 0.1821 0.2165, -0.2017 0.1721 0.2165, -0.2007 0.0958 0.2165, -0.1962 0.0973 0.2165, -0.1924 0.0997 0.2165, -0.1879 0.1044 0.2165, -0.1926 0.1668 0.2165, -0.2395 0.2365 0.2165, -0.2348 0.2493 0.2165, -0.2312 0.2553 0.2165, -0.2176 0.0975 0.2165, -0.2132 0.0958 0.2165, -0.2384 0.2002 0.2165, -0.2406 0.2101 0.2165, -0.2411 0.2215 0.2165, -0.1853 0.1088 0.2165, -0.1796 0.1363 0.2165, -0.181 0.1478 0.2165, -0.1795 0.1335 0.2165, -0.1838 0.1113 0.2165, -0.1808 0.1197 0.2165, -0.1834 0.1554 0.2165, -0.1853 0.1584 0.2165, -0.1875 0.162 0.2165, -0.2107 0.1881 0.2165, -0.2008 0.1841 0.2165, -0.1902 0.1785 0.2165, -0.1853 0.235 0.2165, -0.1882 0.2418 0.2165, -0.2147 0.1897 0.2165, -0.1926 0.2479 0.2165, -0.2147 0.2555 0.2165, -0.2179 0.254 0.2165, -0.2232 0.2499 0.2165, -0.2247 0.2483 0.2165, -0.2278 0.2437 0.2165, -0.2264 0.1974 0.2165, -0.2329 0.2199 0.2165, -0.2297 0.2025 0.2165, -0.2324 0.2106 0.2165, -0.2314 0.2341 0.2165, -0.223 0.1942 0.2165, -0.209 0.2563 0.2165, -0.2028 0.255 0.2165, -0.1977 0.2523 0.2165, -0.1853 -0.5622 0.2165, -0.2488 -0.5622 0.2165, -0.3575 -0.5622 0.2165, 0.1676 -0.5622 0.2165, 0.1676 -0.5228 0.2165, 0.0251 -0.5622 0.2165, 0.0251 -0.5228 0.2165, -0.0627 -0.5622 0.2165, -0.0627 -0.5228 0.2165, -0.1613 -0.5622 0.2165, -0.1613 -0.5228 0.2165, 0.3019 0.084 0.2165, 0.3019 0.0834 0.2165, 0.3019 -0.1625 0.2165, 0.3019 -0.5228 0.2165, -0.1853 0.0834 0.2165, 0.1676 0.084 0.2165, 0.0337 0.1601 0.2165, 0.1676 0.2669 0.2165, 0.1554 0.1601 0.2165, 0.1554 0.1479 0.2165, 0.0337 0.1479 0.2165, 0.1867 0.1733 0.2165, 0.1925 0.1815 0.2165, 0.1939 0.1951 0.2165, 0.1977 0.1869 0.2165, 0.2011 0.1898 0.2165, 0.2467 0.106 0.2165, 0.2412 0.0958 0.2165, 0.2512 0.121 0.2165, 0.3019 0.2669 0.2165, 0.2224 0.2647 0.2165, 0.2291 0.2616 0.2165, 0.2374 0.0916 0.2165, 0.2325 0.0882 0.2165, 0.226 0.0856 0.2165, 0.2175 0.0847 0.2165, 0.2097 0.0858 0.2165, 0.2156 0.2659 0.2165, 0.2089 0.2652 0.2165, 0.23 0.1898 0.2165, 0.2404 0.1796 0.2165, 0.2334 0.192 0.2165, 0.2344 0.1928 0.2165, 0.2461 0.17 0.2165, 0.2506 0.1555 0.2165, 0.1858 0.2348 0.2165, 0.1884 0.2451 0.2165, 0.1929 0.2532 0.2165, 0.2434 0.2097 0.2165, 0.2391 0.1994 0.2165, 0.2361 0.1946 0.2165, 0.2515 0.1498 0.2165, 0.2524 0.1307 0.2165, 0.1815 0.1594 0.2165, 0.1912 0.1991 0.2165, 0.1865 0.2115 0.2165, 0.1995 0.2605 0.2165, 0.2038 0.2634 0.2165, 0.2032 0.0885 0.2165, 0.1968 0.093 0.2165, 0.191 0.0997 0.2165, 0.234 0.2576 0.2165, 0.238 0.2525 0.2165, 0.2411 0.2465 0.2165, 0.245 0.2232 0.2165, 0.2441 0.2361 0.2165, 0.1856 0.1099 0.2165, 0.1809 0.1279 0.2165, 0.1799 0.1428 0.2165, 0.1853 0.225 0.2165, -0.1853 0.5402 0.2165, -0.2488 0.5402 0.2165, 0.3019 0.5402 0.2165, 0.1676 0.5402 0.2165, 0.3512 -0.1625 0.2165, 0.3512 0.0834 0.2165, 0.3512 0.084 0.2165, 0.3512 0.2669 0.2165, 0.3512 0.5402 0.2165, 0.0081 -0.0867 0.0197, 0.0081 -0.0675 0.0197, 0.0453 -0.0675 0.0197, 0.077 -0.0921 0.0197, 0.0779 -0.0867 0.0197, 0.1113 -0.0867 0.0197, -0.1083 -0.1607 0.0197, -0.0802 -0.1607 0.0197, -0.0802 -0.161 0.0197, -0.2 0.0284 0.0197, -0.3181 0.0284 0.0197, -0.3968 0.1445 0.0197, -0.3968 -0.0675 0.0197, -0.2 0.1445 0.0197, -0.1308 0.1445 0.0197, -0.1308 0.0284 0.0197, -0.0737 0.1445 0.0197, -0.0737 0.0284 0.0197, 0.3118 0.0284 0.0197, 0.1937 0.0284 0.0197, 0.1937 0.1445 0.0197, 0.1113 0.0284 0.0197, 0.1113 0.1445 0.0197, 0.0453 0.0284 0.0197, 0.0453 0.1445 0.0197, 0.0081 0.0284 0.0197, 0.0081 0.1445 0.0197, -0.0315 0.0284 0.0197, -0.0315 0.1445 0.0197, 0.1113 -0.2827 0.0197, 0.0461 -0.2827 0.0197, 0.0453 -0.2232 0.0197, 0.0461 -0.5622 0.0197, 0.0453 -0.5819 0.0197, 0.1113 -0.5819 0.0197, 0.1113 -0.5622 0.0197, 0.1937 -0.5819 0.0197, 0.1445 -0.5622 0.0197, 0.1937 -0.2232 0.0197, -0.0737 0.2607 0.0197, -0.0523 0.2607 0.0197, -0.0737 0.5796 0.0197, -0.0315 0.5796 0.0197, -0.0523 0.5402 0.0197, -0.1308 0.2607 0.0197, -0.1508 0.2607 0.0197, -0.1508 0.5402 0.0197, -0.2 0.5796 0.0197, -0.1308 0.5402 0.0197, -0.0737 0.5402 0.0197, -0.1308 0.5796 0.0197, 0.3414 0.5402 0.0197, 0.3414 0.2607 0.0197, 0.3906 0.1445 0.0197, 0.3266 0.2607 0.0197, 0.3614 0.5782 0.0197, 0.3709 0.5743 0.0197, 0.379 0.568 0.0197, 0.3853 0.5599 0.0197, 0.3892 0.5504 0.0197, 0.1937 -0.0504 0.0197, 0.3118 -0.0504 0.0197, 0.3266 -0.0675 0.0197, 0.3266 0.1445 0.0197, 0.2429 0.2607 0.0197, 0.2429 0.5402 0.0197, 0.1937 0.5796 0.0197, 0.3266 0.5402 0.0197, 0.3266 0.5796 0.0197, 0.3512 0.5796 0.0197, -0.3476 -0.5622 0.0197, -0.2492 -0.5622 0.0197, -0.2 -0.5819 0.0197, -0.2 -0.2232 0.0197, -0.3476 -0.2827 0.0197, -0.3968 -0.2232 0.0197, -0.2492 -0.2827 0.0197, -0.2 -0.6016 0.0197, -0.3575 -0.6016 0.0197, -0.3916 -0.5819 0.0197, -0.3853 -0.59 0.0197, -0.3677 -0.6002 0.0197, -0.3771 -0.5963 0.0197, 0.3266 -0.5819 0.0197, 0.3853 -0.5819 0.0197, 0.379 -0.59 0.0197, 0.3709 -0.5963 0.0197, 0.3614 -0.6002 0.0197, 0.3512 -0.6016 0.0197, 0.3906 -0.2232 0.0197, 0.3414 -0.5622 0.0197, -0.3955 0.5504 0.0197, -0.3916 0.5599 0.0197, -0.3476 0.5402 0.0197, -0.3853 0.568 0.0197, -0.3771 0.5743 0.0197, -0.3677 0.5782 0.0197, -0.3575 0.5796 0.0197, -0.2492 0.5402 0.0197, -0.2492 0.2607 0.0197, -0.3476 0.2607 0.0197, 0.0453 0.5796 0.0197, 0.0461 0.5402 0.0197, 0.0461 0.2607 0.0197, -0.1308 -0.2827 0.0197, -0.1508 -0.2827 0.0197, -0.1508 -0.5622 0.0197, -0.1308 -0.5819 0.0197, -0.0737 -0.5622 0.0197, -0.0523 -0.5622 0.0197, -0.0315 -0.5819 0.0197, -0.0737 -0.2232 0.0197, -0.0315 -0.2232 0.0197, -0.0523 -0.2827 0.0197, -0.0737 -0.5819 0.0197, -0.1308 -0.5622 0.0197, 0.3892 -0.5724 0.0197, 0.3266 -0.5622 0.0197, 0.2429 -0.5622 0.0197, 0.2429 -0.2827 0.0197, 0.3266 -0.2827 0.0197, -0.1012 -0.1306 0.0197, -0.0858 -0.1343 0.0197, -0.1079 -0.1581 0.0197, -0.0822 -0.1512 0.0197, -0.0804 -0.1598 0.0197, -0.0789 -0.1636 0.0197, -0.0788 -0.1636 0.0197, -0.109 -0.1634 0.0197, -0.1089 -0.1633 0.0197, -0.0787 -0.1635 0.0197, -0.0786 -0.1633 0.0197, -0.0737 -0.161 0.0197, -0.1308 -0.2232 0.0197, -0.1096 -0.1633 0.0197, -0.1095 -0.1634 0.0197, -0.1091 -0.1634 0.0197, -0.0788 -0.1636 0.0197, -0.0785 -0.163 0.0197, -0.0783 -0.1618 0.0197, -0.0783 -0.161 0.0197, -0.1096 -0.1633 0.0197, -0.1308 -0.161 0.0197, -0.1097 -0.1631 0.0197, -0.1088 -0.1632 0.0197, -0.1087 -0.1629 0.0197, -0.1094 -0.1634 0.0197, -0.1093 -0.1635 0.0197, -0.1092 -0.1635 0.0197, -0.0791 -0.1636 0.0197, -0.079 -0.1636 0.0197, -0.0789 -0.1636 0.0197, -0.1086 -0.1627 0.0197, -0.1084 -0.161 0.0197, -0.1308 -0.1607 0.0197, -0.11 -0.161 0.0197, -0.1099 -0.1616 0.0197, -0.1098 -0.1622 0.0197, -0.1098 -0.1627 0.0197, -0.1097 -0.163 0.0197, -0.0796 -0.1629 0.0197, -0.0795 -0.1632 0.0197, -0.0794 -0.1634 0.0197, -0.0792 -0.1635 0.0197, -0.0798 -0.1625 0.0197, -0.1108 -0.1515 0.0197, -0.1108 -0.1518 0.0197, -0.1107 -0.1514 0.0197, -0.1308 -0.0867 0.0197, -0.1106 -0.1512 0.0197, -0.1106 -0.1546 0.0197, -0.1101 -0.1597 0.0197, -0.11 -0.1607 0.0197, -0.1055 -0.1348 0.0197, -0.1068 -0.1405 0.0197, -0.1107 -0.1529 0.0197, -0.1106 -0.1534 0.0197, -0.1074 -0.1431 0.0197, -0.1082 -0.1458 0.0197, -0.109 -0.1479 0.0197, -0.1097 -0.15 0.0197, -0.1102 -0.1507 0.0197, -0.0737 -0.0675 0.0197, -0.0929 -0.0862 0.0197, -0.1308 -0.0675 0.0197, -0.0945 -0.0862 0.0197, -0.0946 -0.0867 0.0197, -0.0812 -0.1402 0.0197, -0.0928 -0.0867 0.0197, -0.0737 -0.0867 0.0197, -0.0785 -0.1502 0.0197, -0.08 -0.1453 0.0197, -0.078 -0.1512 0.0197, -0.0778 -0.1516 0.0197, -0.0776 -0.1555 0.0197, -0.0737 -0.1607 0.0197, -0.0782 -0.1603 0.0197, -0.0782 -0.1607 0.0197, -0.0775 -0.1523 0.0197, -0.0775 -0.1533 0.0197, -0.0577 -0.0889 0.0197, -0.0603 -0.0896 0.0197, -0.0622 -0.0906 0.0197, -0.0357 -0.0923 0.0197, -0.0357 -0.092 0.0197, -0.0315 -0.0867 0.0197, -0.064 -0.0921 0.0197, -0.0658 -0.0945 0.0197, -0.0674 -0.0985 0.0197, -0.0541 -0.0887 0.0197, -0.0516 -0.0889 0.0197, -0.0624 -0.1552 0.0197, -0.0643 -0.1529 0.0197, -0.0666 -0.1487 0.0197, -0.0358 -0.1554 0.0197, -0.0357 -0.1557 0.0197, -0.0315 -0.1607 0.0197, -0.0357 -0.1558 0.0197, -0.0357 -0.1559 0.0197, -0.0359 -0.0926 0.0197, -0.0359 -0.1553 0.0197, -0.0359 -0.1553 0.0197, -0.0356 -0.0917 0.0197, -0.0357 -0.0914 0.0197, -0.0358 -0.0912 0.0197, -0.036 -0.1552 0.0197, -0.0361 -0.1552 0.0197, -0.0402 -0.0958 0.0197, -0.0361 -0.1552 0.0197, -0.0364 -0.1551 0.0197, -0.0368 -0.1552 0.0197, -0.0384 -0.1552 0.0197, -0.0402 -0.1552 0.0197, -0.0604 -0.1567 0.0197, -0.0589 -0.1574 0.0197, -0.0558 -0.1582 0.0197, -0.036 -0.1563 0.0197, -0.0359 -0.1561 0.0197, -0.0358 -0.156 0.0197, -0.0692 -0.1101 0.0197, -0.0699 -0.1279 0.0197, -0.0687 -0.1412 0.0197, -0.0425 -0.0909 0.0197, -0.0449 -0.0906 0.0197, -0.0491 -0.0894 0.0197, -0.0387 -0.095 0.0197, -0.0367 -0.0934 0.0197, -0.0362 -0.093 0.0197, -0.036 -0.091 0.0197, -0.0361 -0.0909 0.0197, -0.0382 -0.0912 0.0197, -0.0497 -0.159 0.0197, -0.0447 -0.1596 0.0197, -0.0429 -0.1601 0.0197, -0.0394 -0.0955 0.0197, -0.0405 -0.0912 0.0197, -0.0415 -0.091 0.0197, -0.0404 -0.1607 0.0197, -0.0389 -0.1594 0.0197, -0.0378 -0.1583 0.0197, -0.0365 -0.1569 0.0197, -0.0362 -0.1566 0.0197, -0.041 -0.1611 0.0197, -0.0408 -0.161 0.0197, -0.0315 -0.161 0.0197, -0.0408 -0.161 0.0197, -0.0404 -0.1608 0.0197, -0.0418 -0.1607 0.0197, -0.0417 -0.1608 0.0197, -0.0414 -0.161 0.0197, -0.0413 -0.161 0.0197, -0.0412 -0.1611 0.0197, 0.017 -0.1555 0.0197, 0.0189 -0.1578 0.0197, 0.0081 -0.1607 0.0197, 0.0163 -0.0888 0.0197, 0.0146 -0.0888 0.0197, 0.0146 -0.1191 0.0197, 0.0214 -0.1596 0.0197, 0.0241 -0.1606 0.0197, 0.0251 -0.1607 0.0197, 0.0129 -0.133 0.0197, 0.0137 -0.1466 0.0197, 0.0151 -0.1518 0.0197, 0.0218 -0.0898 0.0197, 0.0193 -0.092 0.0197, 0.0181 -0.0937 0.0197, 0.0171 -0.0955 0.0197, 0.0147 -0.1329 0.0197, 0.0394 -0.1059 0.0197, 0.0404 -0.1115 0.0197, 0.0407 -0.0998 0.0197, 0.0379 -0.0939 0.0197, 0.0453 -0.0867 0.0197, 0.0355 -0.091 0.0197, 0.0325 -0.0887 0.0197, 0.0339 -0.154 0.0197, 0.0323 -0.1555 0.0197, 0.016 -0.1436 0.0197, 0.0323 -0.1596 0.0197, 0.0346 -0.1582 0.0197, 0.0453 -0.1607 0.0197, 0.0365 -0.1562 0.0197, 0.039 -0.1522 0.0197, 0.0308 -0.0879 0.0197, 0.0291 -0.0876 0.0197, 0.0276 -0.0876 0.0197, 0.0363 -0.1506 0.0197, 0.0276 -0.1571 0.0197, 0.0175 -0.1502 0.0197, 0.019 -0.1528 0.0197, 0.0267 -0.0913 0.0197, 0.029 -0.0914 0.0197, 0.031 -0.0921 0.0197, 0.0255 -0.0915 0.0197, 0.0368 -0.0983 0.0197, 0.0349 -0.0952 0.0197, 0.0152 -0.1389 0.0197, 0.0408 -0.1297 0.0197, 0.038 -0.1459 0.0197, 0.0308 -0.1564 0.0197, 0.0293 -0.1569 0.0197, 0.025 -0.1569 0.0197, 0.0226 -0.156 0.0197, 0.0206 -0.1546 0.0197, 0.0177 -0.1031 0.0197, 0.0191 -0.098 0.0197, 0.0206 -0.095 0.0197, 0.033 -0.0933 0.0197, 0.022 -0.0934 0.0197, 0.0238 -0.0922 0.0197, 0.0421 -0.143 0.0197, 0.0435 -0.1339 0.0197, 0.0434 -0.1121 0.0197, 0.026 -0.1608 0.0197, 0.0081 -0.161 0.0197, 0.0453 -0.161 0.0197, 0.0283 -0.1607 0.0197, 0.0292 -0.1607 0.0197, 0.1113 -0.0675 0.0197, 0.074 -0.098 0.0197, 0.0576 -0.1526 0.0197, 0.0571 -0.1524 0.0197, 0.0773 -0.0846 0.0197, 0.0757 -0.0867 0.0197, 0.0723 -0.0909 0.0197, 0.0527 -0.1565 0.0197, 0.0525 -0.157 0.0197, 0.0525 -0.1574 0.0197, 0.0526 -0.1577 0.0197, 0.074 -0.1557 0.0197, 0.0653 -0.155 0.0197, 0.0611 -0.1544 0.0197, 0.0735 -0.0934 0.0197, 0.074 -0.0966 0.0197, 0.0529 -0.1562 0.0197, 0.0533 -0.1558 0.0197, 0.0545 -0.1547 0.0197, 0.0596 -0.154 0.0197, 0.0588 -0.1536 0.0197, 0.0527 -0.1578 0.0197, 0.0529 -0.1579 0.0197, 0.0532 -0.158 0.0197, 0.0765 -0.1603 0.0197, 0.0768 -0.1603 0.0197, 0.1113 -0.1607 0.0197, 0.077 -0.1603 0.0197, 0.0771 -0.1602 0.0197, 0.0772 -0.1601 0.0197, 0.0773 -0.1599 0.0197, 0.0775 -0.1596 0.0197, 0.0776 -0.1594 0.0197, 0.0775 -0.1587 0.0197, 0.0772 -0.1555 0.0197, 0.0534 -0.1581 0.0197, 0.0551 -0.1581 0.0197, 0.0598 -0.1587 0.0197, 0.0772 -0.1553 0.0197, 0.077 -0.1486 0.0197, 0.077 -0.0976 0.0197, 0.0618 -0.1589 0.0197, 0.0683 -0.1595 0.0197, 0.0731 -0.1599 0.0197, 0.1113 0.5402 0.0197, 0.1113 0.5796 0.0197, 0.1445 0.5402 0.0197, 0.1445 0.2607 0.0197, 0.1113 0.2607 0.0197, 0.0081 0.5796 0.0197, -0.0315 -0.0675 0.0197, 0.0781 -0.0855 0.0197, 0.0243 -0.0884 0.0197, -0.0271 -0.1562 0.0197, -0.027 -0.1563 0.0197, -0.0237 -0.1511 0.0197, -0.0269 -0.1546 0.0197, -0.0272 -0.155 0.0197, -0.0273 -0.1553 0.0197, -0.0274 -0.1555 0.0197, -0.0274 -0.1557 0.0197, 0.0007 -0.1605 0.0197, 0.001 -0.1603 0.0197, 0.0013 -0.1601 0.0197, 0.0014 -0.1599 0.0197, 0.0033 -0.0922 0.0197, 0.0034 -0.0917 0.0197, -0.0027 -0.1205 0.0197, -0.0122 -0.1193 0.0197, -0.0027 -0.0956 0.0197, -0.0161 -0.1185 0.0197, -0.0208 -0.1163 0.0197, -0.0241 -0.0923 0.0197, -0.0223 -0.0926 0.0197, 0.0034 -0.091 0.0197, 0.0034 -0.0909 0.0197, 0.0034 -0.0908 0.0197, 0.0033 -0.0907 0.0197, -0.0186 -0.1176 0.0197, -0.0198 -0.1169 0.0197, -0.017 -0.0932 0.0197, -0.0196 -0.0929 0.0197, -0.0214 -0.0871 0.0197, -0.0247 -0.0905 0.0197, 0.0016 -0.1596 0.0197, 0.0017 -0.1592 0.0197, 0.0016 -0.1582 0.0197, 0.0167 -0.1191 0.0197, 0.0034 -0.0914 0.0197, 0.0034 -0.0912 0.0197, 0.0032 -0.0907 0.0197, 0.003 -0.0906 0.0197, 0.0028 -0.0906 0.0197, -0.0245 -0.121 0.0197, -0.0244 -0.1212 0.0197, -0.0242 -0.1214 0.0197, -0.0241 -0.1215 0.0197, -0.0273 -0.1559 0.0197, -0.0272 -0.1561 0.0197, 0.0024 -0.0906 0.0197, 0.0003 -0.091 0.0197, -0.0017 -0.0912 0.0197, -0.0251 -0.0914 0.0197, -0.0251 -0.0915 0.0197, -0.0251 -0.0917 0.0197, -0.025 -0.0918 0.0197, -0.0243 -0.1199 0.0197, -0.0245 -0.1202 0.0197, -0.0244 -0.0923 0.0197, -0.0246 -0.1204 0.0197, -0.0246 -0.0922 0.0197, -0.0246 -0.1207 0.0197, -0.0248 -0.0921 0.0197, -0.0249 -0.092 0.0197, -0.0027 -0.1245 0.0197, -0.0027 -0.1552 0.0197, -0.0196 -0.1528 0.0197, -0.0241 -0.1196 0.0197, -0.0249 -0.0909 0.0197, -0.025 -0.0912 0.0197, -0.0239 -0.1215 0.0197, -0.0235 -0.1216 0.0197, -0.0227 -0.1517 0.0197, -0.0212 -0.1524 0.0197, 0.0003 -0.1605 0.0197, -0.0003 -0.1605 0.0197, -0.0036 -0.0912 0.0197, -0.0039 -0.0912 0.0197, -0.0062 -0.0912 0.0197, -0.0083 -0.0909 0.0197, -0.0128 -0.0901 0.0197, -0.0167 -0.0893 0.0197, 0.0009 -0.1554 0.0197, 0.0006 -0.1525 0.0197, 0.0006 -0.1503 0.0197, 0.0018 -0.0942 0.0197, 0.0025 -0.0933 0.0197, 0.003 -0.0927 0.0197, -0.0198 -0.0881 0.0197, -0.0204 -0.0878 0.0197, -0.0246 -0.1209 0.0197, -0.0269 -0.1564 0.0197, -0.0265 -0.1564 0.0197, -0.0262 -0.1564 0.0197, 0.0006 -0.0956 0.0197, 0.0005 -0.1475 0.0197, 0.0005 -0.1489 0.0197, -0.0074 -0.1589 0.0197, -0.0022 -0.1598 0.0197, -0.001 -0.1603 0.0197, -0.0246 -0.1565 0.0197, -0.016 -0.1576 0.0197, -0.2394 -0.0504 0.0197, -0.2 -0.0675 0.0197, -0.3968 -0.0867 0.0197, -0.2 -0.0867 0.0197, -0.3968 -0.1607 0.0197, -0.2 -0.1607 0.0197, -0.3968 -0.161 0.0197, -0.2 -0.161 0.0197, -0.0737 -0.2827 0.0197, 0.0081 -0.2232 0.0197, 0.1445 -0.2827 0.0197, 0.1113 -0.2232 0.0197, 0.1113 -0.161 0.0197, 0.0757 -0.1602 0.0197, 0.1937 -0.0675 0.0197, 0.1937 -0.0867 0.0197, 0.1937 -0.1607 0.0197, 0.1937 -0.161 0.0197, -0.2 -0.0504 0.0197, -0.1308 -0.0504 0.0197, -0.0737 -0.0504 0.0197, -0.0315 -0.0504 0.0197, 0.0081 -0.0504 0.0197, 0.0453 -0.0504 0.0197, 0.1113 -0.0504 0.0197, 0.3266 -0.0867 0.0197, 0.3266 -0.1607 0.0197, 0.3266 -0.161 0.0197, 0.3266 -0.2232 0.0197, 0.3414 -0.2827 0.0197, 0.3906 -0.0675 0.0197, 0.3906 -0.0867 0.0197, 0.3906 -0.1607 0.0197, 0.3906 -0.161 0.0197, 0.0081 -0.5819 0.0197, 0.3266 -0.6016 0.0197, 0.1937 -0.6016 0.0197, 0.1113 -0.6016 0.0197, 0.0453 -0.6016 0.0197, 0.0081 -0.6016 0.0197, -0.0315 -0.6016 0.0197, -0.0737 -0.6016 0.0197, -0.1308 -0.6016 0.0197, -0.3955 -0.5724 0.0197, 0.3512 0.5796 0.1772, -0.2492 0.5796 0.0669, -0.3575 0.5796 0.1772, -0.3476 0.5796 0.0669, -0.1508 0.5796 0.0669, -0.1508 0.5796 0.0394, -0.2492 0.5796 0.0394, -0.3476 0.5796 0.0394, -0.0523 0.5796 0.0394, 0.1445 0.5796 0.0669, 0.0461 0.5796 0.0669, 0.2429 0.5796 0.0394, 0.3414 0.5796 0.0394, 0.3414 0.5796 0.0669, 0.2429 0.5796 0.0669, 0.1445 0.5796 0.0394, 0.0461 0.5796 0.0394, -0.0523 0.5796 0.0669, 0.0461 -0.6016 0.0394, 0.1445 -0.6016 0.0394, 0.2429 -0.6016 0.0394, 0.1445 -0.6016 0.0669, -0.2492 -0.6016 0.0394, -0.3476 -0.6016 0.0394, -0.3476 -0.6016 0.0669, -0.3575 -0.6016 0.1772, -0.2492 -0.6016 0.0669, -0.0523 -0.6016 0.0669, -0.1508 -0.6016 0.0669, -0.1508 -0.6016 0.0394, 0.2429 -0.6016 0.0669, 0.3512 -0.6016 0.1772, 0.3414 -0.6016 0.0669, 0.3414 -0.6016 0.0394, -0.0523 -0.6016 0.0394, 0.0461 -0.6016 0.0669
            ]
        }
        coordIndex [
            0,1,2,-1,3,4,5,-1,6,7,8,-1,2,1,8,-1,8,1,9,-1,8,9,6,-1,4,3,10,-1,10,3,7,-1,10,7,11,-1,12,3,13,-1,13,3,5,-1,13,5,14,-1,5,11,14,-1,14,11,7,-1,14,7,15,-1,15,7,6,-1,15,6,12,-1,12,6,0,-1,12,0,3,-1,3,0,2,-1,16,17,18,-1,19,20,17,-1,17,20,21,-1,18,17,22,-1,22,17,21,-1,22,21,23,-1,18,24,16,-1,16,24,23,-1,16,23,25,-1,25,23,21,-1,25,21,26,-1,17,27,19,-1,19,27,28,-1,19,28,26,-1,26,28,29,-1,26,29,25,-1,25,29,30,-1,25,30,27,-1,27,30,31,-1,27,31,28,-1,32,33,34,-1,35,36,37,-1,38,39,40,-1,41,42,43,-1,44,45,46,-1,46,45,47,-1,48,49,47,-1,47,49,50,-1,47,50,46,-1,51,52,53,-1,53,52,54,-1,54,55,53,-1,53,55,56,-1,53,56,48,-1,48,56,57,-1,48,57,49,-1,58,59,60,-1,61,62,58,-1,58,62,63,-1,58,63,59,-1,64,65,66,-1,66,65,44,-1,66,44,60,-1,60,44,46,-1,60,46,58,-1,67,68,69,-1,69,68,70,-1,69,70,58,-1,58,70,71,-1,58,71,61,-1,72,73,74,-1,75,76,77,-1,76,78,77,-1,77,78,79,-1,77,79,80,-1,81,82,83,-1,83,82,84,-1,83,84,85,-1,80,86,77,-1,77,86,87,-1,77,87,88,-1,83,89,81,-1,81,89,90,-1,81,90,91,-1,92,93,90,-1,90,93,94,-1,90,94,91,-1,42,95,43,-1,43,95,96,-1,43,96,38,-1,97,98,99,-1,97,99,100,-1,101,102,103,-1,103,102,104,-1,103,104,105,-1,99,106,100,-1,100,106,107,-1,100,107,108,-1,108,109,100,-1,100,109,110,-1,100,110,103,-1,103,110,111,-1,103,111,101,-1,112,113,114,-1,115,116,117,-1,113,118,114,-1,114,118,119,-1,114,119,97,-1,97,119,120,-1,97,120,98,-1,121,122,123,-1,123,122,124,-1,123,124,125,-1,125,126,123,-1,123,126,127,-1,123,127,114,-1,114,127,128,-1,114,128,112,-1,129,130,131,-1,131,130,132,-1,131,132,133,-1,134,131,135,-1,134,136,131,-1,131,136,137,-1,131,137,138,-1,138,139,131,-1,131,139,140,-1,131,140,129,-1,135,141,142,-1,142,143,135,-1,135,143,144,-1,135,144,134,-1,145,146,147,-1,132,148,133,-1,133,148,149,-1,133,149,150,-1,150,149,151,-1,150,151,152,-1,152,151,153,-1,152,153,154,-1,154,153,155,-1,154,155,156,-1,156,155,157,-1,156,157,158,-1,158,157,159,-1,158,159,160,-1,161,162,163,-1,163,162,164,-1,163,164,165,-1,165,166,163,-1,163,166,167,-1,163,167,146,-1,146,167,168,-1,146,168,169,-1,169,170,146,-1,146,170,171,-1,146,171,147,-1,172,173,174,-1,174,173,175,-1,174,175,163,-1,163,175,176,-1,163,176,161,-1,160,177,178,-1,178,177,179,-1,180,181,182,-1,182,181,183,-1,182,183,184,-1,184,185,182,-1,182,185,186,-1,182,186,187,-1,172,188,189,-1,189,188,182,-1,189,182,190,-1,190,182,187,-1,179,191,178,-1,178,191,192,-1,178,192,193,-1,194,195,196,-1,197,198,199,-1,199,198,200,-1,199,200,201,-1,202,203,199,-1,199,203,204,-1,199,204,197,-1,196,205,194,-1,194,205,206,-1,194,206,207,-1,207,208,194,-1,194,208,209,-1,194,209,210,-1,195,194,211,-1,211,194,212,-1,211,212,213,-1,213,212,214,-1,213,214,215,-1,215,214,216,-1,216,214,77,-1,216,77,69,-1,69,77,88,-1,69,88,67,-1,217,218,58,-1,58,218,219,-1,58,219,69,-1,69,219,220,-1,69,220,216,-1,50,221,46,-1,46,221,222,-1,46,222,223,-1,224,225,58,-1,58,225,226,-1,58,226,217,-1,223,227,46,-1,46,227,228,-1,46,228,229,-1,229,230,46,-1,46,230,231,-1,46,231,58,-1,58,231,232,-1,58,232,224,-1,233,234,50,-1,50,234,235,-1,50,235,221,-1,236,237,238,-1,238,237,239,-1,238,239,199,-1,199,239,240,-1,240,241,242,-1,242,241,243,-1,242,243,244,-1,245,246,194,-1,242,247,240,-1,240,247,248,-1,240,248,249,-1,250,251,194,-1,194,251,252,-1,194,252,245,-1,249,250,240,-1,240,250,194,-1,240,194,199,-1,199,194,210,-1,199,210,202,-1,253,254,182,-1,246,255,256,-1,256,255,257,-1,258,259,260,-1,254,261,182,-1,182,261,262,-1,182,262,263,-1,264,265,238,-1,257,266,256,-1,256,266,267,-1,256,267,253,-1,263,268,182,-1,182,268,269,-1,182,269,270,-1,271,272,178,-1,272,273,178,-1,178,273,274,-1,178,274,238,-1,238,274,275,-1,238,275,264,-1,265,276,238,-1,238,276,277,-1,238,277,236,-1,193,180,178,-1,178,180,182,-1,178,182,278,-1,278,182,270,-1,278,279,280,-1,281,282,260,-1,260,282,283,-1,260,283,284,-1,281,260,285,-1,285,260,286,-1,285,286,278,-1,278,286,287,-1,278,287,279,-1,260,259,288,-1,288,259,289,-1,288,289,290,-1,290,291,288,-1,288,291,292,-1,288,292,293,-1,294,295,178,-1,178,295,296,-1,178,296,271,-1,284,297,260,-1,260,297,298,-1,260,298,258,-1,280,299,278,-1,278,299,300,-1,278,300,178,-1,178,300,301,-1,178,301,294,-1,302,303,304,-1,303,302,305,-1,305,302,306,-1,305,306,307,-1,304,308,302,-1,302,308,309,-1,302,309,292,-1,292,309,310,-1,292,310,293,-1,311,312,244,-1,244,312,313,-1,244,313,242,-1,244,314,311,-1,311,314,315,-1,311,315,316,-1,316,315,317,-1,318,319,316,-1,319,320,316,-1,316,320,321,-1,316,321,322,-1,323,324,325,-1,325,324,326,-1,322,327,316,-1,316,327,324,-1,316,324,328,-1,328,324,323,-1,329,318,330,-1,330,318,316,-1,330,316,331,-1,331,316,317,-1,332,114,333,-1,333,114,97,-1,333,97,334,-1,334,97,100,-1,335,336,337,-1,337,336,338,-1,337,338,339,-1,339,338,340,-1,339,340,341,-1,341,340,342,-1,336,33,338,-1,338,33,32,-1,338,32,340,-1,340,32,77,-1,340,77,342,-1,342,77,214,-1,172,174,188,-1,188,174,103,-1,188,103,115,-1,115,103,105,-1,115,105,116,-1,343,34,344,-1,344,34,33,-1,344,33,345,-1,345,33,336,-1,345,336,346,-1,346,336,335,-1,346,335,35,-1,253,182,256,-1,256,182,188,-1,256,188,347,-1,347,188,115,-1,347,115,123,-1,123,115,117,-1,123,117,121,-1,246,256,194,-1,194,256,347,-1,194,347,212,-1,212,347,123,-1,212,123,214,-1,214,123,114,-1,214,114,342,-1,342,114,332,-1,342,332,341,-1,39,73,40,-1,40,73,72,-1,40,72,348,-1,38,40,43,-1,43,40,349,-1,43,349,350,-1,350,349,351,-1,350,351,348,-1,348,351,352,-1,348,352,40,-1,40,352,353,-1,40,353,349,-1,354,355,356,-1,356,355,357,-1,356,357,358,-1,359,360,343,-1,359,343,361,-1,362,363,364,-1,360,365,343,-1,343,365,366,-1,343,366,367,-1,368,369,348,-1,363,362,370,-1,370,362,350,-1,370,350,371,-1,372,373,374,-1,374,373,375,-1,376,377,343,-1,378,379,350,-1,350,379,380,-1,381,382,373,-1,373,382,383,-1,373,383,375,-1,377,384,343,-1,343,384,385,-1,343,385,361,-1,85,75,83,-1,83,75,77,-1,83,77,74,-1,74,77,32,-1,74,32,72,-1,72,32,34,-1,72,34,348,-1,348,34,343,-1,348,343,368,-1,368,343,367,-1,354,356,386,-1,386,356,387,-1,386,387,388,-1,380,389,350,-1,350,389,390,-1,350,390,371,-1,369,391,348,-1,348,391,392,-1,348,392,393,-1,364,394,362,-1,362,394,395,-1,362,395,396,-1,373,376,381,-1,381,376,343,-1,381,343,397,-1,397,343,362,-1,397,362,398,-1,398,362,396,-1,393,399,348,-1,348,399,400,-1,348,400,401,-1,401,386,348,-1,348,386,388,-1,348,388,350,-1,350,388,402,-1,350,402,378,-1,201,234,199,-1,199,234,233,-1,199,233,238,-1,238,233,403,-1,238,403,178,-1,178,403,404,-1,178,404,160,-1,160,404,145,-1,160,145,158,-1,158,145,147,-1,362,405,350,-1,350,405,406,-1,350,406,43,-1,43,406,49,-1,43,49,41,-1,41,49,57,-1,35,37,346,-1,346,37,407,-1,346,407,345,-1,345,407,408,-1,345,408,344,-1,344,408,409,-1,344,409,343,-1,343,409,410,-1,343,410,362,-1,362,410,411,-1,362,411,405,-1,412,413,414,-1,415,416,417,-1,418,419,420,-1,421,422,423,-1,423,422,424,-1,423,425,421,-1,421,425,426,-1,421,426,427,-1,427,426,428,-1,427,428,429,-1,430,431,432,-1,432,431,433,-1,432,433,434,-1,434,433,435,-1,434,435,436,-1,436,435,437,-1,436,437,438,-1,438,437,439,-1,438,439,440,-1,441,442,443,-1,442,444,445,-1,445,444,446,-1,446,444,447,-1,446,447,448,-1,448,447,449,-1,448,449,450,-1,451,452,440,-1,453,454,455,-1,439,429,440,-1,440,429,428,-1,440,428,451,-1,451,428,426,-1,451,426,456,-1,456,426,457,-1,457,426,425,-1,457,425,458,-1,458,425,459,-1,458,459,460,-1,455,461,453,-1,453,461,460,-1,453,460,462,-1,462,460,459,-1,463,3,464,-1,464,3,465,-1,464,465,466,-1,467,468,463,-1,463,468,469,-1,469,470,463,-1,463,470,471,-1,463,471,3,-1,472,473,474,-1,474,473,430,-1,474,430,475,-1,475,430,432,-1,475,432,476,-1,476,432,477,-1,477,432,478,-1,477,478,479,-1,479,478,480,-1,479,480,463,-1,463,480,481,-1,463,481,467,-1,482,483,484,-1,484,483,485,-1,482,16,486,-1,486,16,487,-1,486,487,488,-1,489,490,491,-1,491,490,492,-1,492,490,493,-1,492,493,494,-1,495,496,497,-1,497,498,495,-1,495,498,499,-1,495,499,500,-1,501,2,502,-1,503,504,505,-1,505,504,506,-1,505,506,507,-1,507,508,505,-1,505,508,509,-1,505,509,510,-1,510,509,459,-1,510,459,511,-1,511,459,425,-1,511,425,512,-1,512,425,423,-1,512,423,505,-1,505,423,25,-1,505,25,503,-1,513,514,515,-1,516,517,485,-1,485,517,484,-1,484,517,518,-1,484,518,519,-1,520,521,522,-1,523,524,525,-1,522,526,520,-1,520,526,519,-1,520,519,527,-1,527,519,518,-1,2,528,502,-1,502,528,496,-1,502,496,529,-1,529,496,495,-1,529,495,530,-1,530,495,448,-1,530,448,531,-1,531,448,450,-1,531,450,532,-1,533,534,535,-1,535,534,536,-1,535,536,418,-1,418,536,537,-1,418,537,419,-1,523,538,539,-1,540,541,523,-1,542,543,544,-1,545,546,547,-1,540,523,548,-1,523,539,544,-1,544,539,549,-1,544,549,542,-1,543,550,544,-1,544,550,551,-1,544,551,552,-1,546,545,553,-1,553,545,554,-1,553,554,555,-1,420,556,557,-1,547,558,545,-1,545,558,559,-1,545,559,523,-1,523,559,560,-1,523,560,548,-1,561,562,523,-1,523,562,563,-1,523,563,538,-1,557,564,420,-1,420,564,565,-1,420,565,418,-1,566,567,554,-1,554,567,568,-1,554,568,569,-1,569,570,554,-1,554,570,571,-1,554,571,555,-1,572,573,541,-1,541,573,574,-1,541,574,523,-1,523,574,575,-1,523,575,561,-1,556,420,541,-1,541,420,576,-1,541,576,572,-1,566,577,578,-1,577,566,579,-1,579,566,580,-1,579,580,581,-1,582,583,566,-1,566,583,584,-1,566,584,567,-1,585,586,580,-1,578,587,566,-1,566,587,588,-1,566,588,582,-1,586,589,580,-1,580,589,590,-1,580,590,591,-1,591,592,580,-1,580,592,593,-1,580,593,581,-1,594,595,596,-1,596,595,597,-1,596,597,580,-1,580,597,598,-1,580,598,585,-1,599,600,601,-1,602,603,604,-1,604,603,605,-1,606,607,608,-1,608,607,609,-1,603,599,605,-1,605,599,601,-1,605,601,610,-1,610,601,607,-1,610,607,611,-1,611,607,606,-1,612,613,601,-1,601,613,614,-1,615,616,617,-1,614,618,601,-1,601,618,619,-1,601,619,620,-1,612,601,621,-1,621,601,617,-1,621,617,622,-1,623,607,624,-1,624,607,625,-1,626,617,627,-1,627,617,628,-1,627,628,629,-1,629,628,630,-1,631,615,632,-1,632,615,617,-1,632,617,633,-1,633,617,626,-1,616,634,617,-1,617,634,635,-1,617,635,636,-1,637,638,639,-1,639,638,640,-1,639,640,641,-1,641,642,639,-1,639,642,643,-1,639,643,644,-1,623,645,607,-1,607,645,646,-1,607,646,647,-1,648,649,628,-1,628,649,650,-1,628,650,630,-1,620,651,601,-1,601,651,652,-1,601,652,607,-1,607,652,653,-1,607,653,625,-1,654,655,617,-1,617,655,656,-1,617,656,622,-1,657,658,632,-1,632,658,659,-1,632,659,631,-1,636,660,617,-1,617,660,661,-1,617,661,662,-1,647,663,607,-1,607,663,664,-1,607,664,665,-1,637,639,632,-1,632,639,666,-1,632,666,657,-1,662,667,617,-1,617,667,668,-1,617,668,654,-1,669,670,628,-1,628,670,671,-1,671,672,628,-1,628,672,673,-1,628,673,648,-1,674,675,676,-1,676,675,677,-1,676,677,678,-1,665,679,607,-1,607,679,544,-1,607,544,609,-1,609,544,552,-1,679,680,544,-1,544,680,681,-1,544,681,523,-1,523,681,682,-1,523,682,524,-1,524,682,683,-1,524,683,674,-1,684,685,686,-1,687,688,412,-1,412,688,689,-1,685,690,686,-1,686,690,691,-1,686,691,692,-1,693,694,686,-1,686,694,695,-1,686,695,684,-1,696,697,687,-1,687,697,698,-1,687,698,699,-1,700,701,702,-1,703,704,705,-1,705,704,706,-1,705,706,707,-1,708,709,710,-1,711,712,713,-1,713,712,714,-1,713,714,715,-1,707,716,705,-1,705,716,717,-1,705,717,718,-1,708,710,719,-1,710,720,721,-1,721,720,722,-1,723,724,725,-1,701,726,727,-1,727,726,728,-1,700,702,729,-1,729,702,730,-1,729,730,710,-1,710,730,731,-1,710,731,719,-1,709,732,710,-1,710,732,733,-1,710,733,720,-1,734,735,720,-1,720,735,736,-1,720,736,722,-1,737,738,701,-1,701,738,739,-1,723,725,726,-1,726,725,740,-1,726,740,728,-1,739,741,701,-1,701,741,742,-1,701,742,726,-1,715,743,713,-1,713,743,744,-1,713,744,705,-1,705,744,745,-1,705,745,703,-1,692,746,747,-1,747,746,748,-1,748,746,749,-1,748,749,713,-1,713,749,750,-1,713,750,711,-1,417,416,751,-1,752,753,754,-1,755,756,705,-1,705,756,757,-1,758,759,713,-1,713,759,760,-1,713,760,761,-1,762,763,752,-1,752,763,764,-1,757,765,705,-1,705,765,766,-1,705,766,752,-1,758,713,767,-1,767,713,705,-1,767,705,768,-1,752,754,705,-1,705,754,769,-1,705,769,768,-1,764,770,752,-1,752,770,771,-1,752,771,753,-1,761,772,713,-1,713,772,773,-1,713,773,774,-1,775,776,777,-1,777,776,778,-1,777,778,779,-1,779,780,777,-1,777,780,781,-1,777,781,782,-1,782,783,777,-1,777,783,784,-1,777,784,785,-1,774,786,713,-1,713,786,787,-1,713,787,788,-1,785,789,777,-1,777,789,790,-1,777,790,417,-1,417,790,791,-1,417,791,415,-1,788,792,713,-1,713,792,793,-1,713,793,794,-1,514,513,795,-1,795,513,796,-1,795,796,797,-1,797,796,478,-1,797,478,798,-1,798,478,432,-1,798,432,799,-1,799,432,434,-1,799,434,515,-1,515,434,436,-1,515,436,513,-1,513,436,438,-1,513,438,800,-1,800,438,440,-1,800,440,454,-1,454,440,452,-1,454,452,455,-1,413,617,801,-1,801,617,601,-1,801,601,594,-1,594,601,600,-1,594,600,595,-1,416,802,751,-1,751,802,755,-1,751,755,414,-1,414,755,705,-1,414,705,412,-1,412,705,718,-1,412,718,687,-1,687,718,803,-1,687,803,696,-1,804,805,628,-1,617,806,807,-1,807,808,617,-1,617,808,809,-1,617,809,628,-1,628,809,810,-1,628,810,811,-1,812,813,686,-1,686,813,814,-1,686,814,815,-1,816,817,412,-1,818,819,820,-1,820,819,821,-1,822,823,824,-1,825,826,412,-1,412,826,827,-1,412,827,828,-1,821,829,820,-1,820,829,830,-1,820,830,831,-1,831,830,822,-1,831,822,832,-1,832,822,824,-1,413,412,617,-1,617,412,833,-1,617,833,834,-1,815,835,686,-1,686,835,836,-1,686,836,837,-1,737,701,838,-1,838,701,700,-1,838,700,689,-1,689,700,693,-1,689,693,412,-1,412,693,686,-1,412,686,816,-1,817,839,412,-1,412,839,840,-1,412,840,825,-1,828,841,412,-1,412,841,842,-1,412,842,843,-1,844,845,806,-1,806,845,846,-1,806,846,847,-1,811,848,628,-1,628,848,849,-1,628,849,804,-1,843,850,412,-1,412,850,851,-1,412,851,852,-1,853,854,617,-1,617,854,855,-1,617,855,856,-1,857,858,859,-1,859,858,860,-1,859,860,861,-1,861,860,862,-1,861,862,863,-1,863,862,864,-1,865,866,867,-1,823,822,859,-1,859,822,868,-1,859,868,857,-1,834,869,617,-1,617,869,870,-1,617,870,853,-1,847,871,806,-1,806,871,872,-1,806,872,873,-1,873,872,865,-1,873,865,874,-1,874,865,867,-1,812,686,875,-1,875,686,628,-1,875,628,876,-1,852,877,412,-1,412,877,878,-1,412,878,879,-1,879,880,412,-1,412,880,881,-1,412,881,882,-1,837,883,686,-1,686,883,884,-1,686,884,885,-1,886,887,686,-1,686,887,888,-1,686,888,816,-1,882,889,412,-1,412,889,890,-1,412,890,833,-1,856,864,617,-1,617,864,862,-1,617,862,806,-1,806,862,891,-1,806,891,844,-1,805,892,628,-1,628,892,893,-1,628,893,894,-1,895,886,896,-1,896,886,686,-1,896,686,897,-1,897,686,885,-1,898,899,628,-1,628,899,900,-1,628,900,876,-1,894,901,628,-1,628,901,902,-1,628,902,898,-1,692,747,686,-1,686,747,676,-1,686,676,628,-1,628,676,678,-1,628,678,669,-1,422,903,424,-1,424,903,904,-1,424,904,905,-1,905,904,906,-1,905,906,907,-1,907,906,908,-1,907,908,909,-1,909,908,910,-1,909,910,487,-1,487,910,485,-1,487,485,488,-1,488,485,483,-1,904,596,906,-1,906,596,580,-1,906,580,908,-1,908,580,566,-1,908,566,910,-1,910,566,554,-1,910,554,485,-1,485,554,545,-1,485,545,516,-1,516,545,523,-1,516,523,911,-1,911,523,525,-1,674,676,524,-1,524,676,747,-1,524,747,912,-1,912,747,748,-1,912,748,443,-1,913,441,914,-1,914,441,443,-1,914,443,915,-1,915,443,748,-1,915,748,777,-1,777,748,713,-1,777,713,775,-1,775,713,794,-1,775,794,916,-1,751,917,417,-1,417,917,918,-1,417,918,777,-1,777,918,919,-1,777,919,915,-1,915,919,920,-1,915,920,914,-1,914,920,450,-1,914,450,913,-1,913,450,449,-1,903,921,904,-1,904,921,922,-1,904,922,596,-1,596,922,923,-1,596,923,594,-1,594,923,924,-1,594,924,801,-1,801,924,925,-1,801,925,413,-1,413,925,926,-1,413,926,414,-1,414,926,927,-1,414,927,751,-1,751,927,472,-1,751,472,917,-1,917,472,474,-1,917,474,918,-1,918,474,928,-1,918,928,919,-1,919,928,929,-1,919,929,920,-1,920,929,930,-1,920,930,450,-1,450,930,931,-1,450,931,532,-1,532,931,932,-1,476,466,475,-1,475,466,465,-1,475,465,474,-1,474,465,933,-1,474,933,928,-1,928,933,934,-1,928,934,929,-1,929,934,935,-1,929,935,930,-1,930,935,936,-1,930,936,931,-1,931,936,501,-1,931,501,932,-1,932,501,502,-1,442,445,443,-1,443,445,937,-1,443,937,912,-1,912,937,522,-1,912,522,524,-1,524,522,521,-1,524,521,525,-1,500,938,495,-1,495,938,939,-1,495,939,448,-1,448,939,940,-1,448,940,446,-1,446,940,941,-1,446,941,445,-1,445,941,942,-1,445,942,937,-1,937,942,943,-1,937,943,522,-1,522,943,944,-1,522,944,526,-1,526,944,945,-1,526,945,519,-1,519,945,489,-1,519,489,484,-1,484,489,491,-1,484,491,482,-1,482,491,946,-1,482,946,16,-1,947,948,949,-1,949,948,950,-1,949,950,509,-1,951,952,953,-1,950,954,509,-1,509,954,953,-1,509,953,481,-1,481,953,952,-1,481,952,955,-1,947,956,957,-1,958,959,481,-1,481,959,960,-1,481,960,947,-1,947,960,961,-1,947,961,956,-1,956,961,962,-1,961,958,962,-1,962,958,481,-1,962,481,963,-1,963,481,955,-1,963,955,957,-1,957,955,964,-1,957,964,947,-1,947,964,951,-1,947,951,948,-1,948,951,953,-1,965,500,966,-1,966,500,967,-1,966,967,968,-1,490,500,969,-1,969,970,490,-1,490,970,971,-1,490,971,972,-1,972,971,973,-1,974,972,975,-1,975,972,973,-1,975,973,976,-1,972,977,978,-1,978,977,979,-1,978,979,500,-1,500,979,980,-1,500,980,967,-1,973,969,976,-1,976,969,500,-1,976,500,981,-1,981,500,965,-1,981,965,974,-1,974,965,982,-1,974,982,972,-1,972,982,968,-1,972,968,977,-1,977,968,967,-1,
        ]
    }
}

Shape{
    appearance Appearance {
        material  Material 	{
            diffuseColor 0.6470588235294118 0.6196078431372549 0.5882352941176471
            specularColor 0.45098039215686275 0.43529411764705883 0.4117647058823529
            ambientIntensity 0.6242
            transparency 0.0
            shininess 0.5
        }
    }
    geometry IndexedFaceSet {
        ccw TRUE
        solid FALSE
        coord DEF co Coordinate {
            point [
                0.2429 0.5402 0.0, 0.2429 0.5402 0.0197, 0.3414 0.5402 0.0, 0.3266 0.5402 0.0197, 0.3414 0.5402 0.0197, 0.2429 0.2607 0.0197, 0.2429 0.2607 0.0, 0.3266 0.2607 0.0197, 0.3414 0.2607 0.0, 0.3414 0.2607 0.0197, 0.0461 0.5402 0.0, 0.0461 0.5402 0.0197, 0.1445 0.5402 0.0, 0.1113 0.5402 0.0197, 0.1445 0.5402 0.0197, 0.0461 0.2607 0.0197, 0.0461 0.2607 0.0, 0.1113 0.2607 0.0197, 0.1445 0.2607 0.0, 0.1445 0.2607 0.0197, -0.1508 0.5402 0.0, -0.1508 0.5402 0.0197, -0.1308 0.5402 0.0197, -0.0523 0.5402 0.0, -0.0737 0.5402 0.0197, -0.0523 0.5402 0.0197, -0.1508 0.2607 0.0197, -0.1508 0.2607 0.0, -0.0523 0.2607 0.0, -0.0523 0.2607 0.0197, -0.0737 0.2607 0.0197, -0.1308 0.2607 0.0197, -0.3476 0.5402 0.0197, -0.2492 0.5402 0.0197, -0.3476 0.5402 0.0, -0.2492 0.5402 0.0, -0.3476 0.2607 0.0197, -0.3476 0.2607 0.0, -0.2492 0.2607 0.0197, -0.2492 0.2607 0.0, -0.0523 -0.5622 0.0, -0.0523 -0.5622 0.0197, -0.0737 -0.5622 0.0197, -0.1508 -0.5622 0.0, -0.1308 -0.5622 0.0197, -0.1508 -0.5622 0.0197, -0.0523 -0.2827 0.0197, -0.0523 -0.2827 0.0, -0.1508 -0.2827 0.0, -0.1508 -0.2827 0.0197, -0.1308 -0.2827 0.0197, -0.0737 -0.2827 0.0197, 0.0461 -0.5622 0.0197, 0.0461 -0.5622 0.0, 0.1113 -0.5622 0.0197, 0.1445 -0.5622 0.0, 0.1445 -0.5622 0.0197, 0.1445 -0.2827 0.0197, 0.1445 -0.2827 0.0, 0.0461 -0.2827 0.0, 0.0461 -0.2827 0.0197, 0.1113 -0.2827 0.0197, 0.2429 -0.5622 0.0197, 0.2429 -0.5622 0.0, 0.3266 -0.5622 0.0197, 0.3414 -0.5622 0.0, 0.3414 -0.5622 0.0197, 0.3414 -0.2827 0.0197, 0.3414 -0.2827 0.0, 0.2429 -0.2827 0.0, 0.2429 -0.2827 0.0197, 0.3266 -0.2827 0.0197, 0.3118 0.0284 0.0197, 0.3118 -0.0504 0.0197, 0.3118 0.0284 0.0, 0.3118 -0.0504 0.0, -0.3181 0.0284 0.0197, -0.2 0.0284 0.0197, -0.3181 0.0284 0.0, -0.1308 0.0284 0.0197, -0.0737 0.0284 0.0197, -0.0315 0.0284 0.0197, 0.0081 0.0284 0.0197, 0.0453 0.0284 0.0197, 0.1113 0.0284 0.0197, 0.1937 0.0284 0.0197, -0.2394 -0.0504 0.0197, -0.2394 -0.0504 0.0, 0.1937 -0.0504 0.0197, 0.1113 -0.0504 0.0197, 0.0453 -0.0504 0.0197, 0.0081 -0.0504 0.0197, -0.0315 -0.0504 0.0197, -0.0737 -0.0504 0.0197, -0.1308 -0.0504 0.0197, -0.2 -0.0504 0.0197, -0.2492 -0.5622 0.0197, -0.3476 -0.5622 0.0197, -0.2492 -0.5622 0.0, -0.3476 -0.5622 0.0, -0.2492 -0.2827 0.0197, -0.2492 -0.2827 0.0, -0.3476 -0.2827 0.0197, -0.3476 -0.2827 0.0
            ]
        }
        coordIndex [
            0,1,2,-1,2,1,3,-1,2,3,4,-1,5,1,6,-1,6,1,0,-1,5,6,7,-1,7,6,8,-1,7,8,9,-1,4,9,2,-1,2,9,8,-1,8,6,2,-1,2,6,0,-1,10,11,12,-1,12,11,13,-1,12,13,14,-1,15,11,16,-1,16,11,10,-1,15,16,17,-1,17,16,18,-1,17,18,19,-1,14,19,12,-1,12,19,18,-1,18,16,12,-1,12,16,10,-1,20,21,22,-1,20,22,23,-1,23,22,24,-1,23,24,25,-1,26,21,27,-1,27,21,20,-1,28,29,30,-1,28,30,27,-1,27,30,31,-1,27,31,26,-1,25,29,23,-1,23,29,28,-1,28,27,23,-1,23,27,20,-1,32,33,34,-1,34,33,35,-1,36,32,37,-1,37,32,34,-1,38,36,39,-1,39,36,37,-1,33,38,35,-1,35,38,39,-1,39,37,35,-1,35,37,34,-1,40,41,42,-1,40,42,43,-1,43,42,44,-1,43,44,45,-1,46,41,47,-1,47,41,40,-1,48,49,50,-1,48,50,47,-1,47,50,51,-1,47,51,46,-1,45,49,43,-1,43,49,48,-1,48,47,43,-1,43,47,40,-1,52,53,54,-1,54,53,55,-1,54,55,56,-1,57,56,58,-1,58,56,55,-1,59,60,58,-1,58,60,61,-1,58,61,57,-1,52,60,53,-1,53,60,59,-1,59,58,53,-1,53,58,55,-1,62,63,64,-1,64,63,65,-1,64,65,66,-1,67,66,68,-1,68,66,65,-1,69,70,68,-1,68,70,71,-1,68,71,67,-1,62,70,63,-1,63,70,69,-1,69,68,63,-1,63,68,65,-1,72,73,74,-1,74,73,75,-1,76,77,78,-1,78,77,79,-1,78,79,80,-1,80,81,78,-1,78,81,82,-1,78,82,74,-1,74,82,83,-1,83,84,74,-1,74,84,85,-1,74,85,72,-1,86,76,87,-1,87,76,78,-1,75,73,88,-1,88,89,75,-1,75,89,90,-1,75,90,87,-1,90,91,87,-1,87,91,92,-1,87,92,93,-1,93,94,87,-1,87,94,95,-1,87,95,86,-1,87,78,75,-1,75,78,74,-1,96,97,98,-1,98,97,99,-1,100,96,101,-1,101,96,98,-1,102,100,103,-1,103,100,101,-1,97,102,99,-1,99,102,103,-1,103,101,99,-1,99,101,98,-1,
        ]
    }
}

Shape{
    appearance Appearance {
        material  Material 	{
            diffuseColor 0.3 0.3 0.3
            specularColor 0.15 0.15 0.15
            ambientIntensity 0.1244
            transparency 0.0
            shininess 0.5
        }
    }
    geometry IndexedFaceSet {
        ccw TRUE
        solid FALSE
        coord DEF co Coordinate {
            point [
                -0.3575 0.5796 0.1772, -0.3575 0.5796 0.0197, -0.3677 0.5782 0.0197, -0.3677 0.5782 0.1772, -0.3771 0.5743 0.0197, -0.3771 0.5743 0.1772, -0.3853 0.568 0.0197, -0.3853 0.568 0.1772, -0.3916 0.5599 0.0197, -0.3916 0.5599 0.1772, -0.3955 0.5504 0.0197, -0.3955 0.5504 0.1772, -0.3968 0.5402 0.0197, -0.3968 0.5402 0.1772, 0.3019 0.5402 0.2165, 0.3512 0.5402 0.2165, 0.3512 0.5504 0.2152, 0.3512 0.5796 0.1772, -0.3575 0.5782 0.1874, 0.3512 0.5782 0.1874, -0.3575 0.5743 0.1969, 0.3512 0.5743 0.1969, -0.3575 0.568 0.205, 0.3512 0.568 0.205, -0.3575 0.5599 0.2113, 0.3512 0.5599 0.2113, -0.3575 0.5504 0.2152, -0.3575 0.5402 0.2165, -0.2488 0.5402 0.2165, -0.1853 0.5402 0.2165, -0.1613 0.5402 0.2165, -0.0627 0.5402 0.2165, 0.0251 0.5402 0.2165, 0.1676 0.5402 0.2165, 0.3906 0.5402 0.1772, 0.3906 0.5402 0.0197, 0.3892 0.5504 0.0197, 0.3892 0.5504 0.1772, 0.3853 0.5599 0.0197, 0.3853 0.5599 0.1772, 0.379 0.568 0.0197, 0.379 0.568 0.1772, 0.3709 0.5743 0.0197, 0.3709 0.5743 0.1772, 0.3614 0.5782 0.0197, 0.3614 0.5782 0.1772, 0.3512 0.5796 0.0197, -0.3955 0.5402 0.1874, -0.3942 0.55 0.1874, -0.3745 0.55 0.2113, -0.3663 0.5453 0.2152, -0.3647 0.5474 0.2152, -0.3601 0.55 0.2152, -0.3673 0.5428 0.2152, -0.3765 0.5453 0.2113, -0.3844 0.5474 0.205, -0.3677 0.5402 0.2152, -0.3714 0.5541 0.2113, -0.3626 0.549 0.2152, -0.3673 0.5572 0.2113, -0.3626 0.5592 0.2113, -0.3771 0.5402 0.2113, -0.3853 0.5402 0.205, -0.3916 0.5402 0.1969, -0.3816 0.5541 0.205, -0.3771 0.5599 0.205, -0.3714 0.5643 0.205, -0.3647 0.5671 0.205, -0.3904 0.549 0.1969, -0.387 0.5572 0.1969, -0.3816 0.5643 0.1969, -0.3745 0.5697 0.1969, -0.3663 0.5731 0.1969, -0.3904 0.5592 0.1874, -0.3844 0.5671 0.1874, -0.3765 0.5731 0.1874, -0.3673 0.5769 0.1874, 0.361 0.5769 0.1874, 0.361 0.5572 0.2113, 0.3563 0.549 0.2152, 0.3584 0.5474 0.2152, 0.3614 0.5402 0.2152, 0.361 0.5428 0.2152, 0.3538 0.55 0.2152, 0.3563 0.5592 0.2113, 0.3584 0.5671 0.205, 0.3651 0.5541 0.2113, 0.36 0.5453 0.2152, 0.3682 0.55 0.2113, 0.3702 0.5453 0.2113, 0.3709 0.5402 0.2113, 0.3651 0.5643 0.205, 0.3709 0.5599 0.205, 0.3753 0.5541 0.205, 0.3781 0.5474 0.205, 0.379 0.5402 0.205, 0.36 0.5731 0.1969, 0.3682 0.5697 0.1969, 0.3753 0.5643 0.1969, 0.3807 0.5572 0.1969, 0.3841 0.549 0.1969, 0.3853 0.5402 0.1969, 0.3702 0.5731 0.1874, 0.3781 0.5671 0.1874, 0.3841 0.5592 0.1874, 0.3879 0.55 0.1874, 0.3892 0.5402 0.1874, -0.3968 -0.5622 0.1772, -0.3968 -0.5622 0.0197, -0.3955 -0.5724 0.0197, -0.3955 -0.5724 0.1772, -0.3916 -0.5819 0.0197, -0.3916 -0.5819 0.1772, -0.3853 -0.59 0.0197, -0.3853 -0.59 0.1772, -0.3771 -0.5963 0.0197, -0.3771 -0.5963 0.1772, -0.3677 -0.6002 0.0197, -0.3677 -0.6002 0.1772, -0.3575 -0.6016 0.0197, -0.3575 -0.6016 0.1772, -0.3955 -0.5622 0.1874, -0.3575 -0.5622 0.2165, -0.3575 -0.5228 0.2165, -0.3677 -0.5622 0.2152, -0.3575 -0.1625 0.2165, -0.3575 0.0834 0.2165, -0.3575 0.2669 0.2165, -0.3575 0.084 0.2165, -0.3916 -0.5622 0.1969, -0.3853 -0.5622 0.205, -0.3771 -0.5622 0.2113, 0.3906 -0.5622 0.1772, 0.3892 -0.5622 0.1874, 0.3853 -0.5622 0.1969, 0.379 -0.5622 0.205, 0.3709 -0.5622 0.2113, 0.3614 -0.5622 0.2152, 0.3512 0.2669 0.2165, 0.3512 -0.5228 0.2165, 0.3512 -0.5622 0.2165, 0.3512 0.084 0.2165, 0.3512 0.0834 0.2165, 0.3512 -0.1625 0.2165, 0.3512 -0.6016 0.1772, 0.3512 -0.6016 0.0197, 0.3614 -0.6002 0.0197, 0.3614 -0.6002 0.1772, 0.3709 -0.5963 0.0197, 0.3709 -0.5963 0.1772, 0.379 -0.59 0.0197, 0.379 -0.59 0.1772, 0.3853 -0.5819 0.0197, 0.3853 -0.5819 0.1772, 0.3892 -0.5724 0.0197, 0.3892 -0.5724 0.1772, 0.3906 -0.5622 0.0197, -0.3575 -0.6002 0.1874, -0.3673 -0.5989 0.1874, -0.3673 -0.5792 0.2113, -0.3626 -0.571 0.2152, -0.3647 -0.5694 0.2152, -0.3673 -0.5648 0.2152, -0.3601 -0.572 0.2152, -0.3626 -0.5812 0.2113, -0.3647 -0.5891 0.205, -0.3575 -0.5724 0.2152, -0.3714 -0.5761 0.2113, -0.3663 -0.5673 0.2152, -0.3745 -0.572 0.2113, -0.3765 -0.5673 0.2113, -0.3575 -0.5819 0.2113, -0.3575 -0.59 0.205, -0.3575 -0.5963 0.1969, -0.3714 -0.5863 0.205, -0.3771 -0.5819 0.205, -0.3816 -0.5761 0.205, -0.3844 -0.5694 0.205, -0.3663 -0.5951 0.1969, -0.3745 -0.5917 0.1969, -0.3816 -0.5863 0.1969, -0.387 -0.5792 0.1969, -0.3904 -0.571 0.1969, -0.3765 -0.5951 0.1874, -0.3844 -0.5891 0.1874, -0.3904 -0.5812 0.1874, -0.3942 -0.572 0.1874, 0.3879 -0.572 0.1874, 0.3682 -0.572 0.2113, 0.36 -0.5673 0.2152, 0.3584 -0.5694 0.2152, 0.3512 -0.5724 0.2152, 0.3538 -0.572 0.2152, 0.361 -0.5648 0.2152, 0.3702 -0.5673 0.2113, 0.3781 -0.5694 0.205, 0.3651 -0.5761 0.2113, 0.3563 -0.571 0.2152, 0.361 -0.5792 0.2113, 0.3563 -0.5812 0.2113, 0.3512 -0.5819 0.2113, 0.3753 -0.5761 0.205, 0.3709 -0.5819 0.205, 0.3651 -0.5863 0.205, 0.3584 -0.5891 0.205, 0.3512 -0.59 0.205, 0.3841 -0.571 0.1969, 0.3807 -0.5792 0.1969, 0.3753 -0.5863 0.1969, 0.3682 -0.5917 0.1969, 0.36 -0.5951 0.1969, 0.3512 -0.5963 0.1969, 0.3841 -0.5812 0.1874, 0.3781 -0.5891 0.1874, 0.3702 -0.5951 0.1874, 0.361 -0.5989 0.1874, 0.3512 -0.6002 0.1874, 0.3019 -0.5622 0.2165, 0.1676 -0.5622 0.2165, 0.0251 -0.5622 0.2165, -0.0627 -0.5622 0.2165, -0.1613 -0.5622 0.2165, -0.1853 -0.5622 0.2165, -0.2488 -0.5622 0.2165
            ]
        }
        coordIndex [
            0,1,2,-1,0,2,3,-1,3,2,4,-1,3,4,5,-1,5,4,6,-1,5,6,7,-1,7,6,8,-1,7,8,9,-1,9,8,10,-1,9,10,11,-1,11,10,12,-1,11,12,13,-1,14,15,16,-1,17,0,18,-1,17,18,19,-1,19,18,20,-1,19,20,21,-1,21,20,22,-1,21,22,23,-1,23,22,24,-1,23,24,25,-1,25,24,26,-1,25,26,16,-1,27,28,26,-1,26,28,29,-1,26,29,30,-1,30,31,26,-1,26,31,32,-1,26,32,16,-1,16,32,33,-1,16,33,14,-1,34,35,36,-1,34,36,37,-1,37,36,38,-1,37,38,39,-1,39,38,40,-1,39,40,41,-1,41,40,42,-1,41,42,43,-1,43,42,44,-1,43,44,45,-1,45,44,46,-1,45,46,17,-1,13,47,48,-1,49,50,51,-1,27,26,52,-1,51,50,27,-1,53,27,50,-1,53,50,54,-1,54,50,49,-1,54,49,55,-1,56,27,53,-1,57,58,59,-1,59,58,52,-1,59,52,60,-1,60,52,26,-1,60,26,24,-1,56,53,61,-1,61,53,54,-1,61,54,62,-1,62,54,55,-1,62,55,63,-1,64,57,65,-1,65,57,59,-1,65,59,66,-1,66,59,60,-1,66,60,67,-1,67,60,24,-1,67,24,22,-1,68,64,69,-1,69,64,65,-1,69,65,70,-1,70,65,66,-1,70,66,71,-1,71,66,67,-1,71,67,72,-1,72,67,22,-1,72,22,20,-1,47,68,48,-1,48,68,69,-1,48,69,73,-1,73,69,70,-1,73,70,74,-1,74,70,71,-1,74,71,75,-1,75,71,72,-1,75,72,76,-1,76,72,20,-1,76,20,18,-1,13,48,11,-1,11,48,73,-1,11,73,9,-1,9,73,74,-1,9,74,7,-1,7,74,75,-1,7,75,5,-1,5,75,76,-1,5,76,3,-1,3,76,18,-1,3,18,0,-1,58,27,52,-1,47,63,68,-1,68,63,55,-1,68,55,64,-1,64,55,49,-1,64,49,57,-1,57,49,51,-1,57,51,58,-1,58,51,27,-1,17,19,77,-1,78,79,80,-1,15,81,82,-1,80,79,15,-1,83,15,79,-1,83,79,84,-1,84,79,78,-1,84,78,85,-1,16,15,83,-1,86,87,88,-1,88,87,82,-1,88,82,89,-1,89,82,81,-1,89,81,90,-1,16,83,25,-1,25,83,84,-1,25,84,23,-1,23,84,85,-1,23,85,21,-1,91,86,92,-1,92,86,88,-1,92,88,93,-1,93,88,89,-1,93,89,94,-1,94,89,90,-1,94,90,95,-1,96,91,97,-1,97,91,92,-1,97,92,98,-1,98,92,93,-1,98,93,99,-1,99,93,94,-1,99,94,100,-1,100,94,95,-1,100,95,101,-1,19,96,77,-1,77,96,97,-1,77,97,102,-1,102,97,98,-1,102,98,103,-1,103,98,99,-1,103,99,104,-1,104,99,100,-1,104,100,105,-1,105,100,101,-1,105,101,106,-1,17,77,45,-1,45,77,102,-1,45,102,43,-1,43,102,103,-1,43,103,41,-1,41,103,104,-1,41,104,39,-1,39,104,105,-1,39,105,37,-1,37,105,106,-1,37,106,34,-1,87,15,82,-1,19,21,96,-1,96,21,85,-1,96,85,91,-1,91,85,78,-1,91,78,86,-1,86,78,80,-1,86,80,87,-1,87,80,15,-1,107,108,109,-1,107,109,110,-1,110,109,111,-1,110,111,112,-1,112,111,113,-1,112,113,114,-1,114,113,115,-1,114,115,116,-1,116,115,117,-1,116,117,118,-1,118,117,119,-1,118,119,120,-1,13,107,121,-1,122,123,124,-1,124,123,125,-1,124,125,126,-1,127,27,56,-1,127,56,128,-1,13,121,47,-1,47,121,129,-1,47,129,63,-1,63,129,130,-1,63,130,62,-1,62,130,131,-1,62,131,61,-1,61,131,124,-1,61,124,56,-1,56,124,126,-1,56,126,128,-1,132,34,106,-1,132,106,133,-1,133,106,101,-1,133,101,134,-1,134,101,95,-1,134,95,135,-1,135,95,90,-1,135,90,136,-1,136,90,81,-1,136,81,137,-1,81,15,138,-1,139,140,137,-1,138,141,81,-1,81,141,142,-1,81,142,137,-1,137,142,143,-1,137,143,139,-1,144,145,146,-1,144,146,147,-1,147,146,148,-1,147,148,149,-1,149,148,150,-1,149,150,151,-1,151,150,152,-1,151,152,153,-1,153,152,154,-1,153,154,155,-1,155,154,156,-1,155,156,132,-1,120,157,158,-1,159,160,161,-1,122,124,162,-1,161,160,122,-1,163,122,160,-1,163,160,164,-1,164,160,159,-1,164,159,165,-1,166,122,163,-1,167,168,169,-1,169,168,162,-1,169,162,170,-1,170,162,124,-1,170,124,131,-1,166,163,171,-1,171,163,164,-1,171,164,172,-1,172,164,165,-1,172,165,173,-1,174,167,175,-1,175,167,169,-1,175,169,176,-1,176,169,170,-1,176,170,177,-1,177,170,131,-1,177,131,130,-1,178,174,179,-1,179,174,175,-1,179,175,180,-1,180,175,176,-1,180,176,181,-1,181,176,177,-1,181,177,182,-1,182,177,130,-1,182,130,129,-1,157,178,158,-1,158,178,179,-1,158,179,183,-1,183,179,180,-1,183,180,184,-1,184,180,181,-1,184,181,185,-1,185,181,182,-1,185,182,186,-1,186,182,129,-1,186,129,121,-1,120,158,118,-1,118,158,183,-1,118,183,116,-1,116,183,184,-1,116,184,114,-1,114,184,185,-1,114,185,112,-1,112,185,186,-1,112,186,110,-1,110,186,121,-1,110,121,107,-1,168,122,162,-1,157,173,178,-1,178,173,165,-1,178,165,174,-1,174,165,159,-1,174,159,167,-1,167,159,161,-1,167,161,168,-1,168,161,122,-1,132,133,187,-1,188,189,190,-1,140,191,192,-1,190,189,140,-1,193,140,189,-1,193,189,194,-1,194,189,188,-1,194,188,195,-1,137,140,193,-1,196,197,198,-1,198,197,192,-1,198,192,199,-1,199,192,191,-1,199,191,200,-1,137,193,136,-1,136,193,194,-1,136,194,135,-1,135,194,195,-1,135,195,134,-1,201,196,202,-1,202,196,198,-1,202,198,203,-1,203,198,199,-1,203,199,204,-1,204,199,200,-1,204,200,205,-1,206,201,207,-1,207,201,202,-1,207,202,208,-1,208,202,203,-1,208,203,209,-1,209,203,204,-1,209,204,210,-1,210,204,205,-1,210,205,211,-1,133,206,187,-1,187,206,207,-1,187,207,212,-1,212,207,208,-1,212,208,213,-1,213,208,209,-1,213,209,214,-1,214,209,210,-1,214,210,215,-1,215,210,211,-1,215,211,216,-1,132,187,155,-1,155,187,212,-1,155,212,153,-1,153,212,213,-1,153,213,151,-1,151,213,214,-1,151,214,149,-1,149,214,215,-1,149,215,147,-1,147,215,216,-1,147,216,144,-1,197,140,192,-1,133,134,206,-1,206,134,195,-1,206,195,201,-1,201,195,188,-1,201,188,196,-1,196,188,190,-1,196,190,197,-1,197,190,140,-1,120,144,216,-1,120,216,157,-1,157,216,211,-1,157,211,173,-1,173,211,205,-1,173,205,172,-1,172,205,200,-1,172,200,171,-1,171,200,191,-1,171,191,166,-1,191,140,217,-1,217,218,191,-1,191,218,219,-1,191,219,166,-1,166,219,220,-1,166,220,221,-1,221,222,166,-1,166,222,223,-1,166,223,122,-1,
        ]
    }
}

Shape{
    appearance Appearance {
        material  Material 	{
            diffuseColor 0.3 0.3 0.3
            specularColor 0.15 0.15 0.15
            ambientIntensity 0.1244
            transparency 0.0
            shininess 0.5
        }
    }
    geometry IndexedFaceSet {
        ccw TRUE
        solid FALSE
        coord DEF co Coordinate {
            point [
                -0.0979 -0.126 0.0197, -0.1009 -0.1289 0.0197, -0.0937 -0.0971 0.0197, -0.0863 -0.1304 0.0197, -0.0908 -0.1295 0.0197, -0.094 -0.1284 0.0197, -0.0951 -0.1279 0.0197, -0.0503 -0.093 0.0197, -0.0455 -0.0941 0.0197, -0.0667 -0.1179 0.0197, -0.0434 -0.095 0.0197, -0.0434 -0.155 0.0197, -0.0451 -0.155 0.0197, -0.0469 -0.155 0.0197, -0.0553 -0.0927 0.0197, -0.0519 -0.1544 0.0197, -0.0554 -0.1539 0.0197, -0.0579 -0.1533 0.0197, -0.0581 -0.0932 0.0197, -0.0654 -0.1025 0.0197, -0.0644 -0.0991 0.0197, -0.0597 -0.1525 0.0197, -0.0611 -0.1514 0.0197, -0.0624 -0.1497 0.0197, -0.0631 -0.0967 0.0197, -0.0617 -0.095 0.0197, -0.0603 -0.094 0.0197, -0.0647 -0.1444 0.0197, -0.0666 -0.1329 0.0197
            ]
        }
        coordIndex [
            0,1,2,-1,2,3,4,-1,4,5,2,-1,2,5,6,-1,2,6,0,-1,7,8,9,-1,10,11,8,-1,8,11,12,-1,8,12,13,-1,7,9,14,-1,13,15,8,-1,8,15,16,-1,8,16,17,-1,14,9,18,-1,18,9,19,-1,18,19,20,-1,17,21,8,-1,8,21,22,-1,8,22,23,-1,20,24,18,-1,18,24,25,-1,18,25,26,-1,23,27,8,-1,8,27,28,-1,8,28,9,-1,
        ]
    }
}

Shape{
    appearance Appearance {
        material  Material 	{
            diffuseColor 0.3 0.3 0.3
            specularColor 0.15 0.15 0.15
            ambientIntensity 0.1244
            transparency 0.0
            shininess 0.5
        }
    }
    geometry IndexedFaceSet {
        ccw TRUE
        solid FALSE
        coord DEF co Coordinate {
            point [
                0.228 0.2507 0.2165, 0.2241 0.2531 0.2165, 0.2206 0.1945 0.2165, 0.2101 0.2549 0.2165, 0.2068 0.2538 0.2165, 0.1935 0.2212 0.2165, 0.2043 0.2522 0.2165, 0.2029 0.251 0.2165, 0.1979 0.2045 0.2165, 0.2028 0.1979 0.2165, 0.2144 0.2554 0.2165, 0.2048 0.1962 0.2165, 0.2194 0.2548 0.2165, 0.2158 0.1943 0.2165, 0.1981 0.245 0.2165, 0.1952 0.2386 0.2165, 0.1932 0.2288 0.2165, 0.1951 0.2115 0.2165, 0.2065 0.1953 0.2165, 0.2098 0.1945 0.2165, 0.2309 0.2 0.2165, 0.224 0.1951 0.2165, 0.2282 0.1972 0.2165, 0.2262 0.1958 0.2165, 0.233 0.2038 0.2165, 0.236 0.2142 0.2165, 0.2371 0.2276 0.2165, 0.2354 0.2382 0.2165, 0.2327 0.2445 0.2165, 0.2304 0.2483 0.2165
            ]
        }
        coordIndex [
            0,1,2,-1,3,4,5,-1,5,4,6,-1,5,6,7,-1,8,9,10,-1,10,9,11,-1,1,12,2,-1,2,12,10,-1,2,10,13,-1,14,15,7,-1,7,15,16,-1,7,16,5,-1,3,5,10,-1,10,5,17,-1,10,17,8,-1,11,18,10,-1,10,18,19,-1,10,19,13,-1,20,21,22,-1,22,21,23,-1,20,24,21,-1,21,24,25,-1,21,25,26,-1,26,27,21,-1,21,27,28,-1,21,28,2,-1,2,28,29,-1,2,29,0,-1,
        ]
    }
}

Shape{
    appearance Appearance {
        material  Material 	{
            diffuseColor 0.3 0.3 0.3
            specularColor 0.15 0.15 0.15
            ambientIntensity 0.1244
            transparency 0.0
            shininess 0.5
        }
    }
    geometry IndexedFaceSet {
        ccw TRUE
        solid FALSE
        coord DEF co Coordinate {
            point [
                0.1966 0.1084 0.2165, 0.2011 0.102 0.2165, 0.2181 0.0952 0.2165, 0.1882 0.1381 0.2165, 0.2237 0.0959 0.2165, 0.2289 0.0978 0.2165, 0.1909 0.1216 0.2165, 0.2043 0.0988 0.2165, 0.2077 0.0968 0.2165, 0.2116 0.0956 0.2165, 0.2391 0.1109 0.2165, 0.2401 0.1133 0.2165, 0.2443 0.131 0.2165, 0.1935 0.1687 0.2165, 0.1898 0.1571 0.2165, 0.2188 0.1845 0.2165, 0.2241 0.1833 0.2165, 0.2322 0.0999 0.2165, 0.2352 0.1034 0.2165, 0.2447 0.1397 0.2165, 0.2427 0.1562 0.2165, 0.2371 0.1709 0.2165, 0.2329 0.1769 0.2165, 0.2278 0.1814 0.2165, 0.2104 0.1838 0.2165, 0.205 0.1816 0.2165, 0.217 0.1847 0.2165, 0.2 0.1779 0.2165, 0.1977 0.1754 0.2165, -0.0829 0.2215 0.2165, -0.1384 0.2164 0.2165, -0.0787 0.198 0.2165, -0.1427 0.1888 0.2165, -0.0778 0.185 0.2165, -0.1435 0.1776 0.2165, -0.0791 0.1572 0.2165, -0.1431 0.152 0.2165, -0.0843 0.1309 0.2165, -0.1176 0.2535 0.2165, -0.1214 0.2505 0.2165, -0.1281 0.2416 0.2165, -0.1126 0.2558 0.2165, -0.1155 0.094 0.2165, -0.1138 0.0938 0.2165, -0.0903 0.2419 0.2165, -0.0944 0.2484 0.2165, -0.0988 0.2526 0.2165, -0.1035 0.2554 0.2165, -0.1066 0.2564 0.2165, -0.1357 0.2257 0.2165, -0.1079 0.2566 0.2165, -0.1021 0.0976 0.2165, -0.1059 0.0953 0.2165, -0.1102 0.0939 0.2165, -0.0988 0.1007 0.2165, -0.0918 0.1115 0.2165, -0.1383 0.1261 0.2165, -0.1315 0.1082 0.2165, -0.1275 0.102 0.2165, -0.1235 0.0981 0.2165, -0.1188 0.0952 0.2165
            ]
        }
        coordIndex [
            0,1,2,-1,3,4,5,-1,4,3,2,-1,2,3,6,-1,2,6,0,-1,1,7,2,-1,2,7,8,-1,2,8,9,-1,10,11,3,-1,3,11,12,-1,13,14,15,-1,15,14,3,-1,15,3,16,-1,5,17,3,-1,3,17,18,-1,3,18,10,-1,12,19,3,-1,3,19,20,-1,3,20,21,-1,21,22,3,-1,3,22,23,-1,3,23,16,-1,24,25,26,-1,26,25,27,-1,26,27,15,-1,15,27,28,-1,15,28,13,-1,29,30,31,-1,31,30,32,-1,31,32,33,-1,33,32,34,-1,33,34,35,-1,35,34,36,-1,35,36,37,-1,38,39,40,-1,38,40,41,-1,42,43,37,-1,29,44,30,-1,30,44,45,-1,30,45,46,-1,46,47,30,-1,30,47,48,-1,30,48,49,-1,49,48,40,-1,40,48,50,-1,40,50,41,-1,51,43,52,-1,52,43,53,-1,51,54,43,-1,43,54,55,-1,43,55,37,-1,36,56,37,-1,37,56,57,-1,37,57,58,-1,58,59,37,-1,37,59,60,-1,37,60,42,-1,
        ]
    }
}

Shape{
    appearance Appearance {
        material  Material 	{
            diffuseColor 0.3 0.3 0.3
            specularColor 0.15 0.15 0.15
            ambientIntensity 0.404
            transparency 0.0
            shininess 0.5
        }
    }
    geometry IndexedFaceSet {
        ccw TRUE
        solid FALSE
        coord DEF co Coordinate {
            point [
                0.3414 -0.6016 0.0669, 0.3414 -0.6055 0.0669, 0.3414 -0.6016 0.0394, 0.3414 -0.6055 0.0394, 0.2429 -0.6016 0.0394, 0.2429 -0.6055 0.0394, 0.2429 -0.6016 0.0669, 0.2429 -0.6055 0.0669, 0.1445 -0.6016 0.0669, 0.1445 -0.6055 0.0669, 0.1445 -0.6016 0.0394, 0.1445 -0.6055 0.0394, 0.0461 -0.6016 0.0394, 0.0461 -0.6055 0.0394, 0.0461 -0.6016 0.0669, 0.0461 -0.6055 0.0669, -0.0523 -0.6016 0.0669, -0.0523 -0.6055 0.0669, -0.0523 -0.6016 0.0394, -0.0523 -0.6055 0.0394, -0.1508 -0.6016 0.0394, -0.1508 -0.6055 0.0394, -0.1508 -0.6016 0.0669, -0.1508 -0.6055 0.0669, -0.2492 -0.6016 0.0669, -0.2492 -0.6055 0.0669, -0.2492 -0.6016 0.0394, -0.2492 -0.6055 0.0394, -0.3476 -0.6016 0.0394, -0.3476 -0.6055 0.0394, -0.3476 -0.6016 0.0669, -0.3476 -0.6055 0.0669, -0.3968 -0.4539 0.0669, -0.4008 -0.4539 0.0669, -0.3968 -0.4539 0.0394, -0.4008 -0.4539 0.0394, -0.3968 -0.3555 0.0394, -0.4008 -0.3555 0.0394, -0.3968 -0.3555 0.0669, -0.4008 -0.3555 0.0669, -0.3968 -0.0602 0.0669, -0.4008 -0.0602 0.0669, -0.3968 -0.0602 0.0394, -0.4008 -0.0602 0.0394, -0.3968 0.0382 0.0394, -0.4008 0.0382 0.0394, -0.3968 0.0382 0.0669, -0.4008 0.0382 0.0669, -0.3968 0.3335 0.0669, -0.4008 0.3335 0.0669, -0.3968 0.3335 0.0394, -0.4008 0.3335 0.0394, -0.3968 0.4319 0.0394, -0.4008 0.4319 0.0394, -0.3968 0.4319 0.0669, -0.4008 0.4319 0.0669, -0.3476 0.5796 0.0669, -0.3476 0.5835 0.0669, -0.3476 0.5796 0.0394, -0.3476 0.5835 0.0394, -0.2492 0.5796 0.0394, -0.2492 0.5835 0.0394, -0.2492 0.5796 0.0669, -0.2492 0.5835 0.0669, 0.3906 0.3335 0.0394, 0.3945 0.3335 0.0394, 0.3906 0.3335 0.0669, 0.3945 0.3335 0.0669, 0.3906 0.4319 0.0669, 0.3945 0.4319 0.0669, 0.3906 0.4319 0.0394, 0.3945 0.4319 0.0394, -0.1508 0.5796 0.0669, -0.1508 0.5835 0.0669, -0.1508 0.5796 0.0394, -0.1508 0.5835 0.0394, -0.0523 0.5796 0.0394, -0.0523 0.5835 0.0394, -0.0523 0.5796 0.0669, -0.0523 0.5835 0.0669, 0.0461 0.5796 0.0669, 0.0461 0.5835 0.0669, 0.0461 0.5796 0.0394, 0.0461 0.5835 0.0394, 0.1445 0.5796 0.0394, 0.1445 0.5835 0.0394, 0.1445 0.5796 0.0669, 0.1445 0.5835 0.0669, 0.2429 0.5796 0.0669, 0.2429 0.5835 0.0669, 0.2429 0.5796 0.0394, 0.2429 0.5835 0.0394, 0.3414 0.5796 0.0394, 0.3414 0.5835 0.0394, 0.3414 0.5796 0.0669, 0.3414 0.5835 0.0669, 0.3906 -0.0602 0.0394, 0.3945 -0.0602 0.0394, 0.3906 -0.0602 0.0669, 0.3945 -0.0602 0.0669, 0.3906 0.0382 0.0669, 0.3945 0.0382 0.0669, 0.3906 0.0382 0.0394, 0.3945 0.0382 0.0394, 0.3906 -0.4539 0.0394, 0.3945 -0.4539 0.0394, 0.3906 -0.4539 0.0669, 0.3945 -0.4539 0.0669, 0.3906 -0.3555 0.0669, 0.3945 -0.3555 0.0669, 0.3906 -0.3555 0.0394, 0.3945 -0.3555 0.0394
            ]
        }
        coordIndex [
            0,1,2,-1,2,1,3,-1,4,5,6,-1,6,5,7,-1,7,1,6,-1,6,1,0,-1,2,3,4,-1,4,3,5,-1,1,7,3,-1,3,7,5,-1,8,9,10,-1,10,9,11,-1,12,13,14,-1,14,13,15,-1,15,9,14,-1,14,9,8,-1,10,11,12,-1,12,11,13,-1,9,15,11,-1,11,15,13,-1,16,17,18,-1,18,17,19,-1,20,21,22,-1,22,21,23,-1,23,17,22,-1,22,17,16,-1,18,19,20,-1,20,19,21,-1,17,23,19,-1,19,23,21,-1,24,25,26,-1,26,25,27,-1,28,29,30,-1,30,29,31,-1,31,25,30,-1,30,25,24,-1,26,27,28,-1,28,27,29,-1,25,31,27,-1,27,31,29,-1,32,33,34,-1,34,33,35,-1,36,37,38,-1,38,37,39,-1,38,39,32,-1,32,39,33,-1,35,37,34,-1,34,37,36,-1,33,39,35,-1,35,39,37,-1,40,41,42,-1,42,41,43,-1,44,45,46,-1,46,45,47,-1,46,47,40,-1,40,47,41,-1,43,45,42,-1,42,45,44,-1,41,47,43,-1,43,47,45,-1,48,49,50,-1,50,49,51,-1,52,53,54,-1,54,53,55,-1,54,55,48,-1,48,55,49,-1,51,53,50,-1,50,53,52,-1,49,55,51,-1,51,55,53,-1,56,57,58,-1,58,57,59,-1,60,61,62,-1,62,61,63,-1,63,57,62,-1,62,57,56,-1,58,59,60,-1,60,59,61,-1,57,63,59,-1,59,63,61,-1,64,65,66,-1,66,65,67,-1,68,69,70,-1,70,69,71,-1,66,67,68,-1,68,67,69,-1,71,65,70,-1,70,65,64,-1,69,67,71,-1,71,67,65,-1,72,73,74,-1,74,73,75,-1,76,77,78,-1,78,77,79,-1,79,73,78,-1,78,73,72,-1,74,75,76,-1,76,75,77,-1,73,79,75,-1,75,79,77,-1,80,81,82,-1,82,81,83,-1,84,85,86,-1,86,85,87,-1,87,81,86,-1,86,81,80,-1,82,83,84,-1,84,83,85,-1,81,87,83,-1,83,87,85,-1,88,89,90,-1,90,89,91,-1,92,93,94,-1,94,93,95,-1,95,89,94,-1,94,89,88,-1,90,91,92,-1,92,91,93,-1,89,95,91,-1,91,95,93,-1,96,97,98,-1,98,97,99,-1,100,101,102,-1,102,101,103,-1,98,99,100,-1,100,99,101,-1,103,97,102,-1,102,97,96,-1,101,99,103,-1,103,99,97,-1,104,105,106,-1,106,105,107,-1,108,109,110,-1,110,109,111,-1,106,107,108,-1,108,107,109,-1,111,105,110,-1,110,105,104,-1,109,107,111,-1,111,107,105,-1,
        ]
    }
}